<?xml version="1.0" encoding="UTF-8" standalone="no"?>
<svg width="135px" height="128px" viewBox="0 0 135 128" version="1.1" xmlns="http://www.w3.org/2000/svg" xmlns:xlink="http://www.w3.org/1999/xlink">
    <!-- Generator: Sketch 3.7.2 (28276) - http://www.bohemiancoding.com/sketch -->
    <title>earthquake</title>
    <desc>Created with Sketch.</desc>
    <defs>
        <path d="M101.52,40.27 C101.52,44.57 101.6,48.87 101.52,53.17 C101.44,56.25 102.97,57.27 105.82,57.23 C111.48,57.17 117.16,57.42 122.82,57.17 C126.82,56.99 128.18,58.7 128.16,62.41 C128.09,73.74 128.16,85.07 128.11,96.41 C128.11,103.56 127.96,110.72 128.11,117.87 C128.16,120.66 127.32,121.71 124.43,121.7 C84.6033333,121.626667 44.78,121.626667 4.96,121.7 C1.2,121.7 0.06,120.1 0.08,116.58 C0.17,98.58 0.2,80.58 0.08,62.58 C0.08,58.34 1.76,57.18 5.77,57.23 C20.6,57.41 35.43,57.23 50.26,57.38 C54.48,57.43 56.48,56.24 56.14,51.74 C55.86,48.12 56.08,44.46 56.08,39.33 C51.58,44.93 48.52,42.97 45.2,39.52 C43.38,37.63 43.2,36.52 44.94,34.67 C55.24,23.8033333 65.49,12.8866667 75.69,1.92 C77.82,-0.37 79.29,-0.81 81.69,1.79 C91.14,12.09 100.87,22.14 110.33,32.43 C112.12,34.38 116.33,36.2 111.88,39.92 C108.6,42.67 105.79,46.32 102.38,38.97 L101.52,40.27 Z M74.71,83.5 L76.06,83.5 C76.9802856,85.2346531 77.733671,87.0528234 78.31,88.93 C79.44,94.22 82.72,95.93 87.78,95.38 C88.93,95.24 90.14,95.51 91.27,95.32 C93.97,94.87 98.56,96.71 98.62,92.56 C98.7,87.74 93.81,89.56 91.12,89.64 C86.81,89.75 84.27,88.48 83.03,84.16 C81.7301573,80.0294896 80.2215508,75.9675999 78.51,71.99 C77.83,70.3 77.02,68.43 74.71,68.62 C72.4,68.81 72.06,70.77 71.53,72.54 C69.53,79.2533333 67.55,85.96 65.59,92.66 C65.18,94.02 65.32,96.15 63.53,96.18 C61.74,96.21 61.74,94.04 61.14,92.74 C59.26,88.66 57.62,84.45 55.58,80.45 C53.83,77.02 51.3,76.96 49.12,80.1 C48.1780552,81.4759053 47.3773336,82.9433365 46.73,84.48 C45.17,88.12 42.66,89.98 38.55,89.48 C36.7225333,89.343825 34.8874667,89.343825 33.06,89.48 C31.13,89.55 29.06,90 28.95,92.25 C28.79,94.72 30.95,95.03 32.83,95.11 C36.32,95.25 39.83,95.17 43.32,95.24 C45.8692825,95.4684556 48.3008605,94.1219791 49.46,91.84 C51.52,88 52.96,88.76 54.36,92.37 C56.23,97.18 58.36,101.9 60.36,106.64 C61.22,108.64 62.15,110.94 64.75,110.78 C67.2,110.63 67.53,108.22 68.15,106.36 C68.67,104.78 69.08,103.16 69.53,101.56 L74.71,83.5 Z M77.82,47.5 C85.41,47.08 85.61,46.75 85.23,38.89 C84.89,31.89 79.65,34.75 76.31,34.54 C68.89,34.08 72.06,39.97 71.59,43.43 C70.87,48.69 74.74,47.63 77.82,47.49 L77.82,47.5 Z" id="path-1"></path>
        <mask id="mask-2" maskContentUnits="userSpaceOnUse" maskUnits="objectBoundingBox" x="-3" y="-3" width="134.080475" height="127.68502">
            <rect x="-2.92025769" y="-2.98494977" width="134.080475" height="127.68502" fill="white"></rect>
            <use xlink:href="#path-1" fill="black"></use>
        </mask>
    </defs>
    <g id="Page-1" stroke="none" stroke-width="1" fill="none" fill-rule="evenodd">
        <g id="Artboard-1" transform="translate(-971.000000, -128.000000)">
            <g id="earthquake" transform="translate(974.000000, 131.000000)">
                <g id="Layer_1">
                    <g id="Shape">
                        <use fill="#FF5722" fill-rule="evenodd" xlink:href="#path-1"></use>
                        <use stroke="#FFFFFF" mask="url(#mask-2)" stroke-width="6" xlink:href="#path-1"></use>
                    </g>
                </g>
            </g>
        </g>
    </g>
</svg>