<svg id="Layer_1" data-name="Layer 1" xmlns="http://www.w3.org/2000/svg" viewBox="0 0 128.12 121.69"><title>earthquake</title><path d="M112.46,54.43c0,4.3.08,8.6,0,12.9-0.08,3.08,1.45,4.1,4.3,4.06,5.66-.06,11.34.19,17-0.06,4-.18,5.36,1.53,5.34,5.24-0.07,11.33,0,22.66-.05,34,0,7.15-.15,14.31,0,21.46,0.05,2.79-.79,3.84-3.68,3.83q-59.74-.11-119.47,0c-3.76,0-4.9-1.6-4.88-5.12,0.09-18,.12-36,0-54,0-4.24,1.68-5.4,5.69-5.35,14.83,0.18,29.66,0,44.49.15,4.22,0.05,6.22-1.14,5.88-5.64-0.28-3.62-.06-7.28-0.06-12.41-4.5,5.6-7.56,3.64-10.88.19-1.82-1.89-2-3-.26-4.85q15.45-16.3,30.75-32.75c2.13-2.29,3.6-2.73,6-.13,9.45,10.3,19.18,20.35,28.64,30.64,1.79,1.95,6,3.77,1.55,7.49-3.28,2.75-6.09,6.4-9.5-.95ZM85.65,97.66l1.35,0a31,31,0,0,1,2.25,5.43c1.13,5.29,4.41,7,9.47,6.45,1.15-.14,2.36.13,3.49-0.06,2.7-.45,7.29,1.39,7.35-2.76,0.08-4.82-4.81-3-7.5-2.92-4.31.11-6.85-1.16-8.09-5.48a128,128,0,0,0-4.52-12.17c-0.68-1.69-1.49-3.56-3.8-3.37S83,84.93,82.47,86.7q-3,10.07-5.94,20.12c-0.41,1.36-.27,3.49-2.06,3.52s-1.79-2.14-2.39-3.44c-1.88-4.08-3.52-8.29-5.56-12.29-1.75-3.43-4.28-3.49-6.46-.35a24.79,24.79,0,0,0-2.39,4.38c-1.56,3.64-4.07,5.5-8.18,5a36.94,36.94,0,0,0-5.49,0c-1.93.07-4,.52-4.11,2.77-0.16,2.47,2,2.78,3.88,2.86,3.49,0.14,7,.06,10.49.13A6.26,6.26,0,0,0,60.4,106c2.06-3.84,3.5-3.08,4.9.53,1.87,4.81,4,9.53,6,14.27,0.86,2,1.79,4.3,4.39,4.14,2.45-.15,2.78-2.56,3.4-4.42,0.52-1.58.93-3.2,1.38-4.8Zm3.11-36c7.59-.42,7.79-0.75,7.41-8.61-0.34-7-5.58-4.14-8.92-4.35-7.42-.46-4.25,5.43-4.72,8.89C81.81,62.85,85.68,61.79,88.76,61.65Z" transform="translate(-10.94 -14.16)"/></svg>