<?xml version="1.0" encoding="UTF-8" standalone="no"?>
<svg width="137px" height="116px" viewBox="0 0 137 116" version="1.1" xmlns="http://www.w3.org/2000/svg" xmlns:xlink="http://www.w3.org/1999/xlink">
    <!-- Generator: Sketch 3.7.2 (28276) - http://www.bohemiancoding.com/sketch -->
    <title>flood</title>
    <desc>Created with Sketch.</desc>
    <defs>
        <path d="M110.54,60.46 C108.54,67.72 106.85,74.12 105.11,80.46 C104.36,83.22 104.35,86.52 100.11,82.67 C95.57,78.58 88.9,79.96 84.8,85.38 C82.54,88.38 80.14,90.49 76.47,88.5 C73.05,86.65 72.6,83.31 73.58,79.78 C75.32,73.41 77.09,67 79,60.59 C79.93,57.42 79.2,55.59 75.73,54.82 C71.03,53.75 66.37,52.41 61.73,50.95 C58.8,50.02 57.54,50.95 56.73,53.81 C54,63.94 51,74 48.21,84.1 C47.29,87.38 46.4,87.87 43.91,84.95 C38.33,78.4 31.57,78.77 26.24,85.51 C25.7856829,86.2041103 25.266703,86.8536722 24.69,87.45 C22.8046839,89.2624102 19.943148,89.5976187 17.69,88.27 C15.37,86.98 16.42,84.81 16.95,82.9 C20.59,69.9 24.28,56.9 27.83,43.9 C28.28,42.26 29.88,40.21 28.18,38.81 C26.87,37.73 25.06,39.2 23.51,39.68 C22.2337645,40.0692196 20.9815911,40.5333585 19.76,41.07 C16.92,42.33 15.04,41.73 13.97,38.62 C9.97,26.8 7.81,28.7 20.02,24.14 C39.8333333,16.7466667 59.6,9.23333333 79.32,1.6 C82.8,0.25 84.84,1.06 86.98,3.82 C101.026667,21.98 115.143333,40.0866667 129.33,58.14 C131.92,61.43 131.33,63.4 128.14,65.84 C120.14,71.84 120.29,71.94 113.98,64.2 C113.18,63.22 112.23,62.29 110.54,60.46 L110.54,60.46 Z" id="path-1"></path>
        <mask id="mask-2" maskContentUnits="userSpaceOnUse" maskUnits="objectBoundingBox" x="-3" y="-3" width="126.127808" height="94.3178075">
            <rect x="7.82582054" y="-2.03937182" width="126.127808" height="94.3178075" fill="white"></rect>
            <use xlink:href="#path-1" fill="black"></use>
        </mask>
        <path d="M108.48,108.95 C103.12,109.08 98.48,105.23 93.73,105.23 C88.98,105.23 84.38,109.12 79,109 C75.46,108.89 71.91,108.41 68.87,106.65 C65.83,104.89 63.37,104.99 60.13,106.54 C53.38,109.76 46.25,110.04 39.43,106.49 C37.0560038,104.992421 34.0503877,104.923238 31.61,106.31 C22.550519,110.8639 11.6166413,109.321841 4.17,102.44 C1.34,99.72 -0.37,96.49 2.3,93.23 C4.97,89.97 8.02,92.17 10.71,94.01 C19.58,100.09 25.77,99.41 32.84,91.26 C34.84,88.99 36,88.98 37.93,91.18 C46.26,100.68 53.28,100.67 61.72,91.12 C63.91,88.64 65.27,89.06 67.24,91.4 C74.61,100.18 83.4,100.09 90.65,91.32 C92.65,88.91 94.24,88.32 96.51,91.32 C102.51,99.18 110.51,100.14 118.19,94.04 C121.19,91.68 124.19,90.42 126.94,93.65 C129.69,96.88 127.94,99.9 125.26,102.34 C120.667045,106.527379 114.694859,108.879951 108.48,108.95 L108.48,108.95 Z" id="path-3"></path>
        <mask id="mask-4" maskContentUnits="userSpaceOnUse" maskUnits="objectBoundingBox" x="-3" y="-3" width="133.360761" height="25.7692288">
            <rect x="-2.0336251" y="86.2852532" width="133.360761" height="25.7692288" fill="white"></rect>
            <use xlink:href="#path-3" fill="black"></use>
        </mask>
    </defs>
    <g id="Page-1" stroke="none" stroke-width="1" fill="none" fill-rule="evenodd">
        <g id="Artboard-1" transform="translate(-15.000000, -37.000000)">
            <g id="flood" transform="translate(18.000000, 40.000000)">
                <g id="Layer_1">
                    <g id="Shape">
                        <use fill="#FF5722" fill-rule="evenodd" xlink:href="#path-1"></use>
                        <use stroke="#FFFFFF" mask="url(#mask-2)" stroke-width="6" xlink:href="#path-1"></use>
                    </g>
                    <g id="Shape">
                        <use fill="#FF5722" fill-rule="evenodd" xlink:href="#path-3"></use>
                        <use stroke="#FFFFFF" mask="url(#mask-4)" stroke-width="6" xlink:href="#path-3"></use>
                    </g>
                </g>
            </g>
        </g>
    </g>
</svg>