<svg id="Layer_1" data-name="Layer 1" xmlns="http://www.w3.org/2000/svg" viewBox="0 0 130.01 108.01"><title>flood</title><path d="M119.54,80.46c-2,7.26-3.69,13.66-5.43,20-0.75,2.76-.76,6.06-5,2.21-4.54-4.09-11.21-2.71-15.31,2.71-2.26,3-4.66,5.11-8.33,3.12-3.42-1.85-3.87-5.19-2.89-8.72C84.32,93.41,86.09,87,88,80.59c0.93-3.17.2-5-3.27-5.77-4.7-1.07-9.36-2.41-14-3.87-2.93-.93-4.19,0-5,2.86C63,83.94,60,94,57.21,104.1c-0.92,3.28-1.81,3.77-4.3.85-5.58-6.55-12.34-6.18-17.67.56a13.15,13.15,0,0,1-1.55,1.94,5.83,5.83,0,0,1-7,.82c-2.32-1.29-1.27-3.46-.74-5.37,3.64-13,7.33-26,10.88-39,0.45-1.64,2.05-3.69.35-5.09-1.31-1.08-3.12.39-4.67,0.87a33.94,33.94,0,0,0-3.75,1.39c-2.84,1.26-4.72.66-5.79-2.45-4-11.82-6.16-9.92,6.05-14.48q29.72-11.09,59.3-22.54c3.48-1.35,5.52-.54,7.66,2.22q21.07,27.24,42.35,54.32c2.59,3.29,2,5.26-1.19,7.7-8,6-7.85,6.1-14.16-1.64C122.18,83.22,121.23,82.29,119.54,80.46Z" transform="translate(-10 -21)"/><path d="M117.48,128.95c-5.36.13-10-3.72-14.75-3.72S93.38,129.12,88,129c-3.54-.11-7.09-0.59-10.13-2.35s-5.5-1.66-8.74-.11c-6.75,3.22-13.88,3.5-20.7-.05a7.61,7.61,0,0,0-7.82-.18,24.33,24.33,0,0,1-27.44-3.87c-2.83-2.72-4.54-5.95-1.87-9.21s5.72-1.06,8.41.78c8.87,6.08,15.06,5.4,22.13-2.75,2-2.27,3.16-2.28,5.09-.08,8.33,9.5,15.35,9.49,23.79-.06,2.19-2.48,3.55-2.06,5.52.28,7.37,8.78,16.16,8.69,23.41-.08,2-2.41,3.59-3,5.86,0,6,7.86,14,8.82,21.68,2.72,3-2.36,6-3.62,8.75-.39s1,6.25-1.68,8.69A25.33,25.33,0,0,1,117.48,128.95Z" transform="translate(-10 -21)"/></svg>