<svg id="Layer_1" data-name="Layer 1" xmlns="http://www.w3.org/2000/svg" viewBox="0 0 126.73 126.29"><title>house_fire</title><path d="M101.55,30.6c1.5,8.84-1.2,16.74-5.53,24.12-4.13,7-9,13.66-12.93,20.77-12.55,22.49-4.74,46.9,18.46,58.45,1.77,0.88,3.54,1.73,5.43,2.66-5.45,3.82-22.78-4.37-29.68-11.2-8.31-8.22-12-18.51-12.66-30.73-3.42,3.38-4.07,7-4.11,10.78-0.09,9.16-.18,18.32,0,27.48,0.08,4-1.48,5.33-5.3,5.21-6-.18-12-0.2-18,0-3.95.13-5.25-1.53-5.22-5.33,0.12-12.66,0-25.32,0-38,0-1.13.47-2.63-.56-3.28-1.4-.89-2.42.61-3.45,1.32-8.2,5.66-8,5.49-14.24-2.2-3.13-3.83-3-5.89,1.49-8,2.07-1,3.61-3.06,5.67-4C30.69,74,33.14,66.33,32.39,55.9c-0.89-12.24-1.61-11.48,10.9-11.21a16.37,16.37,0,0,0,3.49-.08c4.39-.87,6.26.79,5.8,5.28-0.13,1.24-.64,3,0.66,3.71,1.64,0.9,2.65-.95,3.78-1.75,4.61-3.29,9.2-6.62,13.62-10.14,2.56-2,4.76-1.84,7.17,0,2.75,2.15,5.57,4.22,8.36,6.33S91,49.52,93,46.9A49.44,49.44,0,0,0,101.55,30.6Z" transform="translate(-11.63 -11.85)"/><path d="M110.46,11.85c14.33,9.47,20.9,23,18.43,39.21a67.14,67.14,0,0,1-7.54,22.05c-2.54,4.67-5.13,9.31-7.47,14.08s-4.55,9.46-5.73,14.77c-4.18-6.12-3.6-12.68-2.7-19.14,1.26-9,5.64-17,9.19-25.21,4.74-11,7-22.08,2.53-33.84C115.7,19.85,112.86,16.81,110.46,11.85Z" transform="translate(-11.63 -11.85)"/><path d="M123,127.79c-3-5.84-3.49-10.6-2.33-15.52a36.75,36.75,0,0,1,5.82-12.58c3.86-5.56,8-10.93,10-17.52,2.43,0.68,1.81,2.25,1.83,3.41A28.82,28.82,0,0,1,134,102.22C129,109.75,124.51,117.38,123,127.79Z" transform="translate(-11.63 -11.85)"/></svg>