<?xml version="1.0" encoding="UTF-8" standalone="no"?>
<svg width="133px" height="139px" viewBox="0 0 133 139" version="1.1" xmlns="http://www.w3.org/2000/svg" xmlns:xlink="http://www.w3.org/1999/xlink">
    <!-- Generator: Sketch 3.7.2 (28276) - http://www.bohemiancoding.com/sketch -->
    <title>house_fire</title>
    <desc>Created with Sketch.</desc>
    <defs>
        <path d="M90.92,18.75 C92.42,27.59 89.72,35.49 85.39,42.87 C81.26,49.87 76.39,56.53 72.46,63.64 C59.91,86.13 67.72,110.54 90.92,122.09 C92.69,122.97 94.46,123.82 96.35,124.75 C90.9,128.57 73.57,120.38 66.67,113.55 C58.36,105.33 54.67,95.04 54.01,82.82 C50.59,86.2 49.94,89.82 49.9,93.6 C49.81,102.76 49.72,111.92 49.9,121.08 C49.98,125.08 48.42,126.41 44.6,126.29 C38.6,126.11 32.6,126.09 26.6,126.29 C22.65,126.42 21.35,124.76 21.38,120.96 C21.5,108.3 21.38,95.64 21.38,82.96 C21.38,81.83 21.85,80.33 20.82,79.68 C19.42,78.79 18.4,80.29 17.37,81 C9.17,86.66 9.37,86.49 3.13,78.8 C2.12052598e-14,74.97 0.13,72.91 4.62,70.8 C6.69,69.8 8.23,67.74 10.29,66.8 C20.06,62.15 22.51,54.48 21.76,44.05 C20.87,31.81 20.15,32.57 32.66,32.84 C33.8228594,32.9378051 34.9928435,32.9109859 36.15,32.76 C40.54,31.89 42.41,33.55 41.95,38.04 C41.82,39.28 41.31,41.04 42.61,41.75 C44.25,42.65 45.26,40.8 46.39,40 C51,36.71 55.59,33.38 60.01,29.86 C62.57,27.86 64.77,28.02 67.18,29.86 C69.93,32.01 72.75,34.08 75.54,36.19 C78.33,38.3 80.37,37.67 82.37,35.05 C86.2151949,30.199767 89.1154472,24.6706311 90.92,18.75 L90.92,18.75 Z" id="path-1"></path>
        <mask id="mask-2" maskContentUnits="userSpaceOnUse" maskUnits="objectBoundingBox" x="-3" y="-3" width="101.364955" height="113.547364">
            <rect x="-2.01495547" y="15.75" width="101.364955" height="113.547364" fill="white"></rect>
            <use xlink:href="#path-1" fill="black"></use>
        </mask>
        <path d="M99.83,0 C114.16,9.47 120.73,23 118.26,39.21 C117.051183,46.9433186 114.499421,54.4056996 110.72,61.26 C108.18,65.93 105.59,70.57 103.25,75.34 C100.91,80.11 98.7,84.8 97.52,90.11 C93.34,83.99 93.92,77.43 94.82,70.97 C96.08,61.97 100.46,53.97 104.01,45.76 C108.75,34.76 111.01,23.68 106.54,11.92 C105.07,8 102.23,4.96 99.83,0 L99.83,0 Z" id="path-3"></path>
        <mask id="mask-4" maskContentUnits="userSpaceOnUse" maskUnits="objectBoundingBox" x="-3" y="-3" width="30.5933064" height="96.11">
            <rect x="91.1761643" y="-3" width="30.5933064" height="96.11" fill="white"></rect>
            <use xlink:href="#path-3" fill="black"></use>
        </mask>
        <path d="M112.37,115.94 C109.37,110.1 108.88,105.34 110.04,100.42 C111.164475,95.8954599 113.139601,91.6262033 115.86,87.84 C119.72,82.28 123.86,76.91 125.86,70.32 C128.29,71 127.67,72.57 127.69,73.73 C127.9764,79.5869933 126.469332,85.391995 123.37,90.37 C118.37,97.9 113.88,105.53 112.37,115.94 L112.37,115.94 Z" id="path-5"></path>
        <mask id="mask-6" maskContentUnits="userSpaceOnUse" maskUnits="objectBoundingBox" x="-3" y="-3" width="24.2853193" height="51.62">
            <rect x="106.461362" y="67.32" width="24.2853193" height="51.62" fill="white"></rect>
            <use xlink:href="#path-5" fill="black"></use>
        </mask>
    </defs>
    <g id="Page-1" stroke="none" stroke-width="1" fill="none" fill-rule="evenodd">
        <g id="Artboard-1" transform="translate(-121.000000, -141.000000)">
            <g id="house_fire" transform="translate(123.000000, 150.000000)">
                <g id="Layer_1">
                    <g id="Shape">
                        <use fill="#FF5722" fill-rule="evenodd" xlink:href="#path-1"></use>
                        <use stroke="#FFFFFF" mask="url(#mask-2)" stroke-width="6" xlink:href="#path-1"></use>
                    </g>
                    <g id="Shape">
                        <use fill="#FF5722" fill-rule="evenodd" xlink:href="#path-3"></use>
                        <use stroke="#FFFFFF" mask="url(#mask-4)" stroke-width="6" xlink:href="#path-3"></use>
                    </g>
                    <g id="Shape">
                        <use fill="#FF5722" fill-rule="evenodd" xlink:href="#path-5"></use>
                        <use stroke="#FFFFFF" mask="url(#mask-6)" stroke-width="6" xlink:href="#path-5"></use>
                    </g>
                </g>
            </g>
        </g>
    </g>
</svg>