<svg id="Layer_1" data-name="Layer 1" xmlns="http://www.w3.org/2000/svg" viewBox="0 0 127.24 126.21"><title>ice_sea</title><path d="M75,73.7q-28.23,0-56.46,0a37.28,37.28,0,0,1-5-.25c-1.55-.21-2.16-1.35-2.16-2.87a2.57,2.57,0,0,1,2.17-2.88,16.19,16.19,0,0,1,2-.21c9.53-.74,9.53-0.74,12.47-9.88,0.66-2.06,1.4-4.1,2-6.19,1-3.47,3.05-5,6.67-4.24,2.87,0.57,5.67.19,6.48-3C45.25,35.64,54,32.27,57.65,24.91c1.91-3.83,5.05-7,7.35-10.67,1.78-2.83,3.48-3,6-1q8.56,6.88,17.31,13.52c2.3,1.75,3.63,3.77,3.34,6.76-0.25,2.57.47,3.63,3.43,2.64,2.73-.91,5.42-4.47,8.06-2.45,2.06,1.58,2.57,5.22,3.74,7.95,3.08,7.19,6.25,14.35,9.18,21.6,1.24,3.08,3.16,4.36,6.47,4.2,3.82-.19,7.66-0.05,11.49,0,2.17,0,4.63-.1,4.59,3.13s-2.57,3.07-4.69,3.07q-29.48.07-59,0v0ZM60.09,54.11c-2.37-1.9-2.37-4.68-3.26-7.06s-2.21-3.74-4.67-3.82S49.43,45.34,48.75,47c-1.43,3.4-2.48,7-7.38,6.75-2.3-.1-2.71,1.42-1.66,3.42,0.5,1,1.55,1.85.67,3.39-1.54-.09-2.44-1.4-3.61-2.18-0.71-.47-1.66-1-2.18-0.12-1.36,2.29-2.7,4.9-2.31,7.47s3.24,1.69,5,1.71c13.15,0.09,26.3.05,39.45,0.05,10,0,20,0,30,0,1.91,0,4.6.44,3.21-3-2.64-6.57-5.4-13.1-8.05-19.51-3.2.65-.9,5.18-3.79,4.63-2.62-.5-2.56-3.74-2.88-6.06-9,2.41-8.51,11.81-13.36,17.22-2-1.93-1.1-4.18-1.22-6.23-0.29-4.94,1.24-10.11-.89-14.78C77.15,33.93,73.92,28.46,71,22.88c-1.19-2.24-2.54-3.1-4.33-.48-2.91,4.26-5.86,8.48-8.81,12.72-0.86,1.24-1.09,2.36.22,3.5C63.3,43.23,59.78,48.87,60.09,54.11Z" transform="translate(-11.38 -11.9)"/><path d="M42.77,123.11c-1.31.26-2.07-.12-2.3-1-1-3.69-1.9-7.39-2.75-11.1a1.36,1.36,0,0,1,1.43-1.65c1.66-.11,3.67-0.36,4.25,1.65,1.08,3.73,3,2.78,5.1,1.18,2.82-2.16,4.77-1,6.79,1.3,3,3.43,5.6,7.08,11.46,6.18,3.38-.52,5.21,3.69,7.55,5.93,4.66,4.46,4.57,4.55,8.73-.08a18.69,18.69,0,0,1,2.06-2.16c2-1.6,4.69-2.29,6.36-.6s-1,3.1-2,4.45c-2.17,2.93-4.57,5.69-6.75,8.61-2,2.71-3.93,3.25-6.33.38-1.7-2-3.74-3.78-5.55-5.73-2.54-2.72-5-5.19-9.37-4-2.62.72-4.23-1.66-5.52-3.56-3-4.49-6.37-5.29-10.5-1.43A13.45,13.45,0,0,1,42.77,123.11Z" transform="translate(-11.38 -11.9)"/><path d="M41.34,105.35c-4.31,0-8.62,0-12.93,0-0.9,0-2.17-.23-2-1.64,0.15-1,1.17-1.07,2-1.14a23.43,23.43,0,0,1,3-.11c2.84,0.1,4-1,3.2-3.94-0.55-1.92-1-3.87-1.38-5.82-0.28-1.29-.77-2.87,1.11-3.24,1.56-.31,3.41-0.69,4.45,1.17A8.85,8.85,0,0,1,39.58,93c2.47,11,1.26,9.33,12.36,9.49,0.83,0,1.66,0,2.49.07,1,0.07,2.25.18,2.18,1.46s-1.33,1.41-2.32,1.42c-4.32,0-8.63,0-13,0v-0.05Z" transform="translate(-11.38 -11.9)"/><path d="M111.65,90l-7.92,6.09c0.16,1.77,2.89.61,2.57,2.46-0.27,1.57-1.69,2-3.05,2q-12.93.06-25.86,0c-1,0-2.2-.33-2.14-1.55s1.29-1.4,2.29-1.42q7-.1,13.93-0.1c2.29,0,4.24-.44,5.42-2.7C99.79,89.18,104.67,88.85,111.65,90Z" transform="translate(-11.38 -11.9)"/><path d="M110.51,117.07a135.34,135.34,0,0,1-29.63,1,1.08,1.08,0,0,1-1.22-1.22,1.53,1.53,0,0,1,.9-1,10.33,10.33,0,0,1,3.45-.34c7.31,1,11-3.21,13.13-9.23,0.94-2.62,2.78-2.26,4.38-1.8,2.46,0.71,2.63,3,1.84,4.93s-2.28,3.5-3.56,5.38C103.45,116.36,107.39,114.22,110.51,117.07Z" transform="translate(-11.38 -11.9)"/><path d="M129.45,85.16H89.8l-0.07-1.38c4.41-1,9-.28,13.45-0.47,2.92-.13,6.27.7,6.54-4,0.07-1.29,1.34-1.78,2.63-1.81,1.47,0,2.91.4,3.05,1.94,0.38,4.19,3.31,3.74,6.18,3.86C124.23,83.44,127.05,82.66,129.45,85.16Z" transform="translate(-11.38 -11.9)"/><path d="M15.6,85c3.54-2.49,7.43-1.17,11.1-2a2.13,2.13,0,0,0,.3-0.89c-0.33-1.53-2.91-3-1.42-4.25s5-1.24,6,.36c3.94,6.66,10.22,4.79,15.94,5.13a5.41,5.41,0,0,1,1.46.27A9,9,0,0,1,50.45,85H15.6Z" transform="translate(-11.38 -11.9)"/></svg>