<?xml version="1.0" encoding="UTF-8" standalone="no"?>
<svg width="134px" height="132px" viewBox="0 0 134 132" version="1.1" xmlns="http://www.w3.org/2000/svg" xmlns:xlink="http://www.w3.org/1999/xlink">
    <!-- Generator: Sketch 3.7.2 (28276) - http://www.bohemiancoding.com/sketch -->
    <title>ice_sea</title>
    <desc>Created with Sketch.</desc>
    <defs>
        <path d="M63.6425927,61.7979301 L7.18259266,61.7979301 C5.51220705,61.8267238 3.84177498,61.7432021 2.18259266,61.5479301 C0.632592658,61.3379301 0.0225926579,60.1979301 0.0225926579,58.6779301 C-0.161967106,57.2864089 0.804126572,56.00422 2.19259266,55.7979301 C2.8542636,55.6865537 3.52221847,55.6164184 4.19259266,55.5879301 C13.7225927,54.8479301 13.7225927,54.8479301 16.6625927,45.7079301 C17.3225927,43.6479301 18.0625927,41.6079301 18.6625927,39.5179301 C19.6625927,36.0479301 21.7125927,34.5179301 25.3325927,35.2779301 C28.2025927,35.8479301 31.0025927,35.4679301 31.8125927,32.2779301 C33.8925927,23.7379301 42.6425927,20.3679301 46.2925927,13.0079301 C48.2025927,9.17793011 51.3425927,6.00793011 53.6425927,2.33793011 C55.4225927,-0.492069895 57.1225927,-0.662069895 59.6425927,1.33793011 C65.3492593,5.92459677 71.1192593,10.4312634 76.9525927,14.8579301 C79.2525927,16.6079301 80.5825927,18.6279301 80.2925927,21.6179301 C80.0425927,24.1879301 80.7625927,25.2479301 83.7225927,24.2579301 C86.4525927,23.3479301 89.1425927,19.7879301 91.7825927,21.8079301 C93.8425927,23.3879301 94.3525927,27.0279301 95.5225927,29.7579301 C98.6025927,36.9479301 101.772593,44.1079301 104.702593,51.3579301 C105.942593,54.4379301 107.862593,55.7179301 111.172593,55.5579301 C114.992593,55.3679301 118.832593,55.5079301 122.662593,55.5579301 C124.832593,55.5579301 127.292593,55.4579301 127.252593,58.6879301 C127.212593,61.9179301 124.682593,61.7579301 122.562593,61.7579301 C102.909259,61.8045968 83.2425927,61.8045968 63.5625927,61.7579301 L63.5625927,61.7579301 L63.6425927,61.7979301 Z M48.7325927,42.2079301 C46.3625927,40.3079301 46.3625927,37.5279301 45.4725927,35.1479301 C44.5825927,32.7679301 43.2625927,31.4079301 40.8025927,31.3279301 C38.3425927,31.2479301 38.0725927,33.4379301 37.3925927,35.0979301 C35.9625927,38.4979301 34.9125927,42.0979301 30.0125927,41.8479301 C27.7125927,41.7479301 27.3025927,43.2679301 28.3525927,45.2679301 C28.8525927,46.2679301 29.9025927,47.1179301 29.0225927,48.6579301 C27.4825927,48.5679301 26.5825927,47.2579301 25.4125927,46.4779301 C24.7025927,46.0079301 23.7525927,45.4779301 23.2325927,46.3579301 C21.8725927,48.6479301 20.5325927,51.2579301 20.9225927,53.8279301 C21.3125927,56.3979301 24.1625927,55.5179301 25.9225927,55.5379301 C39.0725927,55.6279301 52.2225927,55.5879301 65.3725927,55.5879301 L95.3725927,55.5879301 C97.2825927,55.5879301 99.9725927,56.0279301 98.5825927,52.5879301 C95.9425927,46.0179301 93.1825927,39.4879301 90.5325927,33.0779301 C87.3325927,33.7279301 89.6325927,38.2579301 86.7425927,37.7079301 C84.1225927,37.2079301 84.1825927,33.9679301 83.8625927,31.6479301 C74.8625927,34.0579301 75.3525927,43.4579301 70.5025927,48.8679301 C68.5025927,46.9379301 69.4025927,44.6879301 69.2825927,42.6379301 C68.9925927,37.6979301 70.5225927,32.5279301 68.3925927,27.8579301 C65.7925927,22.0279301 62.5625927,16.5579301 59.6425927,10.9779301 C58.4525927,8.73793011 57.1025927,7.87793011 55.3125927,10.4979301 C52.4025927,14.7579301 49.4525927,18.9779301 46.5025927,23.2179301 C45.6425927,24.4579301 45.4125927,25.5779301 46.7225927,26.7179301 C51.9425927,31.3279301 48.4225927,36.9679301 48.7325927,42.2079301 L48.7325927,42.2079301 Z" id="path-1"></path>
        <mask id="mask-2" maskContentUnits="userSpaceOnUse" maskUnits="objectBoundingBox" x="-3" y="-3" width="133.253074" height="67.8034675">
            <rect x="-3" y="-3" width="133.253074" height="67.8034675" fill="white"></rect>
            <use xlink:href="#path-1" fill="black"></use>
        </mask>
        <path d="M31.0821385,110.822643 C29.7721385,111.082643 29.0121385,110.702643 28.7821385,109.822643 C27.7821385,106.132643 26.8821385,102.432643 26.0321385,98.7226433 C25.9391775,98.3025475 26.0504894,97.8632397 26.3322787,97.5380981 C26.6140681,97.2129566 27.0330949,97.0403351 27.4621385,97.0726433 C29.1221385,96.9626433 31.1321385,96.7126433 31.7121385,98.7226433 C32.7921385,102.452643 34.7121385,101.502643 36.8121385,99.9026433 C39.6321385,97.7426433 41.5821385,98.9026433 43.6021385,101.202643 C46.6021385,104.632643 49.2021385,108.282643 55.0621385,107.382643 C58.4421385,106.862643 60.2721385,111.072643 62.6121385,113.312643 C67.2721385,117.772643 67.1821385,117.862643 71.3421385,113.232643 C71.9701225,112.458876 72.6589853,111.736573 73.4021385,111.072643 C75.4021385,109.472643 78.0921385,108.782643 79.7621385,110.472643 C81.4321385,112.162643 78.7621385,113.572643 77.7621385,114.922643 C75.5921385,117.852643 73.1921385,120.612643 71.0121385,123.532643 C69.0121385,126.242643 67.0821385,126.782643 64.6821385,123.912643 C62.9821385,121.912643 60.9421385,120.132643 59.1321385,118.182643 C56.5921385,115.462643 54.1321385,112.992643 49.7621385,114.182643 C47.1421385,114.902643 45.5321385,112.522643 44.2421385,110.622643 C41.2421385,106.132643 37.8721385,105.332643 33.7421385,109.192643 C32.9216992,109.837315 32.0290293,110.384328 31.0821385,110.822643 L31.0821385,110.822643 Z" id="path-3"></path>
        <mask id="mask-4" maskContentUnits="userSpaceOnUse" maskUnits="objectBoundingBox" x="-3" y="-3" width="60.2988224" height="34.829278">
            <rect x="23" y="94" width="60.2988224" height="34.829278" fill="white"></rect>
            <use xlink:href="#path-3" fill="black"></use>
        </mask>
        <path d="M23.5775843,94.1180954 C18.5544393,94.1180954 19.3720733,94.0232161 14.3489283,94.0232161 C13.3000118,94.0232161 11.8198739,93.7807467 12.0180026,92.2943042 C12.192822,91.2400896 13.3815942,91.1662945 14.3489283,91.0924995 C15.5104525,90.9862786 16.6783118,90.9475446 17.8453169,90.9765359 C21.1552315,91.0819574 22.5071684,89.9223213 21.5747981,86.8229305 C20.9337935,84.7988385 20.4093352,82.74312 19.9664593,80.6874016 C19.6401297,79.3274648 19.0690529,77.6618058 21.2601231,77.2717464 C23.0782452,76.9449399 25.2343515,76.5443383 26.4464329,78.5051774 C26.8823989,79.2944382 27.1923918,80.1356467 27.3671485,81.003666 C30.2458418,92.6000264 28.8356317,90.839488 41.7722695,91.0081624 C42.7396037,91.0081624 43.7069379,91.0081624 44.6742721,91.0819574 C45.8397349,91.1557524 47.2965635,91.271716 47.2149811,92.6211107 C47.1333987,93.9705053 45.6649155,94.1075532 44.5111073,94.1180954 C39.4763077,94.1180954 39.1475485,94.1180954 34.0544758,94.1180954 L23.5775843,94.1180954 Z" id="path-5"></path>
        <mask id="mask-6" maskContentUnits="userSpaceOnUse" maskUnits="objectBoundingBox" x="-3" y="-3" width="41.2182608" height="23.1180954">
            <rect x="9" y="74" width="41.2182608" height="23.1180954" fill="white"></rect>
            <use xlink:href="#path-5" fill="black"></use>
        </mask>
        <path d="M100.402163,78.5348764 L92.482163,84.6248764 C92.642163,86.3948764 95.372163,85.2348764 95.052163,87.0848764 C94.782163,88.6548764 93.362163,89.0848764 92.002163,89.0848764 C83.382163,89.1248764 74.762163,89.1248764 66.142163,89.0848764 C65.142163,89.0848764 63.942163,88.7548764 64.002163,87.5348764 C64.062163,86.3148764 65.292163,86.1348764 66.292163,86.1148764 C70.9588296,86.0482098 75.602163,86.0148764 80.222163,86.0148764 C82.512163,86.0148764 84.462163,85.5748764 85.642163,83.3148764 C88.542163,77.7148764 93.422163,77.3848764 100.402163,78.5348764 L100.402163,78.5348764 Z" id="path-7"></path>
        <mask id="mask-8" maskContentUnits="userSpaceOnUse" maskUnits="objectBoundingBox" x="-3" y="-3" width="42.402163" height="17.1148764">
            <rect x="61" y="75" width="42.402163" height="17.1148764" fill="white"></rect>
            <use xlink:href="#path-7" fill="black"></use>
        </mask>
        <path d="M98.8605543,104.913694 C89.0503067,106.33105 79.1140405,106.666395 69.2305543,105.913694 C68.8947063,105.96097 68.5561569,105.847734 68.3163352,105.607913 C68.0765135,105.368091 67.9632781,105.029542 68.0105543,104.693694 C68.1400432,104.239269 68.4722331,103.870169 68.9105543,103.693694 C70.0331905,103.386824 71.1996123,103.271872 72.3605543,103.353694 C79.6705543,104.353694 83.3605543,100.143694 85.4905543,94.1236935 C86.4305543,91.5036935 88.2705543,91.8636935 89.8705543,92.3236935 C92.3305543,93.0336935 92.5005543,95.3236935 91.7105543,97.2536935 C90.9205543,99.1836935 89.4305543,100.753694 88.1505543,102.633694 C91.8005543,104.203694 95.7405543,102.063694 98.8605543,104.913694 L98.8605543,104.913694 Z" id="path-9"></path>
        <mask id="mask-10" maskContentUnits="userSpaceOnUse" maskUnits="objectBoundingBox" x="-3" y="-3" width="36.8605543" height="20.3044783">
            <rect x="65" y="89" width="36.8605543" height="20.3044783" fill="white"></rect>
            <use xlink:href="#path-9" fill="black"></use>
        </mask>
        <path d="M117.72,73.66 L78.07,73.66 L78,72.28 C82.41,71.28 87,72 91.45,71.81 C94.37,71.68 97.72,72.51 97.99,67.81 C98.06,66.52 99.33,66.03 100.62,66 C102.09,66 103.53,66.4 103.67,67.94 C104.05,72.13 106.98,71.68 109.85,71.8 C112.5,71.94 115.32,71.16 117.72,73.66 L117.72,73.66 Z" id="path-11"></path>
        <mask id="mask-12" maskContentUnits="userSpaceOnUse" maskUnits="objectBoundingBox" x="-3" y="-3" width="45.72" height="13.66">
            <rect x="75" y="63" width="45.72" height="13.66" fill="white"></rect>
            <use xlink:href="#path-11" fill="black"></use>
        </mask>
        <path d="M4,73.0332646 C7.54,70.5432646 11.43,71.8632646 15.1,71.0332646 C15.2649752,70.762615 15.3674664,70.4585575 15.4,70.1432646 C15.07,68.6132646 12.49,67.1432646 13.98,65.8932646 C15.47,64.6432646 18.98,64.6532646 19.98,66.2532646 C23.92,72.9132646 30.2,71.0432646 35.92,71.3832646 C36.4167626,71.4057375 36.908055,71.496593 37.38,71.6532646 C37.9201425,72.0567523 38.413236,72.5196564 38.85,73.0332646 L4,73.0332646 L4,73.0332646 Z" id="path-13"></path>
        <mask id="mask-14" maskContentUnits="userSpaceOnUse" maskUnits="objectBoundingBox" x="-3" y="-3" width="40.85" height="14.0332646">
            <rect x="1" y="62" width="40.85" height="14.0332646" fill="white"></rect>
            <use xlink:href="#path-13" fill="black"></use>
        </mask>
    </defs>
    <g id="Page-1" stroke="none" stroke-width="1" fill="none" fill-rule="evenodd">
        <g id="Artboard-1" transform="translate(-226.000000, -12.000000)">
            <g id="ice_sea" transform="translate(229.600000, 15.000000)">
                <g id="Layer_1" transform="translate(0.000000, 0.000000)">
                    <g id="Shape">
                        <use fill="#FF5722" fill-rule="evenodd" xlink:href="#path-1"></use>
                        <use stroke="#FFFFFF" mask="url(#mask-2)" stroke-width="6" stroke-linecap="round" stroke-linejoin="round" xlink:href="#path-1"></use>
                    </g>
                    <g id="Shape">
                        <use fill="#FF5722" fill-rule="evenodd" xlink:href="#path-3"></use>
                        <use stroke="#FFFFFF" mask="url(#mask-4)" stroke-width="6" stroke-linecap="round" stroke-linejoin="round" xlink:href="#path-3"></use>
                    </g>
                    <g id="Shape">
                        <use fill="#FF5722" fill-rule="evenodd" xlink:href="#path-5"></use>
                        <use stroke="#FFFFFF" mask="url(#mask-6)" stroke-width="6" stroke-linecap="round" stroke-linejoin="round" xlink:href="#path-5"></use>
                    </g>
                    <g id="Shape">
                        <use fill="#FF5722" fill-rule="evenodd" xlink:href="#path-7"></use>
                        <use stroke="#FFFFFF" mask="url(#mask-8)" stroke-width="6" stroke-linecap="round" stroke-linejoin="round" xlink:href="#path-7"></use>
                    </g>
                    <g id="Shape">
                        <use fill="#FF5722" fill-rule="evenodd" xlink:href="#path-9"></use>
                        <use stroke="#FFFFFF" mask="url(#mask-10)" stroke-width="6" stroke-linecap="round" stroke-linejoin="round" xlink:href="#path-9"></use>
                    </g>
                    <g id="Shape">
                        <use fill="#FF5722" fill-rule="evenodd" xlink:href="#path-11"></use>
                        <use stroke="#FFFFFF" mask="url(#mask-12)" stroke-width="6" stroke-linecap="round" stroke-linejoin="round" xlink:href="#path-11"></use>
                    </g>
                    <g id="Shape">
                        <use fill="#FF5722" fill-rule="evenodd" xlink:href="#path-13"></use>
                        <use stroke="#FFFFFF" mask="url(#mask-14)" stroke-width="6" stroke-linecap="round" stroke-linejoin="round" xlink:href="#path-13"></use>
                    </g>
                </g>
            </g>
        </g>
    </g>
</svg>