<?xml version="1.0" encoding="utf-8"?>
<!-- Generator: Adobe Illustrator 19.2.1, SVG Export Plug-In . SVG Version: 6.00 Build 0)  -->
<svg version="1.1" id="Layer_1" xmlns="http://www.w3.org/2000/svg" xmlns:xlink="http://www.w3.org/1999/xlink" x="0px" y="0px"
	 viewBox="0 0 139.1 139.1" style="enable-background:new 0 0 139.1 139.1;" xml:space="preserve">
<style type="text/css">
	.st0{fill:#29ABE2;stroke:#4DC463;stroke-width:2.2926;stroke-miterlimit:10;}
	.st1{clip-path:url(#SVGID_2_);}
	.st2{fill:#4DC463;}
	.st3{fill-rule:evenodd;clip-rule:evenodd;fill:#4DC463;}
	.st4{fill:none;stroke:#FFFFFF;stroke-width:17;stroke-linecap:round;stroke-linejoin:round;stroke-miterlimit:10;}
</style>
<g>
	<circle class="st0" cx="72.4" cy="67.4" r="37.5"/>
	<g>
		<defs>
			<circle id="SVGID_1_" cx="72.4" cy="67.4" r="37.5"/>
		</defs>
		<clipPath id="SVGID_2_">
			<use xlink:href="#SVGID_1_"  style="overflow:visible;"/>
		</clipPath>
		<g id="XMLID_388_" class="st1">
			<g>
				<path id="XMLID_842_" class="st2" d="M102.5,31c0-0.4,0.3-0.6,0.6-0.7c0.5-0.4,1.1-0.4,1.7-0.6c0.2,0,0.4,0,0.5-0.3
					c-0.2-0.1-0.4-0.1-0.6,0c-0.3,0.2-0.7,0.2-1.1,0.2c-0.4,0-0.7,0.1-1,0.3c-0.2,0.1-0.4,0.1-0.4,0.5c0,0.2-0.3,0.2-0.2,0.5
					C102.1,31,102.4,30.8,102.5,31c-0.5-0.1-1-0.1-1.1,0.8c0.2,0.1,0.5,0,0.8,0.2c0.4,0.3,0.4,0.4,0.8,0.2
					C102.4,31.6,102.3,31.5,102.5,31z M47.4,66c-0.3,0-0.6-0.1-0.7,0.3c-0.1,0.2,0,0.4,0.2,0.5c0.4,0.2,0.2,0.4-0.1,0.5
					c-0.5,0.2-0.6,0.4-0.3,0.8c0.3,0.3,0.1,0.4-0.2,0.4c-0.3,0-0.6,0.1-0.9,0.2c-0.3,0.2-0.6,0.2-0.9,0c-0.2-0.1-0.4-0.1-0.6-0.1
					c-0.3,0-0.6,0.1-0.8-0.3c0-0.1-0.2-0.2-0.4-0.2c-0.5-0.1,0.8,0.1,0.4,0.3c-0.3,0.2,1.7,0.4,1.7,0.6c0,0,0,0.1,0,0.1
					c0,0.1-1.7,0.2-1.8,0.2c-0.1,0-1.1-0.1-1.1-0.2c0-0.4-0.3-0.8-0.3-1.3c0,0-0.1-0.1-0.1-0.1c0.1-0.1,0.2-0.1,0-0.3
					c-0.1-0.1-0.3,0-0.4,0.1C41,67.8,40.6,68,40.2,68c-0.5,0.1-1,0.3-1.1,0.9c0,0.2-0.2,0.3-0.3,0.4c-0.2,0.1-0.3,0.3-0.4,0.5
					c-0.2-0.2-0.3-0.3-0.4-0.4c-0.5-0.5-0.8-0.5-1.4-0.3c-0.3,0.2-0.7,0.4-1.1,0.1c-0.5-0.5-1-0.9-0.8-1.7c0.1-0.3,0.2-0.7,0.3-1
					c0.3-0.7,0-1.1-0.9-1.1c-0.5,0-1,0.1-1.5,0.1c-0.1,0-0.3,0-0.3-0.1c-0.1-0.1,0.1-0.2,0.1-0.2c0.2-0.3,0.3-0.6,0.4-1
					c0-0.1-0.1-0.2,0.1-0.2c0.3,0,0.3-0.2,0.4-0.3c0.1-0.2,0.1,0.1,0.3-0.1c0.5-0.6,0.5-0.1-0.3-0.1c0,0,0,0,0,0
					c-0.7,0-1.1-0.4-1.5,0.2c-0.1,0.3-0.3,0.2-0.5,0.4c-0.1,0.1-0.2,0.1-0.4,0c-0.2-0.1-0.4,0-0.7,0c-0.9,0.2-1.4,0-1.6-0.8
					c0-0.1-0.1-0.2-0.1-0.4c-0.2-0.4-0.1-0.9,0-1.3c0.2-0.8,0.9-1.4,1-2.2c0-0.2,0.3-0.5,0.6-0.7c0.4-0.3,0.9-0.3,1.3-0.6
					c0.3-0.3,0.7-0.4,1.1-0.3c0.3,0.1,0.9-0.2,1.1,0.3c0,0,0.2,0,0.2,0c0.2-0.1,0.4-0.1,0.6,0.1c-0.1-0.3-0.1-0.5-0.1-0.6
					c0.3-0.1,0.7-0.2,1-0.2c0.5,0,1.1-0.2,1.3,0.2c0.1,0.1,0.2,0.1,0.3,0c0.3-0.1,0.5-0.2,0.6,0.1c0.1,0.2,0.3,0.3,0.1,0.6
					c-0.2,0.6-0.1,1.1,0.1,1.6c0.2,0.3,0.4,0.3,0.6-0.1c0.2-0.3,0.3-0.7,0.3-1.1c0-0.4,0-0.9,0.1-1.4c0-0.4,0.3-0.8,0.6-1.1
					c0.6-0.5,1.2-0.8,1.9-1.2c0.6-0.3,1.2-0.8,1.8-1.1C43.4,54,43,54,43,53.8c0.3-0.1,0.5-0.2,0.5-0.4c0-0.5,0.4-0.9,0.7-1.4
					c0,0,0,0.1,0,0.1c-0.1,0.2-0.3,0.5,0,0.5c0.3,0,0.4-0.2,0.5-0.5c0-0.1,0-0.2,0.2-0.2c0.4,0,0.6-0.3,0.8-0.5
					c0.2-0.2,0.4-0.4,0.7-0.6c0.2-0.1,0.5-0.2,0.7-0.3c0.4-0.2,0.9,0,1.2-0.7c0.2-0.7,1.1-1,1.6-1.1c0.7-0.1,1.4-0.7,2.1-0.8
					c0.3-0.1,0.6-0.1,0.7,0.2c-0.5,0.2-0.9,0.2-1.4,0.5c-0.1,0.1-0.3,0.2-0.3,0.3c0.1,0.2,0.3,0.1,0.4,0c0.5-0.4,1-0.5,1.5-0.6
					c0.2,0,0.4-0.2,0.7-0.3c0-0.2-0.2-0.1-0.3-0.1c-0.1,0-0.3,0-0.4-0.1c-0.4-0.1-0.5-0.5-0.2-0.9c0.1-0.2,0-0.1-0.1-0.1
					c-0.1,0-0.2-0.1-0.4-0.2c0.3-0.2,0.5,0,0.8-0.2c0.2-0.1,0.4-0.1,0.4-0.4c0-0.2-0.2-0.2-0.4-0.1c-0.8,0.2-1.6,0.4-2.4,1
					c-0.3,0.2-0.6,0.5-1,0.5c0.2-0.2,0.3-0.3,0.5-0.4c0.7-0.5,1.4-1,2.2-1.3c0.4-0.2,0.7-0.5,1.1-0.5c0.5,0,1.1-0.1,1.6-0.1
					c0.5,0,1,0,1.5-0.4c0.3-0.2,0.6-0.3,0.9-0.4c0.4-0.1,0.8-0.2,1.2-0.7c0.5-0.6-0.2-0.4-0.1-0.7c0-0.1-0.2-0.1-0.2,0
					c-0.3,0.1-0.7,0.3-1,0.4c-0.1,0.1-0.2,0-0.2-0.1c0-0.2,0.1-0.1,0.2-0.2c0.4-0.2,0.8-0.3,1.3-0.5c0-0.1-0.1-0.1-0.1-0.1
					c0,0,0,0-0.1,0c-0.4,0-0.8,0.1-0.7-0.6c0.1-0.2-0.3-0.4,0.2-0.6c0.1,0,0-0.2,0.1-0.2c0.2-0.3-0.2-0.4,0-0.5
					c0.2-0.3,0.1-0.4,0.2-0.7c0.1-0.2-0.1-0.2-0.3-0.1c-0.8,0.7-1.7,1-2.6,1.2c0.2-0.3,0.6-0.2,0.7-0.5c0-0.2-0.3,0.1-0.4,0
					c0,0,0,0,0-0.1c0.2-0.2,0.7-0.4,0.4-0.7c0.1,0,0.3-0.1,0.4-0.1c0.2-0.1,0.3-0.3,0.1-0.3c-0.3-0.1-0.3-0.3-0.4-0.5
					c0-0.1-0.1-0.2-0.3-0.2c-0.4,0.1-0.7,0.1-1,0c-0.3-0.1-0.5,0.1-0.8,0.4c-0.5,0.5-0.8,1.2-1.5,1.5c-0.2,0.1-0.4,0.3-0.2,0.4
					c0.2,0.2,0,0.5-0.3,0.8c-0.5,0.6-1.2,0.9-1.9,1.1c-0.3,0.1-0.6,0.2-0.7,0.6c-0.1,0.3-0.4,0.6-0.6,0.9c-0.3,0.4-0.8,0.6-1.1,0.9
					c0,0,0,0-0.1-0.1c-0.3-0.2-0.3-0.8,0-1.2c0.2-0.2,0.3-0.5,0.5-0.7c0.4-0.4,0.2-0.4-0.1-0.4c-0.6,0-1-0.1-1.2-0.6
					c0-0.1-0.1-0.1-0.2-0.1c-0.3-0.2-0.8,0-1.3,0.2c0.5-0.5,0.8-0.8,0.7-0.9c-0.1-0.1-0.3,0.1-0.5,0.1c1.3-1.5,2.8-2.2,4.4-2.8
					c-0.1-0.2-0.5-0.1-0.5-0.4c0.9,0.2,1.9-0.1,3-0.8c-0.4,0-0.5-0.2-0.8-0.3c0.4-0.1,0.6-0.1,0.8,0c0.2,0.2,0.6,0,0.9-0.3
					c0.3-0.3,0.5-0.4,0.8-0.3c0.1,0,0.3,0.2,0.4-0.2c0-0.1,0.2-0.1,0.2-0.1c0.2,0.4,0.7,0,1-0.2c0.2-0.1,0.3-0.2,0.4-0.3
					c0.1-0.2,0.2-0.4,0.5-0.5c0.2-0.1,0.3-0.2,0.2-0.4c-0.3-0.2-0.5-0.2-1,0.3c0,0-0.1,0.1-0.1,0.1c-0.5,0.2-0.9,0.6-1.4,0.8
					c-0.1,0.1-0.4,0.3-0.4,0.1c0-0.2,0.1-0.4,0.4-0.5c0.2-0.1,0.3-0.2,0.3-0.3c0-0.1-0.2,0-0.3,0.1c-0.2,0.1-0.4,0.4-0.7,0.4
					c0.4-0.4,0.3-0.6,0.2-0.7c0.1-0.1,0.2-0.1,0.2-0.1c0.3-0.2,0.6-0.5,0.6-0.7c0-0.2-0.3-0.1-0.6,0.1c-0.1,0-0.2,0.1-0.2,0.1
					c-0.3,0.1-0.7,0.4-0.9,0.6c-0.2,0.2,0.2,0.1,0.3,0.2c0,0,0,0,0,0.1c-0.3,0.3-0.7,0.6-1.1,0.7c-0.3,0.1-0.6,0.2-0.9,0.6
					c-0.1,0.1-0.5,0.4-0.5,0.2c-0.1-0.1,0.2-0.3,0.3-0.4c0,0,0.1-0.1,0.1-0.1c0.1-0.1,0.2-0.3,0-0.3c-0.1,0-0.2,0.1-0.2,0.2
					c0,0.1-0.2,0.2-0.3,0.2c-0.1,0-0.3,0-0.4,0c-0.5,0-1.2,0.2-1.6,0c-0.5-0.2-1,0.1-1.7,0.6c-0.1,0.1-0.3,0.3-0.5,0.3
					c-0.1,0,0-0.2,0-0.3c0.1-0.2,0-0.3-0.2-0.2c-0.2,0.1-0.4,0.1-0.7,0.2c-0.3,0.1-0.7,0.2-0.9,0c0.3-0.2,0.5-0.2,0.7-0.4
					c0-0.2-0.2-0.1-0.3-0.1c-0.2,0-0.4,0.1-0.6,0c-0.4-0.1-0.7-0.4-1.6,0.1c-0.1,0.1-0.3,0.1-0.1-0.1c0.1-0.1,0-0.1,0,0
					c-0.4,0.2-0.6,0.3-0.6,0c0,0-0.1,0-0.2,0c-0.6,0.2-1.2,0.5-1.7,0.5c-0.3,0-0.8,0.2-1.2,0.4c-0.6,0.3-1,0.3-1.4,0.2
					c-0.4-0.1-0.6-0.3-1.3-0.2c-0.2,0-0.3,0.1-0.4,0c-0.5-0.1-1.2,0.1-1.7,0c-0.4-0.1-0.9,0-1.6,0.3c-0.4,0.1-0.7,0.3-1.1,0.4
					c-0.6,0.2-1.2,0.3-1.9,0.7c-0.6,0.3-1.1,0.4-1.6,0.5c-0.2,0-0.3,0.1-0.5,0.2c-0.1,0.1-0.3,0.1-0.3,0.2c0,0.2-0.5,0.6,0.1,0.4
					c-0.6,0.4-1,0.5-1.4,0.6c-0.2,0,0.2-0.3-0.1-0.2c-0.6,0.2-1.2,0.4-1.9,0.6c-0.2,0.1-0.4,0.3-0.5,0.4c-0.2,0.2,0.1,0.1,0.2,0.1
					c0.4-0.1,0.8-0.1,1.5-0.4c-1,0.6-1,0.6-1.6,0.8c-0.8,0.2-1.6,0.5-2.5,0.9c-0.3,0.1-0.5,0.2-0.8,0.4c-0.1,0-0.3,0.1-0.3,0.2
					c0.1,0.2-0.2,0.2-0.4,0.3c-0.2,0.1-0.3,0.2-0.4,0.3c-0.1,0.1,0,0.1,0.1,0.1c0.1,0,0.4-0.1,0.4,0c-0.3,0.2-0.5,0.3-0.8,0.5
					c0.4-0.1,0.9-0.3,0.9-0.1c0,0,0.1,0,0.2-0.1c0.2-0.1,0.3-0.1,0.3,0c0,0.1-0.2,0.2-0.4,0.3c-0.8,0.4-1.6,0.7-2.4,1
					c-0.3,0.1-0.5,0.1-0.8,0.4c0.2,0.1,0.4,0,0.7-0.1c1.2-0.5,2.5-0.9,3.7-1.4c0.4-0.1,0.8-0.3,1.2-0.5c0.9-0.6,1.6-0.7,2.3-1.1
					c-0.3,0.3-0.7,0.4-1,0.7c0.7-0.2,1.3-0.5,1.9-0.6c0.1,0,0.3-0.1,0.4-0.2c0.5-0.4,1-0.5,1.1-0.2c0.1,0.2,0.3,0.2,0.6,0.2
					c0.6-0.1,1-0.1,0.9,0.5c0,0.1,0.1,0.1,0.2,0.2c-0.5,0.3-0.7,0.6-0.9,1c0.4-0.4,1-0.6,1.4-1c0.1-0.1,0.2-0.2,0.3-0.1
					c0,0,0.2,0.1,0,0.2c-0.4,0.3-0.5,0.6-0.8,1c-0.4,0.4-0.4,0.6,0.1,0.5c-0.4,0.1-0.6,0.4-0.9,0.7c0.2-0.1,0.4-0.1,0.6-0.2
					c-0.2,0.2-0.1,0.3-0.4,0.4c-0.3,0.1-0.3,0.3-0.2,0.3c0.1,0,0.1,0.1,0,0.1c-0.3,0.1-0.4,0.5-0.8,0.5c0.1,0.1,0.2,0.2,0.3,0.2
					c0.2,0,0.2,0.2,0.2,0.2c-0.1,0.5,0,0.6,0.6,0.6c3.7-0.4,7.5-1.1,11.2-1.4c0.1,0,0.4-0.3,0.6-0.3c-0.2,0-0.4,0-0.6,0.1
					c-3.7,0.3-7.5,1-11.3,1.4c-0.3,0-0.7,0.3-1,0.6c-0.2,0.2-0.4,0.5-0.7,0.5c0.1-0.2,0.4-0.3,0.1-0.3c-0.2,0-0.4-0.1-0.6,0.2
					c-0.2,0.3-0.4,0.7-0.7,0.9c-0.8,0.5-1.5,1.2-2.2,1.7c-0.6,0.4-0.9,1.1-1.6,1.5c0,0,0,0.1,0,0.1c-0.4,0.6-0.3,1.1-0.6,1.6
					c-0.2,0.4-0.1,0.7-0.2,1c-0.1,0.2,0,0.3,0.2,0.3c0.5,0.2,0.7,0.4,0.6,1c-0.2,0.6-0.5,1.3,0,1.8c0.1,0.1,0.1,0.5-0.3,0.5
					c-0.4,0.1-0.2,0.2-0.2,0.3c0.1,0.1,0.2,0.2,0.3,0.2c0.3,0.1,0.5,0.3,0.3,0.6c-0.1,0.3,0,0.5,0.2,0.7c0.2,0.1,0.3,0.3,0.4,0.5
					c0,0.1,0.1,0.1,0.2,0.1c0.1,0,0.2-0.1,0.2-0.2c0-0.1,0-0.3-0.2-0.4C22,61.2,22,61.1,22,60.9c0.1-0.9-0.2-1.7-0.4-2.5
					c-0.1-0.3,0.1-0.6,0.3-0.9c0.1-0.1,0.2-0.2,0.3-0.1c0.3,0.1,0.5,0.2,0.3,0.5c-0.1,0.3-0.3,0.7-0.2,0.9c0.2,0.5,0.9,0.8,0.7,1.6
					c0,0,0.1,0.1,0.1,0.1c0.4,0.4,0.7,0.9,1,1.4c0.2,0.4,0.3,0.8-0.1,1.2c-0.2,0.2-0.1,0.4,0,0.6c0.3,0.3,0.6,0.5,0.9,0.7
					c0.8,0.4,1.6,0.7,2.4,1.1c0.4,0.2,0.9,0.3,1.3,0.1c0.5-0.3,0.9-0.2,1.2,0.2c0.5,0.7,1.3,1,2.1,1.2c0.2,0.1,0.4,0.2,0.7,0
					c0.2-0.1,0.3,0,0.2,0.1c-0.1,0.2,0.1,0.3,0.2,0.4c0.2,0.3,0.7,0.5,0.6,1c-0.1,0.3,0.1,0.4,0.4,0.5c0.3,0.1,0.6,0.2,0.7,0.5
					c0,0.2,0.2,0.3,0.4,0.3c0.4,0,0.7,0.2,1.1,0.4c0.1,0.1,0.2,0.2,0.4,0.1c0.2-0.1,0.1-0.2,0.1-0.3c0-0.2,0.4-0.6,0.6-0.6
					c0.2,0.1,0.6,0.1,0.5,0.5c-0.1,0.1,0,0.3,0.1,0.4c0.6,0.7,0.4,1.4,0.4,2.2c0,0.5-0.6,0.9-0.9,1.3c-0.3,0.3-0.4,0.6-0.6,1
					c-0.1,0.3-0.1,0.6-0.1,0.9c0,0.2,0.2,0.3,0.3,0.3c0.5-0.1,0.3,0.2,0.2,0.3c-0.1,0.2-0.2,0.3-0.3,0.4c-0.1,0.2-0.2,0.4-0.1,0.6
					c0.2,0.4,0.3,0.8,0.8,1.1c0.1,0.1,0.3,0.2,0.4,0.4c0.8,0.8,1.3,1.8,2.1,2.6c0.3,0.3,0.6,0.6,0.8,1c0.1,0.3,0.4,0.5,0.6,0.8
					c0.6,0.5,1.2,0.8,1.8,1c0.6,0.3,1.3,0.7,1.7,1.2c0.5,0.8,1.1,1.7,1.1,2.6c0,0.1,0,0.1,0.1,0.2c0.4,0.8,0.7,1.5,0.9,2.3
					c0.1,0.5,0.2,0.9,0.6,1.4c0.2,0.2,0.1,0.6,0.4,0.8c0.7,0.8,0.9,1.6,1.2,2.4c0.2,0.5,0.1,1.1,0.7,1.7c0.3,0.3,0.6,0.7,0.7,1.1
					c0.2,0.5,0.8,1.1,1,1.6c0,0.1,0.1,0.2,0.2,0.2c0.1,0,0-0.1-0.1-0.2c-0.1-0.2-0.2-0.3-0.3-0.5c-0.1-0.1,0-0.2,0-0.2
					c0.1,0,0.1,0,0.2,0.1c0.1,0.1,0.3,0.2,0.3,0.4c0.3,0.7,1,1.4,1.4,2.1c0,0.1,0.2,0.2,0.1,0.2c0,0-0.1,0-0.2-0.1
					c-0.4-0.4-0.4-0.1-0.4,0c0.3,0.2,0.6,0.2,0.8,0.4c0.2,0.4,0.5,0.4,0.8,0.6c-0.2,0.1,0,0.4-0.1,0.6c0,0,0,0.2,0.3,0.3
					c0.3,0.1,0-0.1,0-0.2c0,0,0-0.1,0.1,0c0.3,0.5,0.8,0.9,1.2,1.3c0.1,0.1,0.2,0.2,0.3,0.2c0.1-0.1,0.3,0.1,0.5,0.2
					c0.2,0.2,0.3,0.3,0.6,0.4c-0.1,0.1-0.2,0.2,0,0.4c0.2,0.2,0.4,0.3,0.6,0.3c0.2,0,0.1-0.1,0-0.3c-0.2-0.3,0-0.3,0.2-0.4
					c0.1,0.2-0.1,0.5,0.4,0.5c0,0,0.1,0.1,0.1,0.1c0,0.3,0.3,0.3,0.4,0.5c-0.1,0.1-0.3,0-0.5,0.1c0.6,0.3,1,0.2,1.6,0.5
					c0.2,0.1,0.5,0,0.7-0.1c-0.6-0.2-1.2-0.6-1.8-1c-0.3-0.2-0.6-0.4-0.9-0.6c0-0.2,0.1-0.3-0.3-0.5c-0.3-0.2-0.6-0.6-0.5-0.9
					c0-0.1,0.1-0.1,0-0.3c-0.2-0.3-0.2-0.5-0.1-0.7c0.1-0.3-0.1-0.6-0.5-0.7c-0.1-0.1-0.3-0.1-0.4-0.2c-0.6-0.4-0.8-0.7-0.5-1
					c0.1-0.1,0.2-0.2,0.1-0.3c-0.3-0.5-0.3-1-0.9-1.4c-0.1-0.1-0.3-0.3-0.4-0.5c-0.2-0.2-0.1-0.3,0.1-0.2c0.2,0.1,0.5,0.2,0.7,0.2
					c0.1,0,0.4,0,0.2-0.3c-0.2-0.3-0.3-0.7-0.7-1c0.6,0.2,1,0.1,1.4,0c0.4,0,0.4-0.4,0.5-0.8c0-0.3-0.3-0.5-0.5-0.7
					c-0.1,0-0.1-0.1-0.1-0.2c-0.1-0.4-0.4-0.5-0.7-0.7c-0.2-0.1-0.4-0.2-0.4-0.5c0.4,0.3,0.8,0.4,1.1,0.5c0.4,0.1,0.9,0.3,1.1-0.1
					c0.2-0.4,0.3-0.8,0.1-1.4c-0.1-0.4,0.1-0.6,0-0.9c0-0.1,0.1-0.1,0.2,0c0.4,0.3,0.2,0,0.2-0.2c0-0.1,0-0.3,0-0.4
					c0.3-0.5,0.2-1-0.2-1.6c-0.2-0.4-0.2-0.7,0-0.9c0.3-0.4,0.7-0.5,1.1-0.8c0.3-0.3,0.7-0.3,1.1-0.3c0.2,0,0.3-0.1,0.4-0.2
					c0.3-0.3,0.2-0.7,0.3-1c0.3-0.7,0.1-1.5,0.2-2.3c0.1-0.6-0.2-1.2-0.4-1.9c-0.1-0.2-0.1-0.6,0.1-0.6c0.3-0.1,0.4-0.3,0.4-0.5
					c0.1-0.3,0.2-0.6,0.5-0.9c0.7-0.8,0.8-1.7,0.3-2.8c-0.1-0.2-0.2-0.3-0.4-0.3c-0.6,0-1-0.4-1.4-0.8c-0.5-0.4-1-0.8-1.7-0.7
					c-0.2,0-0.4,0-0.7-0.1c-0.3-0.2-0.6-0.2-0.9,0c-0.2,0.1-0.3,0.1-0.3-0.2c0-0.2,0-0.4-0.2-0.5c-0.4-0.2-0.9-0.4-1.3-0.6
					c-0.2-0.1-0.5-0.1-0.5,0.1c-0.2,0.6-0.6,0.7-1.2,0.4c0.2,0,0.4-0.1,0.6-0.1c0.3-0.1,0.3-0.3,0.4-0.6c0-0.1-0.1-0.2-0.2-0.2
					c-0.6-0.3-1,0-0.9,0.5c0,0.1,0,0.2,0,0.3c-0.6-0.5-0.4-1,0-1.4c0.2-0.2,0.3-0.5-0.1-0.8c-0.2-0.2-0.3-0.5-0.3-0.8
					c0-0.1-0.1-0.3-0.2-0.4c-0.6-0.4-0.9-1-1.6-1.1c-0.4-0.1-0.8,0-1.1,0c-0.3,0-0.4,0-0.5,0.3c0,0.1,0,0.2-0.2,0.2
					c0.1-0.3,0.3-0.5,0-0.8c-0.2-0.2-0.4-0.3-0.6-0.1c0-0.8-0.5-1.2-1.4-1.3c0.2-0.3,0-0.7,0.3-0.9c0.2-0.1,0.1-0.4-0.1-0.5
					c-0.3-0.3-0.2-0.5,0.2-0.6c0.3-0.1,0.5-0.4,0.3-0.6C47.5,66.7,47.6,66.3,47.4,66c0.3,0,0.6,0.1,0.7-0.3c0.1-0.3-0.1-0.5-0.5-0.5
					c0.4-0.1,0.5-0.3,0.5-0.6c-0.1-0.3-0.3-0.3-0.6-0.3c-0.3,0.1-0.3-0.1-0.2-0.3c0.3-0.8-0.6-0.5-0.8-0.9c-0.1-0.2-0.4-0.1-0.6,0.1
					c0,0,0,0.1-0.1,0.1c-0.4,0-0.7,0.3-1.1,0.4c-0.3,0-0.4,0.1-0.5,0.3c-0.1,0.2,0,0.4,0.3,0.5c0.2,0,0.3,0.1,0.3,0.2
					c0.1,0.2,0.3,0.4,0.6,0.3c0.3-0.1,0.4-0.3,0.3-0.6c0-0.1-0.1-0.2,0-0.3c0.2-0.2,0.4-0.2,0.6-0.2c0.2,0,0.3,0.2,0.2,0.3
					c0,0.2-0.1,0.4-0.4,0.4c-0.5,0.1-0.7,0.6-0.3,0.7c0.4,0.1,0.7,0.4,1.1,0.4C47.1,65.7,47.3,65.8,47.4,66z M88.3,40.5
					c-0.4,0.2-0.3,0.8-0.7,0.9c-0.1,0-0.4,0.1-0.3-0.3c0-0.1,0.3,0.1,0.3-0.2c0-0.2-0.2-0.1-0.3-0.3c0.1-0.2,0.6-0.3,0.2-0.6
					c0,0,0-0.1,0-0.1c0-0.1,0.1-0.2,0-0.3c-0.1-0.1-0.2,0-0.3,0.1c-0.1,0.1-0.2,0.1-0.3,0.1c-0.3,0.1-0.4,0.3-0.4,0.6
					c0,0.3,0.1,0.5,0.2,0.8c0.1,0.4-0.1,0.5-0.5,0.6c-0.6,0.1-1.3,0.2-1.6,0.9c-0.2,0.3-0.5,0.5-0.8,0.6c-0.2,0-0.4,0.1-0.4,0.3
					c-0.2,0.5-0.7,0.7-1,0.7c-0.4,0-1,0-1.1-0.6c0.1,0,0.1,0,0.2,0c0.5,0,1,0,1.5-0.2c0.1,0,0.4-0.1,0.3-0.3c-0.1-0.2,0-0.3,0.1-0.4
					c0.1-0.1,0.2-0.2,0.2-0.4c0-0.2-0.2-0.3-0.3-0.2c-0.2,0-0.2,0-0.2-0.2c-0.1-0.6-0.5-1-0.7-1.4c-0.2-0.3-0.2-0.4,0-0.6
					c0.1-0.1,0.3-0.3,0.2-0.4c-0.1-0.2-0.3-0.1-0.4-0.1c-0.1,0-0.2,0.1-0.3,0c0.1-0.2,0.4-0.2,0.3-0.4c-0.1-0.2-0.3,0-0.4-0.1
					c-0.5-0.1-0.6,0.7-1,0.7c0,0,0,0.1,0,0.1c0.1,0.1,0.1,0.2,0,0.4c-0.1,0.2,0,0.5,0.1,0.7c0,0.1,0.2,0,0.1,0.2
					c-0.1,0.2-0.2,0.1-0.3,0c-0.4-0.3-0.9-0.2-1.2,0.3c-0.1,0.1-0.2,0.2-0.3,0.2c-0.4,0-0.4,0.5-0.4,0.5c0.3,0.3,0,0.4-0.2,0.6
					c-0.1,0.1-0.3,0.2-0.1,0.4c0.3,0.2,1.6-0.3,1.8-0.7c0-0.1,0-0.2,0.1-0.3c0-0.1,0-0.2,0-0.3c0-0.1,0.2-0.2,0.2-0.1
					c0.1,0.2,0.4,0.3,0.4,0.6c0,0.2,0,0.2-0.1,0.3c-0.1,0.1-0.3,0.1-0.3,0.3c0,0.2,0.2,0.1,0.4,0.2c0,0,0,0.1,0.1,0.1
					c-0.3,0.3-0.6,0.5-0.9,0.8c0.2,0.1,0.3,0,0.4,0c0.1,0,0.3,0,0.2,0.1c-0.1,0.3,0.3,0.7-0.3,0.8c-0.1,0,0,0.1,0,0.2
					c0,0.3,0.2,0.3,0.4,0.3c0.5,0.1,1.1,0.8,1,1.2c-0.1,0.3-0.2,0.6-0.2,0.9c-0.1,0.3-0.3,0.5-0.6,0.4c-0.8-0.1-1.6-0.1-2.3-0.1
					c-0.4,0-0.9,0.3-0.8,0.6c0,0.6,0,1.1-0.3,1.6c-0.2,0.4-0.5,0.7-0.1,1.1c0,0,0,0.1,0,0.2c0,0.5,0,0.6,0.6,0.5
					c0.4-0.1,0.5,0.1,0.6,0.4c0,0.9-0.2,1.3-1.1,1.8c-0.7,0.3-1.1,1-1.1,1.6c0,0.9-0.6,1.4-1.3,1.6c-0.8,0.3-1.2,1-1.5,1.6
					c-0.4,0.7-1,1.4-1.3,2.2c-0.1,0.1-0.2,0.8-0.1,1c0.1,0.1,0.2,0.7,0.4,0.7c0.5,0,0.9,0,1.4,0c-0.5,0-1-0.5-1.5-0.5
					c-0.1,0-0.3-0.3-0.2-0.1c0.2,0.3,0.1,0.6,0.2,0.9c0.1,0.8-0.1,1.4-0.4,2.1c-0.2,0.4-0.4,0.7-0.1,1.1c0.1,0.1,0,0.2,0,0.2
					c-0.1,0.7,0,0.8,0.7,1c0,0,0.1,0,0.1,0c0,0.6,0.5,0.9,0.9,1.3c0.1,0.2,0.2,0.3,0.2,0.6c0,0.4,0.2,0.8,0.6,1
					c0.5,0.3,1,0.7,1.4,1.1c0.6,0.6,1,0.7,1.8,0.4c0.7-0.3,1.3-0.4,2-0.1c0.2,0.1,0.4,0,0.6,0c0.8-0.3,1.5-0.8,2.4-0.8
					c0.9,0,1.1,0,1.4,0.9c0.1,0.3,0.3,0.5,0.7,0.3c0.3-0.1,0.7-0.1,1.1-0.1c0.3,0,0.7,0.7,0.7,1.1c0,0.3,0,0.6-0.1,0.8
					c-0.1,0.1-0.1,0.2,0.1,0.3c0.3,0.2,0.8,0,0.8-0.3c0-0.3,0.2-0.4,0.4-0.4c0.6,0,0.6,0,0.8,0.7c-0.1,0-0.1-0.1-0.1-0.1
					c0-0.4-0.3-0.4-0.6-0.4C87,73.8,87,74,87,74.2c0,0.1-0.1,0.3-0.2,0.3c-0.4,0-0.6,0-0.7,0.6c-0.2,0.7-0.3,1.1,0.3,1.6
					c1,1,1.4,2.3,1.9,3.6c0,0.1,0,0.1,0,0.2c-0.2,0.4,0,0.8,0.2,1.2c0.2,0.4,0.3,0.8,0,1.1c-0.6,0.6-0.6,1.5-0.8,2.3
					c-0.1,0.3-0.1,0.7,0.5,0.8c-0.6,0.1-0.5,0.4-0.3,0.6c0.4,0.6,0.6,1.3,1,1.8c0.3,0.5,0.5,1.1,0.5,1.7c0,0.6,0.2,1.3,0.4,1.9
					c0.1,0.3,0.2,0.5,0.4,0.7c0.2,0.2,0.4,0.5,0.5,0.8c0.1,0.4,0.3,0.8,0.5,1.2c0.1,0.2,0.3,0.5,0.1,0.8c-0.2,0.4,0.1,0.7,0.3,0.9
					c0.2,0.2,0.4,0.4,0.8,0.3c0.5-0.2,1.1-0.4,1.7-0.3c0.6,0.1,1.2-0.1,1.8-0.5c0.7-0.6,1.4-1.3,1.8-2.2c0.1-0.1,0.2-0.3,0.3-0.4
					c0.7-0.4,0.5-1.2,0.6-1.8c0-0.2,0.1-0.4,0.2-0.5c0.2-0.2,0.5-0.3,0.8-0.4c0.3-0.1,0.4-0.3,0.5-0.6c0.1-0.7,0-1.4-0.2-2
					c0-0.2-0.1-0.3,0-0.5c0.7-0.6,1.2-1.4,2.1-1.8c0.6-0.2,1.1-1,1.1-1.6c0-0.7,0-1.5,0-2.2c0-0.1,0-0.3-0.1-0.4
					c-0.5-0.5-0.4-1.2-0.4-1.8c0-0.1,0.1-0.3,0-0.4c-0.5-0.5-0.1-1,0.1-1.4c0.3-0.7,0.8-1.3,1.3-1.9c0.6-0.7,1.1-1.5,1.9-2.1
					c0.5-0.3,0.9-0.8,1.3-1.3c0.8-1.1,1.2-2.3,1.8-3.5c0.2-0.3,0.1-0.7,0.2-1.1c0-0.3-0.1-0.4-0.4-0.2c-0.3,0.2-0.7,0.3-1.1,0.3
					c-0.6,0-1.1,0.3-1.6,0.4c-0.3,0.1-0.6,0.2-0.8,0c-0.2-0.3-0.8-0.4-0.4-0.9c0.1-0.1,0-0.2-0.1-0.3c-0.6-0.5-0.9-1.2-1.6-1.5
					c-0.4-0.2-0.5-0.5-0.6-0.9c-0.1-0.4-0.2-0.9-0.6-1.1c-0.4-0.3-0.6-0.7-0.6-1.2c0-0.6-0.1-1.2-0.7-1.6c-0.2-0.1-0.2-0.3-0.2-0.5
					c0-0.1,0-0.3-0.1-0.4c-0.7-0.9-0.9-2-1.6-2.9c-0.1-0.1-0.2-0.3-0.2-0.5c0.2,0.2,0.3,0.4,0.4,0.6c0.1,0.2,0.2,0.5,0.5,0.5
					c0.3,0,0.2-0.4,0.3-0.5c0,0,0-0.1,0.1-0.1c0.1,0.2,0,0.4,0.1,0.5c0.5,0.4,0.8,1.1,1.2,1.6c0.2,0.3,0.2,0.7,0.5,0.9
					c0.5,0.3,0.7,0.8,0.8,1.4c0,0.5,0.2,0.9,0.6,1.2c0.2,0.1,0.4,0.4,0.5,0.7c0.1,0.3,0.3,0.6,0.5,0.9c0.2,0.3,0.5,0.5,0.5,0.9
					c0,0.6,0.2,1.2,0.3,1.8c0.1,0.5,0.3,0.6,0.7,0.4c0.5-0.3,1.1-0.4,1.7-0.6c0.6-0.2,1.2-0.7,1.8-0.8c0.2,0,0.5-0.1,0.5-0.3
					c0.1-0.6,0.7-0.6,1.1-0.8c0.2,0,0.3,0,0.4-0.2c0.2-0.4,0.7-0.6,1-1c0.2-0.2,0.3-0.3,0.3-0.6c0-0.2,0.1-0.4,0.3-0.5
					c0.3-0.2,0.4-0.5,0.6-0.8c0-0.1,0-0.2,0-0.3c-0.3-0.3-0.6-0.7-1.1-0.8c-0.4-0.1-0.7-0.4-0.8-0.9c0-0.2-0.1-0.3-0.1-0.5
					c-0.3,0.2-0.5,0.5-0.7,0.8c-0.2,0.3-0.4,0.4-0.7,0.4c-0.2,0-0.4,0.1-0.7,0.1c-0.3,0-0.6,0-0.3-0.4c0.1-0.2,0.1-0.5-0.1-0.7
					c-0.1-0.1-0.2-0.2-0.3-0.3c-0.1-0.4-0.3-0.6-0.7-0.5c-0.1,0-0.2,0-0.3-0.1c-0.4-0.4-0.7-0.9-0.7-1.5c0-0.3,0.1-0.5,0.5-0.4
					c0.3,0.1,0.5,0.2,0.6,0.5c0.3,0.8,1.1,1.1,1.7,1.6c0.4,0.3,0.8,0.3,1.2,0.1c0.5-0.3,0.5-0.2,0.8,0.3c0.1,0.2,0.2,0.4,0.4,0.4
					c0.8,0.2,1.7,0.4,2.5,0.4c0.7,0,1.3,0,2-0.1c0.1,0,0.2,0,0.2,0.1c0.3,0.4,0.6,0.8,1.1,1.1c0.3,0.2,0.6,0.5,1.2,0.4
					c-0.2,0.1-0.2,0.2-0.3,0.2c-0.5,0.2-0.5,0.2-0.1,0.6c0.1,0.1,0.1,0.1,0.2,0.2c0.2,0.2,0.4,0.5,0.8,0.4c0.4-0.1,0.6-0.3,0.6-0.8
					c0.2,0.3,0.3,0.7,0.3,1c0.1,1,0.3,1.9,0.7,2.8c0.6,1.2,1,2.4,1.7,3.5c0.2,0.3,0.1,0.7,0.3,1c0.3,0.4,0.6,0.4,0.9,0
					c0.1-0.1,0.1-0.2,0.2-0.2c0.3-0.3,0.6-0.6,0.6-1c0-0.8,0.3-1.7,0-2.6c-0.1-0.2,0-0.3,0.1-0.4c0.5-0.3,0.9-0.6,1.2-1.1
					c0.3-0.3,0.7-0.6,0.9-1c0.1-0.2,0.2-0.4,0.5-0.4c0.3-0.1,0.5-0.3,0.5-0.6c0-0.5,0.2-0.6,0.8-0.6c0.4,0,0.9,0,1.2-0.2
					c0.3-0.3,0.4-0.1,0.5,0.2c0.1,0.2,0.2,0.5,0.4,0.7c0.4,0.3,0.7,0.6,1,1c0.4,0.5,0.6,0.9,0.5,1.5c0,0.2,0.1,0.3,0.3,0.4
					c0.6,0.2,0.8-0.3,1.2-0.6c0.5,0.4,0.4,1.1,0.7,1.6c0.4,0.7,0.6,1.5,0.5,2.3c0,0.3-0.1,0.7-0.1,1c0,0.2-0.1,0.4,0.1,0.5
					c0.4,0.1,1,0.9,1,1.3c0.1,1,0.4,1.8,1.3,2.4c0.1,0.1,0.2,0.2,0.2,0.4c0,0.2,0.1,0.4,0.4,0.4c0.2,0,0.4-0.1,0.5-0.3
					c0.1-0.2,0-0.4-0.2-0.5c-0.3-0.2-0.5-0.5-0.4-1c0.1-1-0.5-1.6-1.4-2c-0.2-0.1-0.3-0.2-0.3-0.4c0-0.3-0.2-0.7-0.4-0.9
					c-0.4-0.2-0.3-0.5-0.3-0.8c0.1-0.5,0.3-1,0.3-1.5c0-0.1,0-0.2,0.1-0.2c0.1,0,0.2,0,0.2,0.1c0,0.3,0.2,0.3,0.5,0.4
					c0.3,0.1,0.7,0.3,0.8,0.6c0.1,0.3,0.3,0.5,0.6,0.6c0.4,0.2,0.6,0.4,0.5,0.8c0,0.1,0,0.3,0.2,0.3c0.1,0,0.8-0.5,0.8-0.6
					c-0.2-0.4,0.2-0.4,0.5-0.5c0.4-0.2,0.8-0.3,0.9-0.7c0.2-0.9,0-1.7-0.6-2.4c-0.5-0.5-1.1-1-1.6-1.6c-0.2-0.2-0.3-0.4-0.2-0.7
					c0.2-0.5,0.5-0.9,0.9-1.1c0.4-0.2,0.8,0,0.9,0.4c0,0.1,0.1,0.2,0.1,0.2c0.1,0.1,0.1,0.2,0.2,0.1c0.1,0,0.1-0.1,0-0.2
					c-0.1-0.2,0-0.4,0.2-0.4c0.3-0.1,0.7-0.2,0.9-0.3c0.4-0.2,0.8-0.4,1.2-0.4c0.2,0,0.4-0.1,0.5-0.2c0.4-0.7,1.4-1,1.1-2.1
					c0,0,0-0.1,0-0.1c0.3-0.5,0.4-1,0.4-1.5c0-0.2,0-0.4-0.3-0.4c-0.1,0-0.4-0.1-0.3-0.3c0.3-0.5-0.1-0.8-0.4-1
					c-0.3-0.3-0.6-0.6-0.9-0.9c-0.1-0.1-0.3-0.3-0.5-0.4c-0.7-0.4-0.7-0.4-0.4-1c0.1-0.2,0.2-0.4,0.5-0.5c0.2,0,0.2-0.1,0-0.3
					c-0.2-0.2-1.1-0.3-1.3-0.1c-0.1,0.1-0.3,0.2-0.4,0c-0.2-0.3-0.5-0.4-0.8-0.5c-0.2,0-0.4-0.2-0.4-0.3c-0.1-0.2,0.2-0.1,0.3-0.2
					c0.1,0,0.2-0.1,0.2-0.2c0-0.3,0.3-0.4,0.3-0.6c0-0.1,0.2-0.2,0.3-0.1c0.2,0.1,0.4,0.2,0.3,0.3c-0.1,0.3,0.2,0.6,0.2,0.9
					c0.2,0,0.3-0.2,0.4-0.3c0.2-0.3,0.6-0.3,1-0.1c0.4,0.1,0.5,0.3,0.6,0.7c0.1,0.3,0.3,0.4,0.6,0.5c0.3,0,0.6,0.1,0.7,0.4
					c0.2,0.5,0.6,1,0.8,1.5c0,0.1,0.1,0.2,0.2,0.1c0.3-0.1,0.6-0.2,0.9-0.3c0.2-0.1,0.2-0.3,0.1-0.6c-0.5-0.8-1.2-1.3-2-1.8
					c-0.5-0.3-0.5-0.3-0.3-0.7c0.1-0.2,0.4-0.3,0.1-0.6c-0.3-0.4-0.2-0.7-0.1-0.9c0.1-0.2,0.2-0.2,0.5-0.1c0.6,0.3,1,0.1,1-0.5
					c0-0.6,0-1.2-0.2-1.9c-0.1-0.6-0.4-1-0.9-1.5c-0.3-0.3-0.6-0.6-0.7-0.9c-0.1-0.1-0.1-0.2-0.3-0.3c-0.5-0.4-1.1-0.8-1.7-1.1
					c-0.2-0.1-0.4-0.1-0.4,0.1c0,0.3-0.2,0.2-0.5,0.1c-0.5-0.2-0.9-0.7-1.4-0.7c-0.1,0-0.3-0.2-0.2-0.3c0.2-0.5,0.1-1.1,0.1-1.7
					c0-0.4,0.1-0.6,0.5-0.5c0.4,0.1,0.8,0,1.2,0.1c0.5,0.1,0.7-0.2,1.2,0c0.3,0.1,0.7,0.2,1,0.3c0.4,0.1,0.4,0,0.2-0.3
					c-0.2-0.3-0.3-0.7-0.2-0.9c0.1-0.3,1,0,1.4,0.3c0.2,0.2,0.5,0.4,0.6,0.3c0.1-0.1,0.2-0.3-0.1-0.6c-0.3-0.3-0.1-0.3,0.1-0.3
					c0.3,0,0.4,0.1,0.7,0.4c0.3,0.4,0.6,0.6,0.5,1c0,0.1,0.1,0.2,0.1,0.3c0,0.2,0.3,0.5,0.2,0.7c-0.1,0.4,0,0.7,0.6,1.2
					c1.1,1,2.4,1.7,3.6,2.6c0.3,0.2,0.3,0.1,0.3-0.1c0-0.1-0.2-0.3-0.3-0.4c-0.2-0.1-0.3-0.3-0.2-0.4c0.1,0,0-0.1-0.1-0.2
					c-0.4-0.4-0.3-0.5,0.1-0.6c-0.5-0.3-0.9-0.6-1.1-1c-0.1-0.2-0.5-0.6-0.9-0.7c-0.4-0.1-1.1-0.7-1.3-1.1c0-0.1-0.1-0.2,0-0.2
					c0.3,0.1,0.3-0.3,0.8,0c0.1,0.1,0.1,0,0.2,0c0.2-0.2,0.6-0.1,1.1,0.1c0.2,0.1,0.3,0.1,0.2-0.1c0-0.2-0.1-0.4,0-0.5
					c0.3-0.2,0.5-0.6,1.2-0.3c0,0,0,0,0-0.1c-1.1-0.5-2.1-1.1-3.1-1.4c0.1-0.1,0.3-0.1,0.5,0c0.1,0.1,0.3,0.1,0.4,0.1
					c0.1,0,0.3,0,0.2-0.1c0-0.1-0.2-0.2-0.3-0.3c-0.1,0-0.1-0.1-0.2-0.1c-0.1-0.1-0.3-0.2-0.3-0.3c0-0.1,0.2,0,0.3,0
					c0.2,0.1,0.5,0.3,0.7,0.4c0.7,0,1.5,0.5,2.2,0.7c0.2,0,0.5,0.2,0.4,0c0-0.2-0.3-0.3-0.5-0.4c0,0,0,0-0.1-0.1
					c0.2,0,0.3,0,0.4-0.1c-0.6-0.2-1.1-0.5-1.6-0.6c-0.3-0.1-0.1,0.1,0.1,0.3c-3.1-1.5-5.9-2.3-8.6-2.8c0.1,0.1,0.2,0.2,0.3,0.2
					c0.2,0.1,0.4,0.2,0.5,0.4c0,0.2-0.2,0-0.4,0c-0.4-0.2-0.9-0.4-1.2-0.5c-0.7,0-1.5-0.3-2.1-0.3c-0.2,0-0.5-0.1-0.8-0.3
					c-0.9-0.6-1.7-0.7-2.4-0.7c-0.9,0-1.8-0.3-2.8-0.8c-0.3-0.1-0.7-0.3-0.8,0c-0.1,0.1-0.2,0.1-0.4,0c-0.5-0.4-1-0.4-1.4-0.6
					c-0.2,0-0.4-0.1-0.4,0.1c0,0.2,0.2,0.3,0.4,0.4c0,0,0,0.1,0,0.1c-0.5,0.3-1.4-0.3-1.9-0.2c-0.2,0-0.5-0.2-0.4,0.2
					c0,0.1-0.1,0.1-0.2,0c-0.7-0.3-1.4-0.4-2-1.1c-0.3-0.3-0.6-0.4-0.9-0.4c-0.1,0-0.3,0-0.4,0c-0.2,0-0.6-0.4-0.6,0.1
					c0,0-0.1,0-0.1,0c-0.4,0-0.9,0-1.4-0.2c-0.4-0.2-0.8-0.2-1.2-0.3c-0.3,0-0.6,0-0.9-0.1c-0.2-0.1-0.5-0.1-0.7,0
					c-0.4,0.2-0.8,0.2-1.3,0.2c0.3-0.5,0.7-0.7,1.1-1c-0.9-0.7-1.7-0.9-2.4-0.8c-0.1,0-0.2,0-0.3-0.1c-0.4-0.2-0.9-0.4-1.3-0.5
					c-0.2-0.1-0.4,0-0.4,0.2c0,0.2,0.2,0.2,0.4,0.3c0,0,0,0,0,0.1c-0.2,0-0.3-0.1-0.4,0c-0.3,0.2-0.6,0.2-1,0.2
					c-0.6-0.1-1.1,0.1-1.7,0.1c-0.1,0-0.2,0.1-0.3,0.1c-0.1,0.1-0.2,0.2,0,0.4c0.2,0.3,0.1,0.3-0.1,0.3c-0.4,0.1-0.8,0.1-1.3,0
					c-0.1,0-0.2,0-0.2,0.1c0,0.1,0.1,0.2,0.2,0.3c0.2,0.3,0.5,0.2,0.7,0.3c0.1,0.1,0.2,0.1,0.2,0.2c0,0.2-0.2,0.1-0.3,0.1
					c-0.6-0.3-1.1-0.5-1.6-0.1c0.3,0.3,0.6,0.1,0.9,0.4c-0.5-0.2-1,0.1-1.5-0.6c-0.1-0.2-0.2,0-0.3,0c-0.1,0.1,0,0.2,0.1,0.3
					c0.2,0.1,0.4,0.2,0.4,0.5c0.1,0.5,0.4,0.7,0.8,0.6c0.4-0.1,1,0.2,1.2,0.5c0.1,0.3,0.3,0.3,0.6,0.4c-0.4,0-0.6,0-0.8-0.3
					c-0.2-0.3-0.5-0.4-0.8-0.4c-0.2,0-0.3,0.1-0.1,0.3c0.2,0.2,0.1,0.4,0.1,0.6c-0.2,0.6-1.1,0.6-1.5,0.1c0.2-0.1,0.4,0,0.6-0.1
					c0.3-0.2,0.4-0.6,0.1-0.8c-0.4-0.2-0.5-0.6-0.7-1c-0.2-0.4-0.7-0.4-0.6-1c0-0.1-0.1-0.2-0.3-0.2c-0.5-0.2-0.7-0.1-1,0.5
					c-0.1,0.2-0.1,0.3,0.1,0.6c0.2,0.4,0.6,0.5,0.8,0.7c0.1,0.1,0.3,0.1,0.3,0.3c-0.1,0.2-0.2,0.1-0.3,0c-0.5-0.2-1-0.4-1.5-0.6
					c-0.3-0.1-0.6-0.2-0.9-0.2c-0.1,0-0.3,0-0.1,0.2c0.1,0.2,0,0.3-0.1,0.4c-0.1,0.1-0.2,0.2-0.3,0c-0.2-0.2-0.3-0.1-0.5-0.1
					c-0.4,0.1-0.8,0-1.2,0.2c-0.1,0.1-0.3,0.1-0.4-0.2c0-0.2-0.2-0.2-0.2,0c0,0.1-0.1,0.1-0.2,0.1c-0.5,0-1,0.2-1.3,0.7
					c-0.2,0.2-0.7,0.2-0.9-0.1c-0.2-0.3,0.2-0.3,0.2-0.4c-0.2-0.1-0.4-0.3-0.6-0.1c-0.1,0.2-0.1,0.5,0.1,0.7c0.1,0.1,0.1,0.3,0,0.4
					c-0.1,0.2-0.2,0.1-0.4,0c-0.4-0.2-0.6,0.1-0.9,0.3c-0.2,0.2,0.2,0.3,0.1,0.6c-0.4,0-0.9-0.1-1.3-0.3c0.1,0.3,0.2,0.4,0.4,0.4
					c0.1,0,0.2,0.1,0.1,0.2c0,0.1-0.1,0.1-0.2,0.1c-0.4-0.1-0.9-0.1-1.1-0.5c-0.2-0.5-0.4-0.8-0.9-1c-0.1-0.1-0.2-0.2-0.3-0.3
					c0.1-0.1,0.2-0.1,0.3,0c0.6,0.3,1.2,0.4,1.8,0.5c0.2,0,0.5,0,0.7-0.1c0.2-0.1,0.3-0.1,0.4-0.3c0-0.2-0.2-0.3-0.4-0.4
					c-0.5-0.2-0.9-0.4-1.4-0.6c-0.4-0.2-0.7-0.1-1.1-0.2c-0.4-0.1-0.8-0.2-1.3-0.3c-0.1,0-0.1-0.1-0.1-0.1c0-0.2,0.3-0.1,0.3-0.3
					c-0.2-0.1-0.4-0.3-0.7,0c-0.1,0.1-0.2,0-0.2-0.1c0-0.3-0.1-0.1-0.2,0c-0.1,0.1-0.1,0.2-0.2,0.1c-0.2-0.2-0.3,0-0.5,0.1
					c-0.1-0.1,0.1-0.6-0.2-0.3c-0.3,0.3-0.7,0.3-1.1,0.5c-0.4,0.2-1,0.1-1.3,0.6c-0.1,0.1-0.1,0.3-0.2,0.3c-0.4,0.1-0.6,0.5-1,0.7
					c-0.2,0.1-0.4,0.4-0.5,0.6c-0.1,0.5-0.4,0.5-0.7,0.7c-0.1,0-0.2,0.1-0.2,0.1c-0.5,0.5-1,1-1.6,1.2c-0.1,0-0.2,0.2-0.3,0.2
					c-0.1,0.1-0.2,0.3,0,0.4c0,0,0,0.1,0,0.1c-0.4,0.2-0.1,0.4-0.1,0.5c-0.1,0.3,0.3,0.5-0.1,0.7c-0.1,0,0,0.1,0,0.2
					c0.3,0.2,0.6,0.3,1,0c0.3-0.3,0.7-0.4,0.9-0.9c0.3,0.5,0.4,1.1,0.6,1.6C88.3,40.1,88.3,40.2,88.3,40.5z M148.8,83.3
					c0-0.8-0.1-0.9-1-0.5c-0.4,0.2-0.6,0.5-0.9,0.7c-0.2,0.2-0.3,0.6-0.7,0.6c0,0.1,0,0.2-0.1,0.3c-0.1,0.1-0.2,0.3-0.3,0.1
					c-0.1-0.1,0-0.3-0.2-0.2c-0.2,0.1-0.3,0.2-0.4,0.4c-0.2,0.5-0.7,0.9-1.2,1.2c-0.7,0.4-1.4,0.6-2.1,0.8c-0.7,0.2-1.2,0.6-1.7,0.9
					c-0.2,0.1-0.5,0.2-0.5,0.3c-0.1,0.5-0.7,0.9-0.7,1.3c0,0.4,0.1,0.8-0.5,1.2c0,0,0,0.1,0,0.1c-0.1,0.8-0.3,1.6-0.6,2.4
					c-0.2,0.6-0.4,1.2-1.1,1.6c-0.2,0.1-0.2,0.2-0.1,0.4c0.2,0.4,0.6,0.4,1.2,0.1c0.6-0.3,1.3-0.7,1.9-0.7c0.5,0,1,0,1.5-0.5
					c0.1-0.1,0.2-0.1,0.4-0.2c0.9-0.5,1.7-0.5,2.6-0.9c0.8-0.4,1.3,0,1.9,0.2c0.1,0,0.1,0.1,0.1,0.3c-0.1,0.4-0.1,0.7-0.4,1.2
					c0.7-0.4,1.3-0.9,2-1.3c-0.2,0.4-0.6,0.6-0.9,1c0.4-0.2,0.3-0.1,0.2,0.2c-0.1,0.1-0.3,0.3-0.1,0.3c0.2,0,0.1,0.1,0,0.3
					c-0.1,0.2-0.2,0.4-0.4,0.6c-0.2,0.3-0.3,0.5-0.1,0.6c0.4,0.1,0.7,0.5,1.5-0.1c0.2-0.1,0.3-0.2,0.3,0c0,0.5,0.4,0.2,0.7,0
					c0.4-0.2,0.8-0.4,1.2-0.4c0.3,0,0.6-0.2,1-0.5c1.1-1,2.2-1.9,3.5-2.7c0.4-0.2,0.7-0.5,1.1-0.8c0.9-0.9,1.8-1.8,2.3-2.8
					c0.2-0.4,0.3-0.7,0.2-0.9c-0.1-0.3-0.3-0.5-0.1-0.9c0-0.1,0-0.2-0.1-0.2c-0.3,0-0.2-0.2-0.1-0.3c0.2-0.6,0-1-0.4-1.3
					c-0.2-0.1-0.2-0.2-0.1-0.4c0.3-0.6,0.2-1.1,0.4-1.7c0.1-0.3,0.1-0.5-0.2-0.5c-0.3,0-0.3-0.2-0.2-0.4c0.1-0.5,0.1-1,0-1.5
					c-0.6,0.7-1,1.4-1.2,2.1c-0.2,0.5-0.6,1-1,1.4c-0.3,0.4-0.7,0.5-1,0.2c-0.1-0.1-0.2-0.2-0.3-0.3c-0.3-0.3-0.7-0.4-0.9-0.7
					c-0.1-0.1-0.2-0.2,0-0.4c0.4-0.4,0.5-0.8,1-1.1c0.1,0,0.2-0.1,0.1-0.2c-0.3,0.1-0.9,0-1.5-0.2c-0.2-0.1-0.4-0.2-0.6,0.2
					c-0.1,0.2-0.3,0.2-0.4,0.2c-0.7,0.1-1.5,0.7-1.6,1.4c-0.1,0.2-0.2,0.4-0.4,0.3C149.2,83,149,83.2,148.8,83.3z M64.8,31.1
					c0.1,0.1,0.3,0,0.4,0c0.6-0.1,1.3-0.3,1.8-0.2c0.3,0.1,0.6,0.4,0.5,0.8c-0.1,0.3-0.1,0.5-0.2,0.8c-0.2,0.3-0.4,0.4-0.7,0.5
					c0.2,0.2,0.4,0,0.5-0.1c0.3-0.3,0.7-0.1,0.7,0.3c0,0.3-0.1,0.5-0.4,0.4c-0.2,0-0.4-0.1-0.7,0c0.2,0.1,0.3,0.2,0.6,0.2
					c0.1,0,0.2,0,0.2,0.1c0,0.1,1,0.3,0.9,0.3c-0.5,0.1,0.2,0.9,0.2,0.9c0,0,0,0,0,0c-0.1,0.3-1.3,0.4-1.5,0.5
					c-0.2,0.1-1,0.2-1.2,0.3c0.1,0.1-0.1,0.3,0,0.3c-0.1,0.1-0.4,0.1-0.5,0.1c-0.1,0-0.2,0.1-0.2,0.2c0,0.1,0.1,0.1,0.1,0.1
					c0.2-0.2,0.3-0.1,0.3,0.1c0,0.2-0.3,0.3-0.4,0.3C65,37,65,37.1,65,37.3c0,0.1,0,0.2,0,0.3c-0.2,0.7,0.1,1.1,0.8,0.9
					c0.1,0,0.4-0.2,0.3,0.2c0,0.1,0.4,0.4,0.4,0.3c0.2-0.6,1-0.7,1.1-1.3c0,0,0.1-0.1,0.1-0.1c0.5-0.1,0.9-0.6,1.3-1
					c0.5-0.6,1.2-0.6,1.7-1c0,0,0.1,0,0.1,0.1c0.1,0.2,0.3,0.1,0.5,0c0.7-0.3,1.3-0.7,1.9-1.2c0.1-0.1,0.1-0.1,0.1,0
					c0.2,0.3,0.6,0,0.8,0c0.8-0.2,1.6-0.4,2.4-1c-0.4-0.1-0.4-0.1-0.8,0c-0.5,0.1-0.5,0.1-0.8-0.1c0.3-0.4,0.7-0.3,1.1-0.4
					c-0.2-0.1-0.3-0.1-0.5-0.1c-0.1,0-0.1-0.1-0.1-0.2c0-0.1,0.1-0.1,0.1-0.1c0.3,0.2,0.8,0.1,0.9,0.4c0.2,0.3,0.4,0.3,0.7,0.2
					c-0.1-0.3-0.1-0.7-0.4-0.7c-0.2,0-0.4-0.3-0.7-0.2c-0.1,0-0.2,0-0.1-0.1c0-0.1,0.1-0.2,0.1-0.2c0.3,0,0.5-0.2,0.8-0.3
					c0.3-0.1,0.6-0.1,0.9,0.1c0.1,0.1,0.3,0.1,0.4-0.1C78.2,31,77.9,31.3,78,31c0.1-0.3,0.4-0.2,0.5-0.4c0-0.1-0.2,0-0.2-0.2
					c0.1-0.2,0.2-0.4,0.4-0.4c0-0.2-0.2-0.1-0.2-0.3c0.4-0.3,0.8-0.1,1.2-0.2c-0.3-0.1-0.6-0.1-0.8-0.3c0.2-0.2,0.4-0.5,0.7-0.6
					c0.2-0.1,0.3-0.2,0.3-0.5c0-0.1,0-0.3,0.3-0.3c0.3,0,0.7-0.1,1-0.1c0.3,0,0.6-0.2,1-0.3c-1,0-2,0.2-3.2,0.6
					c0.3-0.3,0.5-0.2,0.8-0.5c-0.5-0.1-0.9,0.3-1.4,0.2c0.2-0.1,0.3-0.1,0.4-0.1c-0.6-0.1-1.1,0.1-1.6,0.1c0.9-0.3,1.8-0.1,2.8-0.5
					c-1.1,0-2.1-0.1-3.2,0.1c0.5-0.3,1-0.1,1.5-0.3c-0.1,0-0.2,0-0.3,0c-1.1-0.1-2.3,0.6-3.4,0.5c0,0-0.1,0-0.1,0.1
					C74.3,27.9,74,28,73.7,28c-0.2,0-0.5-0.1-0.7-0.1c-0.1,0-0.2,0-0.3,0c-0.2,0.5-0.4,0.2-0.5,0.2c-0.1,0-0.3,0-0.4,0
					c-0.1,0.1-0.2,0.1-0.3,0c-0.2-0.2-0.6,0-0.9,0.1c-0.1,0-0.2,0.3-0.3,0.2c-0.2-0.2-0.5-0.1-0.9,0.2c-0.1,0.1-0.1-0.1-0.2-0.1
					c-0.5,0-1.1,0.2-1.6,0.3c0.2,0,0.3,0,0.6-0.1c-0.9,0.1-2.3,0.9-3.4,1.4c0.4,0.2,0.9,0.3,1.4,0.2c-0.5,0.5-0.9,0.3-1.2,0.5
					C65.2,30.9,64.8,31,64.8,31.1z M152.3,75c0.5,0.3,0.8,0.9,1.7,0.7c-0.4,0.1-0.7,0.1-1,0.3c0.4,0.2,0.1,1,0.9,0.5
					c0.1,0,0.2,0,0.2,0.1c0.2,0.2,0.6,0.3,0.9,0.4c0.2,0,0.4,0.1,0.5,0.2c0.4,0.2,0.4,0.6,0.5,0.9c0.1,0.3-0.3,0.3-0.5,0.5
					c-0.1,0.1-0.3,0.2-0.2,0.4c0,0.1,0.2,0.1,0.4,0.1c0.2,0,0.3-0.1,0.5-0.1c0.2,0,0.4,0,0.4,0.1c0.2,0.4,0.6,0.4,1.1,0.4
					c0.2,0,0.4,0,0.5-0.2c0.2-0.2-0.1-0.2-0.2-0.3c0.2,0,0.4,0,0.5-0.1c0.7-0.4,1.3-0.3,1.5,0.3c0.2,0.8,1,0.8,1.8,0.9
					c0-0.1-0.1-0.2-0.1-0.2c-0.3-0.5-0.8-0.8-1-1.3c-0.1-0.1-0.3-0.3,0-0.5c0.5-0.3,0.5-0.3,0-0.5c-0.2-0.1-0.5-0.1-0.5-0.4
					c0-0.4-0.3-0.6-0.6-0.7c-1-0.4-2-0.8-3-1.2c-0.2-0.1-0.4,0-0.7,0.1c-0.3,0.2-0.6,0.4-0.9,0.7c-0.1,0.2-0.3,0.2-0.4,0
					c-0.1-0.3-0.5-0.5-0.2-0.9c0.1-0.1,0-0.3-0.1-0.4c-0.4-0.1-0.7-0.4-1.2-0.1C152.7,74.9,152.5,75,152.3,75z M140.5,74.3
					c0.1,0.3,0.1,0.7,0.3,1.1c0,0.1,0.2,0.1,0.2,0.3c0,0.3-0.2,0.7,0.3,0.7c0.4,0,0.5,0.3,0.9,0.2c0.5-0.1,0.9-0.2,1.2,0.3
					c0,0.1,0.2,0,0.3,0c0.2-0.1,0.3-0.2,0.5-0.1c0.1,0,0.2-0.1,0.2-0.2c0.2-0.6,0.1-1.2,0.8-1.6c0.1-0.1,0.1-0.3,0.1-0.4
					c0.1-0.3,0.1-0.6,0.6-0.6c0.2,0,0.3-0.1,0.1-0.3c-0.2-0.2-0.3-0.4-0.4-0.7c-0.1-0.3-0.3-0.6,0-0.8c0.2-0.2,0.4-0.5,0.6-0.6
					c0.3-0.2,0.2-0.2,0-0.4c-0.2-0.1-0.5-0.1-0.6-0.4c-0.2-0.4-0.5-0.4-0.8,0c-0.1,0.1-0.2,0.3-0.3,0.4c-0.2,0.1-0.1,0.4-0.4,0.3
					c-0.4-0.1-0.5,0.1-0.6,0.4c-0.2,0.5-0.4,0.8-1,0.9c-0.3,0-0.4,0.2-0.5,0.5c-0.1,0.3-0.2,0.3-0.5,0.3
					C140.8,73.5,140.5,73.7,140.5,74.3z M56.7,37.1c0.2,0.1,0.3,0.3,0.4,0.5c0.1,0.1-0.1,0.4,0.1,0.5c0.3,0.1,0.5,0.4,0.9,0.4
					c0.1,0,0.2,0.1,0.3-0.1c0.1-0.1,0-0.2,0-0.3c-0.1-0.1-0.3-0.2-0.1-0.4c0.2-0.2,0.3,0,0.5,0.1c0,0,0,0,0.1,0
					c0.2,0.1,0.3,0.2,0.6-0.1c0.3-0.3,0.3-0.5,0.2-0.7c-0.2-0.3-0.1-0.4,0.2-0.7c0,0,0-0.1,0.1-0.1c0.3-0.4,0.4-0.1,0.7-0.1
					c0.2,0,0.2,0.1,0.1,0.3c-0.1,0.2,0.1,0.4,0.2,0.2c0.3-0.3,0.7-0.4,1.1-0.7c-0.2,0-0.3-0.2-0.5-0.2c-0.2,0,0.3-0.3,0-0.3
					c-0.4,0.1-0.4-0.2-0.7-0.3c-0.3-0.1,0-0.5,0-0.7c0-0.2,0.3-0.2,0.5-0.3c0.1,0,0.2,0,0.2-0.2c-0.3,0.1-0.5,0.1-0.8,0.3
					c-0.1,0.1-0.2,0.1-0.2,0c0-0.1,0-0.2,0.2-0.3c0.1-0.1,0.2,0,0.4-0.2c-0.2,0-0.4,0.1-0.6,0.2c-0.3,0.1-0.5,0.1-0.5-0.2
					c-0.1-0.3,0.3-0.2,0.4-0.4c-0.3,0-0.5-0.2-0.9,0.3c-0.1,0.1-0.2,0.2-0.3,0.2c-0.2-0.1-0.5-0.1-0.8,0c0.1-0.1,0.1-0.2,0.2-0.3
					c0.2-0.1,0.4-0.2,0.4-0.4c0-0.2-0.2-0.1-0.4-0.1c-0.4,0-0.8,0.6-1.2,0.5c0,0-0.1,0.1-0.1,0.1c0,0.2-0.1,0.2-0.3,0.3
					c-0.1,0-0.2,0.1-0.2,0.2c0,0.2-0.2,0.3-0.4,0.3c-0.1,0-0.1,0,0-0.1c0.2-0.4,0.4-0.7,0.8-0.9c0.1-0.1,0.3-0.1,0.4-0.3
					c-0.6,0-1.3,0.4-2,0.9c-0.1,0.1-0.3,0.2-0.3,0.3c-0.1,0.2,0.1,0.1,0.2,0.1c0.1,0,0.2,0,0.1,0.1c-0.1,0.1-0.2,0.1-0.3,0.1
					c-0.1,0-0.2-0.1-0.5,0.2c0.6-0.1,0.8,0.2,1.4,0c0.5-0.1,0.9-0.2,1.3-0.1c0.1,0,0.2,0,0.3-0.1c0.2-0.4,0.3-0.2,0.4-0.1
					c0.2,0.1,0.2,0.4,0.4,0.5c0.1,0.1,0.3,0.2,0.2,0.4c0,0.3-0.2,0.5-0.5,0.7c0.1,0,0.2,0,0.3,0c0.1,0,0.2-0.1,0.3-0.1
					c0.2,0,0.2,0,0.3,0.1c0,0,0,0.1,0,0.2c-0.1,0.1-0.7,0.2-0.8,0.1c-0.1-0.2-0.7-0.2-0.9,0.1C57.4,37,57,37,56.7,37.1z M103.8,89.9
					c0,0.6,0.2,1,0.6,1.1c0.3,0.1,1-0.3,1.2-0.7c0.2-0.6,0.5-1.2,0.7-1.8c0.3-0.9,0.7-1.8,1-2.7c0.1-0.3-0.2-0.9,0.5-1
					c0,0,0-0.1,0-0.1c-0.1-0.6,0-1.2-0.3-1.8c0-0.1-0.1-0.2-0.2-0.2c-0.1,0-0.1,0.1-0.2,0.2c0,0.2-0.1,0.4-0.3,0.5
					c-0.3,0.1-0.4,0.4-0.5,0.6c-0.1,0.3-0.3,0.4-0.6,0.6c-0.3,0.2-0.6,0.3-1,0.5c-0.1,0.1-0.3,0.1-0.3,0.2c-0.2,0.5-0.4,0.9-0.3,1.4
					c0.1,0.3,0.2,0.6,0,0.9C103.9,88.4,103.5,89,103.8,89.9C103.8,89.8,103.8,89.9,103.8,89.9z M137.9,78.1c0.2,0,0.4,0.1,0.5-0.1
					c0.1-0.5,0.2-1,0.3-1.5c0-0.1-0.1-0.3-0.2-0.3c-0.6-0.1-0.4-0.9-1-1c0,0-0.1-0.1,0-0.2c0.4-0.5-0.2-0.7-0.4-1
					c-0.3-0.4-0.9-0.5-1.2-0.8c-0.5-0.4-1.1-0.7-1.4-1.4c-0.1-0.2-0.4-0.3-0.6-0.3c-0.2,0-0.4,0-0.6-0.1c-0.1-0.1-0.2-0.1-0.3,0
					c-0.1,0.1-0.1,0.2,0,0.3c0.2,0.3,0.4,0.5,0.6,0.7c0.5,0.3,0.8,0.9,1.1,1.3c0.3,0.5,0.6,1,0.8,1.5c0.2,0.6,0.5,1.2,0.9,1.7
					c0.3,0.3,0.7,0.5,0.9,0.9C137.5,78.2,137.6,78.3,137.9,78.1z M148.2,55c0.4,0.1,0.6-0.3,1.1-0.2c-0.1,0.1-0.1,0.1-0.1,0.1
					c-0.2,0-0.3,0.1-0.3,0.3c0,0.2,0.2,0.3,0.4,0.4c0.3,0.1,0.2-0.1,0.3-0.2c0,0,0.1-0.1,0.1-0.1c0.4,0.1,0.3-0.2,0.4-0.4
					c0.8,0.7,0.7,0.4,0.8-0.1c0,0-0.1-0.2,0-0.1c0.3,0.1,0.5,0.1,0.7-0.1c0.3,0.3,0.2-0.2,0.4-0.1c0.1,0.1,0.3,0.1,0.3,0
					c0-0.1,0-0.3-0.1-0.5c-0.3-0.5-0.7-1-0.8-1.5c-0.1-0.4-0.3-0.8-0.8-1c-0.2-0.1-0.3-0.2-0.4-0.4c-0.1-0.1-0.3-0.3-0.4-0.2
					c-0.2,0.1-0.2,0.3-0.1,0.5c0.1,0.2,0.2,0.4,0.4,0.5c0.4,0.5,0.5,1.2,0.2,1.4c-0.1,0.1-0.3,0.2-0.4-0.1c0-0.1-0.1-0.1-0.1-0.1
					c-0.1,0-0.1,0.1-0.1,0.1c0,0.1,0.1,0.1,0.1,0.2c0.1,0.2,0,0.5,0,0.7c0,0.2-0.3-0.1-0.4,0c-0.3,0.1-0.8-0.1-1,0.2
					c-0.3,0.3-0.5,0.7-0.8,1.1c-0.1,0.1,0,0.2,0.1,0.2c0.4,0.3,0.6,0.6,0.9,1c0.1,0.1,0.2,0.2,0.4,0.1c0.1,0,0.2-0.1,0.2-0.2
					C149.2,55.8,148.9,55.3,148.2,55z M48.6,34.5c-0.9,0.1-1.4,0.3-2.3,0.8c0.2,0.1,0.5,0,0.8,0c-0.5,0.3-0.8,0.2-1.3,0.5
					c0.5,0.1,1.2-0.3,1.6-0.1c-0.2,0.2-0.4,0.2-0.5,0.2c-0.3-0.1-0.8,0.1-1.3,0.2c-0.1,0-0.2,0-0.3,0.2c-0.1,0.1,0,0.1,0.1,0.1
					c0.2,0,0.6-0.2,0.4,0.3c0,0,0.1,0,0.1,0c0.7-0.1,1.4-0.3,2.2-0.6c0.2-0.1,0.4-0.1,0.5-0.1c0.2,0.1,0.4,0.2,0.7,0
					c0.5-0.4,0.9-0.5,1.4-0.5c0-0.1,0-0.1,0-0.1c-0.3-0.3-0.3-0.3,0.3-0.9c0.1-0.1,0.4-0.3,0.3-0.4C51,34,50.8,34,50.5,34.2
					c-0.2,0.1-0.4,0.3-0.6,0.5c-0.1,0.1-0.2,0.2-0.3,0.2c-0.1,0,0-0.1,0.1-0.2c0.2-0.2,0.2-0.3-0.1-0.2c-0.3,0.1-0.6,0.3-0.7,0
					C49,34.4,48.8,34.5,48.6,34.5c-0.1,0.2-0.2,0.3-0.4,0.2C48.4,34.6,48.5,34.5,48.6,34.5z M69.6,28.2c-0.8-0.2-4.4,0.3-4.9,0.5
					c0,0.1,0.2,0,0.1,0.1c-0.3,0-0.6,0-0.9,0c-0.3-0.1-0.7,0.3-1,0.2c-0.2,0-0.5,0-0.8,0.3c0.3,0,0.7-0.2,1-0.2
					c0.5,0.1,1.2,0.1,1.9-0.3c0,0,0.1,0,0.2,0c-0.4,0.4-0.7,0.4-1,0.5c-0.2,0-0.4,0-0.6,0.1c-0.1,0-0.2,0-0.3,0.2
					c-0.1,0.2,0.1,0,0.1,0.2c-0.3,0.1-0.4,0-0.6-0.1c-0.2-0.1-0.4-0.1-0.6,0c-0.1,0-0.1,0.1-0.1,0.2c-0.1,0.3,0.2,0.2,0.4,0.2
					c-0.3,0.2-0.5,0.2-0.7,0.2c-0.2-0.1-0.5,0-0.7,0.4c-0.3,0.5-0.5,0.4-0.7,0.4c-0.1,0-0.1-0.1-0.2-0.1c-0.1,0-0.2-0.1-0.3,0.1
					c-0.2,0.3-0.4,0.5-0.5,0.5c-0.1,0-0.5,0.4-0.5,0.5c1-0.1-1.6,0.2-1.6,0.2c0,0,0.7-1.3,0.7-1.4c0-0.1,1.6,0,1.4,0
					c0.7,0,2.5-0.3,3.4-0.8c-0.1-0.1,0.1,0.2,0.1-0.1c1.4-0.3,2.9-0.6,4.3-1.1c-0.1-0.1-0.2,0.1-0.3,0
					C67.8,28.4,68.7,28.5,69.6,28.2z M147.6,77.1c-0.1,0.2-0.2,0.3-0.2,0.5c0,0.1,0.1,0.2,0.1,0.2c0.1,0,0.1,0,0.2,0
					c0.2-0.1,0.3-0.8,0.1-0.9c-0.4-0.2-0.1-0.6-0.3-0.8c-0.3-0.4,0.3-0.5,0.4-0.8c0.1-0.1,0.2-0.2,0.3-0.2c0.1,0,0.2,0,0.1-0.1
					c0-0.1-0.1-0.1-0.1-0.1c-0.3,0.1-0.7,0.1-1,0.2c-0.1,0-0.2,0.3-0.4,0.1c-0.2-0.2-0.3-0.4-0.2-0.7c0.1-0.2,0.2-0.3,0.5-0.3
					c0.4,0,0.9,0,1.3,0c0.5,0.1,0.9-0.2,1-0.9c-0.6,0.7-1.2,0.5-1.9,0.4c-0.5-0.1-1,0.1-1.1,0.6c-0.2,0.6-0.4,1.2-0.8,1.7
					c-0.1,0.1-0.1,0.3,0,0.4c0.5,0.2,0.2,0.6,0.1,0.9c-0.1,0.2-0.1,0.3,0.1,0.4c0.2,0,0.3-0.1,0.4-0.3c0.1-0.4,0.2-0.7,0.2-1.1
					c0-0.1,0-0.2,0.1-0.2c0.1,0,0.2,0,0.1,0.1c-0.1,0.3,0.2,0.5,0.2,0.7C146.9,77.5,147.2,77.4,147.6,77.1z M152.3,99.4
					c0.8,0.1,0.7,0.1,1.4-0.2c0.6-0.3,1.2-0.7,1.7-1.1c0.6-0.4,1-0.4,1.7-0.8c0.5-0.3,1-0.6,1.5-0.9c0.2-0.1,0.5-0.3,0.4-0.4
					c-0.1-0.1,0.1-0.4-0.5-0.1c-1.3,0.8-2.5,1.5-3.8,2C154,98.3,153.2,98.8,152.3,99.4z M142.6,78.7c-0.6,0.1-1.1,0-1.5-0.1
					c-0.1,0-0.1,0-0.2,0.1c-0.4,0.3-0.8,0.2-1.1-0.1c-0.3-0.2-0.7-0.3-1.2-0.3c-0.2,0-0.3,0.2-0.4,0.3c-0.1,0.1-0.1,0.2,0,0.2
					c0.3,0,0.4,0.4,0.7,0.4c0.7,0.1,1.4,0.1,2,0.3c0.3,0.1,0.6,0.1,1,0.1c0.4,0,0.7,0.2,1.2,0.1c0.1,0,0.3,0,0.4-0.1
					c0.1-0.2-0.1-0.2-0.2-0.2c-0.3-0.1-0.7-0.3-1.1-0.3C142.2,78.9,142.4,79,142.6,78.7z M148.4,66.8c0-0.1,0.1-0.1,0.2-0.1
					c0.2,0,0.2-0.2,0-0.2c-0.3,0-0.6-0.1-0.9-0.2c-0.2-0.1-0.4,0-0.5-0.3c-0.1-0.2-0.2-0.5-0.1-0.6c0.4-0.4,0.3-0.7,0-1.2
					c-0.1-0.1,0.1-0.3-0.3-0.3c-0.2,0-0.4-0.1-0.5-0.1c-0.3,0.1-0.2,0.4-0.2,0.6c0,0.2,0.1,0.4,0.1,0.5c0,0.1,0.1,0.2-0.1,0.2
					c-0.3,0-0.1,0.2-0.1,0.3c0.1,0.3,0.1,0.6,0.5,0.7c0.1,0,0.1,0,0.1,0.1c-0.1,0.4,0.2,0.4,0.5,0.4c0.3,0,0.7,0.1,0.8,0.3
					c0.1,0.2,0.2,0.2,0.4,0.2c-0.3,0.4-0.3,0.4,0.3,0.5C148.5,67.4,148.9,67,148.4,66.8z M35.4,62.1c0.2,0.1,0.3,0,0.5-0.1
					c0.4-0.1,0.8-0.5,1.3-0.1c0.5,0.3,1.3,0.2,1.6,0.8c0.1,0.1,0.5,0.1,0.2,0.4c-0.1,0.1,0.1,0.1,0.1,0.1c0.4,0,0.9,0,1.3-0.1
					c0.1,0,0.3,0,0.3-0.2c0.1-0.2-0.1-0.2-0.2-0.3c-0.3-0.1-0.5-0.2-0.8-0.4c-0.5-0.3-0.9-0.5-1.4-0.8
					C37.3,61.1,36.1,61.3,35.4,62.1z M163.2,92.3c-0.2,0.3-0.4,0.5-0.4,0.7c0,0.1,0,0.1-0.1,0.2c-0.5,0.6-1.1,1.2-2,1.5
					c-0.2,0.1-0.4,0.2-0.3,0.3c0.1,0.3-0.3,0.5-0.6,0.7c-0.1,0.1-0.4,0.2-0.3,0.3c0,0.1,0.2,0,0.4-0.1c0.6-0.4,1.2-0.7,1.8-1.1
					c0.2-0.1,0.4-0.2,0.5-0.3c0.5-0.2,0.9-0.5,1.5-0.9c-0.2,0-0.2,0.1-0.3,0.1c-0.7,0.3-0.7,0.3-0.5-0.2c0,0,0,0,0-0.1
					c-0.2-0.1-0.2-0.1,0.1-0.3C163.4,92.7,163.5,92.4,163.2,92.3z M55.3,46.5c0.5-0.1,0.9-0.1,0.6,0.5c-0.1,0.2,0.2,0.3,0.4,0.2
					c0.2-0.1,0.4-0.3,0.4-0.4c-0.2-0.5,0.1-0.4,0.4-0.4c0.1,0,0.2,0,0.3,0c0.2-0.1,0.5-0.1,0.5-0.3c0-0.3,0.2-0.4,0.4-0.6
					c-0.2,0-0.4,0-0.5,0.1c-0.2,0.1-0.3,0.1-0.3-0.1c0-0.2-0.2-0.2-0.4-0.2c0.3-0.2,0.5-0.4,0.6-0.6c0.1-0.1,0.3-0.2,0.2-0.3
					c-0.1-0.1-0.2,0-0.3,0.1C56.8,45.1,56.2,45.9,55.3,46.5z M75.8,36.4c0.2,0,0.4,0,0.5,0.1c0.1,0.1,0.3,0.1,0.5,0.1
					c0.6-0.2,1.1-0.4,1.7-0.6c0.2-0.1,0.3-0.2,0.3-0.4c0-0.3-0.4-0.5-0.7-0.4c-0.2,0.1-0.5,0.2-0.6,0.2c-0.3-0.1-0.7,0.1-1,0.3
					c-0.2,0.1-0.5,0.4-0.6,0.7C75.9,36.3,75.8,36.3,75.8,36.4z M47.3,34.1c-0.3,0.1-0.6,0-0.9,0.3c-0.3,0.3-0.6,0.3-0.9,0.5
					c-0.3,0.1-0.5,0.3-0.8,0.4c-0.2,0.1-0.3,0.2-0.3,0.3c0,0.1,0,0.3,0.2,0.2c0.3-0.1,0.6-0.2,0.9-0.3c1-0.5,1.8-0.8,2.7-1.1
					c0.1,0,0.3,0,0.4-0.2c0.1-0.2-0.1-0.2-0.2-0.1c-0.2,0-0.5,0.2-0.6,0.1C47.6,34,47.4,34,47.3,34.1z M148.7,50.1
					c0,0.3,0.4,0.4,0.6,0.7c0.1,0.1,0.2,0,0.3-0.1c0.1,0,0.1-0.1,0-0.2c-0.3-0.3,0-0.3,0.1-0.3c0.1,0,0.3,0.1,0.5,0.2
					c0.3,0.1,0.5,0.2,0.4-0.2c0-0.1,0.1-0.2,0.2-0.2c0.1,0,0.4-0.1,0.2-0.2c-0.2-0.2-0.4-0.5-0.6-0.5c-0.3,0-0.5-0.1-0.8-0.2
					c-0.4-0.2-0.8-0.4-1.2-0.6c-0.1,0-0.2-0.1-0.2,0c0,0.1,0.1,0.1,0.1,0.2c0.3,0.2,0.5,0.5,0.6,0.8c0,0.1,0.1,0.2,0,0.2
					C148.5,49.7,148.8,49.9,148.7,50.1z M147.8,70.5c0.2,0,0.2-0.3,0.4-0.2c0.2,0.1,0.4-0.2,0.5-0.1c0.3,0.1,0.1,0.4,0.1,0.6
					c0.1,0.2,0.6,0.6,0.8,0.6c0.3-0.2,0.1-0.4,0.1-0.6c0,0,0,0,0-0.1c0.2-0.1,0.1,0.2,0.3,0.1c0.4-0.6,0-1.1-0.1-1.6
					c0-0.1-0.2-0.4-0.4,0c-0.1,0.2-0.4,0.5-0.7,0.5C148.2,69.6,147.7,69.9,147.8,70.5z M92.2,28.8c-0.5-0.4-1.1-0.5-1.6-0.7
					c-0.2-0.1-0.4-0.6-0.7,0c0,0-0.1,0-0.1,0c-0.2-0.3-0.6,0.1-0.9-0.1c-0.1-0.1-0.2,0-0.4,0.1c0.2,0.5,0.5,0.7,1,0.4
					c0.1-0.1,0.3,0,0.5,0c-0.2,0.1-0.3,0.1-0.5,0.2c-0.1,0-0.2,0-0.3,0.2c0,0.1,0.1,0.2,0.2,0.3c0.3,0.1,0.7,0.4,1-0.2
					c0.1-0.1,0.2-0.2,0.3-0.3c0.2-0.3,0.5-0.2,0.6,0.1C91.5,29,91.8,29.1,92.2,28.8z M43.1,64c0.3,0,0.5,0.1,0.6-0.1
					c0.1-0.2-0.2-0.3-0.3-0.4c-0.5-0.5-1.3-0.4-2-0.4c-0.2,0-0.3,0.1-0.1,0.3c0.1,0.1,0.2,0.4,0.1,0.5c-0.1,0.1-0.4,0.1-0.5,0
					c-0.1,0-0.2-0.1-0.4,0c-0.1,0-0.1,0.1,0,0.2c0.1,0.1,0.2,0.1,0.3,0.1c0.4,0,0.8-0.2,1.1,0.2c0,0,0.1,0,0.2,0
					C42.4,63.9,42.8,64.1,43.1,64z M124.5,70c0,0.4,0,0.7,0.2,1c0.1,0.2,0.2,0.3,0.4,0.3c0.4,0,0.8-0.5,0.7-0.9
					c-0.2-0.5-0.4-0.9-0.7-1.3c-0.1-0.1-0.2-0.2-0.4-0.2c-0.1,0,0,0.2-0.1,0.3C124.6,69.6,124.5,69.8,124.5,70z M60.7,31.9
					c0-0.2-0.1-0.2-0.2-0.1c-0.4,0.1-0.8,0.1-1.2,0.3c-0.5,0.2-0.8,0.1-1.2,0.1c-0.1,0-0.2,0-0.2-0.3c0.1-0.3-0.2-0.1-0.3,0
					c-0.2,0.2-0.4,0.4-0.6,0.6c0.1,0,0.3,0.1,0.4,0.1c0.8-0.1,1.6-0.2,2.4-0.2C60.1,32.3,60.4,32.2,60.7,31.9z M61.4,30.2
					c-0.2-0.2-0.2-0.7-0.8-0.6c-0.4,0.1-0.9,0.5-1.3,0.6c0.2,0.1,0.6,0,0.8,0.1c-0.2,0.1-0.4,0.1-0.5,0.1c-0.1,0-0.2-0.1-0.3,0.2
					c-0.1,0.2,0.1,0.1,0.2,0.1C60.1,30.8,60.8,30.3,61.4,30.2z M146.8,97.6c-0.2,0-0.3,0.1-0.4,0.3c-0.2,0.3-0.3,0.6-0.6,0.9
					c-0.1,0.1-0.1,0.2,0,0.3c0.1,0.1,0.2,0,0.3-0.1c0.2-0.1,0.4-0.2,0.5-0.3c0.5-0.2,0.8-0.6,1.3-0.9c0.1-0.1,0.2-0.2,0-0.2
					C147.4,97.6,147,97.7,146.8,97.6z M146.9,47c0-0.2-0.4-0.5-0.3-0.6c0.1-0.2-0.1-0.3-0.3-0.5c-0.8-0.6-1.6-1.2-2.3-1.8
					c-0.1-0.1-0.2-0.2-0.3-0.1c-0.1,0.1,0,0.2,0.1,0.3c0.4,0.6,1.1,0.9,1.6,1.4C145.9,46,146.3,46.6,146.9,47z M53.3,32.6
					c-0.2,0.1-0.3,0.1-0.4,0.1c-0.1,0-0.2,0.1-0.2-0.1c0.1-0.3,0-0.3-0.2,0c-0.5,0.4-0.8,0.5-1,0.3c-0.1-0.1-0.3-0.3-0.5-0.1
					c-0.5,0.3-0.9,0.5-1.3,0.6c0.5,0,1.1-0.3,1.6-0.2c-0.4,0.1-0.8,0.2-1.2,0.3C50.5,33.6,53,32.9,53.3,32.6z M51.8,38.2
					c0.1,0.4,0.6,0.1,1-0.1c0.3-0.2,0.5-0.2,0.6,0c0.1,0.1,0.2,0.2,0.5,0c0-0.1-0.3,0-0.2-0.2c0.2-0.3,0-0.3-0.1-0.4
					c-0.1-0.1-0.3,0-0.3-0.1c0-0.4-0.2-0.1-0.4,0C52.5,37.7,52.2,38,51.8,38.2z M181.5,80.7c0,0,0-0.2,0-0.2
					c-0.2-0.1-0.3-0.3-0.4-0.5c0-0.2-0.3-0.1-0.6,0c-0.3,0.2-0.4,0.4-0.2,0.5c0.2,0.1,0.3,0.2,0.2,0.4c0,0.2,0.1,0.2,0.4,0.2
					C181.2,81.1,181.4,81,181.5,80.7z M54,33.5c-0.2-0.1-0.4-0.3-0.7,0.1C53,34,52.7,34.1,52.5,34c-0.1,0-0.2-0.1-0.3,0.1
					c-0.1,0.2,0.1,0.2,0.1,0.4c0,0.1,0.1,0.2,0.2,0.1c0.2-0.2,0.4-0.2,0.6-0.2c0.4-0.1,0.6-0.3,0.5-0.6C53.8,33.7,53.9,33.6,54,33.5
					z M149,79.3c-0.2,0-0.4,0.1-0.5,0.2c-0.2,0.1-0.3,0.3-0.5,0.4c-0.3,0.1-0.5,0.3-0.6,0.6c0,0.1,0,0.1,0.1,0.1
					c0.3-0.1,0.5-0.1,0.7-0.3c0.2-0.2,0.3-0.3,0.5-0.2c0.2,0.1,0.4,0,0.5-0.1c0.1-0.2,0.3-0.4,0.3-0.5
					C149.4,79.2,149.1,79.3,149,79.3z M147.6,67.7c-0.1,0.7-0.1,0.7,0.2,0.8c0.2,0.1,0.4,0.1,0.2,0.3c-0.1,0.2,0.1,0.3,0.2,0.4
					c0.1,0.1,0.1,0.1,0.2,0.1c0.1-0.1,0.5-0.9,0.4-1c0-0.1-0.2-0.2-0.2-0.1c-0.1,0.4-0.2-0.1-0.3,0
					C148.2,67.8,147.9,67.8,147.6,67.7z M145.8,61.8c0.1-0.3,0.1-0.5,0.2-0.7c0-0.3,0-0.5,0-0.8c0-0.2,0-0.4-0.3-0.4
					c-0.2,0-0.3,0.1-0.4,0.3C145,60.8,145.1,61.2,145.8,61.8z M140.4,62.8c-0.5,0-0.9,0.2-0.8,0.6c0,0.3,0.2,0.5,0.5,0.5
					c0.3,0,0.7-0.4,0.7-0.8C140.8,62.9,140.6,62.8,140.4,62.8z M56.4,33c-0.3,0-0.5,0-0.8,0.1c-0.4,0.1-0.8,0.3-1.2,0.6
					c-0.1,0.1-0.2,0.2-0.2,0.3c0,0.1,0.2,0,0.3-0.1c0.2-0.1,0.3-0.3,0.5-0.3C55.4,33.7,55.9,33.3,56.4,33z M161.5,77.3
					c0.5,0.6,1.6,0.2,2.1-0.5c0.1-0.1,0.2-0.2,0.1-0.3c-0.2-0.1-0.2,0-0.3,0.2c-0.2,0.3-0.6,0.5-1,0.5
					C162.1,77.2,161.8,77.2,161.5,77.3z M92.8,27.8c-0.7-0.1-1.4-0.1-2.1,0C91.4,28,92.1,28.4,92.8,27.8z"/>
				<path id="XMLID_832_" class="st3" d="M88.3,40.5c0.1-0.2,0-0.4-0.1-0.6c-0.3-0.5-0.3-1.1-0.6-1.6c-0.2,0.5-0.6,0.6-0.9,0.9
					c-0.3,0.3-0.7,0.1-1,0c-0.1,0-0.1-0.1,0-0.2c0.4-0.2,0-0.5,0.1-0.7c0.1-0.2-0.3-0.4,0.1-0.5c0,0,0-0.1,0-0.1
					c-0.2-0.1-0.2-0.3-0.1-0.4c0.1-0.1,0.2-0.2,0.3-0.2c0.6-0.2,1.2-0.6,1.6-1.2c0.1-0.1,0.2-0.1,0.2-0.1c0.3-0.2,0.6-0.2,0.7-0.7
					c0-0.2,0.3-0.5,0.5-0.6c0.4-0.2,0.6-0.6,1-0.7c0.2-0.1,0.2-0.2,0.2-0.3c0.4-0.5,0.9-0.4,1.3-0.6c0.3-0.2,0.7-0.2,1.1-0.5
					c0.3-0.3,0.1,0.2,0.2,0.3c0.1-0.1,0.3-0.4,0.5-0.1c0.1,0.1,0.1-0.1,0.2-0.1c0.1-0.1,0.2-0.3,0.2,0c0,0.1,0.1,0.2,0.2,0.1
					c0.2-0.2,0.4-0.1,0.7,0c0,0.2-0.2,0.1-0.3,0.3c0,0,0.1,0.1,0.1,0.1c0.4,0.1,0.9,0.2,1.3,0.3c0.3,0.1,0.7,0,1.1,0.2
					c0.5,0.2,0.9,0.4,1.4,0.6c0.2,0.1,0.4,0.2,0.4,0.4c0,0.2-0.2,0.3-0.4,0.3c-0.2,0.1-0.4,0.1-0.7,0.1c-0.6-0.1-1.2-0.2-1.8-0.5
					c-0.1,0-0.2-0.1-0.3,0c0.1,0.1,0.2,0.2,0.3,0.3c0.4,0.2,0.7,0.5,0.9,1c0.2,0.4,0.7,0.4,1.1,0.5c0.1,0,0.1-0.1,0.2-0.1
					c0-0.1,0-0.2-0.1-0.2c-0.1-0.1-0.3-0.1-0.4-0.4c0.5,0.3,0.9,0.3,1.3,0.3c0-0.3-0.4-0.4-0.1-0.6c0.2-0.2,0.5-0.5,0.9-0.3
					c0.1,0.1,0.3,0.2,0.4,0c0.1-0.1,0.1-0.3,0-0.4c-0.2-0.2-0.3-0.5-0.1-0.7c0.2-0.2,0.4,0,0.6,0.1c-0.1,0.2-0.4,0.1-0.2,0.4
					c0.2,0.3,0.7,0.4,0.9,0.1c0.4-0.4,0.8-0.7,1.3-0.7c0.1,0,0.1,0,0.2-0.1c0.1-0.1,0.2-0.2,0.2,0c0.1,0.3,0.2,0.3,0.4,0.2
					c0.4-0.2,0.8-0.1,1.2-0.2c0.2,0,0.3-0.1,0.5,0.1c0.1,0.1,0.2,0.1,0.3,0c0.1-0.1,0.2-0.2,0.1-0.4c-0.1-0.2,0-0.2,0.1-0.2
					c0.3,0,0.6,0.1,0.9,0.2c0.5,0.2,1,0.3,1.5,0.6c0.1,0.1,0.3,0.2,0.3,0c0-0.2-0.1-0.2-0.3-0.3c-0.3-0.2-0.6-0.3-0.8-0.7
					c-0.1-0.3-0.2-0.4-0.1-0.6c0.2-0.5,0.5-0.7,1-0.5c0.1,0,0.3,0.1,0.3,0.2c-0.1,0.6,0.5,0.6,0.6,1c0.2,0.4,0.3,0.7,0.7,1
					c0.3,0.2,0.2,0.7-0.1,0.8c-0.2,0.1-0.4,0-0.6,0.1c0.5,0.5,1.3,0.4,1.5-0.1c0.1-0.2,0.1-0.4-0.1-0.6c-0.2-0.2-0.1-0.3,0.1-0.3
					c0.3,0,0.6,0.1,0.8,0.4c0.2,0.3,0.4,0.3,0.8,0.3c-0.3-0.1-0.5-0.1-0.6-0.4c-0.1-0.3-0.8-0.6-1.2-0.5c-0.4,0.1-0.7-0.1-0.8-0.6
					c-0.1-0.3-0.3-0.3-0.4-0.5c-0.1-0.1-0.2-0.2-0.1-0.3c0.1-0.1,0.2-0.2,0.3,0c0.4,0.7,1,0.4,1.5,0.6c-0.3-0.4-0.6-0.2-0.9-0.4
					c0.5-0.4,1-0.2,1.6,0.1c0.1,0,0.2,0.1,0.3-0.1c0-0.1-0.1-0.2-0.2-0.2c-0.2-0.1-0.5-0.1-0.7-0.3c-0.1-0.1-0.2-0.1-0.2-0.3
					c0-0.1,0.1-0.1,0.2-0.1c0.4,0,0.9,0,1.3,0c0.1,0,0.3,0,0.1-0.3c-0.2-0.2-0.1-0.3,0-0.4c0.1-0.1,0.2-0.1,0.3-0.1
					c0.6,0,1.1-0.2,1.7-0.1c0.3,0.1,0.7,0.1,1-0.2c0.1-0.1,0.3,0,0.4,0c0,0,0-0.1,0-0.1c-0.1-0.1-0.4,0-0.4-0.3
					c0-0.2,0.2-0.2,0.4-0.2c0.4,0.2,0.9,0.4,1.3,0.5c0.1,0,0.2,0.1,0.3,0.1c0.8-0.2,1.6,0.1,2.4,0.8c-0.4,0.3-0.8,0.5-1.1,1
					c0.4-0.1,0.9-0.1,1.3-0.2c0.2-0.1,0.4,0,0.7,0c0.3,0.1,0.6,0.1,0.9,0.1c0.4,0,0.8,0,1.2,0.3c0.5,0.2,0.9,0.2,1.4,0.2
					c0,0,0.1,0,0.1,0c-0.1-0.5,0.4-0.2,0.6-0.1c0.1,0,0.3,0,0.4,0c0.3,0,0.6,0.1,0.9,0.4c0.6,0.7,1.3,0.8,2,1.1c0.1,0,0.3,0.1,0.2,0
					c-0.1-0.4,0.2-0.2,0.4-0.2c0.6-0.1,1.4,0.4,1.9,0.2c0,0,0-0.1,0-0.1c-0.1-0.1-0.4-0.2-0.4-0.4c0-0.2,0.2-0.1,0.4-0.1
					c0.5,0.1,0.9,0.2,1.4,0.6c0.2,0.1,0.3,0.1,0.4,0c0.1-0.3,0.5-0.1,0.8,0c1,0.5,2,0.8,2.8,0.8c0.7,0,1.5,0.1,2.4,0.7
					c0.3,0.2,0.6,0.3,0.8,0.3c0.7,0,1.4,0.2,2.1,0.3c0.3,0,0.8,0.3,1.2,0.5c0.2,0.1,0.5,0.2,0.4,0c0-0.2-0.3-0.3-0.5-0.4
					c-0.1-0.1-0.2-0.1-0.3-0.2c2.7,0.5,5.4,1.3,8.6,2.8c-0.2-0.2-0.4-0.4-0.1-0.3c0.5,0.1,1,0.3,1.6,0.6c-0.1,0.1-0.2,0.1-0.4,0.1
					c0,0,0.1,0.1,0.1,0.1c0.2,0.1,0.5,0.2,0.5,0.4c0.1,0.2-0.3,0-0.4,0c-0.7-0.2-1.5-0.7-2.2-0.7c-0.2,0-0.5-0.2-0.7-0.4
					c-0.1-0.1-0.3-0.2-0.3,0c0,0.1,0.2,0.2,0.3,0.3c0.1,0,0.1,0.1,0.2,0.1c0.1,0.1,0.3,0.2,0.3,0.3c0.1,0.1-0.1,0.1-0.2,0.1
					c-0.1,0-0.3-0.1-0.4-0.1c-0.2-0.1-0.4-0.1-0.5,0c1,0.3,2.1,0.9,3.1,1.4c0,0,0,0.1,0,0.1c-0.8-0.3-0.9,0-1.2,0.3
					c-0.1,0.1-0.1,0.3,0,0.5c0,0.2,0,0.2-0.2,0.1c-0.5-0.2-0.8-0.3-1.1-0.1c0,0-0.1,0.1-0.2,0c-0.5-0.3-0.5,0.1-0.8,0
					c-0.1,0-0.1,0.1,0,0.2c0.2,0.4,0.9,1,1.3,1.1c0.4,0.1,0.8,0.5,0.9,0.7c0.3,0.5,0.7,0.7,1.1,1c-0.4,0-0.5,0.2-0.1,0.6
					c0.1,0.1,0.1,0.2,0.1,0.2c-0.2,0.1,0,0.2,0.2,0.4c0.2,0.1,0.3,0.3,0.3,0.4c0.1,0.2,0,0.3-0.3,0.1c-1.2-0.9-2.4-1.6-3.6-2.6
					c-0.6-0.5-0.7-0.8-0.6-1.2c0.1-0.2-0.2-0.5-0.2-0.7c0-0.1-0.1-0.2-0.1-0.3c0.1-0.3-0.2-0.6-0.5-1c-0.3-0.3-0.4-0.4-0.7-0.4
					c-0.2,0-0.3,0-0.1,0.3c0.3,0.3,0.2,0.5,0.1,0.6c-0.1,0.1-0.4-0.1-0.6-0.3c-0.4-0.3-1.3-0.5-1.4-0.3c-0.1,0.2,0.1,0.6,0.2,0.9
					c0.2,0.4,0.2,0.5-0.2,0.3c-0.3-0.1-0.7-0.2-1-0.3c-0.5-0.2-0.8,0.1-1.2,0c-0.4-0.1-0.8-0.1-1.2-0.1c-0.4-0.1-0.6,0.1-0.5,0.5
					c0,0.6,0.2,1.2-0.1,1.7c-0.1,0.2,0.1,0.3,0.2,0.3c0.5,0,0.9,0.5,1.4,0.7c0.3,0.1,0.5,0.2,0.5-0.1c0-0.2,0.2-0.2,0.4-0.1
					c0.6,0.3,1.1,0.7,1.7,1.1c0.1,0.1,0.2,0.2,0.3,0.3c0.2,0.4,0.4,0.7,0.7,0.9c0.5,0.4,0.7,0.9,0.9,1.5c0.2,0.7,0.2,1.3,0.2,1.9
					c0,0.6-0.3,0.8-1,0.5c-0.3-0.1-0.4-0.1-0.5,0.1c-0.1,0.3-0.2,0.6,0.1,0.9c0.3,0.3,0,0.5-0.1,0.6c-0.3,0.4-0.3,0.4,0.3,0.7
					c0.8,0.5,1.5,1.1,2,1.8c0.2,0.2,0.2,0.5-0.1,0.6c-0.3,0.1-0.6,0.1-0.9,0.3c-0.1,0-0.2,0-0.2-0.1c-0.2-0.5-0.6-0.9-0.8-1.5
					c-0.1-0.3-0.4-0.4-0.7-0.4c-0.3,0-0.5-0.2-0.6-0.5c-0.1-0.3-0.2-0.5-0.6-0.7c-0.4-0.1-0.7-0.1-1,0.1c-0.1,0.1-0.1,0.3-0.4,0.3
					c0-0.3-0.3-0.6-0.2-0.9c0-0.1-0.2-0.3-0.3-0.3c-0.2-0.1-0.3,0-0.3,0.1c0,0.3-0.3,0.4-0.3,0.6c0,0.1-0.1,0.2-0.2,0.2
					c-0.1,0-0.3-0.1-0.3,0.2c0,0.2,0.2,0.3,0.4,0.3c0.3,0.1,0.6,0.2,0.8,0.5c0.1,0.2,0.3,0.1,0.4,0c0.1-0.2,1.1-0.1,1.3,0.1
					c0.1,0.1,0.1,0.2,0,0.3c-0.3,0-0.4,0.2-0.5,0.5c-0.3,0.5-0.3,0.6,0.4,1c0.2,0.1,0.3,0.2,0.5,0.4c0.3,0.3,0.6,0.6,0.9,0.9
					c0.4,0.3,0.8,0.6,0.4,1c-0.1,0.2,0.2,0.3,0.3,0.3c0.3,0.1,0.3,0.2,0.3,0.4c0,0.6-0.1,1.1-0.4,1.5c0,0,0,0.1,0,0.1
					c0.3,1.1-0.7,1.4-1.1,2.1c-0.1,0.1-0.3,0.1-0.5,0.2c-0.4,0.1-0.8,0.2-1.2,0.4c-0.3,0.1-0.6,0.2-0.9,0.3
					c-0.2,0.1-0.3,0.2-0.2,0.4c0,0.1,0.1,0.2,0,0.2c-0.1,0-0.2,0-0.2-0.1c-0.1-0.1-0.1-0.2-0.1-0.2c-0.2-0.4-0.6-0.6-0.9-0.4
					c-0.5,0.2-0.8,0.6-0.9,1.1c-0.1,0.3,0.1,0.5,0.2,0.7c0.5,0.6,1.1,1,1.6,1.6c0.6,0.7,0.8,1.5,0.6,2.4c-0.1,0.4-0.5,0.6-0.9,0.7
					c-0.2,0.1-0.6,0-0.5,0.5c0,0.1-0.7,0.6-0.8,0.6c-0.2,0-0.2-0.2-0.2-0.3c0.1-0.4-0.1-0.6-0.5-0.8c-0.3-0.1-0.5-0.3-0.6-0.6
					c-0.1-0.4-0.5-0.5-0.8-0.6c-0.2-0.1-0.4-0.1-0.5-0.4c0-0.1-0.1-0.2-0.2-0.1c-0.1,0-0.1,0.1-0.1,0.2c0,0.5-0.2,1-0.3,1.5
					c0,0.3-0.1,0.6,0.3,0.8c0.2,0.1,0.4,0.6,0.4,0.9c0,0.2,0.1,0.3,0.3,0.4c0.8,0.4,1.5,0.9,1.4,2c-0.1,0.4,0.1,0.7,0.4,1
					c0.2,0.1,0.3,0.3,0.2,0.5c-0.1,0.2-0.2,0.3-0.5,0.3c-0.3,0-0.4-0.1-0.4-0.4c0-0.2-0.1-0.3-0.2-0.4c-0.9-0.5-1.2-1.4-1.3-2.4
					c0-0.4-0.6-1.1-1-1.3c-0.2-0.1-0.2-0.3-0.1-0.5c0-0.3,0.1-0.7,0.1-1c0.1-0.8-0.1-1.6-0.5-2.3c-0.3-0.5-0.2-1.2-0.7-1.6
					c-0.3,0.3-0.5,0.8-1.2,0.6c-0.2-0.1-0.3-0.1-0.3-0.4c0.1-0.6-0.1-1-0.5-1.5c-0.3-0.4-0.6-0.7-1-1c-0.2-0.2-0.3-0.4-0.4-0.7
					c-0.1-0.3-0.2-0.4-0.5-0.2c-0.3,0.2-0.8,0.2-1.2,0.2c-0.6,0-0.7,0.1-0.8,0.6c0,0.3-0.2,0.5-0.5,0.6c-0.3,0.1-0.4,0.2-0.5,0.4
					c-0.2,0.4-0.6,0.7-0.9,1c-0.3,0.4-0.7,0.8-1.2,1.1c-0.1,0.1-0.2,0.3-0.1,0.4c0.3,0.9,0.1,1.7,0,2.6c0,0.4-0.3,0.7-0.6,1
					c-0.1,0.1-0.2,0.2-0.2,0.2c-0.3,0.5-0.5,0.5-0.9,0c-0.2-0.3-0.2-0.7-0.3-1c-0.6-1.1-1.1-2.4-1.7-3.5c-0.4-0.8-0.7-1.8-0.7-2.8
					c0-0.3-0.2-0.6-0.3-1c0,0.4-0.2,0.7-0.6,0.8c-0.4,0.1-0.6-0.2-0.8-0.4c-0.1-0.1-0.1-0.1-0.2-0.2c-0.4-0.4-0.4-0.4,0.1-0.6
					c0.1,0,0.1-0.1,0.3-0.2c-0.6,0.1-0.8-0.1-1.2-0.4c-0.5-0.3-0.8-0.7-1.1-1.1c-0.1-0.1-0.2-0.1-0.2-0.1c-0.6,0.2-1.3,0.1-2,0.1
					c-0.8,0-1.7-0.2-2.5-0.4c-0.2-0.1-0.3-0.2-0.4-0.4c-0.2-0.5-0.3-0.6-0.8-0.3c-0.4,0.2-0.8,0.2-1.2-0.1c-0.6-0.4-1.4-0.8-1.7-1.6
					c-0.1-0.2-0.3-0.4-0.6-0.5c-0.4-0.1-0.5,0.1-0.5,0.4c0,0.6,0.2,1.1,0.7,1.5c0.1,0.1,0.2,0.2,0.3,0.1c0.4-0.1,0.6,0,0.7,0.5
					c0,0.1,0.2,0.2,0.3,0.3c0.2,0.2,0.3,0.4,0.1,0.7c-0.2,0.4,0,0.4,0.3,0.4c0.2,0,0.4-0.1,0.7-0.1c0.3,0,0.5-0.1,0.7-0.4
					c0.2-0.3,0.4-0.6,0.7-0.8c0,0.2,0.1,0.4,0.1,0.5c0.1,0.5,0.3,0.8,0.8,0.9c0.5,0.1,0.8,0.5,1.1,0.8c0.1,0.1,0.1,0.2,0,0.3
					c-0.1,0.3-0.3,0.7-0.6,0.8c-0.2,0.2-0.3,0.3-0.3,0.5c0,0.3-0.1,0.4-0.3,0.6c-0.3,0.4-0.8,0.5-1,1c-0.1,0.2-0.3,0.1-0.4,0.2
					c-0.5,0.1-1,0.2-1.1,0.8c-0.1,0.2-0.3,0.3-0.5,0.3c-0.7,0.1-1.2,0.6-1.8,0.8c-0.6,0.2-1.1,0.4-1.7,0.6c-0.4,0.2-0.7,0-0.7-0.4
					c-0.1-0.6-0.4-1.2-0.3-1.8c0-0.4-0.2-0.6-0.5-0.9c-0.2-0.3-0.4-0.6-0.5-0.9c-0.1-0.3-0.3-0.5-0.5-0.7c-0.5-0.3-0.6-0.7-0.6-1.2
					c0-0.6-0.3-1-0.8-1.4c-0.3-0.2-0.3-0.6-0.5-0.9c-0.4-0.5-0.7-1.2-1.2-1.6c-0.1-0.1-0.1-0.3-0.1-0.5c0,0.1,0,0.1-0.1,0.1
					c-0.1,0.2,0,0.5-0.3,0.5c-0.2,0-0.4-0.3-0.5-0.5c-0.1-0.2-0.2-0.4-0.4-0.6c0,0.2,0.1,0.4,0.2,0.5c0.7,0.9,0.9,2,1.6,2.9
					c0.1,0.1,0.1,0.3,0.1,0.4c0,0.2,0,0.4,0.2,0.5c0.6,0.4,0.7,1,0.7,1.6c0,0.5,0.1,0.9,0.6,1.2c0.4,0.3,0.5,0.7,0.6,1.1
					c0.1,0.4,0.2,0.7,0.6,0.9c0.7,0.3,1.1,1,1.6,1.5c0.1,0.1,0.2,0.2,0.1,0.3c-0.4,0.5,0.2,0.7,0.4,0.9c0.2,0.3,0.5,0.1,0.8,0
					c0.5-0.1,1-0.4,1.6-0.4c0.4,0,0.8-0.1,1.1-0.3c0.3-0.2,0.4,0,0.4,0.2c0,0.4,0,0.8-0.2,1.1c-0.6,1.2-1,2.5-1.8,3.5
					c-0.4,0.5-0.8,0.9-1.3,1.3c-0.8,0.5-1.3,1.3-1.9,2.1c-0.5,0.6-0.9,1.2-1.3,1.9c-0.2,0.5-0.6,0.9-0.1,1.4c0.1,0.1,0,0.2,0,0.4
					c0,0.7-0.1,1.3,0.4,1.8c0.1,0.1,0.1,0.2,0.1,0.4c0,0.7,0,1.5,0,2.2c0,0.5-0.5,1.3-1.1,1.6c-0.9,0.4-1.4,1.2-2.1,1.8
					c-0.1,0.1-0.1,0.3,0,0.5c0.2,0.7,0.3,1.3,0.2,2c-0.1,0.3-0.2,0.5-0.5,0.6c-0.3,0.1-0.5,0.2-0.8,0.4c-0.1,0.1-0.2,0.3-0.2,0.5
					c-0.1,0.6,0.1,1.4-0.6,1.8c-0.1,0.1-0.2,0.2-0.3,0.4c-0.4,0.9-1.1,1.6-1.8,2.2c-0.5,0.4-1.1,0.6-1.8,0.5
					c-0.6-0.1-1.1,0.2-1.7,0.3c-0.4,0.1-0.6-0.1-0.8-0.3c-0.2-0.2-0.5-0.5-0.3-0.9c0.1-0.3,0-0.5-0.1-0.8c-0.2-0.4-0.4-0.8-0.5-1.2
					c-0.1-0.3-0.2-0.6-0.5-0.8c-0.2-0.2-0.3-0.5-0.4-0.7c-0.1-0.6-0.3-1.3-0.4-1.9c0-0.6-0.2-1.2-0.5-1.7c-0.4-0.6-0.5-1.3-1-1.8
					c-0.2-0.2-0.3-0.6,0.3-0.6c-0.6-0.1-0.5-0.5-0.5-0.8c0.2-0.8,0.2-1.7,0.8-2.3c0.3-0.3,0.2-0.7,0-1.1c-0.2-0.4-0.4-0.8-0.2-1.2
					c0,0,0-0.1,0-0.2c-0.5-1.3-0.9-2.6-1.9-3.6c-0.5-0.5-0.4-0.9-0.3-1.6c0.1-0.5,0.3-0.5,0.7-0.6c0.1,0,0.2-0.1,0.2-0.3
					c0-0.3,0.1-0.5,0.4-0.5c0.3,0,0.6,0.1,0.6,0.4c0,0.1,0,0.1,0.1,0.1c-0.2-0.7-0.2-0.7-0.8-0.7c-0.3,0-0.4,0.1-0.4,0.4
					c0,0.3-0.5,0.5-0.8,0.3c-0.1-0.1-0.1-0.2-0.1-0.3c0.2-0.3,0.1-0.6,0.1-0.8c0-0.3-0.4-1.1-0.7-1.1c-0.4,0-0.8,0-1.1,0.1
					c-0.4,0.2-0.5,0-0.7-0.3c-0.3-0.9-0.5-0.9-1.4-0.9c-0.9,0-1.6,0.6-2.4,0.8c-0.2,0.1-0.4,0.1-0.6,0c-0.7-0.4-1.4-0.2-2,0.1
					c-0.7,0.3-1.2,0.2-1.8-0.4c-0.4-0.4-0.9-0.8-1.4-1.1c-0.4-0.2-0.6-0.6-0.6-1c0-0.2-0.1-0.4-0.2-0.6c-0.3-0.4-0.9-0.7-0.9-1.3
					c0,0-0.1,0-0.1,0c-0.7-0.1-0.8-0.3-0.7-1c0-0.1,0.1-0.2,0-0.3c-0.4-0.4-0.1-0.7,0.1-1.1c0.3-0.7,0.6-1.4,0.4-2.2
					c-0.1-0.4,0.1-0.7-0.2-1.1c-0.1-0.2,0.1,0.4,0.2,0.4c0.5,0,1,0.5,1.5,0.5c-0.5,0-0.9,0-1.4,0c-0.1,0-0.3-0.6-0.4-0.7
					c-0.1-0.1,0.1-0.6,0.1-0.7c0.4-0.8,0.9-1.6,1.3-2.3c0.4-0.6,0.7-1.4,1.6-1.7c0.6-0.2,1.2-0.8,1.3-1.7c0-0.6,0.5-1.3,1.1-1.6
					c0.9-0.4,1.1-0.9,1.1-1.8c0-0.4-0.2-0.5-0.6-0.4c-0.6,0.1-0.6,0.1-0.6-0.5c0-0.1,0-0.2,0-0.2c-0.4-0.4-0.1-0.8,0.1-1.1
					c0.3-0.5,0.3-1.1,0.3-1.7c0-0.3,0.4-0.6,0.8-0.6c0.8,0,1.6,0.1,2.3,0.1c0.3,0,0.5-0.1,0.6-0.4c0.1-0.3,0.2-0.6,0.2-0.9
					c0.1-0.4-0.5-1.1-1-1.2c-0.2,0-0.4,0-0.4-0.3c0-0.1,0-0.2,0-0.2c0.6-0.1,0.2-0.6,0.3-0.8c0.1-0.1-0.1-0.2-0.2-0.1
					c-0.1,0-0.2,0.2-0.4,0c0.3-0.3,0.6-0.5,0.9-0.8c0,0-0.1-0.1-0.1-0.1c-0.1-0.1-0.3,0.1-0.4-0.2c0-0.2,0.2-0.2,0.3-0.3
					c0.1-0.1,0.1-0.2,0.1-0.3c-0.1-0.3-0.3-0.4-0.4-0.6c-0.1-0.1-0.2,0-0.2,0.1c0,0.1,0,0.2,0,0.3c0,0.1,0,0.2-0.1,0.3
					c-0.2,0.4-1.5,0.9-1.8,0.7c-0.2-0.2,0-0.3,0.1-0.4c0.1-0.2,0.5-0.3,0.2-0.6c0,0-0.1-0.6,0.4-0.5c0.1,0,0.2,0,0.3-0.2
					c0.3-0.5,0.8-0.6,1.2-0.3c0.1,0.1,0.2,0.1,0.3,0c0.1-0.2-0.1-0.1-0.1-0.2c-0.1-0.2-0.2-0.5-0.1-0.7c0-0.2,0.1-0.3,0-0.4
					c0,0,0-0.1,0-0.1c0.5,0,0.5-0.7,1-0.7c0.1,0,0.4-0.1,0.4,0.1c0.1,0.2-0.2,0.2-0.3,0.4c0.1,0.1,0.2,0,0.3,0
					c0.1,0,0.4-0.1,0.4,0.1c0,0.2-0.1,0.3-0.2,0.4c-0.2,0.2-0.2,0.3,0,0.6c0.3,0.4,0.7,0.8,0.7,1.4c0,0.2,0,0.2,0.2,0.2
					c0.1,0,0.3,0.1,0.3,0.2c0,0.2-0.1,0.3-0.2,0.4c-0.1,0.1-0.2,0.2-0.1,0.4c0.1,0.2-0.2,0.3-0.3,0.3c-0.5,0.1-1,0.2-1.5,0.2
					c-0.1,0-0.1,0-0.2,0c0.1,0.7,0.7,0.7,1.1,0.6c0.3,0,0.8-0.2,1-0.7c0.1-0.2,0.3-0.3,0.4-0.3c0.3-0.1,0.6-0.3,0.8-0.6
					c0.4-0.8,1-0.8,1.6-0.9c0.4-0.1,0.5-0.2,0.5-0.6c0-0.3-0.2-0.5-0.2-0.8c0-0.3,0.1-0.6,0.4-0.6c0.1,0,0.2-0.1,0.3-0.1
					c0.1-0.1,0.2-0.2,0.3-0.1c0.1,0.1,0,0.2,0,0.3c0,0,0,0.1,0,0.1c0.4,0.3-0.1,0.4-0.2,0.6c0.1,0.1,0.3,0.1,0.3,0.3
					c0,0.3-0.2,0.1-0.3,0.2c-0.1,0.4,0.2,0.2,0.3,0.3c0.1,0.4,0.3,0.1,0.5,0.1c0.2,0,0.5-0.3,0.6-0.1c0.2,0.3,0.4,0.3,0.7,0.1
					c0.2-0.1,0.4-0.2,0.7-0.3c0.3-0.1,0.5-0.2,0.8,0c0.4,0.4,0.7-0.1,1-0.2c0.2-0.1,0-0.3-0.1-0.5c0-0.4,0-0.7,0.2-1
					c0.3-0.3,0.4,0,0.7,0.2c0.2,0.1,0.4,0.1,0.4-0.3c0-0.2,0-0.4-0.2-0.4c-0.2,0-0.2-0.2-0.2-0.4c0-0.2,0.2-0.2,0.3-0.2
					c0.2,0,0.5-0.1,0.7-0.1c0.5,0.1,1-0.2,1.5-0.2c-0.2-0.3-0.5-0.2-0.6-0.4c-0.1-0.1-0.2-0.1-0.3,0c-0.5,0.1-1,0.3-1.5,0.4
					c-0.4,0.1-0.8-0.2-1-0.4c-0.2-0.2-0.1-0.7-0.2-1.1c0-0.1,0.1-0.2,0.2-0.3c0.4-0.3,0.7-0.6,1.1-0.9c0.1-0.1,0.1-0.2,0-0.3
					c-0.2-0.3-0.6-0.2-0.9-0.2c-0.3,0-0.5,0.2-0.5,0.5c0,0.4-0.2,0.5-0.5,0.7c-0.2,0.1-0.4,0.2-0.6,0.4c-0.5,0.4-0.5,1.1-0.1,1.4
					c0.1,0.1,0.3,0.1,0.3,0.3c0,0.2-0.1,0.4-0.3,0.5c-0.1,0-0.1,0.1-0.2,0.1c-0.2,0.1-0.3,0.2-0.3,0.5c0,0.7-0.1,0.8-0.7,1.1
					c-0.1,0-0.1,0.1-0.2,0.1C88.7,41,88.5,40.8,88.3,40.5z M92.7,49.9c0.3,0.4,0.3,0.9,0.7,1c0.1,0,0.3,0.2,0.2,0.4
					c0,0.1-0.2,0.2-0.4,0.1c-0.1,0-0.2,0-0.2,0.1c0.2,0.2-0.3,0.3-0.1,0.6c0.1,0.1,0,0.1-0.1,0.1c-0.2,0-0.5,0-0.6-0.4
					c-0.1-0.4-0.3-0.9-0.6-1.1c-0.4-0.4-0.7-0.9-0.6-1.5c0-0.2-0.1-0.2-0.2-0.3c-0.4-0.2-0.6-0.6-1.1-0.7c-0.6-0.1-0.6-1-1.3-1.1
					c0,0-0.1-0.1-0.1-0.2c0-0.1,0-0.3-0.2-0.2c-0.1,0-0.3,0-0.3,0.2c0,0.1,0,0.3,0.1,0.4c0.3,0.1,0.3,0.4,0.4,0.7
					c0.1,0.3,0.2,0.8,0.6,0.9c0.6,0.2,0.9,0.7,1.5,0.9c0.1,0.1,0.3,0.2,0.2,0.4c-0.1,0.2-0.2-0.1-0.3-0.1c-0.1-0.1-0.3-0.1-0.4,0
					c-0.1,0.1-0.1,0.2,0,0.3c0.2,0.2,0.3,0.3,0,0.6c-0.2,0.1-0.2,0.5-0.5,0.5c-0.3,0.1-0.3,0.2-0.3,0.5c0,0.3-0.1,0.4-0.4,0.3
					c-0.3-0.1-0.5-0.3-0.8-0.4c-0.1-0.1-0.3-0.1-0.2-0.2c0-0.2,0.2-0.2,0.3-0.2c0.3,0,0.6,0,0.9-0.1c0.5-0.1,0.7-0.4,0.4-0.8
					c-0.3-0.4-0.7-0.9-1.1-0.9c-0.6,0-0.9-0.2-1.1-0.8c-0.1-0.3-0.4-0.5-0.5-0.8c-0.1-0.3-0.3-0.4-0.6-0.4c-0.3,0-0.4,0.2-0.5,0.4
					c-0.1,0.3-0.3,0.4-0.6,0.4c-0.4,0-0.8-0.3-1.2-0.2c-0.3,0-0.6,0.1-0.6,0.4c0,0.6-0.4,0.8-0.8,1c-0.4,0.1-0.6,0.5-0.9,0.8
					c-0.2,0.2-0.2,0.4-0.1,0.7c0,0,0,0.1,0,0.1c-0.2,0.5-1.2,1.2-1.8,1.2c-0.1,0-0.2,0-0.4,0c-0.4,0.1-0.2,0.5-0.4,0.7
					c-0.1,0.1,0.1,0.2,0.2,0.2c0.8,0.1,1.5,0,2.3-0.5c0.7-0.5,1.5-0.5,2.2-0.6c0.8-0.1,1.7,0,2.5-0.3c0.1,0,0.3-0.1,0.3,0
					c0.1,0.2,0.3,0.1,0.5,0.1c-0.3,0.3-0.4,0.6-0.1,0.8c0.1,0.1,0,0.3,0,0.4c-0.1,0.2,0,0.7,0,0.8c0.2,0.4,0.6,0.5,1.1,0.6
					c0.5,0,1,0.1,1.2,0.7c0.1,0.2,0.3,0.3,0.5,0.3c0.4,0.1,0.8,0.2,1.1,0.5c0.2,0.2,0.4,0.2,0.6,0c0.2-0.1,0.3-0.3,0.3-0.6
					c-0.1-0.6,0.6-1.2,1.1-0.9c0.4,0.2,0.9,0.5,1.3,0.6c0.7,0.2,1.4,0.4,2.2,0.5c0.1,0,0.3-0.1,0.4-0.1c0.4-0.2,0.7-0.3,1.1-0.1
					c0.6,0.4,1.1,0,1.4-0.6c0.2-0.5-0.2-1.2,0.4-1.7c0,0,0-0.1,0-0.2c-0.1-0.3-0.1-0.6,0-1c-0.3,0.2-0.6-0.1-0.8,0.2
					c-0.4,0.3-0.7,0.4-1.1,0c-0.2-0.2-0.5-0.4-0.8,0c-0.1,0.2-0.4,0.2-0.6,0c-0.2-0.2-0.4-0.3-0.6-0.4c-0.5-0.1-0.5-0.7-0.8-0.9
					c0,0,0-0.1,0-0.2c0.2-0.2,0.1-0.4-0.1-0.5c-0.1-0.1-0.2-0.2-0.1-0.4c0.1-0.2,0-0.4-0.2-0.5c-0.3-0.1-0.8,0-0.8,0.1
					C93.3,50.3,93.1,50,92.7,49.9z M97.7,46.4c-0.2-0.2-0.4,0-0.6-0.2c-0.4-0.4-0.4-0.3-0.8,0c-0.3,0.2-0.2,0.7-0.5,0.8
					c-0.2,0.1-0.2,0.2-0.2,0.4c0,0.2,0,0.3-0.1,0.4c-0.4,0.6-0.1,1.2,0.5,1.3c0.5,0.1,0.9,0.1,1.4-0.2c0.5-0.3,1.1-0.4,1.6-0.1
					c0.7,0.3,1.4,0.6,2.2,0.4c0.3,0,0.6-0.1,0.7-0.4c0.1-0.3-0.1-0.6-0.3-0.7c-0.7-0.3-1.1-1-1.8-1.2c-0.2-0.1-0.2-0.1-0.1-0.3
					c0.1-0.2,0.5-0.3,0.2-0.6c-0.1-0.1,0.1-0.1,0.1-0.2c0.1-0.1,0.3-0.1,0.2-0.3c-0.1,0-0.3-0.1-0.4-0.1c-0.4,0.3-0.9,0.3-1.3,0.5
					c-0.1,0.1-0.3,0.1-0.3,0.3c0,0.2,0.2,0.3,0.4,0.3c0.1,0,0.2,0,0.3,0c0.1,0,0.2,0,0.2,0.1c0,0.1-0.1,0.1-0.1,0.1
					c-0.3,0-0.6,0.2-0.9,0.3c-0.1,0.1-0.3,0.1-0.3-0.1c0-0.3-0.3-0.4-0.4-0.5C97.4,46.6,97.6,46.6,97.7,46.4z M106.1,49.9
					c-0.3,0.3-0.3,0.7-0.4,1.1c-0.1,0.2,0,0.6,0.3,0.7c0.3,0.1,0.6,0.3,0.9,0.5c0.2,0.1,0.4,0.2,0.6,0.1c1-0.1,1-0.1,0.7-1.1
					c-0.1-0.4-0.3-0.8-0.5-1.1c-0.1-0.1-0.3-0.1-0.2-0.2c0-0.2,0.2-0.2,0.3-0.2c0.2,0,0.3,0,0.4-0.2c0.1-0.2-0.1-0.3-0.2-0.4
					c-0.1-0.1-0.2-0.2-0.1-0.3c0-0.1,0.2,0.1,0.3-0.1c-0.1-0.1-0.2-0.2-0.3-0.1c-0.3,0.1-0.5,0-0.8-0.2c-0.4-0.3-0.7-0.8-1.1-1
					c0.1-0.1,0.3,0.1,0.4-0.1c-0.1-0.4-0.1-0.5,0.4-0.5c0.2,0,0.3,0,0.2-0.3c-0.1-0.7-0.6-1.1-1.2-0.9c-0.5,0.2-0.9,0.5-1.3,0.8
					c-0.2,0.1-0.3,0.6-0.2,0.8c0.3,0.4,0.4,0.9,0.7,1.3C105.2,49.1,105.7,49.5,106.1,49.9z M98.6,76.6c0.7,0.2,0.5-0.5,0.7-0.7
					c0.2-0.2,0.3-0.5,0.1-0.8C99.4,75,99.3,75,99.2,75c-0.3-0.1-0.9,0.2-0.9,0.6c0,0.2,0,0.3-0.1,0.5C98.1,76.4,98,76.8,98.6,76.6z
					 M128,43.8c0.4,0.2,0.7,0.2,0.8,0c0.1-0.1,0.1-0.2,0.2-0.3c0.5-0.6,0.5-0.9-0.1-1.6c-0.1-0.1-0.2-0.3-0.3-0.3
					c-0.1,0,0,0.2,0,0.3C128.8,42.7,128.6,43.4,128,43.8z M109.6,47.5c0,0,0-0.1,0.1-0.1c0.1-0.1-0.2-0.4,0.1-0.4
					c0.2,0,0.1,0.2,0.1,0.4c0,0.3,0.1,0.3,0.3,0.3c0.3,0,0.4-0.1,0.3-0.4c-0.1-0.2-0.2-0.4-0.3-0.7c-0.1-0.1-0.2-0.2-0.3-0.2
					C109.3,46.5,109.2,46.9,109.6,47.5z M116.7,47.3c-0.1-0.7,0.1-0.9,0.7-0.8c0.2,0,0.5,0.1,0.7,0.1c0.2,0,0.3,0.1,0.5,0
					c0.1,0,0.1-0.1,0.1-0.2c0-0.1-0.1-0.1-0.2-0.1c-0.5,0.2-1.1-0.1-1.6-0.1c-0.4,0-0.5,0.2-0.6,0.5C116.2,47,116.4,47.1,116.7,47.3
					z M96.8,77.4c-0.2,1.2,0.2,2.2,0.9,3.1C97.3,79.5,97,78.4,96.8,77.4z"/>
				<g id="XMLID_822_">
					<polygon id="XMLID_831_" class="st2" points="58.3,105.2 58.3,105.2 58.3,105.2 					"/>
					<path id="XMLID_823_" class="st2" d="M26.9,48.5c-0.2,0.2-0.3,0.4-0.7,0.5c0.1-0.2,0.4-0.3,0.1-0.4c-0.2,0-0.4-0.1-0.6,0.2
						c-0.2,0.3-0.4,0.7-0.7,0.9c-0.8,0.5-1.5,1.2-2.2,1.7c-0.6,0.4-0.9,1.1-1.6,1.5c0,0,0,0.1,0,0.1c-0.4,0.6-0.3,1.1-0.6,1.6
						c-0.2,0.4-0.1,0.7-0.2,1c-0.1,0.2,0,0.3,0.2,0.3c0.5,0.2,0.7,0.4,0.6,1c-0.2,0.6-0.5,1.3,0,1.8c0.1,0.1,0.1,0.5-0.3,0.5
						c-0.4,0.1-0.2,0.2-0.2,0.3c0.1,0.1,0.2,0.2,0.3,0.2c0.3,0.1,0.5,0.3,0.3,0.6c-0.1,0.3,0,0.5,0.2,0.7c0.2,0.1,0.3,0.3,0.4,0.5
						c0,0.1,0.1,0.1,0.2,0.1c0.1,0,0.2-0.1,0.2-0.2c0-0.1,0-0.3-0.2-0.4C22,61.2,22,61.1,22,60.9c0.1-0.9-0.2-1.7-0.4-2.5
						c-0.1-0.3,0.1-0.6,0.3-0.9c0.1-0.1,0.2-0.2,0.3-0.1c0.3,0.1,0.5,0.2,0.3,0.5c-0.1,0.3-0.3,0.7-0.2,0.9c0.2,0.5,0.9,0.8,0.7,1.6
						c0,0,0.1,0.1,0.1,0.1c0.4,0.4,0.7,0.9,1,1.4c0.2,0.4,0.3,0.8-0.1,1.2c-0.2,0.2-0.1,0.4,0,0.6c0.3,0.3,0.6,0.5,0.9,0.7
						c0.8,0.4,1.6,0.7,2.4,1.1c0.4,0.2,0.9,0.3,1.3,0.1c0.5-0.3,0.9-0.2,1.2,0.2c0.5,0.7,1.3,1,2.1,1.2c0.2,0.1,0.4,0.2,0.7,0
						c0.2-0.1,0.3,0,0.2,0.1c-0.1,0.2,0.1,0.3,0.2,0.4c0.2,0.3,0.7,0.5,0.6,1c-0.1,0.3,0.1,0.4,0.4,0.5c0.3,0.1,0.6,0.2,0.7,0.5
						c0,0.2,0.2,0.3,0.4,0.3c0.4,0,0.7,0.2,1.1,0.4c0.1,0.1,0.2,0.2,0.4,0.1c0.2-0.1,0.1-0.2,0.1-0.3c0-0.2,0.4-0.6,0.6-0.6
						c0.2,0.1,0.6,0.1,0.5,0.5c-0.1,0.1,0,0.3,0.1,0.4c0.6,0.7,0.4,1.4,0.4,2.2c0,0.5-0.6,0.9-0.9,1.3c-0.3,0.3-0.4,0.6-0.6,1
						c-0.1,0.3-0.1,0.6-0.1,0.9c0,0.2,0.2,0.3,0.3,0.3c0.5-0.1,0.3,0.2,0.2,0.3c-0.1,0.2-0.2,0.3-0.3,0.4c-0.1,0.2-0.2,0.4-0.1,0.6
						c0.2,0.4,0.3,0.8,0.8,1.1c0.1,0.1,0.3,0.2,0.4,0.4c0.8,0.8,1.3,1.8,2.1,2.6c0.3,0.3,0.6,0.6,0.8,1c0.1,0.3,0.4,0.5,0.6,0.8
						c0.6,0.5,1.2,0.8,1.8,1c0.6,0.3,1.3,0.7,1.7,1.2c0.5,0.8,1.1,1.7,1.1,2.6c0,0.1,0,0.1,0.1,0.2c0.4,0.8,0.7,1.5,0.9,2.3
						c0.1,0.5,0.2,0.9,0.6,1.4c0.2,0.2,0.1,0.6,0.4,0.8c0.7,0.8,0.9,1.6,1.2,2.4c0.2,0.5,0.1,1.1,0.7,1.7c0.3,0.3,0.6,0.7,0.7,1.1
						c0.2,0.5,0.8,1.1,1,1.6c0,0.1,0.1,0.2,0.2,0.2c0.1,0,0-0.1-0.1-0.2c-0.1-0.2-0.2-0.3-0.3-0.5c-0.1-0.1,0-0.2,0-0.2
						c0.1,0,0.1,0,0.2,0.1c0.1,0.1,0.3,0.2,0.3,0.4c0.3,0.7,1,1.4,1.4,2.1c0,0.1,0.2,0.2,0.1,0.2c0,0-0.1,0-0.2-0.1
						c-0.4-0.4-0.4-0.1-0.4,0c0.3,0.2,0.6,0.2,0.8,0.4c0.2,0.4,0.5,0.4,0.8,0.6c-0.2,0.1,0,0.4-0.1,0.6c0,0,0,0.2,0.3,0.3
						c0.3,0.1,0-0.1,0-0.2c0,0,0-0.1,0.1,0c0.3,0.5,0.8,0.9,1.2,1.3c0.1,0.1,0.2,0.2,0.3,0.2c0.1-0.1,0.3,0.1,0.5,0.2
						c0.2,0.2,0.3,0.3,0.6,0.4c-0.1,0.1-0.2,0.2,0,0.4c0.2,0.2,0.4,0.3,0.6,0.3c0.2,0,0.1-0.1,0-0.3c-0.2-0.3,0-0.3,0.2-0.4
						c0-0.2,0.1-0.3-0.3-0.5c-0.3-0.2-0.6-0.6-0.5-0.9c0-0.1,0.1-0.1,0-0.3c-0.2-0.3-0.2-0.5-0.1-0.7c0.1-0.3-0.1-0.6-0.5-0.7
						c-0.1-0.1-0.3-0.1-0.4-0.2c-0.6-0.4-0.8-0.7-0.5-1c0.1-0.1,0.2-0.2,0.1-0.3c-0.3-0.5-0.3-1-0.9-1.4c-0.1-0.1-0.3-0.3-0.4-0.5
						c-0.2-0.2-0.1-0.3,0.1-0.2c0.2,0.1,0.5,0.2,0.7,0.2c0.1,0,0.4,0,0.2-0.3c-0.2-0.3-0.3-0.7-0.7-1c0.6,0.2,1,0.1,1.4,0
						c0.4,0,0.4-0.4,0.5-0.8c0-0.3-0.3-0.5-0.5-0.7c-0.1,0-0.1-0.1-0.1-0.2c-0.1-0.4-0.4-0.5-0.7-0.7c-0.2-0.1-0.4-0.2-0.4-0.5
						c0.4,0.3,0.8,0.4,1.1,0.5c0.4,0.1,0.9,0.3,1.1-0.1c0.2-0.4,0.3-0.8,0.1-1.4c-0.1-0.4,0.1-0.6,0-0.9c0-0.1,0.1-0.1,0.2,0
						c0.4,0.3,0.2,0,0.2-0.2c0-0.1,0-0.3,0-0.4c0.3-0.5,0.2-1-0.2-1.6c-0.2-0.4-0.2-0.7,0-0.9c0.3-0.4,0.7-0.5,1.1-0.8
						c0.3-0.3,0.7-0.3,1.1-0.3c0.2,0,0.3-0.1,0.4-0.2c0.3-0.3,0.2-0.7,0.3-1c0.3-0.7,0.1-1.5,0.2-2.3c0.1-0.6-0.2-1.2-0.4-1.9
						c-0.1-0.2-0.1-0.6,0.1-0.6c0.3-0.1,0.4-0.3,0.4-0.5c0.1-0.3,0.2-0.6,0.5-0.9c0.7-0.8,0.8-1.7,0.3-2.8c-0.1-0.2-0.2-0.3-0.4-0.3
						c-0.6,0-1-0.4-1.4-0.8c-0.5-0.4-1-0.8-1.7-0.7c-0.2,0-0.4,0-0.7-0.1c-0.3-0.2-0.6-0.2-0.9,0c-0.2,0.1-0.3,0.1-0.3-0.2
						c0-0.2,0-0.4-0.2-0.5c-0.4-0.2-0.9-0.4-1.3-0.6c-0.2-0.1-0.5-0.1-0.5,0.1c-0.2,0.6-0.6,0.7-1.2,0.4c0,0-0.1-0.1-0.1-0.1
						c-0.6-0.5-0.4-1,0-1.4c0.2-0.2,0.3-0.5-0.1-0.8c-0.2-0.2-0.3-0.5-0.3-0.8c0-0.1-0.1-0.3-0.2-0.4c-0.6-0.4-0.9-1-1.6-1.1
						c-0.4-0.1-0.8,0-1.1,0c-0.3,0-0.4,0-0.5,0.3c0,0.1,0,0.2-0.2,0.2c0.1-0.3,0.3-0.5,0-0.8c-0.2-0.2-0.4-0.3-0.6-0.1
						c0-0.8-0.5-1.2-1.4-1.3c0.2-0.3,0-0.7,0.3-0.9c0.2-0.1,0.1-0.4-0.1-0.5c-0.3-0.3-0.2-0.5,0.2-0.6c0.3-0.1,0.5-0.4,0.3-0.6
						c-0.3-0.3-0.3-0.7-0.4-1c0,0,0,0,0,0c-0.3,0-0.6-0.1-0.7,0.3c-0.1,0.2,0,0.4,0.2,0.5c0.4,0.2,0.2,0.4-0.1,0.5
						c-0.5,0.2-0.6,0.4-0.3,0.8c0.3,0.3,0.1,0.4-0.2,0.4c-0.3,0-0.6,0.1-0.9,0.2c-0.3,0.2-0.6,0.2-0.9,0c-0.2-0.1-0.4-0.1-0.6-0.1
						c-0.3,0-0.6,0.1-0.8-0.3c0-0.1-0.2-0.2-0.4-0.2c-0.5-0.1,0.8,0.1,0.4,0.3c-0.3,0.2,1.7,0.4,1.7,0.6c0,0,0,0.1,0,0.1
						c0,0.1-1.7,0.2-1.8,0.2c-0.1,0-1.1-0.1-1.1-0.2c0-0.4-0.3-0.8-0.3-1.3c0,0-0.1-0.1-0.1-0.1c0.1-0.1,0.2-0.1,0-0.3
						c-0.1-0.1-0.3,0-0.4,0.1C41,67.8,40.6,68,40.2,68c-0.5,0.1-1,0.3-1.1,0.9c0,0.2-0.2,0.3-0.3,0.4c-0.2,0.1-0.3,0.3-0.4,0.5
						c-0.2-0.2-0.3-0.3-0.4-0.4c-0.5-0.5-0.8-0.5-1.4-0.3c-0.3,0.2-0.7,0.4-1.1,0.1c-0.5-0.5-1-0.9-0.8-1.7c0.1-0.3,0.2-0.7,0.3-1
						c0.3-0.7,0-1.1-0.9-1.1c-0.5,0-1,0.1-1.5,0.1c-0.1,0-0.3,0-0.3-0.1c-0.1-0.1,0.1-0.2,0.1-0.2c0.2-0.3,0.3-0.6,0.4-1
						c0-0.1-0.1-0.2,0.1-0.2c0.3,0,0.3-0.2,0.4-0.3c0.1-0.2,0.1,0.1,0.3-0.1c0.5-0.6,0.5-0.1-0.3-0.1c0,0,0,0,0,0
						c-0.7,0-1.1-0.4-1.5,0.2c-0.1,0.3-0.3,0.2-0.5,0.4c-0.1,0.1-0.2,0.1-0.4,0c-0.2-0.1-0.4,0-0.7,0c-0.9,0.2-1.4,0-1.6-0.8
						c0-0.1-0.1-0.2-0.1-0.4c-0.2-0.4-0.1-0.9,0-1.3c0.2-0.8,0.9-1.4,1-2.2c0-0.2,0.3-0.5,0.6-0.7c0.4-0.3,0.9-0.3,1.3-0.6
						c0.3-0.3,0.7-0.4,1.1-0.3c0.3,0.1,0.9-0.2,1.1,0.3c0,0,0.2,0,0.2,0c0.2-0.1,0.4-0.1,0.6,0.1c-0.1-0.3-0.1-0.5-0.1-0.6
						c0.3-0.1,0.7-0.2,1-0.2c0.5,0,1.1-0.2,1.3,0.2c0.1,0.1,0.2,0.1,0.3,0c0.3-0.1,0.5-0.2,0.6,0.1c0.1,0.2,0.3,0.3,0.1,0.6
						c-0.2,0.6-0.1,1.1,0.1,1.6c0.2,0.3,0.4,0.3,0.6-0.1c0.2-0.3,0.3-0.7,0.3-1.1c0-0.4,0-0.9,0.1-1.4c0-0.4,0.3-0.8,0.6-1.1
						c0.6-0.5,1.2-0.8,1.9-1.2c0.6-0.3,1.2-0.8,1.8-1.1C43.4,54,43,54,43,53.8c0.3-0.1,0.5-0.2,0.5-0.4c0-0.5,0.4-0.9,0.7-1.4
						c0,0,0,0.1,0,0.1c-0.1,0.2-0.3,0.5,0,0.5c0.3,0,0.4-0.2,0.5-0.5c0-0.1,0-0.2,0.2-0.2c0.4,0,0.6-0.3,0.8-0.5
						c0.2-0.2,0.4-0.4,0.7-0.6c0.2-0.1,0.5-0.2,0.7-0.3c0.4-0.2,0.9,0,1.2-0.7c0.2-0.7,1.1-1,1.6-1.1c0.7-0.1,1.4-0.7,2.1-0.8
						c0.3-0.1,0.6-0.1,0.7,0.2c-0.5,0.2-0.9,0.2-1.4,0.5c-0.1,0.1-0.3,0.2-0.3,0.3c0.1,0.2,0.3,0.1,0.4,0c0.5-0.4,1-0.5,1.5-0.6
						c0.2,0,0.4-0.2,0.7-0.3c0-0.2-0.2-0.1-0.3-0.1c-0.1,0-0.3,0-0.4-0.1c-0.4-0.1-0.5-0.5-0.2-0.9c0.1-0.2,0-0.1-0.1-0.1
						c-0.1,0-0.2-0.1-0.4-0.2c0.3-0.2,0.5,0,0.8-0.2c0.2-0.1,0.4-0.1,0.4-0.4c0-0.2-0.2-0.2-0.4-0.1c-0.8,0.2-1.6,0.4-2.4,1
						c-0.3,0.2-0.6,0.5-1,0.5c0.2-0.2,0.3-0.3,0.5-0.4c0.7-0.5,1.4-1,2.2-1.3c0.4-0.2,0.7-0.5,1.1-0.5c0.5,0,1.1-0.1,1.6-0.1
						c0.5,0,1,0,1.5-0.4c0.3-0.2,0.6-0.3,0.9-0.4c0.4-0.1,0.8-0.2,1.2-0.7c0.5-0.6-0.2-0.4-0.1-0.7c0-0.1-0.2-0.1-0.2,0
						c-0.3,0.1-0.7,0.3-1,0.4c-0.1,0.1-0.2,0-0.2-0.1c0-0.2,0.1-0.1,0.2-0.2c0.4-0.2,0.8-0.3,1.3-0.5c0-0.1-0.1-0.1-0.1-0.1
						c0,0,0,0-0.1,0c-0.4,0-0.8,0.1-0.7-0.6c0.1-0.2-0.3-0.4,0.2-0.6c0.1,0,0-0.2,0.1-0.2c0.2-0.3-0.2-0.4,0-0.5
						c0.2-0.3,0.1-0.4,0.2-0.7c0.1-0.2-0.1-0.2-0.3-0.1c-0.8,0.7-1.7,1-2.6,1.2c0.2-0.3,0.6-0.2,0.7-0.5c0-0.2-0.3,0.1-0.4,0
						c0,0,0,0,0-0.1c0.2-0.2,0.7-0.4,0.4-0.7c0.1,0,0.3-0.1,0.4-0.1c0.2-0.1,0.3-0.3,0.1-0.3c-0.3-0.1-0.3-0.3-0.4-0.5
						c0-0.1-0.1-0.2-0.3-0.2c-0.4,0.1-0.7,0.1-1,0c-0.3-0.1-0.5,0.1-0.8,0.4c-0.5,0.5-0.8,1.2-1.5,1.5c-0.2,0.1-0.4,0.3-0.2,0.4
						c0.2,0.2,0,0.5-0.3,0.8c-0.5,0.6-1.2,0.9-1.9,1.1c-0.3,0.1-0.6,0.2-0.7,0.6c-0.1,0.3-0.4,0.6-0.6,0.9c-0.3,0.4-0.8,0.6-1.1,0.9
						c0,0,0,0-0.1-0.1c-0.3-0.2-0.3-0.8,0-1.2c0.2-0.2,0.3-0.5,0.5-0.7c0.4-0.4,0.2-0.4-0.1-0.4c-0.6,0-1-0.1-1.2-0.6
						c0-0.1-0.1-0.1-0.2-0.1c-0.3-0.2-0.8,0-1.3,0.2c0.5-0.5,0.8-0.8,0.7-0.9c-0.1-0.1-0.3,0.1-0.5,0.1c1.3-1.5,2.8-2.2,4.4-2.8
						c-0.1-0.2-0.5-0.1-0.5-0.4c0.9,0.2,1.9-0.1,3-0.8c-0.4,0-0.5-0.2-0.8-0.3c0.4-0.1,0.6-0.1,0.8,0c0.2,0.2,0.6,0,0.9-0.3
						c0.3-0.3,0.5-0.4,0.8-0.3c0.1,0,0.3,0.2,0.4-0.2c0-0.1,0.2-0.1,0.2-0.1c0.2,0.4,0.7,0,1-0.2c0.2-0.1,0.3-0.2,0.4-0.3
						c0.1-0.2,0.2-0.4,0.5-0.5c0.2-0.1,0.3-0.2,0.2-0.4c-0.3-0.2-0.5-0.2-1,0.3c0,0-0.1,0.1-0.1,0.1c-0.5,0.2-0.9,0.6-1.4,0.8
						c-0.1,0.1-0.4,0.3-0.4,0.1c0-0.2,0.1-0.4,0.4-0.5c0.2-0.1,0.3-0.2,0.3-0.3c0-0.1-0.2,0-0.3,0.1c-0.2,0.1-0.4,0.4-0.7,0.4
						c0.4-0.4,0.3-0.6,0.2-0.7c0.1-0.1,0.2-0.1,0.2-0.1c0.3-0.2,0.6-0.5,0.6-0.7c0-0.2-0.3-0.1-0.6,0.1c-0.1,0-0.2,0.1-0.2,0.1
						c-0.3,0.1-0.7,0.4-0.9,0.6c-0.2,0.2,0.2,0.1,0.3,0.2c0,0,0,0,0,0.1c-0.3,0.3-0.7,0.6-1.1,0.7c-0.3,0.1-0.6,0.2-0.9,0.6
						c-0.1,0.1-0.5,0.4-0.5,0.2c-0.1-0.1,0.2-0.3,0.3-0.4c0,0,0.1-0.1,0.1-0.1c0.1-0.1,0.2-0.3,0-0.3c-0.1,0-0.2,0.1-0.2,0.2
						c0,0.1-0.2,0.2-0.3,0.2c-0.1,0-0.3,0-0.4,0c-0.5,0-1.2,0.2-1.6,0c-0.5-0.2-1,0.1-1.7,0.6c-0.1,0.1-0.3,0.3-0.5,0.3
						c-0.1,0,0-0.2,0-0.3c0.1-0.2,0-0.3-0.2-0.2c-0.2,0.1-0.4,0.1-0.7,0.2c-0.3,0.1-0.7,0.2-0.9,0c0.3-0.2,0.5-0.2,0.7-0.4
						c0-0.2-0.2-0.1-0.3-0.1c-0.2,0-0.4,0.1-0.6,0c-0.4-0.1-0.7-0.4-1.6,0.1c-0.1,0.1-0.3,0.1-0.1-0.1c0.1-0.1,0-0.1,0,0
						c-0.4,0.2-0.6,0.3-0.6,0c0,0-0.1,0-0.2,0c-0.6,0.2-1.2,0.5-1.7,0.5c-0.3,0-0.8,0.2-1.2,0.4c-0.6,0.3-1,0.3-1.4,0.2
						c-0.4-0.1-0.6-0.3-1.3-0.2c-0.2,0-0.3,0.1-0.4,0c-0.5-0.1-1.2,0.1-1.7,0c-0.4-0.1-0.9,0-1.6,0.3c-0.4,0.1-0.7,0.3-1.1,0.4
						c-0.6,0.2-1.2,0.3-1.9,0.7c-0.6,0.3-1.1,0.4-1.6,0.5c-0.2,0-0.3,0.1-0.5,0.2c-0.1,0.1-0.3,0.1-0.3,0.2c0,0.2-0.5,0.6,0.1,0.4
						c-0.6,0.4-1,0.5-1.4,0.6c-0.2,0,0.2-0.3-0.1-0.2c-0.6,0.2-1.2,0.4-1.9,0.6c-0.2,0.1-0.4,0.3-0.5,0.4c-0.2,0.2,0.1,0.1,0.2,0.1
						c0.4-0.1,0.8-0.1,1.5-0.4c-1,0.6-1,0.6-1.6,0.8c-0.8,0.2-1.6,0.5-2.5,0.9c-0.3,0.1-0.5,0.2-0.8,0.4c-0.1,0-0.3,0.1-0.3,0.2
						c0.1,0.2-0.2,0.2-0.4,0.3c-0.2,0.1-0.3,0.2-0.4,0.3c-0.1,0.1,0,0.1,0.1,0.1c0.1,0,0.4-0.1,0.4,0c-0.3,0.2-0.5,0.3-0.8,0.5
						c0.4-0.1,0.9-0.3,0.9-0.1c0,0,0.1,0,0.2-0.1c0.2-0.1,0.3-0.1,0.3,0c0,0.1-0.2,0.2-0.4,0.3c-0.8,0.4-1.6,0.7-2.4,1
						c-0.3,0.1-0.5,0.1-0.8,0.4c0.2,0.1,0.4,0,0.7-0.1c1.2-0.5,2.5-0.9,3.7-1.4c0.4-0.1,0.8-0.3,1.2-0.5c0.9-0.6,1.6-0.7,2.3-1.1
						c-0.3,0.3-0.7,0.4-1,0.7c0.7-0.2,1.3-0.5,1.9-0.6c0.1,0,0.3-0.1,0.4-0.2c0.5-0.4,1-0.5,1.1-0.2c0.1,0.2,0.3,0.2,0.6,0.2
						c0.6-0.1,1-0.1,0.9,0.5c0,0.1,0.1,0.1,0.2,0.2c-0.5,0.3-0.7,0.6-0.9,1c0.4-0.4,1-0.6,1.4-1c0.1-0.1,0.2-0.2,0.3-0.1
						c0,0,0.2,0.1,0,0.2c-0.4,0.3-0.5,0.6-0.8,1c-0.4,0.4-0.4,0.6,0.1,0.5c-0.4,0.1-0.6,0.4-0.9,0.7c0.2-0.1,0.4-0.1,0.6-0.2
						c-0.2,0.2-0.1,0.3-0.4,0.4c-0.3,0.1-0.3,0.3-0.2,0.3c0.1,0,0.1,0.1,0,0.1c-0.3,0.1-0.4,0.5-0.8,0.5c0.1,0.1,0.2,0.2,0.3,0.2
						c0.2,0,0.2,0.2,0.2,0.2 M40.9,50c-0.2,0.4-0.5,0.6-0.8,0.8c-0.1,0.1-0.2,0.1-0.3,0.1c-0.1-0.1,0-0.2,0-0.3
						c0.2-0.3,0.3-0.5,0.6-0.8c0.2-0.2,0.4-0.4,0.6-0.6c0.5-0.6,0.7-0.6,1.4-0.8c0.1,0,0.2,0,0.2,0.1c0,0.1-0.1,0.2-0.2,0.2
						c-0.2,0.1-0.4,0.3-0.6,0.4C41.4,49.2,41.1,49.6,40.9,50z M46.2,49c-0.2,0.5-0.6,0.7-1.1,0.7c-0.3,0-0.6,0.3-0.8,0.6
						c0,0.1-0.1,0.2-0.1,0.3c0,0,0,0,0,0c-0.6,0-1.4,0.5-2.1,0.6c-0.1,0-0.2-0.1-0.2-0.2c0-0.1,0.5-0.3,0.6-0.3
						c0.8-0.4,1.3-0.5,2.6-0.6c0,0,0,0,0,0c0,0,0,0,0,0c0.1-0.4-0.3-0.5,0-0.6C45.4,49.3,45.6,49.1,46.2,49z M41,47.6
						c0.4-0.1,0.7-0.3,1.1-0.5c0.8-0.5,1.4-0.5,1.6,0.1c0,0.1-0.1,0.3-0.1,0.5c-0.1,0.3,0,0.4,0.3,0.4c0.3,0,0.6,0,0.8,0.1
						c0.3,0.1,0.3,0.3,0.1,0.6c-0.1,0.3-0.3,0.3-0.6,0.2c-0.3-0.1-0.4,0.2-0.6,0.4c-0.2,0.1-0.3,0.3-0.5,0.4
						c-0.1,0.1-0.3,0.1-0.2-0.1c0.2-0.5-0.2-0.2-0.4-0.2c0,0,0-0.1-0.1-0.1c0.2-0.1,0.4-0.2,0.5-0.4c0.2-0.2,0.3-0.3,0.2-0.5
						c-0.1-0.1-0.3-0.2,0.1-0.4c0.1-0.1,0.1-0.2-0.1-0.2c-0.6,0-1.2-0.1-1.8-0.1c-0.4,0-0.8,0.3-1.2,0.1
						C40.4,47.9,40.7,47.7,41,47.6z M39.4,38.7c0.8-0.2,1.7-0.6,2.5-0.7c0.1,0,0.2,0,0.1,0.1c0,0-0.1,0.1-0.2,0.2
						c0.1,0.1,0.4-0.2,0.6,0c-0.4,0.3-0.8,0.5-1.2,0.5c-0.2,0-0.6,0.3-1,0.4c-0.4,0.2-0.7,0.2-1,0.1c0.3-0.2,0.5-0.3,0.7-0.5
						C39.9,38.5,39.6,38.8,39.4,38.7z M40.1,40.8c-0.3,0.1-0.7,0.3-1.1,0.4c-0.3,0-0.5,0-0.8,0c1.5-0.6,1.5-0.6,1.8-1
						c0.1,0,0.1,0,0.2,0c0.3,0.3,0.9,0.1,1.5-0.2c0.4-0.2,0.7-0.3,0.9-0.1C41.8,40,41,40.6,40.1,40.8z M39.7,46.2
						c-0.1-0.1,0.1-0.2,0.2-0.3c0.2-0.2,0.3-0.4,0.1-0.5c-0.2-0.1,0.3-0.8,0.6-1c0.2-0.1,0.3-0.1,0.4-0.1c0.1,0.1,0.1,0.2,0,0.3
						c-0.4,0.4-0.4,0.9-0.9,1.3C40,46.1,39.8,46.3,39.7,46.2z"/>
				</g>
				<path id="XMLID_821_" class="st3" d="M148.8,83.3c0.2-0.2,0.4-0.3,0.6-0.2c0.2,0.1,0.3,0,0.4-0.3c0.1-0.7,0.9-1.3,1.6-1.4
					c0.2,0,0.4,0,0.4-0.2c0.2-0.3,0.3-0.2,0.6-0.2c0.6,0.2,1.3,0.3,1.5,0.2c0.1,0.1,0,0.2-0.1,0.2c-0.5,0.3-0.6,0.8-1,1.1
					c-0.2,0.2-0.1,0.3,0,0.4c0.2,0.4,0.7,0.5,0.9,0.7c0.1,0.1,0.3,0.2,0.3,0.3c0.2,0.3,0.6,0.2,1-0.2c0.4-0.5,0.8-0.9,1-1.4
					c0.3-0.7,0.7-1.4,1.2-2.1c0.1,0.5,0.1,1,0,1.5c-0.1,0.2-0.1,0.4,0.2,0.4c0.3,0,0.3,0.3,0.2,0.5c-0.2,0.6-0.1,1.1-0.4,1.7
					c-0.1,0.2,0,0.3,0.1,0.4c0.5,0.3,0.7,0.7,0.4,1.3c-0.1,0.2-0.1,0.4,0.1,0.3c0.1,0,0.2,0.1,0.1,0.2c-0.2,0.4,0,0.6,0.1,0.9
					c0.1,0.3,0,0.6-0.2,0.9c-0.5,1-1.4,1.9-2.3,2.8c-0.3,0.3-0.7,0.6-1.1,0.8c-1.2,0.8-2.4,1.7-3.5,2.7c-0.3,0.3-0.6,0.5-1,0.5
					c-0.4,0-0.7,0.2-1.2,0.4c-0.4,0.2-0.8,0.4-0.7,0c0-0.2-0.2-0.1-0.3,0c-0.8,0.6-1.1,0.3-1.5,0.1c-0.2-0.1-0.1-0.3,0.1-0.6
					c0.2-0.2,0.3-0.4,0.4-0.6c0.1-0.1,0.2-0.2,0-0.3c-0.2,0,0.1-0.2,0.1-0.3c0.1-0.2,0.2-0.4-0.2-0.2c0.3-0.4,0.7-0.6,0.9-1
					c-0.7,0.4-1.3,0.8-2,1.3c0.2-0.4,0.3-0.8,0.4-1.2c0-0.1,0-0.2-0.1-0.3c-0.6-0.2-1.1-0.5-1.9-0.2c-0.9,0.4-1.7,0.4-2.6,0.9
					c-0.1,0.1-0.3,0.1-0.4,0.2c-0.5,0.5-1,0.6-1.5,0.5c-0.6,0-1.2,0.3-1.9,0.7c-0.6,0.3-1,0.3-1.2-0.1c-0.1-0.1-0.1-0.3,0.1-0.4
					c0.7-0.4,0.9-1,1.1-1.6c0.3-0.8,0.5-1.6,0.6-2.4c0,0,0-0.1,0-0.1c0.5-0.4,0.4-0.8,0.5-1.2c0-0.5,0.6-0.9,0.7-1.3
					c0-0.1,0.3-0.2,0.5-0.3c0.6-0.3,1.1-0.7,1.7-0.9c0.7-0.2,1.4-0.4,2.1-0.8c0.5-0.3,1-0.7,1.2-1.2c0.1-0.2,0.2-0.3,0.4-0.4
					c0.2-0.1,0.2,0.1,0.2,0.2c0.1,0.2,0.3,0,0.3-0.1c0.1-0.1,0.1-0.2,0.1-0.3c0.4,0,0.5-0.4,0.7-0.6c0.3-0.2,0.5-0.5,0.9-0.7
					C148.6,82.5,148.8,82.5,148.8,83.3z"/>
				<path id="XMLID_820_" class="st3" d="M64.8,31.1c0.1-0.1,0.4-0.1,0.2-0.3c0.4-0.2,0.7,0.1,1.2-0.5c-0.6,0.1-1-0.1-1.4-0.3
					c1.2-0.5,2.5-1.3,3.4-1.4c-0.2,0-0.4,0-0.6,0.1c0.5-0.1,1.1-0.3,1.6-0.3c0.1,0,0.1,0.1,0.2,0c0.4-0.3,0.7-0.3,0.9-0.1
					c0.1,0.1,0.2-0.2,0.3-0.2c0.3-0.1,0.7-0.2,0.9,0c0.1,0.1,0.2,0.1,0.3,0c0.2-0.1,0.3,0,0.4,0c0.2,0,0.3,0.3,0.5-0.2
					c0-0.1,0.2-0.1,0.3,0c0.2,0,0.5,0.1,0.7,0.1c0.3,0,0.5-0.1,0.8-0.3c0,0,0.1-0.1,0.1-0.1c1.1,0,2.3-0.6,3.4-0.5
					c0.1,0,0.2,0,0.3,0c-0.5,0.2-1,0-1.5,0.3c1.1-0.2,2.1-0.2,3.2-0.1c-1,0.3-1.9,0.2-2.8,0.5c0.5,0.1,1.1-0.2,1.6-0.1
					c-0.1,0-0.2,0.1-0.4,0.1c0.5,0.1,1-0.3,1.4-0.2c-0.2,0.3-0.5,0.2-0.8,0.5c1.1-0.4,2.1-0.6,3.2-0.6c-0.3,0.2-0.6,0.3-1,0.3
					c-0.3,0-0.7,0.1-1,0.1c-0.2,0-0.3,0.2-0.3,0.3c0,0.3-0.1,0.4-0.3,0.5c-0.3,0.1-0.5,0.3-0.7,0.6c0.2,0.2,0.5,0.2,0.8,0.3
					c-0.4,0.1-0.8,0-1.2,0.2c0,0.2,0.2,0.2,0.2,0.3c-0.2,0-0.3,0.2-0.4,0.4c-0.1,0.2,0.1,0,0.2,0.2c-0.2,0.2-0.5,0-0.5,0.4
					c0,0.3,0.3,0,0.3,0.2c-0.1,0.2-0.3,0.1-0.4,0.1c-0.3-0.1-0.6-0.2-0.9-0.1c-0.3,0.1-0.5,0.3-0.8,0.3c-0.1,0-0.1,0.1-0.1,0.2
					c0,0.1,0.1,0.2,0.1,0.1c0.3-0.1,0.4,0.2,0.7,0.2c0.3,0,0.3,0.4,0.4,0.7c-0.3,0.1-0.6,0.2-0.7-0.2c-0.2-0.3-0.6-0.2-0.9-0.4
					c0,0-0.1,0-0.1,0.1c0,0.1,0,0.2,0.1,0.2c0.2,0,0.3,0,0.5,0.1c-0.4,0.2-0.8,0.1-1.1,0.4c0.3,0.3,0.3,0.3,0.8,0.1
					c0.3-0.1,0.3-0.1,0.8,0c-0.8,0.6-1.6,0.8-2.4,1c-0.3,0.1-0.6,0.3-0.8,0c0,0-0.1,0-0.1,0c-0.6,0.6-1.2,1-1.9,1.2
					c-0.2,0.1-0.4,0.2-0.5,0c0,0-0.1-0.1-0.1-0.1c-0.5,0.5-1.2,0.4-1.7,1c-0.3,0.4-0.7,0.9-1.3,1c0,0-0.1,0.1-0.1,0.1
					c-0.1,0.7-0.9,0.7-1.1,1.3c0,0.1-0.5-0.2-0.4-0.3c0.1-0.4-0.1-0.2-0.3-0.2c-0.6,0.2-1-0.2-0.8-0.9c0-0.1,0.1-0.2,0-0.3
					c0-0.2,0-0.2,0.2-0.3c0.1-0.1,0.4-0.1,0.4-0.3c0-0.2-0.1-0.3-0.3-0.1c0,0-0.1-0.1-0.1-0.1c0-0.1,0.1-0.1,0.1-0.2
					c0.1,0,0.2-0.1,0.3-0.1c-0.2,0-0.2-0.1-0.3-0.2c0.2-0.1-2.3,0-2.1,0c0.2-0.1-2.4,0.2-2.3-0.1c0,0,0,0,0,0c0,0,3.1-1.1,3.6-1.2
					c0.1,0,1.5-0.3,1.5-0.5c0-0.1,0.5-0.2,0.4-0.1c-0.2,0-0.1-0.1-0.2-0.2c0.3-0.1,0.6,0,0.9,0c0.3,0.1,0.5-0.1,0.5-0.4
					c0-0.4-0.3-0.5-0.6-0.3c-0.2,0.1-0.3,0.3-0.5,0.1c0.3-0.1,0.5-0.2,0.7-0.5c0.2-0.3,0.2-0.5,0.2-0.8c0.1-0.4-0.2-0.7-0.5-0.8
					c-0.5-0.1-1.2,0.1-1.8,0.2C65.1,31.1,64.9,31.1,64.8,31.1z"/>
				<path id="XMLID_819_" class="st3" d="M152.3,75c0.2-0.1,0.5-0.1,0.6-0.2c0.5-0.4,0.8,0,1.2,0.1c0.1,0,0.2,0.2,0.1,0.4
					c-0.2,0.4,0.1,0.6,0.2,0.9c0.1,0.2,0.3,0.1,0.4,0c0.3-0.3,0.6-0.5,0.9-0.7c0.2-0.2,0.4-0.2,0.7-0.1c1,0.4,2,0.8,3,1.2
					c0.3,0.1,0.6,0.3,0.6,0.7c0,0.3,0.3,0.3,0.5,0.4c0.4,0.2,0.4,0.2,0,0.5c-0.3,0.2-0.1,0.3,0,0.5c0.2,0.5,0.7,0.9,1,1.3
					c0,0,0,0.1,0.1,0.2c-0.8-0.2-1.6-0.2-1.8-0.9c-0.2-0.6-0.8-0.7-1.5-0.3c-0.2,0.1-0.3,0.1-0.5,0.1c0.1,0.1,0.4,0.1,0.2,0.3
					c-0.1,0.2-0.3,0.2-0.5,0.2c-0.4,0-0.9,0-1.1-0.4c-0.1-0.2-0.3-0.1-0.4-0.1c-0.2,0-0.3,0.1-0.5,0.1c-0.1,0-0.3,0.1-0.4-0.1
					c0-0.1,0.1-0.3,0.2-0.4c0.2-0.1,0.5-0.2,0.5-0.5c-0.1-0.3-0.1-0.8-0.5-0.9c-0.2-0.1-0.3-0.1-0.5-0.2c-0.3-0.1-0.7-0.2-0.9-0.4
					c-0.1-0.1-0.2-0.1-0.2-0.1c-0.8,0.4-0.6-0.4-0.9-0.5c0.4-0.1,0.7-0.2,1-0.3C153.1,76,152.8,75.3,152.3,75z"/>
				<path id="XMLID_818_" class="st3" d="M140.5,74.3c0.1-0.6,0.3-0.8,0.8-0.6c0.3,0.1,0.5,0,0.5-0.3c0.1-0.2,0.2-0.4,0.5-0.5
					c0.6-0.1,0.8-0.4,1-0.9c0.1-0.3,0.3-0.5,0.6-0.4c0.3,0.1,0.3-0.2,0.4-0.3c0.1-0.1,0.2-0.3,0.3-0.4c0.3-0.4,0.6-0.4,0.8,0
					c0.1,0.3,0.4,0.3,0.6,0.4c0.2,0.1,0.3,0.2,0,0.4c-0.2,0.1-0.4,0.4-0.6,0.6c-0.2,0.2,0,0.5,0,0.8c0.1,0.3,0.2,0.5,0.4,0.7
					c0.2,0.1,0.1,0.3-0.1,0.3c-0.5,0-0.5,0.3-0.6,0.6c0,0.1,0,0.3-0.1,0.4c-0.7,0.4-0.6,1-0.8,1.6c0,0.1-0.1,0.2-0.2,0.2
					c-0.2-0.1-0.3,0-0.5,0.1c-0.1,0-0.2,0.1-0.3,0c-0.2-0.5-0.7-0.4-1.2-0.3c-0.4,0.1-0.5-0.2-0.9-0.2c-0.5,0-0.3-0.5-0.3-0.7
					c0-0.2-0.2-0.2-0.2-0.3C140.6,75,140.5,74.7,140.5,74.3z"/>
				<path id="XMLID_817_" class="st3" d="M56.7,37.1c0.4-0.2,0.7-0.2,1-0.6c0.2-0.3,0.8-0.3,0.9-0.1c0.1,0.1,0.6,0,0.8-0.1
					c0.1-0.1,0.1-0.1,0-0.2c-0.1-0.1-0.2-0.2-0.3-0.1c-0.1,0-0.2,0.1-0.3,0.1c-0.1,0-0.1,0-0.3,0c0.3-0.3,0.5-0.5,0.5-0.7
					c0-0.2-0.1-0.3-0.2-0.4c-0.2-0.1-0.2-0.4-0.4-0.5c-0.1-0.1-0.2-0.3-0.4,0.1c-0.1,0.2-0.2,0.1-0.3,0.1c-0.4-0.1-0.9,0-1.3,0.1
					c-0.5,0.1-0.8-0.1-1.4,0c0.3-0.3,0.4-0.2,0.5-0.2c0.1,0,0.2,0,0.3-0.1c0.1-0.1,0-0.1-0.1-0.1c-0.1,0-0.3,0.1-0.2-0.1
					c0-0.1,0.2-0.2,0.3-0.3c0.7-0.5,1.4-0.9,2-0.9c-0.1,0.2-0.3,0.2-0.4,0.3c-0.4,0.2-0.6,0.6-0.8,0.9c-0.1,0.1,0,0.2,0,0.1
					c0.2-0.1,0.3-0.2,0.4-0.3c0-0.2,0.1-0.2,0.2-0.2c0.2,0,0.3,0,0.3-0.3c0,0,0.1-0.1,0.1-0.1c0.3,0.1,0.8-0.5,1.2-0.5
					c0.2,0,0.4-0.2,0.4,0.1c0,0.2-0.2,0.3-0.4,0.4c-0.1,0.1-0.2,0.1-0.2,0.3c0.3-0.1,0.6-0.1,0.8,0c0.1,0,0.2-0.1,0.3-0.2
					c0.4-0.5,0.6-0.3,0.9-0.3c-0.1,0.2-0.5,0.1-0.4,0.4c0.1,0.2,0.3,0.3,0.5,0.2c0.2-0.1,0.4-0.2,0.6-0.2c-0.1,0.2-0.3,0.1-0.4,0.2
					c-0.2,0.1-0.2,0.2-0.2,0.3c0,0.2,0.1,0.1,0.2,0c0.3-0.2,0.5-0.2,0.8-0.3c-0.1,0.2-0.2,0.2-0.2,0.2c-0.2,0.1-0.5,0.1-0.5,0.3
					c0,0.2-0.3,0.6,0,0.7c0.2,0.1,0.3,0.4,0.7,0.3c0.3-0.1-0.2,0.2,0,0.3c0.2,0,0.2,0.2,0.5,0.2c-0.3,0.3-0.7,0.4-1.1,0.7
					c-0.2,0.2-0.3,0-0.2-0.2c0.1-0.2,0.1-0.3-0.1-0.3c-0.2,0-0.3-0.3-0.7,0.1c0,0,0,0.1-0.1,0.1c-0.4,0.2-0.4,0.4-0.2,0.7
					c0.1,0.2,0.1,0.4-0.2,0.7c-0.3,0.3-0.5,0.2-0.6,0.1c0,0,0,0-0.1,0c-0.2-0.1-0.3-0.3-0.5-0.1c-0.2,0.2,0,0.3,0.1,0.4
					c0,0.1,0.1,0.1,0,0.3c-0.1,0.1-0.2,0.1-0.3,0.1c-0.4,0-0.6-0.3-0.9-0.4c-0.2-0.1,0-0.3-0.1-0.5C57,37.5,56.9,37.3,56.7,37.1z"/>
				<path id="XMLID_816_" class="st3" d="M103.8,89.9C103.8,89.9,103.8,89.8,103.8,89.9c-0.3-0.9,0.1-1.6,0.5-2.2
					c0.2-0.3,0.1-0.6,0-0.9c-0.1-0.5,0-1,0.3-1.4c0.1-0.2,0.2-0.2,0.3-0.2c0.3-0.1,0.7-0.3,1-0.5c0.2-0.2,0.5-0.3,0.6-0.6
					c0.1-0.2,0.2-0.5,0.5-0.6c0.2-0.1,0.2-0.3,0.3-0.5c0-0.1,0.1-0.2,0.2-0.2c0.1,0,0.1,0.1,0.2,0.2c0.3,0.5,0.2,1.2,0.3,1.8
					c0,0,0,0.1,0,0.1c-0.7,0-0.4,0.7-0.5,1c-0.3,0.9-0.7,1.8-1,2.7c-0.2,0.6-0.5,1.2-0.7,1.8c-0.2,0.4-0.9,0.8-1.2,0.7
					C104,90.9,103.8,90.5,103.8,89.9z"/>
				<path id="XMLID_815_" class="st3" d="M88.3,40.5c0.2,0.3,0.4,0.5,0.7,0c0-0.1,0.1-0.1,0.2-0.1c0.7-0.3,0.7-0.4,0.7-1.1
					c0-0.3,0.1-0.4,0.3-0.5c0.1,0,0.1-0.1,0.2-0.1c0.2-0.1,0.3-0.3,0.3-0.5c0-0.2-0.1-0.2-0.3-0.3c-0.5-0.3-0.4-1.1,0.1-1.4
					c0.2-0.1,0.4-0.3,0.6-0.4c0.2-0.1,0.5-0.2,0.5-0.7c0-0.3,0.2-0.5,0.5-0.5c0.3,0,0.6-0.1,0.9,0.2c0.1,0.1,0.1,0.2,0,0.3
					c-0.4,0.3-0.7,0.6-1.1,0.9c-0.1,0.1-0.2,0.1-0.2,0.3c0,0.4,0,0.8,0.2,1.1c0.2,0.3,0.6,0.5,1,0.4c0.5-0.1,1-0.3,1.5-0.4
					c0.1,0,0.2-0.1,0.3,0c0.1,0.3,0.4,0.2,0.6,0.4c-0.5,0.1-1,0.4-1.5,0.2c-0.2-0.1-0.5,0-0.7,0.1c-0.1,0-0.3,0.1-0.3,0.2
					c0,0.2,0,0.3,0.2,0.4c0.2,0.1,0.2,0.3,0.2,0.4c0,0.3-0.2,0.4-0.4,0.3c-0.2-0.1-0.4-0.5-0.7-0.2c-0.3,0.3-0.3,0.6-0.2,1
					c0,0.2,0.3,0.4,0.1,0.5c-0.3,0.2-0.7,0.6-1,0.2c-0.3-0.3-0.5-0.2-0.8,0c-0.2,0.1-0.4,0.2-0.7,0.3c-0.3,0.1-0.5,0.1-0.7-0.1
					c-0.2-0.3-0.4,0.1-0.6,0.1c-0.2,0-0.4,0.3-0.5-0.1C87.9,41.2,87.9,40.7,88.3,40.5z"/>
				<path id="XMLID_814_" class="st3" d="M137.9,78.1c-0.3,0.1-0.4,0-0.5-0.2c-0.2-0.4-0.6-0.6-0.9-0.9c-0.4-0.5-0.6-1.1-0.9-1.7
					c-0.2-0.5-0.5-1-0.8-1.5c-0.3-0.5-0.6-1-1.1-1.3c-0.3-0.2-0.5-0.4-0.6-0.7c-0.1-0.1-0.1-0.2,0-0.3c0.1-0.1,0.2-0.1,0.3,0
					c0.2,0.1,0.4,0.1,0.6,0.1c0.3,0,0.5,0.1,0.6,0.3c0.3,0.6,0.9,0.9,1.4,1.4c0.3,0.3,0.9,0.4,1.2,0.8c0.2,0.3,0.8,0.4,0.4,1
					c0,0,0,0.1,0,0.2c0.5,0.1,0.4,0.9,1,1c0.1,0,0.2,0.2,0.2,0.3c-0.1,0.5-0.2,1-0.3,1.5C138.3,78.3,138,78.1,137.9,78.1z"/>
				<path id="XMLID_813_" class="st3" d="M148.2,55c0.6,0.3,0.9,0.8,0.9,1.4c0,0.1-0.1,0.2-0.2,0.2c-0.1,0-0.3,0-0.4-0.1
					c-0.3-0.3-0.5-0.7-0.9-1c-0.1-0.1-0.1-0.1-0.1-0.2c0.3-0.4,0.5-0.8,0.8-1.1c0.2-0.2,0.7,0,1-0.2c0.1-0.1,0.5,0.2,0.4,0
					c0-0.2,0.1-0.4,0-0.7c0-0.1-0.1-0.1-0.1-0.2c0-0.1,0-0.1,0.1-0.1c0.1,0,0.1,0.1,0.1,0.1c0.1,0.3,0.3,0.2,0.4,0.1
					c0.4-0.3,0.3-1-0.2-1.4c-0.2-0.2-0.3-0.3-0.4-0.5c-0.1-0.2-0.1-0.4,0.1-0.5c0.2-0.1,0.3,0.1,0.4,0.2c0.1,0.1,0.3,0.3,0.4,0.4
					c0.4,0.3,0.7,0.6,0.8,1c0.1,0.5,0.4,1,0.8,1.5c0.1,0.2,0.1,0.3,0.1,0.5c0,0.2-0.2,0.1-0.3,0c-0.2-0.1-0.1,0.4-0.4,0.1
					c-0.2,0.2-0.4,0.1-0.7,0.1c-0.1,0,0,0.1,0,0.1c-0.2,0.5-0.1,0.8-0.8,0.1c-0.1,0.2,0,0.5-0.4,0.4c0,0-0.1,0-0.1,0.1
					c-0.1,0.1,0,0.3-0.3,0.2c-0.2-0.1-0.4-0.2-0.4-0.4c0-0.2,0.1-0.3,0.3-0.3c0,0,0.1,0,0.1-0.1C148.9,54.7,148.7,55.1,148.2,55z"/>
				<path id="XMLID_812_" class="st3" d="M48.6,34.5c-0.1,0-0.2,0.1-0.4,0.2C48.3,34.7,48.5,34.6,48.6,34.5c0.2,0,0.4-0.1,0.4,0
					c0,0.3,0.4,0.1,0.7,0c0.3-0.1,0.2,0,0.1,0.2c-0.1,0.1-0.2,0.2-0.1,0.2c0.1,0,0.2-0.1,0.3-0.2c0.2-0.2,0.4-0.4,0.6-0.5
					c0.3-0.2,0.5-0.2,0.6-0.1c0.1,0.1-0.2,0.3-0.3,0.4c-0.6,0.6-0.6,0.6-0.3,0.9c0,0,0,0.1,0,0.1c-0.4,0-0.8,0.1-1.4,0.5
					c-0.3,0.2-0.5,0.1-0.7,0c-0.1-0.1-0.3,0-0.5,0.1c-0.8,0.3-1.5,0.5-2.2,0.6c-0.1,0-0.1,0-0.1,0c0.3-0.5-0.2-0.2-0.4-0.3
					c-0.1,0-0.1,0-0.1-0.1c0.1-0.1,0.2-0.2,0.3-0.2c0.4-0.1,0.9-0.3,1.3-0.2c0.1,0,0.3,0,0.5-0.2c-0.4-0.2-1.1,0.2-1.6,0.1
					c0.5-0.3,0.8-0.2,1.3-0.5c-0.3,0-0.6,0.1-0.8,0C47.1,34.8,47.7,34.6,48.6,34.5z"/>
				<path id="XMLID_811_" class="st3" d="M69.6,28.2c-0.9,0.3-1.7,0.2-2.6,0.6c0.1,0.1,0.4-0.1,0.5,0c-1.4,0.5-2.7,0.8-4,1.1
					c0,0.3,0.3,0,0.4,0.2c-0.9,0.4-3.9,1.1-4.6,1.1c0.2,0-1.2-0.5-1.2-0.4c0,0-0.7,1.4-0.7,1.4c0,0,2.5-0.3,1.6-0.2
					c0.1,0,0.4-0.4,0.5-0.5c0.1,0,0.3-0.1,0.5-0.4c0.1-0.2,0.3-0.2,0.3-0.1c0.1,0,0.1,0.1,0.2,0.1c0.2,0,0.4,0.1,0.7-0.4
					c0.2-0.3,0.4-0.5,0.7-0.4c0.1,0.1,0.4,0,0.7-0.2c-0.2,0-0.5,0.1-0.4-0.2c0-0.1,0-0.2,0.1-0.2c0.2-0.1,0.5-0.1,0.6,0
					c0.2,0.1,0.3,0.2,0.6,0.1c0-0.1-0.2,0-0.1-0.2c0.1-0.2,0.2-0.1,0.3-0.2c0.2,0,0.4,0,0.6-0.1c0.3-0.1,0.6-0.1,1-0.5
					c-0.1,0-0.1,0-0.2,0c-0.7,0.3-1.3,0.4-1.9,0.3c-0.3-0.1-0.7,0.2-1,0.2c0.3-0.3,0.6-0.3,0.8-0.3c0.3,0,0.7-0.3,1-0.2
					c0.2,0.1,0.6,0,0.9,0c0.1-0.2-0.1-0.1-0.1-0.1C65.2,28.4,68.8,28,69.6,28.2z"/>
				<path id="XMLID_810_" class="st3" d="M47.4,66c-0.1-0.2-0.2-0.2-0.5-0.2c-0.4,0-0.8-0.3-1.1-0.4c-0.3-0.1-0.1-0.6,0.3-0.7
					c0.3-0.1,0.4-0.3,0.4-0.4c0-0.1-0.1-0.3-0.2-0.3c-0.2,0-0.4,0-0.6,0.2c-0.1,0.1,0,0.2,0,0.3c0.1,0.3,0,0.5-0.3,0.6
					c-0.3,0.1-0.5,0-0.6-0.3c-0.1-0.2-0.2-0.2-0.3-0.2c-0.3-0.1-0.4-0.3-0.3-0.5c0.1-0.2,0.2-0.3,0.5-0.3c0.4,0,0.7-0.3,1.1-0.4
					c0,0,0,0,0.1-0.1c0.2-0.2,0.5-0.2,0.6-0.1c0.2,0.4,1.1,0.2,0.8,0.9c-0.1,0.2-0.1,0.3,0.2,0.3c0.3-0.1,0.5,0,0.6,0.3
					c0.1,0.3-0.1,0.5-0.5,0.6c0.4,0.1,0.6,0.2,0.5,0.5C48,66,47.7,66,47.4,66C47.4,66,47.4,66,47.4,66z"/>
				<path id="XMLID_809_" class="st3" d="M147.6,77.1c-0.4,0.3-0.6,0.4-0.6-0.1c0-0.2-0.3-0.4-0.2-0.7c0-0.1,0-0.1-0.1-0.1
					c-0.1,0-0.2,0.1-0.1,0.2c0,0.4-0.1,0.7-0.2,1.1c-0.1,0.2-0.2,0.3-0.4,0.3c-0.2,0-0.2-0.2-0.1-0.4c0.1-0.3,0.3-0.7-0.1-0.9
					c-0.1-0.1-0.1-0.2,0-0.4c0.3-0.6,0.5-1.1,0.8-1.7c0.2-0.5,0.7-0.7,1.1-0.6c0.6,0.1,1.3,0.3,1.9-0.4c-0.1,0.6-0.5,1-1,0.9
					c-0.4-0.1-0.9,0-1.3,0c-0.2,0-0.4,0.1-0.5,0.3c-0.1,0.3,0,0.5,0.2,0.7c0.2,0.2,0.3-0.1,0.4-0.1c0.3-0.1,0.7-0.2,1-0.2
					c0.1,0,0.1,0,0.1,0.1c0,0.1-0.1,0.1-0.1,0.1c-0.1,0-0.2,0.1-0.3,0.2c-0.2,0.2-0.8,0.3-0.4,0.8c0.2,0.2-0.1,0.7,0.3,0.8
					c0.2,0.1,0.1,0.7-0.1,0.9c-0.1,0.1-0.1,0.1-0.2,0c-0.1,0-0.1-0.1-0.1-0.2C147.3,77.4,147.5,77.3,147.6,77.1z"/>
				<path id="XMLID_808_" class="st3" d="M152.3,99.4c0.8-0.6,1.6-1.1,2.4-1.4c1.2-0.5,2.5-1.2,3.8-2c0.6-0.4,0.4,0,0.5,0.1
					c0.1,0.1-0.2,0.3-0.4,0.4c-0.5,0.3-1,0.5-1.5,0.9c-0.6,0.5-1.1,0.5-1.7,0.8c-0.6,0.4-1.2,0.8-1.7,1.1
					C153.1,99.5,153.1,99.5,152.3,99.4z"/>
				<path id="XMLID_807_" class="st3" d="M142.6,78.7c-0.2,0.3-0.4,0.2-0.7,0.4c0.5,0.1,0.8,0.2,1.1,0.3c0.1,0.1,0.3,0,0.2,0.2
					c-0.1,0.1-0.2,0.1-0.4,0.1c-0.4,0.1-0.8-0.1-1.2-0.1c-0.3,0-0.7,0-1-0.1c-0.6-0.2-1.3-0.2-2-0.3c-0.3-0.1-0.4-0.4-0.7-0.4
					c-0.1,0,0-0.1,0-0.2c0.1-0.1,0.2-0.3,0.4-0.3c0.4,0,0.8,0,1.2,0.3c0.3,0.2,0.7,0.3,1.1,0.1c0.1,0,0.1-0.1,0.2-0.1
					C141.5,78.7,142,78.7,142.6,78.7z"/>
				<path id="XMLID_806_" class="st3" d="M148.4,66.8c0.4,0.2,0.1,0.6,0.3,0.9c-0.6-0.2-0.6-0.2-0.3-0.5c-0.2,0-0.3,0-0.4-0.2
					c-0.1-0.2-0.5-0.3-0.8-0.3c-0.3,0-0.6,0-0.5-0.4c0-0.1,0-0.1-0.1-0.1c-0.4-0.1-0.4-0.4-0.5-0.7c0-0.1-0.2-0.3,0.1-0.3
					c0.1,0,0.1-0.1,0.1-0.2c0-0.2-0.1-0.4-0.1-0.5c0-0.2-0.1-0.5,0.2-0.6c0.2,0,0.4,0.1,0.5,0.1c0.3,0,0.2,0.2,0.3,0.3
					c0.3,0.4,0.3,0.8,0,1.2c-0.1,0.2,0,0.4,0.1,0.6c0.1,0.3,0.3,0.2,0.5,0.3c0.3,0.1,0.6,0.2,0.9,0.2c0.2,0,0.2,0.2,0,0.2
					C148.5,66.7,148.5,66.7,148.4,66.8z"/>
				<path id="XMLID_805_" class="st3" d="M35.4,62.1c0.7-0.8,2-1,2.9-0.6c0.5,0.2,1,0.5,1.4,0.8c0.2,0.1,0.5,0.2,0.8,0.4
					c0.1,0.1,0.3,0.1,0.2,0.3c0,0.1-0.2,0.1-0.3,0.2c-0.4,0-0.9,0.1-1.3,0.1c-0.1,0-0.2,0-0.1-0.1c0.3-0.3-0.1-0.3-0.2-0.4
					c-0.4-0.6-1.2-0.5-1.6-0.8c-0.5-0.4-0.9,0-1.3,0.1C35.7,62.1,35.5,62.2,35.4,62.1z"/>
				<path id="XMLID_804_" class="st3" d="M163.2,92.3c0.3,0.1,0.2,0.4-0.2,0.8c-0.3,0.3-0.3,0.3-0.1,0.3c0,0,0,0,0,0.1
					c-0.2,0.5-0.2,0.5,0.5,0.2c0.1,0,0.1,0,0.3-0.1c-0.5,0.4-1,0.7-1.5,0.9c-0.2,0.1-0.4,0.1-0.5,0.3c-0.6,0.5-1.2,0.8-1.8,1.1
					c-0.1,0.1-0.3,0.2-0.4,0.1c0-0.1,0.2-0.2,0.3-0.3c0.3-0.2,0.7-0.4,0.6-0.7c0-0.1,0.2-0.2,0.3-0.3c0.8-0.4,1.4-0.9,2-1.5
					c0.1-0.1,0.1-0.1,0.1-0.2C162.8,92.8,163,92.6,163.2,92.3z"/>
				<path id="XMLID_803_" class="st3" d="M55.3,46.5c0.9-0.6,1.5-1.4,2.3-2c0.1-0.1,0.3-0.2,0.3-0.1c0.1,0.1-0.1,0.2-0.2,0.3
					c-0.2,0.2-0.4,0.4-0.6,0.6c0.2-0.1,0.4-0.1,0.4,0.2c0,0.2,0.1,0.2,0.3,0.1c0.1-0.1,0.3-0.1,0.5-0.1c-0.2,0.2-0.4,0.3-0.4,0.6
					c0,0.2-0.3,0.3-0.5,0.3c-0.1,0-0.2,0-0.3,0c-0.3,0-0.6-0.1-0.4,0.4c0.1,0.2-0.2,0.4-0.4,0.4c-0.2,0.1-0.5,0-0.4-0.2
					C56.2,46.5,55.9,46.5,55.3,46.5z"/>
				<path id="XMLID_802_" class="st3" d="M75.8,36.4c0-0.1,0.1-0.1,0.1-0.1c0.1-0.3,0.4-0.6,0.6-0.7c0.3-0.2,0.6-0.4,1-0.3
					c0.2,0.1,0.4-0.1,0.6-0.2c0.3-0.1,0.7,0.1,0.7,0.4c0,0.2-0.2,0.4-0.3,0.4c-0.6,0.2-1.1,0.4-1.7,0.6c-0.2,0.1-0.3,0-0.5-0.1
					C76.2,36.3,76,36.3,75.8,36.4z"/>
				<path id="XMLID_801_" class="st3" d="M47.3,34.1c0.1,0,0.3-0.1,0.5,0.1c0.1,0.1,0.4-0.1,0.6-0.1c0.1,0,0.3,0,0.2,0.1
					c-0.1,0.2-0.3,0.2-0.4,0.2c-0.9,0.3-1.8,0.6-2.7,1.1c-0.3,0.2-0.6,0.2-0.9,0.3c-0.2,0.1-0.2,0-0.2-0.2c0-0.1,0.2-0.2,0.3-0.3
					c0.3-0.1,0.5-0.3,0.8-0.4c0.3-0.2,0.6-0.2,0.9-0.5C46.7,34.1,46.9,34.1,47.3,34.1z"/>
				<path id="XMLID_800_" class="st3" d="M148.7,50.1c0-0.1-0.2-0.4,0.1-0.3c0.2,0,0.1-0.1,0-0.2c-0.2-0.3-0.3-0.6-0.6-0.8
					c-0.1-0.1-0.1-0.1-0.1-0.2c0-0.1,0.1,0,0.2,0c0.4,0.2,0.8,0.4,1.2,0.6c0.3,0.1,0.5,0.2,0.8,0.2c0.2,0,0.5,0.3,0.6,0.5
					c0.1,0.1-0.1,0.2-0.2,0.2c-0.1,0-0.2,0.1-0.2,0.2c0.1,0.4-0.2,0.3-0.4,0.2c-0.2-0.1-0.3-0.2-0.5-0.2c-0.2,0-0.4,0-0.1,0.3
					c0.1,0.1,0.1,0.2,0,0.2c-0.1,0-0.2,0.2-0.3,0.1C149.2,50.5,148.8,50.4,148.7,50.1z"/>
				<path id="XMLID_799_" class="st3" d="M147.8,70.5c-0.1-0.6,0.4-0.9,1-0.8c0.3,0.1,0.6-0.2,0.7-0.5c0.2-0.4,0.4-0.1,0.4,0
					c0.2,0.5,0.5,1,0.1,1.6c-0.2,0.1-0.1-0.2-0.3-0.1c0,0,0,0,0,0.1c0,0.2,0.3,0.5-0.1,0.6c-0.2,0.1-0.7-0.3-0.8-0.6
					c-0.1-0.2,0.2-0.5-0.1-0.6c-0.2,0-0.3,0.2-0.5,0.1C147.9,70.2,148,70.5,147.8,70.5z"/>
				<path id="XMLID_798_" class="st3" d="M92.2,28.8c-0.4,0.2-0.7,0.2-0.9-0.2c-0.2-0.3-0.4-0.3-0.6-0.1c-0.1,0.1-0.2,0.2-0.3,0.3
					c-0.3,0.5-0.7,0.3-1,0.2c-0.1,0-0.2-0.1-0.2-0.3c0-0.2,0.2-0.1,0.3-0.2c0.2-0.1,0.3-0.1,0.5-0.2c-0.2,0-0.3-0.1-0.5,0
					c-0.5,0.3-0.8,0.1-1-0.4c0.1-0.2,0.3-0.2,0.4-0.1c0.3,0.3,0.7-0.2,0.9,0.1c0,0,0.1,0,0.1,0c0.3-0.6,0.5-0.1,0.7,0
					C91.1,28.3,91.7,28.4,92.2,28.8z"/>
				<path id="XMLID_797_" class="st3" d="M43.1,64c-0.3,0.1-0.7-0.1-1,0.3c0,0-0.1,0-0.2,0c-0.3-0.4-0.7-0.2-1.1-0.2
					c-0.1,0-0.3,0-0.3-0.1c0-0.1,0-0.1,0-0.2c0.1-0.1,0.2,0,0.4,0c0.2,0,0.4,0.1,0.5,0c0.1-0.1,0-0.4-0.1-0.5
					c-0.2-0.2,0-0.3,0.1-0.3c0.7,0.1,1.5-0.1,2,0.4c0.1,0.1,0.4,0.1,0.3,0.4C43.6,64.1,43.4,64,43.1,64z"/>
				<path id="XMLID_796_" class="st3" d="M124.5,70c0-0.2,0.1-0.5,0.1-0.7c0-0.1-0.1-0.3,0.1-0.3c0.1,0,0.3,0.1,0.4,0.2
					c0.3,0.4,0.5,0.8,0.7,1.3c0.1,0.4-0.2,0.9-0.7,0.9c-0.2,0-0.3-0.1-0.4-0.3C124.5,70.8,124.5,70.4,124.5,70z"/>
				<path id="XMLID_795_" class="st3" d="M60.7,31.9c-0.3,0.3-0.6,0.4-0.9,0.4c-0.8,0.1-1.6,0.2-2.4,0.2c-0.1,0-0.3,0-0.4-0.1
					c0.2-0.2,0.4-0.4,0.6-0.6c0.1-0.2,0.4-0.3,0.3,0c-0.1,0.2,0.1,0.3,0.2,0.3c0.4,0,0.7,0.1,1.2-0.1c0.4-0.2,0.8-0.2,1.2-0.3
					C60.6,31.7,60.7,31.7,60.7,31.9z"/>
				<path id="XMLID_794_" class="st3" d="M61.4,30.2c-0.6,0.1-1.3,0.6-1.9,0.6c-0.1,0-0.3,0.1-0.2-0.1c0.1-0.3,0.2-0.2,0.3-0.2
					c0.2-0.1,0.3,0,0.5-0.1c-0.2-0.2-0.6,0-0.8-0.1c0.4-0.1,0.9-0.5,1.3-0.6C61.2,29.5,61.2,29.9,61.4,30.2z"/>
				<path id="XMLID_793_" class="st3" d="M102.5,31c-0.1-0.2-0.4,0-0.5-0.2c-0.1-0.2,0.2-0.3,0.2-0.5c0-0.3,0.2-0.4,0.4-0.5
					c0.3-0.1,0.6-0.3,1-0.3c0.4,0,0.7,0,1.1-0.2c0.2-0.1,0.3-0.1,0.6,0c-0.1,0.2-0.3,0.2-0.5,0.3c-0.6,0.1-1.2,0.2-1.7,0.6
					C102.9,30.4,102.5,30.5,102.5,31C102.5,31,102.5,31,102.5,31z"/>
				<path id="XMLID_792_" class="st3" d="M146.8,97.6c0.2,0.2,0.6,0,1-0.1c0.2-0.1,0.1,0.1,0,0.2c-0.4,0.3-0.8,0.7-1.3,0.9
					c-0.2,0.1-0.3,0.2-0.5,0.3c-0.1,0.1-0.2,0.1-0.3,0.1c-0.1-0.1-0.1-0.2,0-0.3c0.3-0.3,0.4-0.6,0.6-0.9
					C146.5,97.7,146.6,97.6,146.8,97.6z"/>
				<path id="XMLID_791_" class="st3" d="M146.9,47c-0.6-0.3-1-0.9-1.4-1.4c-0.5-0.5-1.2-0.8-1.6-1.4c-0.1-0.1-0.3-0.2-0.1-0.3
					c0.1-0.1,0.2,0,0.3,0.1c0.7,0.7,1.5,1.2,2.3,1.8c0.2,0.1,0.4,0.3,0.3,0.5C146.5,46.5,146.9,46.7,146.9,47z"/>
				<path id="XMLID_790_" class="st3" d="M58.3,105.2c0.3,0.1,0.6,0.3,0.9,0.6c0.6,0.5,1.2,0.8,1.8,1c-0.2,0.1-0.5,0.2-0.7,0.1
					c-0.6-0.3-1-0.2-1.6-0.5c0.2,0,0.4,0.1,0.5-0.1c-0.1-0.1-0.5-0.2-0.4-0.5c0,0-0.1-0.1-0.1-0.1C58.2,105.7,58.4,105.4,58.3,105.2
					C58.3,105.2,58.3,105.2,58.3,105.2z"/>
				<path id="XMLID_789_" class="st3" d="M53.3,32.6c-0.3,0.3-2.9,1-3.2,1c0.4-0.1,0.7-0.2,1.2-0.3c-0.4-0.2-1.1,0.1-1.6,0.2
					c0.4-0.2,0.9-0.3,1.3-0.6c0.2-0.1,0.4,0,0.5,0.1c0.2,0.3,0.5,0.2,1-0.3c0.2-0.2,0.3-0.2,0.2,0c0,0.1,0.1,0.1,0.2,0.1
					C53,32.7,53.2,32.6,53.3,32.6z"/>
				<path id="XMLID_788_" class="st3" d="M51.8,38.2c0.4-0.2,0.7-0.6,1.1-0.8c0.1-0.1,0.4-0.4,0.4,0c0,0.1,0.2,0.1,0.3,0.1
					c0.1,0.1,0.3,0.1,0.1,0.4c-0.1,0.2,0.2,0.1,0.2,0.2c-0.2,0.2-0.4,0.1-0.5,0c-0.1-0.2-0.3-0.1-0.6,0
					C52.4,38.4,51.9,38.6,51.8,38.2z"/>
				<path id="XMLID_787_" class="st3" d="M181.5,80.7c-0.1,0.2-0.3,0.4-0.5,0.4c-0.2,0.1-0.4,0-0.4-0.2c0.1-0.2,0-0.3-0.2-0.4
					c-0.2-0.1-0.1-0.3,0.2-0.5c0.2-0.2,0.5-0.2,0.6,0c0.1,0.2,0.1,0.4,0.4,0.5C181.6,80.6,181.5,80.7,181.5,80.7z"/>
				<path id="XMLID_786_" class="st3" d="M102.5,31c-0.2,0.5-0.1,0.6,0.5,1.2c-0.4,0.2-0.4,0.2-0.8-0.2c-0.2-0.2-0.5-0.1-0.8-0.2
					C101.5,30.9,102,30.9,102.5,31C102.5,31,102.5,31,102.5,31z"/>
				<path id="XMLID_785_" class="st3" d="M54,33.5c-0.1,0.1-0.3,0.1-0.4,0.2c0,0.3-0.2,0.5-0.5,0.6c-0.2,0.1-0.4,0-0.6,0.2
					c-0.1,0.1-0.2,0.1-0.2-0.1c0-0.2-0.2-0.2-0.1-0.4c0.1-0.1,0.2-0.1,0.3-0.1c0.2,0.1,0.5,0,0.8-0.4C53.7,33.3,53.8,33.5,54,33.5z"
					/>
				<path id="XMLID_784_" class="st3" d="M149,79.3c0.1,0,0.4,0,0.5,0.1c0,0.1-0.2,0.4-0.3,0.5c-0.1,0.2-0.4,0.2-0.5,0.1
					c-0.2-0.1-0.4,0-0.5,0.2c-0.2,0.2-0.4,0.3-0.7,0.3c-0.1,0-0.1,0-0.1-0.1c0.1-0.3,0.3-0.5,0.6-0.6c0.2-0.1,0.4-0.2,0.5-0.4
					C148.6,79.4,148.8,79.3,149,79.3z"/>
				<path id="XMLID_783_" class="st3" d="M147.6,67.7c0.3,0.1,0.6,0.1,0.7,0.4c0.1-0.1,0.2,0.4,0.3,0c0-0.1,0.2,0,0.2,0.1
					c0,0.1-0.3,0.9-0.4,1c-0.1,0.1-0.2,0-0.2-0.1c-0.1-0.1-0.3-0.2-0.2-0.4c0.2-0.3,0.1-0.3-0.2-0.3
					C147.5,68.4,147.5,68.4,147.6,67.7z"/>
				<path id="XMLID_782_" class="st3" d="M145.8,61.8c-0.7-0.6-0.8-1-0.5-1.6c0.1-0.1,0.1-0.3,0.4-0.3c0.2,0,0.2,0.2,0.3,0.4
					c0,0.3,0.1,0.5,0,0.8C145.9,61.3,145.8,61.5,145.8,61.8z"/>
				<path id="XMLID_781_" class="st3" d="M140.4,62.8c0.2,0,0.3,0,0.3,0.3c0,0.4-0.3,0.8-0.7,0.8c-0.3,0-0.5-0.2-0.5-0.5
					C139.6,63.1,139.9,62.8,140.4,62.8z"/>
				<path id="XMLID_780_" class="st3" d="M53.2,75.8c0,0-0.1-0.1-0.1-0.1c0-0.1,0-0.2,0-0.3c0-0.5,0.4-0.8,0.9-0.5
					c0.1,0.1,0.2,0.1,0.2,0.2c0,0.3-0.1,0.5-0.4,0.6C53.6,75.7,53.4,75.8,53.2,75.8z"/>
				<path id="XMLID_779_" class="st3" d="M56.4,33c-0.5,0.3-1,0.7-1.4,0.6c-0.2,0-0.3,0.2-0.5,0.3c-0.1,0.1-0.2,0.1-0.3,0.1
					c0-0.1,0.1-0.2,0.2-0.3c0.4-0.4,0.8-0.6,1.2-0.6C55.9,33,56.2,33,56.4,33z"/>
				<path id="XMLID_778_" class="st3" d="M161.5,77.3c0.3-0.1,0.6-0.1,0.8-0.1c0.4,0,0.7-0.2,1-0.5c0.1-0.1,0.2-0.2,0.3-0.2
					c0.2,0.1,0,0.2-0.1,0.3C163.1,77.5,162,77.9,161.5,77.3z"/>
				<path id="XMLID_777_" class="st3" d="M92.8,27.8c-0.7,0.6-1.4,0.2-2.1,0C91.4,27.7,92.1,27.7,92.8,27.8z"/>
				<path id="XMLID_774_" class="st3" d="M92.7,49.9c0.3,0.1,0.6,0.4,0.7-0.2c0-0.1,0.5-0.2,0.8-0.1c0.2,0.1,0.3,0.2,0.2,0.5
					c0,0.1,0,0.3,0.1,0.4c0.2,0.1,0.3,0.3,0.1,0.5c-0.1,0.1-0.1,0.1,0,0.2c0.4,0.2,0.4,0.8,0.8,0.9c0.2,0,0.5,0.1,0.6,0.4
					c0.2,0.2,0.5,0.1,0.6,0c0.3-0.4,0.6-0.2,0.8,0c0.4,0.4,0.8,0.3,1.1,0c0.3-0.2,0.6,0,0.8-0.2c0,0.4-0.1,0.7,0,1
					c0,0.1,0,0.2,0,0.2c-0.6,0.4-0.2,1.1-0.4,1.7c-0.2,0.7-0.7,1-1.4,0.6c-0.4-0.2-0.8-0.1-1.1,0.1c-0.1,0.1-0.2,0.2-0.4,0.1
					c-0.7-0.2-1.4-0.4-2.2-0.5c-0.5-0.1-0.9-0.3-1.3-0.6c-0.5-0.3-1.2,0.3-1.1,0.9c0,0.2,0,0.4-0.3,0.6c-0.2,0.1-0.4,0.2-0.6,0
					c-0.3-0.3-0.7-0.4-1.1-0.5c-0.2,0-0.4-0.1-0.5-0.3c-0.2-0.6-0.7-0.6-1.2-0.7c-0.5,0-0.8-0.1-1.1-0.6c-0.1-0.1-0.1-0.6,0-0.8
					c0.1-0.1,0.1-0.3,0-0.4c-0.3-0.3-0.2-0.5,0.1-0.8c-0.2,0-0.4,0-0.5-0.1c-0.1-0.1-0.2-0.1-0.3,0c-0.8,0.3-1.6,0.2-2.5,0.3
					c-0.7,0.1-1.5,0.1-2.2,0.6c-0.7,0.5-1.5,0.6-2.3,0.5c-0.1,0-0.3,0-0.2-0.2c0.2-0.2,0-0.6,0.4-0.7c0.1,0,0.2,0,0.4,0
					c0.6,0,1.6-0.7,1.8-1.2c0,0,0-0.1,0-0.1c-0.1-0.2-0.1-0.5,0.1-0.7c0.3-0.3,0.5-0.6,0.9-0.8c0.4-0.1,0.8-0.3,0.8-1
					c0-0.3,0.3-0.4,0.6-0.4c0.4,0,0.7,0.3,1.2,0.2c0.3,0,0.5-0.1,0.6-0.4c0.1-0.2,0.2-0.4,0.5-0.4c0.2,0,0.5,0.1,0.6,0.4
					c0.1,0.3,0.4,0.5,0.5,0.8c0.2,0.6,0.4,0.8,1.1,0.8c0.4,0,0.8,0.5,1.1,0.9c0.3,0.4,0.1,0.7-0.4,0.8c-0.3,0.1-0.6,0.1-0.9,0.1
					c-0.1,0-0.3,0-0.3,0.2c0,0.2,0.1,0.2,0.2,0.2c0.3,0.1,0.5,0.3,0.8,0.4c0.2,0.1,0.4,0,0.4-0.3c0-0.3,0-0.4,0.3-0.5
					c0.3,0,0.3-0.4,0.5-0.5c0.3-0.2,0.1-0.4,0-0.6c-0.1-0.1,0-0.2,0-0.3c0.1-0.2,0.3-0.1,0.4,0c0.1,0,0.2,0.3,0.3,0.1
					c0.1-0.2,0-0.3-0.2-0.4c-0.5-0.2-0.9-0.8-1.5-0.9c-0.4-0.1-0.5-0.5-0.6-0.9c-0.1-0.3-0.1-0.5-0.4-0.7c-0.1-0.1-0.1-0.2-0.1-0.4
					c0-0.2,0.2-0.2,0.3-0.2c0.2-0.1,0.2,0.1,0.2,0.2c0,0.1,0.1,0.2,0.1,0.2c0.7,0,0.7,0.9,1.3,1.1c0.5,0.1,0.7,0.5,1.1,0.7
					c0.1,0.1,0.3,0.1,0.2,0.3c-0.1,0.6,0.1,1.1,0.6,1.5c0.3,0.3,0.5,0.7,0.6,1.1c0.1,0.4,0.4,0.3,0.6,0.4c0.1,0,0.2-0.1,0.1-0.1
					c-0.2-0.2,0.3-0.3,0.1-0.6c-0.1-0.1,0.1-0.1,0.2-0.1c0.2,0.1,0.3,0,0.4-0.1c0.1-0.2-0.1-0.3-0.2-0.4C93,50.8,93,50.3,92.7,49.9z
					 M86.5,50C86.5,50,86.5,50,86.5,50c0-0.3,0-0.6-0.3-0.6c-0.2,0-0.6,0.1-0.4,0.6c0,0.1,0,0.2,0,0.4c0,0.2-0.1,0.4,0.2,0.4
					c0.2,0,0.4-0.1,0.5-0.3C86.5,50.4,86.5,50.2,86.5,50z"/>
				<path id="XMLID_773_" class="st3" d="M97.7,46.4c-0.1,0.2-0.3,0.1-0.3,0.3c0.1,0.2,0.4,0.2,0.4,0.5c0,0.2,0.2,0.1,0.3,0.1
					c0.3-0.2,0.5-0.3,0.9-0.3c0.1,0,0.1-0.1,0.1-0.1c0-0.1-0.1-0.1-0.2-0.1c-0.1,0-0.2,0-0.3,0c-0.2,0-0.3-0.1-0.4-0.3
					c0-0.1,0.1-0.2,0.3-0.3c0.4-0.2,0.9-0.2,1.3-0.5c0.1-0.1,0.2,0,0.4,0.1c0,0.2-0.2,0.2-0.2,0.3c-0.1,0-0.2,0.1-0.1,0.2
					c0.3,0.4-0.1,0.5-0.2,0.6c-0.2,0.2-0.2,0.3,0.1,0.3c0.7,0.3,1.2,0.9,1.8,1.2c0.2,0.1,0.4,0.4,0.3,0.7c-0.1,0.3-0.4,0.4-0.7,0.4
					c-0.8,0.1-1.5-0.1-2.2-0.4c-0.6-0.3-1.1-0.2-1.6,0.1c-0.4,0.3-0.9,0.3-1.4,0.2c-0.7-0.1-0.9-0.8-0.5-1.3
					c0.1-0.1,0.1-0.3,0.1-0.4c0-0.2,0.1-0.3,0.2-0.4c0.3-0.2,0.2-0.6,0.5-0.8c0.4-0.3,0.4-0.4,0.8,0C97.2,46.5,97.5,46.3,97.7,46.4z
					"/>
				<path id="XMLID_772_" class="st3" d="M106.1,49.9c-0.5-0.4-0.9-0.8-1.4-1.3c-0.4-0.3-0.4-0.9-0.7-1.3c-0.1-0.2,0-0.6,0.2-0.8
					c0.4-0.3,0.9-0.6,1.3-0.8c0.6-0.3,1.1,0.2,1.2,0.9c0,0.3,0,0.3-0.2,0.3c-0.5-0.1-0.5,0-0.4,0.5c-0.1,0.1-0.3-0.1-0.4,0.1
					c0.5,0.3,0.7,0.7,1.1,1c0.3,0.2,0.5,0.3,0.8,0.2c0.1,0,0.2,0,0.3,0.1c-0.1,0.1-0.2-0.1-0.3,0.1c0,0.1,0.1,0.2,0.1,0.3
					c0.1,0.1,0.3,0.2,0.2,0.4c-0.1,0.2-0.2,0.2-0.4,0.2c-0.1,0-0.3,0-0.3,0.2c0,0.2,0.2,0.2,0.2,0.2c0.3,0.3,0.4,0.7,0.5,1.1
					c0.2,1,0.2,1-0.7,1.1c-0.2,0-0.4,0-0.6-0.1c-0.3-0.2-0.6-0.4-0.9-0.5c-0.3-0.1-0.3-0.4-0.3-0.7
					C105.9,50.6,105.8,50.2,106.1,49.9z"/>
				<path id="XMLID_771_" class="st3" d="M98.6,76.6c-0.6,0.2-0.5-0.2-0.4-0.6c0-0.2,0-0.3,0.1-0.5c0.1-0.4,0.6-0.7,0.9-0.6
					c0.1,0,0.2,0.1,0.2,0.2c0.2,0.3,0.1,0.6-0.1,0.8C99.1,76.1,99.3,76.8,98.6,76.6z"/>
				<path id="XMLID_770_" class="st3" d="M128,43.8c0.7-0.3,0.9-1.1,0.6-1.9c0-0.1-0.2-0.3,0-0.3c0.1,0,0.2,0.1,0.3,0.3
					c0.6,0.8,0.6,1.1,0.1,1.6c-0.1,0.1-0.1,0.2-0.2,0.3C128.7,44,128.4,44,128,43.8z"/>
				<path id="XMLID_769_" class="st3" d="M109.6,47.5c-0.4-0.5-0.3-1,0.2-1.1c0.1,0,0.3,0.1,0.3,0.2c0.1,0.2,0.3,0.4,0.3,0.7
					c0.1,0.3-0.1,0.4-0.3,0.4c-0.2,0-0.3,0-0.3-0.3c0-0.2,0.1-0.4-0.1-0.4c-0.2,0,0,0.2-0.1,0.4C109.6,47.4,109.6,47.4,109.6,47.5z"
					/>
				<path id="XMLID_768_" class="st3" d="M116.7,47.3c-0.3-0.2-0.5-0.3-0.5-0.6c0.1-0.3,0.2-0.5,0.6-0.5c0.5,0,1.1,0.2,1.6,0.1
					c0.1,0,0.2,0,0.2,0.1c0,0.1,0,0.1-0.1,0.2c-0.2,0.1-0.3,0-0.5,0c-0.2,0-0.5-0.1-0.7-0.1C116.8,46.4,116.6,46.6,116.7,47.3z"/>
				<path id="XMLID_767_" class="st3" d="M96.8,77.4c0.3,1,0.5,2.1,0.9,3.1C97,79.6,96.6,78.6,96.8,77.4z"/>
				<path id="XMLID_766_" class="st3" d="M42.4,49.5c0.2-0.1,0.4-0.2,0.5-0.4c0.2-0.2,0.3-0.3,0.2-0.5c-0.1-0.1-0.3-0.2,0.1-0.4
					c0.1-0.1,0.1-0.2-0.1-0.2c-0.6,0-1.2-0.1-1.8-0.1c-0.4,0-0.8,0.3-1.2,0.1c0.3-0.2,0.6-0.3,0.8-0.4c0.4-0.1,0.7-0.3,1.1-0.5
					c0.8-0.5,1.4-0.5,1.6,0.1c0,0.1-0.1,0.3-0.1,0.5c-0.1,0.3,0,0.4,0.3,0.4c0.3,0,0.6,0,0.8,0.1c0.3,0.1,0.3,0.3,0.1,0.6
					c-0.1,0.3-0.3,0.3-0.6,0.2c-0.3-0.1-0.4,0.2-0.6,0.4c-0.2,0.1-0.3,0.3-0.5,0.4c-0.1,0.1-0.3,0.1-0.2-0.1
					C43.1,49.2,42.7,49.5,42.4,49.5C42.4,49.6,42.4,49.5,42.4,49.5z"/>
				<path id="XMLID_765_" class="st3" d="M39.3,39.2c0.3-0.2,0.5-0.3,0.7-0.5c0-0.2-0.4,0-0.5,0c0.8-0.2,1.7-0.6,2.5-0.7
					c0.1,0,0.2,0,0.1,0.1c0,0-0.1,0.1-0.2,0.2c0.1,0.1,0.4-0.2,0.6,0c-0.4,0.3-0.8,0.5-1.2,0.5c-0.2,0-0.6,0.3-1,0.4
					C39.8,39.3,39.5,39.3,39.3,39.2z"/>
				<path id="XMLID_764_" class="st3" d="M42.5,48.4c0.1,0,0.2,0,0.2,0.1c0,0.1-0.1,0.2-0.2,0.2c-0.2,0.1-0.4,0.3-0.6,0.4
					c-0.4,0.2-0.8,0.5-0.9,0.9c-0.2,0.4-0.5,0.6-0.8,0.8c-0.1,0.1-0.2,0.1-0.3,0.1c-0.1-0.1,0-0.2,0-0.3c0.2-0.3,0.3-0.5,0.6-0.8
					c0.2-0.2,0.4-0.4,0.6-0.6C41.5,48.6,41.8,48.5,42.5,48.4z"/>
				<path id="XMLID_763_" class="st3" d="M38.3,41.1c1.5-0.6,1.5-0.6,1.8-1c0.1,0,0.1,0,0.2,0c0.3,0.3,0.9,0.1,1.5-0.2
					c0.4-0.2,0.7-0.3,0.9-0.1c-0.8,0.2-1.7,0.7-2.5,1c-0.3,0.1-0.7,0.3-1.1,0.4C38.8,41.2,38.5,41.2,38.3,41.1z"/>
				<path id="XMLID_762_" class="st3" d="M41,44.7c-0.4,0.4-0.4,0.9-0.9,1.3c-0.1,0.1-0.3,0.3-0.4,0.2c-0.1-0.1,0.1-0.2,0.2-0.3
					c0.2-0.2,0.3-0.4,0.1-0.5c-0.2-0.1,0.3-0.8,0.6-1c0.2-0.1,0.3-0.1,0.4-0.1C41.1,44.4,41.1,44.5,41,44.7z"/>
				<path id="XMLID_761_" class="st3" d="M44.3,50c-0.7,0.5-1.5,0.7-2.2,0.9c-0.1,0-0.3,0-0.3-0.1c0-0.1,0.1-0.2,0.3-0.2
					C42.8,50.2,43.5,50,44.3,50C44.3,50,44.3,50,44.3,50z"/>
				<path id="XMLID_760_" class="st3" d="M44.3,50c-0.2-0.3,0-0.5,0.3-0.6c0.5-0.1,1-0.3,1.6-0.4c-0.2,0.5-0.6,0.7-1.1,0.7
					C44.7,49.6,44.5,49.6,44.3,50C44.3,50,44.3,50,44.3,50z"/>
				<path id="XMLID_759_" class="st3" d="M86.5,50c0,0.2,0,0.3-0.1,0.5c-0.1,0.2-0.3,0.3-0.5,0.3c-0.2,0-0.2-0.2-0.2-0.4
					c0-0.1,0.1-0.3,0-0.4c-0.2-0.4,0.2-0.5,0.4-0.6C86.5,49.4,86.5,49.7,86.5,50C86.5,50,86.5,50,86.5,50z"/>
			</g>
		</g>
		<use xlink:href="#SVGID_1_"  style="overflow:visible;fill:none;stroke:#4DC463;stroke-width:2.2926;stroke-miterlimit:10;"/>
	</g>
	<g>
		<path class="st4" d="M107.7,28.1c-10-9.1-22.4-14.7-36.7-14.7c-30,0-54.2,24.4-54.2,54.4c0,30,24,54.4,54.1,54.4
			c14.4,0,26.9-5.6,36.8-14.7"/>
		<path class="st4" d="M107.7,107.4"/>
		<path class="st4" d="M107.7,28.1"/>
	</g>
</g>
</svg>
