<svg id="Layer_1" data-name="Layer 1" xmlns="http://www.w3.org/2000/svg" viewBox="0 0 294 329.54"><defs><style>.cls-1{fill:#29abe2;stroke-width:5.31px;}.cls-1,.cls-4{stroke:#4dc463;stroke-miterlimit:10;}.cls-2,.cls-3{fill:#4dc463;}.cls-3{fill-rule:evenodd;}.cls-4,.cls-5{fill:none;}.cls-4{stroke-width:5px;}.cls-5{stroke:#fff;stroke-linecap:round;stroke-linejoin:round;stroke-width:39.4px;}</style></defs><title>logo_new</title><circle class="cls-1" cx="168.15" cy="163.84" r="86.97"/><g id="_Group_" data-name="&lt;Group&gt;"><path id="_Compound_Path_" data-name="&lt;Compound Path&gt;" class="cls-2" d="M109.53,155.46c0.17-.09.15-0.14,0,0h0Zm17.32,10.26c0.39-.27-0.34-0.49-0.78-0.58a0.64,0.64,0,0,1,.52.38,0.83,0.83,0,0,0,1.06.66C127.06,166,126.64,165.87,126.85,165.72Zm11.52,72.59a3.45,3.45,0,0,0-1.51-.9c-0.11.4-.81,1,0.34,1a0.25,0.25,0,0,1,.13.17c-0.44.57,0.27,0.59,0.45,0.85a2.68,2.68,0,0,1-1.2.24c1,0.41,2.18.23,3.24,0.63a2.94,2.94,0,0,0,1.74-.37A7.57,7.57,0,0,1,138.37,238.31Zm21.19-53.62a0.73,0.73,0,0,0-.65-0.62,3.57,3.57,0,0,1-2.5-1.39c-0.81-.79-1.68-1.51-3-1.21a1.67,1.67,0,0,1-1.18-.22,1.28,1.28,0,0,0-1.67,0c-0.35.29-.48,0.11-0.5-0.31a0.9,0.9,0,0,0-.34-0.92c-0.75-.37-1.51-0.74-2.28-1.05a0.75,0.75,0,0,0-1,.3,1.56,1.56,0,0,1-2.31.91,11.22,11.22,0,0,0,1.18-.25,1.3,1.3,0,0,0,.79-1.15,0.39,0.39,0,0,0-.29-0.46,1.16,1.16,0,0,0-1.82,1.07c0,0.2,0,.4-0.05.6-1-1-.64-1.85.25-2.7a0.84,0.84,0,0,0,0-1.45,2.56,2.56,0,0,1-.55-1.43,1.43,1.43,0,0,0-.23-0.73c-1-.68-1.54-1.86-2.86-2.13-0.71-.15-1.38.09-2.06,0a0.74,0.74,0,0,0-.93.57c-0.05.18-.1,0.4-0.4,0.35,0.17-.5.57-1,0.07-1.5a0.72,0.72,0,0,0-1.12-.16,2.22,2.22,0,0,0-2.44-2.43c0.33-.59.05-1.32,0.65-1.85a0.71,0.71,0,0,0-.13-1c-0.61-.59-0.42-0.91.32-1.12s0.94-.77.56-1.18a5.77,5.77,0,0,1-.81-1.93c0.54,0,1.11.08,1.21-.64a0.89,0.89,0,0,0-1-1,0.91,0.91,0,0,0,.78-1.15,0.81,0.81,0,0,0-1.09-.57c-0.54.09-.48-0.18-0.34-0.56,0.51-1.46-1.19-1.06-1.58-1.82-0.18-.36-0.73-0.23-1.07.09a0.33,0.33,0,0,1-.11.12c-0.74,0-1.3.64-2,.71a0.86,0.86,0,0,0-.89.68,0.81,0.81,0,0,0,.59,1,0.86,0.86,0,0,1,.65.5,0.76,0.76,0,0,0,1,.51A0.84,0.84,0,0,0,131,158a0.56,0.56,0,0,1,0-.63A1,1,0,0,1,132,157a0.61,0.61,0,0,1,.46.66,0.88,0.88,0,0,1-.69.86c-0.84.18-1.18,1.15-.54,1.4a8.71,8.71,0,0,0,2.09.86,1,1,0,0,1,.89.47,1,1,0,0,0-1.31.55,0.76,0.76,0,0,0,.36,1c0.81,0.46.31,0.69-.15,0.89-0.91.38-1.07,0.8-.48,1.55,0.46,0.57.14,0.73-.36,0.73a3,3,0,0,0-1.62.43,1.43,1.43,0,0,1-1.7-.06,1.31,1.31,0,0,0-1-.18l-0.31,0c1,0.27,2.35.54,2.35,0.8v0.26c0,0.21-3.16.43-3.39,0.49a4.9,4.9,0,0,1-2-.34c0-.83-0.63-1.66-0.54-2.49,0,0-.25-0.1-0.18-0.15s0.29-.25.05-0.52a0.53,0.53,0,0,0-.77.11,4.69,4.69,0,0,1-1.94,1c-0.95.21-1.89,0.56-2,1.78a1.33,1.33,0,0,1-.6.73,1.74,1.74,0,0,0-.69,1.08c-0.29-.3-0.5-0.51-0.69-0.72a1.72,1.72,0,0,0-2.54-.52c-0.62.31-1.31,0.75-1.92,0.13-0.91-.92-1.82-1.91-1.41-3.41,0.18-.67.31-1.35,0.53-2,0.46-1.41-.13-2.31-1.63-2.34a25.31,25.31,0,0,1-2.75.12,0.66,0.66,0,0,1-.63-0.17c-0.14-.22.11-0.35,0.22-0.5a4,4,0,0,0,.55-2c0-.19-0.12-0.44.22-0.41,0.54,0,.52-0.38.6-0.68,0.13-.51.26,0,0.57-0.44a1.22,1.22,0,0,1,.43-0.36,1.69,1.69,0,0,1-1,.38h-0.09c-1.36,0-2.16-.77-2.63.46-0.2.52-.56,0.36-0.91,0.79-0.22.27-.42,0.17-0.8,0a1.83,1.83,0,0,0-1.18,0c-1.66.42-2.48-.08-3.08-1.71-0.09-.24-0.2-0.51-0.31-0.75a5.08,5.08,0,0,1-.31-2.79c0.16-1.63,1.28-3,1.24-4.64a2.18,2.18,0,0,1,.89-1.33c0.63-.6,1.6-0.47,2.18-1.18a1.72,1.72,0,0,1,1.85-.53c0.69,0.23,1.58-.24,2.08.61a0.51,0.51,0,0,0,.41,0,0.9,0.9,0,0,1,1.21.24c-0.22-.57-0.36-1-0.49-1.32a13.07,13.07,0,0,1,1.8-.27c0.89,0,1.89-.35,2.57.6a0.41,0.41,0,0,0,.55.09c0.47-.22.91-0.46,1.21,0.23a1.84,1.84,0,0,1,.45,1.33,4,4,0,0,0,.71,3.22c0.4,0.61.72,0.58,1-.08a3.55,3.55,0,0,0,.3-2.11c-0.15-.91-0.25-1.83-0.32-2.75a2.66,2.66,0,0,1,.78-2.14,13.44,13.44,0,0,1,3.07-2.19c1.06-.59,1.89-1.45,2.95-2,0.53-.3-0.28-0.34-0.36-0.57,0.58-.25.77-0.43,0.7-0.74a4.74,4.74,0,0,1,.59-2.76,0.28,0.28,0,0,1,.08.25c-0.11.4-.27,1,0.21,1s0.63-.46.68-0.9c0-.16-0.07-0.43.2-0.39a1.27,1.27,0,0,0,1.23-.9,2.64,2.64,0,0,1,1.12-1.1c0.39-.19.84-0.25,1.2-0.45,0.65-.37,1.78.13,1.86-1.36,0.07-1.29,1.54-1.88,2.54-2,1.37-.19,2.26-1.27,3.63-1.42a1.25,1.25,0,0,1,1.48.39c-0.78.36-1.76,0.2-2.39,0.9-0.17.19-.5,0.35-0.32,0.63a0.48,0.48,0,0,0,.76,0,4.25,4.25,0,0,1,2.56-1.11,6.5,6.5,0,0,0,1.18-.45,0.61,0.61,0,0,0-.72-0.3,4,4,0,0,1-.84-0.21,1.25,1.25,0,0,1-.8-1.81c0.12-.32-0.07-0.23-0.22-0.29s-0.55-.24-0.87-0.39c0.51-.39,1,0,1.49-0.26,0.29-.16.76-0.19,0.65-0.66s-0.51-.34-0.8-0.3a8,8,0,0,0-4.14,1.64,2.88,2.88,0,0,1-1.7.89,3.41,3.41,0,0,1,.78-0.7,19.84,19.84,0,0,1,3.62-2.34,5.4,5.4,0,0,1,1.92-.87,21.64,21.64,0,0,1,3.12.06,3.5,3.5,0,0,0,2.78-.62,3.71,3.71,0,0,1,1.49-.66,2.44,2.44,0,0,0,2-1.26c0.69-1.17-.63-0.8-0.6-1.33,0-.26-0.34-0.13-0.51-0.07-0.6.2-1.19,0.44-1.78,0.67a0.29,0.29,0,0,1-.46-0.2c-0.12-.38.15-0.26,0.32-0.31l2.32-.79a2.17,2.17,0,0,0-.22-0.18,0.52,0.52,0,0,0-.16-0.06c-0.76-.13-1.64,0-1.73-1.2,0-.42-0.9-0.78.07-1.18,0.16-.06,0-0.29,0-0.37,0.2-.5-0.56-0.73-0.39-1a1.82,1.82,0,0,0-.08-1.27c0-.43-0.31-0.47-0.59-0.16-1.2,1.33-2.83,1.65-4.57,2,0.32-.46,1.14-0.36,1-0.92s-0.59.09-.91,0a1.28,1.28,0,0,1-.15-0.16c0.28-.39,1.25-0.64.33-1.35a2.4,2.4,0,0,0,.67-0.2c0.3-.18.43-0.53,0-0.63a2.07,2.07,0,0,1-1.2-1,0.64,0.64,0,0,0-.72-0.37,3.39,3.39,0,0,1-2-.12,1,1,0,0,0-1.29.66c-0.53,1-.76,2.24-2,2.77-0.38.16-.53,0.46-0.17,0.81a1.18,1.18,0,0,1,0,1.59,4.83,4.83,0,0,1-3,2,1,1,0,0,0-1,1.12,4.49,4.49,0,0,1-.5,1.63c-0.28.78-1.14,1-1.68,1.61,0,0-.13-0.09-0.2-0.13a2.33,2.33,0,0,1-.84-2.37,5.49,5.49,0,0,1,.56-1.26c0.54-.76.11-0.88-0.52-0.89a3.65,3.65,0,0,1-3-1.44,1.59,1.59,0,0,0-.59-0.34,3.73,3.73,0,0,0-2.69,0c0.55-.86.8-1.61,0.62-1.79-0.33-.32-0.55.21-1,0.12,1.35-2.86,3.89-4,6.64-5-0.42-.48-1.14-0.23-1.54-0.9a6.62,6.62,0,0,0,5.7-1,6.94,6.94,0,0,1-2.09-.84,2.61,2.61,0,0,1,1.72.2,1.23,1.23,0,0,0,1.76-.38,1,1,0,0,1,1.41-.39c0.22,0.09.77,0.47,0.59-.34-0.05-.21.25-0.18,0.31-0.11,0.77,0.78,1.44,0,2.13-.14a0.53,0.53,0,0,0,.47-0.63,0.68,0.68,0,0,1,.58-0.88c0.37-.13.51-0.41,0-0.69-0.93-.5-1.23-0.45-1.85.42a0.54,0.54,0,0,1-.19.18c-0.86.3-1.5,1-2.32,1.33-0.24.1-.58,0.48-0.83,0.09a0.65,0.65,0,0,1,.31-1c0.27-.13.51-0.28,0.28-0.58s-0.48-.08-0.69.07a1.91,1.91,0,0,1-1.22.62c0.56-.74,0-1.09-0.41-1.49a3.34,3.34,0,0,1,.35-0.23,1,1,0,0,0,.53-1.3c-0.24-.47-0.8-0.28-1.23,0a0.87,0.87,0,0,1-.41.14,1.52,1.52,0,0,0-1.24,1.12c-0.16.39,0.67,0.31,1,.54a0.3,0.3,0,0,1,.09.13,3,3,0,0,1-1.63,1.2,2.12,2.12,0,0,0-1.48.93,0.73,0.73,0,0,1-.93.39c-0.31-.26.2-0.51,0.31-0.78,0,0,.07-0.1.09-0.15,0.12-.28.11-0.55-0.23-0.61s-0.34.14-.25,0.43-0.18.31-.39,0.31a8.49,8.49,0,0,1-.86-0.06c-1.23-.15-2.5.09-3.7-0.35a2.56,2.56,0,0,0-3.15.89,1.09,1.09,0,0,1-.67.48c-0.3,0-.27-0.38-0.33-0.62a0.59,0.59,0,0,0-.76-0.51c-0.43.06-.86,0.16-1.29,0.18a3,3,0,0,1-2-.32c0.32-.46.91-0.19,1.17-0.61a0.82,0.82,0,0,0-.86-0.25,4,4,0,0,1-1.37-.18c-1.15-.45-2.29-1.06-3.55-0.31-0.16.09-.51,0.16-0.35-0.29a0.59,0.59,0,0,1,0-.07c-1.08,1-2.15,2.12-3.18,3.22-0.34.08-.68,0.14-1,0.2l0.17,0.06h0a0.75,0.75,0,0,0,.13.17c0.06,0,.13.17,0.19,0.17H104a79,79,0,0,0-12.6,17.31c-0.07.12-.14,0.15-0.2,0.27a95.75,95.75,0,0,0-7.43,18.57,0.85,0.85,0,0,1,0,.23c0,0.17.24,0.32,0.24,0.49h0c0,1.2-.25,2.46.75,3.46a0.7,0.7,0,0,1-.36,1.14c-0.69.18-.42,0.42-0.23,0.69a1.61,1.61,0,0,0,.72.56,1.19,1.19,0,0,1,.84,1.41,1.45,1.45,0,0,0,.6,1.51,2.57,2.57,0,0,1,.83,1.09,0.28,0.28,0,0,0,.39.23,0.39,0.39,0,0,0,.31-0.46,1.07,1.07,0,0,0-.46-0.8A0.74,0.74,0,0,1,87,150a16.76,16.76,0,0,0-1.77-5.55,3,3,0,0,1,0-2c0.05-.26.26-0.32,0.54-0.22a1,1,0,0,1,.88,1.17,3.56,3.56,0,0,0,.12,2c0.65,1.14,1.95,1.91,1.88,3.46a0.6,0.6,0,0,0,.21.26,11.65,11.65,0,0,1,2.24,3.16,2.34,2.34,0,0,1,.08,2.54,0.86,0.86,0,0,0,.15,1.18,9.06,9.06,0,0,0,1.85,1.55c1.49,0.86,3.05,1.59,4.59,2.36a2.23,2.23,0,0,0,2.39.15,1.34,1.34,0,0,1,2.12.48c0.94,1.5,2.44,2,4,2.5a1.41,1.41,0,0,0,1.25.06c0.28-.16.47,0.06,0.38,0.24-0.24.47,0.18,0.59,0.33,0.87,0.37,0.64,1.29,1,1,2-0.18.68,0.18,0.83,0.73,1a1.4,1.4,0,0,1,1.24,1,0.59,0.59,0,0,0,.63.57,3,3,0,0,1,1.92.86c0.21,0.15.33,0.42,0.66,0.25s0.21-.39.18-0.66a1.37,1.37,0,0,1,1.16-1.15c0.4,0.19,1.14.25,0.8,1.07a0.77,0.77,0,0,0,.22.72c1.05,1.33.61,2.9,0.5,4.32-0.07,1-1.21,1.83-1.92,2.58a8,8,0,0,0-1.28,2,3,3,0,0,0-.32,1.76c0,0.32.2,0.63,0.53,0.55,1-.25.43,0.41,0.33,0.6a4.85,4.85,0,0,1-.74.84,1.18,1.18,0,0,0-.37,1.26c0.28,0.77.29,1.67,1.2,2.1a2.13,2.13,0,0,1,.57.75c1.09,1.64,1.7,3.54,2.79,5.19a4.93,4.93,0,0,1,1,1.9,2.57,2.57,0,0,0,.85,1.46,10.37,10.37,0,0,0,3,1.92,4.73,4.73,0,0,1,2.55,2.21,8.34,8.34,0,0,1,.59,5.09,1.19,1.19,0,0,0,0,.42,21.59,21.59,0,0,1,.3,4.47,6.91,6.91,0,0,0,.13,2.82c0.17,0.45-.14,1.1.13,1.65,0.73,1.54.54,3.14,0.44,4.77-0.07,1.07-.7,2.18.05,3.26a3,3,0,0,1,.51,2c-0.05,1,.58,2,0.59,3.09a0.26,0.26,0,0,0,.33.3c0.2-.07.13-0.28,0.11-0.45s-0.12-.63-0.14-0.94a0.38,0.38,0,0,1,.29-0.39,0.27,0.27,0,0,1,.34.19,1.6,1.6,0,0,1,.38.67c-0.05,1.4.67,2.66,0.76,4,0,0.17.14,0.36-.05,0.46a0.4,0.4,0,0,1-.38-0.11c-0.5-.67-0.69-0.16-1,0.18,0.41,0.38,1.24.27,1.29,0.68,0.09,0.77.65,0.78,1.19,1-0.55.27-.46,0.87-0.83,1.22a0.37,0.37,0,0,0,.21.6c0.58,0.2.17-.31,0.34-0.4a0.33,0.33,0,0,1,.38-0.11c0,1,.73,1.62,1.28,2.38,0.1,0.14.19,0.4,0.46,0.26,0.45-.23.66,0.09,0.83,0.38a1.28,1.28,0,0,0,.89.66c-0.32.27-.73,0.43-0.44,0.86a1.26,1.26,0,0,0,1.17.43c0.42,0,.43-0.28.39-0.6a0.56,0.56,0,0,1,.4-0.66l0.26-.07,0.17,0c0.16-.31.55-0.56-0.1-0.9a1,1,0,0,1-.08-1.66,0.55,0.55,0,0,0,.29-0.57,1.28,1.28,0,0,1,.48-1.38,0.78,0.78,0,0,0-.4-1.41,2.58,2.58,0,0,1-.8-0.34c-1-.63-1-1.29,0-1.91a0.82,0.82,0,0,0,.52-0.64c-0.12-.93.26-1.94-0.52-2.75a2.93,2.93,0,0,1-.42-0.85c-0.18-.41,0-0.55.39-0.45a2.76,2.76,0,0,0,1.26.25c0.32-.07.79-0.11,0.59-0.63s0-1.26-.55-1.91a7.13,7.13,0,0,0,3-.19c1-.14,1.25-0.91,1.6-1.65s-0.2-.87-0.54-1.21a0.46,0.46,0,0,1-.15-0.3,1.54,1.54,0,0,0-1-1.29,0.74,0.74,0,0,1-.49-0.88,4.75,4.75,0,0,0,1.94.84c0.76,0.19,1.71.48,2.26-.27a4.31,4.31,0,0,0,1.2-2.81c0-.71.61-1.17,0.68-1.85,0-.14.28-0.18,0.37-0.11,0.58,0.48.49-.11,0.59-0.36a3.22,3.22,0,0,1,.34-0.8,3,3,0,0,0,.51-3.09,1.69,1.69,0,0,1,.57-1.84,19.77,19.77,0,0,1,2.47-1.66,3.18,3.18,0,0,1,2.23-.62,1.05,1.05,0,0,0,.87-0.38,6.37,6.37,0,0,0,1.05-2c0.82-1.37.75-2.92,1.15-4.36a9.54,9.54,0,0,0-.1-3.53,1,1,0,0,1,.39-1.21,1.3,1.3,0,0,0,.91-1,4.42,4.42,0,0,1,1.08-1.65A4.78,4.78,0,0,0,159.56,184.69Zm-56.33-80h0.13v0ZM253.46,152.6a3.72,3.72,0,0,0-2-1.51,1.72,1.72,0,0,1-1.38-1.6l-0.16-.94a4.38,4.38,0,0,0-1.36,1.47,1.28,1.28,0,0,1-1.21.67c-0.4,0-.81.1-1.21,0.11s-1,0-.56-0.76a0.94,0.94,0,0,0-.19-1.19,1.79,1.79,0,0,1-.47-0.61,0.94,0.94,0,0,0-1.33-.82,0.56,0.56,0,0,1-.54-0.21,3.12,3.12,0,0,1-1.13-2.7c0-.52.15-0.89,0.92-0.64a1.59,1.59,0,0,1,1.11.84c0.57,1.43,1.88,2,3,2.81a2,2,0,0,0,2.27.1c0.89-.5,1-0.44,1.41.56a1,1,0,0,0,.67.74c0.73,0.18,1.46.35,2.2,0.47a86.67,86.67,0,0,0-23.37-46.13,1,1,0,0,0,.35.47,0.56,0.56,0,0,1,.05.8,0.54,0.54,0,0,1-.78,0c-0.78-.4-1.35.18-1.88,0.55s0.33,0.62.25,1.1a5.65,5.65,0,0,1-2.79-.59,0.91,0.91,0,0,0,.76.75c0.17,0.07.34,0.18,0.25,0.38a0.43,0.43,0,0,1-.35.2c-0.81-.15-1.82-0.16-2.2-1a3.22,3.22,0,0,0-1.84-1.8,2.85,2.85,0,0,1-.69-0.51,0.58,0.58,0,0,1,.63,0,17.78,17.78,0,0,0,3.88.9,2.56,2.56,0,0,0,1.45-.13,0.9,0.9,0,0,0,.76-0.63,0.83,0.83,0,0,0-.73-0.75c-1-.35-2-0.69-2.94-1a10.53,10.53,0,0,0-2.29-.27c-0.9-.12-1.82-0.37-2.74-0.5a1,1,0,0,1-.32-0.23c0.09-.32.55-0.13,0.54-0.53a1.34,1.34,0,0,0-1.44,0,0.25,0.25,0,0,1-.41-0.16c-0.06-.56-0.27-0.18-0.41-0.07s-0.29.34-.42,0.23c-0.48-.43-0.7,0-1,0.26-0.23-.14.11-1-0.5-0.48a8.25,8.25,0,0,1-2.26.87c-0.91.41-2,.21-2.79,1a1.07,1.07,0,0,1-.46.6c-0.75.25-1.25,0.94-2,1.27a1.71,1.71,0,0,0-.86,1.11,1.6,1.6,0,0,1-1.28,1.2,1.47,1.47,0,0,0-.45.23,6.45,6.45,0,0,1-3.15,2.09,3.69,3.69,0,0,0-.58.42c-0.28.19-.28,0.54,0.17,0.67a0.24,0.24,0,0,1,0,.11c-0.79.27-.06,0.7-0.14,1-0.11.45,0.8,0.9,0,1.32-0.15.08,0,.27,0.13,0.34a1.73,1.73,0,0,0,2,.12c0.6-.48,1.45-0.7,1.71-1.54,0.7,0.92.95,2,1.54,2.9a1.35,1.35,0,0,1,.22,1.14c-0.73.33-.55,1.4-1.34,1.69-0.3-.09-0.86.14-0.73-0.52,0-.2.58,0.12,0.52-0.36s-0.48-.27-0.62-0.53c0.1-.38,1.13-0.59.22-1.15a0.38,0.38,0,0,1,.06-0.24c0.07-.18.22-0.39,0-0.55s-0.41,0-.6.14a2.08,2.08,0,0,1-.55.25,0.94,0.94,0,0,0-.75,1.16,6.17,6.17,0,0,0,.48,1.47c0.2,0.78,0,1-.81,1.1-1.2.19-2.48,0.26-3.12,1.63a2.17,2.17,0,0,1-1.49,1.11,0.9,0.9,0,0,0-.81.57,2,2,0,0,1-1.83,1.3,1.89,1.89,0,0,1-2.24-1.24l0.34,0a11.8,11.8,0,0,0,2.91-.23c0.25-.06.77-0.16,0.54-0.56s0-.51.22-0.7a0.7,0.7,0,0,0,.28-0.69,0.62,0.62,0,0,0-.68-0.43c-0.36,0-.44-0.08-0.51-0.41a6,6,0,0,0-1.75-2.56c-0.49-.57-0.49-0.7-0.06-1.14a0.77,0.77,0,0,0,.34-0.76c-0.16-.37-0.56-0.18-0.86-0.23a1,1,0,0,1-.68-0.1c0.1-.29.69-0.32,0.51-0.69s-0.58-.08-0.88-0.12c-1-.12-1,1.28-1.89,1.23a0.45,0.45,0,0,0,0,.22c0.32,0.2.17,0.42,0.14,0.71a1.78,1.78,0,0,0,.41,1.31c0.1,0.13.42,0.09,0.24,0.38s-0.35.16-.58,0a1.53,1.53,0,0,0-2.28.5,0.51,0.51,0,0,1-.58.27c-0.87-.12-0.66.88-0.62,0.92,0.73,0.56,0,.79-0.23,1.1s-0.57.41-.11,0.73c0.66,0.47,3.15-.39,3.36-1.18a2.82,2.82,0,0,0,0-.51,2.93,2.93,0,0,1,0-.52c0.06-.22.27-0.43,0.42-0.16a8.67,8.67,0,0,1,1,1.17c0.12,0.32.14,0.46-.11,0.64s-0.6.13-.55,0.46,0.5,0.13.72,0.29a1.72,1.72,0,0,1,.18.19c-0.52.46-1,.92-1.52,1.38a0.68,0.68,0,0,0,.79,0c0.22-.07.5,0,0.38,0.25-0.23.48,0.7,1.28-.41,1.5-0.11,0-.07.19-0.07,0.31,0,0.54.4,0.55,0.77,0.64,1,0.25,2.19,1.57,2.1,2.31-0.08.57-.21,1.14-0.31,1.71a0.86,0.86,0,0,1-1.1.79c-1.49-.15-3-0.24-4.49-0.34a1.35,1.35,0,0,0-1.47,1.12,5,5,0,0,1-.18,3c-0.32.7-.87,1.35-0.09,2.09a0.61,0.61,0,0,1,0,.34c0,1,.09,1.08,1.15.89a0.88,0.88,0,0,1,.87.19,0.23,0.23,0,0,1,.09.12,1.33,1.33,0,0,1,.15.54,5.7,5.7,0,0,1,0,1.15,2.14,2.14,0,0,1-.16.65,3.17,3.17,0,0,1-1.63,1.42,3.24,3.24,0,0,0-1.87,2.45,2.27,2.27,0,0,0,0,.52c0,0.13,0,.25,0,0.37a2.94,2.94,0,0,1-2.12,2.57c-1.51.55-2.07,1.87-2.69,2.93-0.75,1.29-1.61,2.57-2.25,4a5,5,0,0,0-.23,1.22s0,0.08,0,.12a0.6,0.6,0,0,0,.05.31l0.08,0.16s0,0,0,.08l0,0.05c0.06,0.14.13,0.3,0.21,0.45a1.57,1.57,0,0,1,.05.3c0,0.1,0,.2,0,0.3s0,0.2,0,.3a1.1,1.1,0,0,0,0,.36,4.89,4.89,0,0,1,0,.93v0.09c0,0.26,0,.51,0,0.75a6.31,6.31,0,0,1-.63,2.15,2.8,2.8,0,0,0-.33,1.1v0a1.46,1.46,0,0,0-.16.19,5.85,5.85,0,0,1,.16.63h0s0.18,0.08.18,0.12a0.66,0.66,0,0,1,0,.34,2.39,2.39,0,0,0,0,.91,0.7,0.7,0,0,0,.18.41s0,0.24,0,.25,0,0.29,0,.36a1.58,1.58,0,0,1,0,.2h0a4,4,0,0,1,1,0s0.26-.09.29-0.1l0.28-.12v0c0,1.18.82,1.62,1.42,2.39a1.58,1.58,0,0,1,.24.51l0,0.21a1.9,1.9,0,0,1,0,.25,2.35,2.35,0,0,0,.08.55,2,2,0,0,0,.07.26,2.92,2.92,0,0,0,.25.46l0.18,0.2a1.87,1.87,0,0,0,.21.19l0.26,0.17a9.7,9.7,0,0,1,2.48,2l0.15,0.16a0.63,0.63,0,0,0,.11.12l0.1,0.1a1.42,1.42,0,0,1,.09.25,1.37,1.37,0,0,0,.24.37h0a0.78,0.78,0,0,1,.34,0,1.39,1.39,0,0,0,.35,0,2.81,2.81,0,0,0,1.84-.32,4.06,4.06,0,0,1,3.73-.15,1.24,1.24,0,0,0,1.06,0c1.49-.5,2.77-1.5,4.45-1.57s2,0,2.54,1.59a0.76,0.76,0,0,0,1.18.55,6.24,6.24,0,0,1,2-.2c0.56,0,1.33,1.29,1.28,1.92a3.1,3.1,0,0,1-.23,1.53,0.33,0.33,0,0,0,.1.52,1,1,0,0,0,1.46-.62,0.67,0.67,0,0,1,.78-0.69c1.06,0,1-.06,1.39,1.19a0.31,0.31,0,0,1-.19-0.26,0.85,0.85,0,0,0-1.1-.78,0.74,0.74,0,0,0-.73.87,0.45,0.45,0,0,1-.41.49,1.12,1.12,0,0,0-1.33,1c-0.31,1.28-.49,1.92.45,2.91,1.78,1.85,2.45,4.24,3.29,6.55a0.5,0.5,0,0,1,0,.34c-0.47.78,0,1.45,0.23,2.14a1.9,1.9,0,0,1-.08,2.07c-1.18,1.19-1.2,2.78-1.7,4.2a0.91,0.91,0,0,0,.81,1.41c-1.11.14-.89,0.8-0.6,1.16,0.79,1,1,2.28,1.67,3.33a6,6,0,0,1,.87,3.11,20.22,20.22,0,0,0,.6,3.49,2.23,2.23,0,0,0,.66,1.29,3.06,3.06,0,0,1,.84,1.49,11.25,11.25,0,0,0,.95,2.23,1.3,1.3,0,0,1,.18,1.39c-0.43.71,0.13,1.24,0.45,1.68a1.37,1.37,0,0,0,1.57.56,10.29,10.29,0,0,1,3.44-.65,5.07,5.07,0,0,0,3.57-1,12.39,12.39,0,0,0,3.58-4,1.55,1.55,0,0,1,.55-0.66c1.33-.73.91-2.1,1.12-3.2a1.45,1.45,0,0,1,.41-0.93,5.58,5.58,0,0,1,1.47-.72,1.38,1.38,0,0,0,.88-1.14,7.52,7.52,0,0,0-.41-3.65,0.73,0.73,0,0,1,.06-0.82c1.31-1.06,2.23-2.58,3.91-3.21a3.44,3.44,0,0,0,2.09-2.86c-0.05-1.35-.07-2.71-0.1-4.07a0.88,0.88,0,0,0-.18-0.65,4.26,4.26,0,0,1-.83-3.34,0.76,0.76,0,0,0,0-.66c-0.88-.92-0.25-1.75.12-2.62a15.75,15.75,0,0,1,2.26-3.52A16.33,16.33,0,0,1,240,176a10.86,10.86,0,0,0,2.35-2.29c1.5-1.92,2.14-4.28,3.22-6.41a5.51,5.51,0,0,0,.29-2c0-.47-0.13-0.76-0.67-0.43a3.91,3.91,0,0,1-2,.59,18.06,18.06,0,0,0-2.91.67c-0.52.09-1.09,0.44-1.43,0s-1.39-.71-0.74-1.67a0.51,0.51,0,0,0-.24-0.6c-1-.9-1.69-2.15-3-2.77a2.23,2.23,0,0,1-1.12-1.66,3,3,0,0,0-1.11-2,2.32,2.32,0,0,1-1-2.15,3.08,3.08,0,0,0-1.32-2.86,1,1,0,0,1-.39-0.92,1.06,1.06,0,0,0-.13-0.75c-1.26-1.6-1.65-3.69-2.91-5.3a1.21,1.21,0,0,1-.29-0.92,3.37,3.37,0,0,1,.71,1.12,1.13,1.13,0,0,0,.89.85c0.53,0,.34-0.64.51-1a1,1,0,0,1,.11-0.19,2,2,0,0,0,.21.85c0.95,0.81,1.37,2,2.13,2.94,0.39,0.48.31,1.2,0.89,1.56a2.93,2.93,0,0,1,1.38,2.46,2.4,2.4,0,0,0,1.16,2.11,2.28,2.28,0,0,1,1,1.2,5.62,5.62,0,0,0,1,1.62,2.46,2.46,0,0,1,.83,1.59,13,13,0,0,0,.57,3.23c0.16,0.87.56,1.17,1.34,0.8,1-.46,2-0.78,3-1.16,1.17-.43,2.12-1.29,3.36-1.53a1.12,1.12,0,0,0,1-.64c0.28-1.13,1.22-1.19,2.07-1.42a1,1,0,0,0,.77-0.31c0.42-.81,1.36-1,1.91-1.76a1.59,1.59,0,0,0,.57-1.12,1,1,0,0,1,.54-1,3.32,3.32,0,0,0,1.08-1.54A0.48,0.48,0,0,0,253.46,152.6ZM156.09,91.26h0v0h0Zm3.21,9.31a0.34,0.34,0,0,0,.14.11h0.1Zm-3.21-9.31h0v0h0Zm0,0h0v0h0Zm-0.05.39v0h0v0h0Zm0,0h0v0h0Zm0.07-.4h0v0h0Zm0,0h0v0h0Zm27.57,0.4c0.48-.51,1.11-0.39,1.48-0.88-1.08-.18-2,0.5-3.2.2l0.87-.19c-1.34-.25-2.55.14-3.76-0.07,2.07-.39,4.18,0,6.36-0.5A44.56,44.56,0,0,0,178,90.1c1.12-.47,2.31-0.14,3.45-0.37a5,5,0,0,0-.67-0.06c-2.57-.3-5.05.77-7.61,0.53a0.41,0.41,0,0,0-.23.09,2.08,2.08,0,0,1-1.72.5c-0.6-.12-1.19-0.27-1.79-0.38-0.21,0-.62-0.13-0.64,0a0.58,0.58,0,0,1-.22.47,0.05,0.05,0,0,1,0,0l-0.11,0a1,1,0,0,1-.32-0.08L168,90.82l-0.16,0a3,3,0,0,0-.94,0,0.79,0.79,0,0,1-.77-0.1,3.23,3.23,0,0,0-2.11,0c-0.2,0-.11.6-0.54,0.37a1.57,1.57,0,0,0-2,.21,1.56,1.56,0,0,1-.49-0.34c-0.19,0-.39.13-0.58,0.13h-1.63c-0.13,0-.27-0.15-0.41-0.14a3.29,3.29,0,0,0-.41.08c-0.07,0-.14.06-0.22,0.06h0a0.73,0.73,0,0,0-.12-0.07,0.59,0.59,0,0,0-.23,0,0.11,0.11,0,0,0-.05,0,0.06,0.06,0,0,0,0,0h0l-0.12,0a0.58,0.58,0,0,0-.17,0l-0.26.09-0.35.12a0.26,0.26,0,0,0-.11.1l0,0a3.56,3.56,0,0,1-.08.35s0,0.34-.05.34h0V91.45a0,0,0,0,1,0,0l0,0.09V91.5s0,0.06,0,.09h0l-0.1,0c-0.08,0-.15.2-0.22,0.21a1.47,1.47,0,0,0,0,.17h0a0.74,0.74,0,0,1,0-.15,0.22,0.22,0,0,1-.05-0.08,3.5,3.5,0,0,1-.44.05c-0.1,0-.2.05-0.31,0.09s-0.18,0-.28.08,0,0,0,0c-0.29.13-.58,0.24-0.87,0.36s-0.54.2-.81,0.3-0.62.22-.93,0.31a7.35,7.35,0,0,0,3.54.71,2.38,2.38,0,0,1-.31.32c-0.7.54-1.49,0.32-2.11,0.57a1.81,1.81,0,0,1,.07.25s0,0.24.07,0.24h0c0.06,0,0-.14,0-0.11a1.38,1.38,0,0,1-.15,0h0a0.91,0.91,0,0,1-.28.27,0.23,0.23,0,0,1,.05,0,0.75,0.75,0,0,0,.31.08,3,3,0,0,0,.74,0,14.46,14.46,0,0,1,4.05,0,1,1,0,0,1,.29.1,3,3,0,0,1,.62.32,0.83,0.83,0,0,1,.18.13L159.13,96l0.18,0.18a1.1,1.1,0,0,1,.19.25,1.07,1.07,0,0,1,.22.52,3.49,3.49,0,0,1,.11,1.54,1.66,1.66,0,0,1-1.22.89,1,1,0,0,0,.37.16,0.44,0.44,0,0,0,.32-0.07,2.73,2.73,0,0,0,.42-0.22,0.91,0.91,0,0,1,.55-0.2h0a1.16,1.16,0,0,1,1.12.8c0.15,0.47,0,.71-0.32.72,0,0,0,0,0,0a0.44,0.44,0,0,1-.19,0,0.13,0.13,0,0,0,0,.08,0.19,0.19,0,0,1-.06.12,4.65,4.65,0,0,0-1.23,0,3.19,3.19,0,0,0,1.05.19c0.23,0,.51-0.09.61,0.18a8.45,8.45,0,0,0,2,.66c-1.06.1,0.81,1.71,0.81,1.67v0.08c0,0.56-2.31.56-2.8,0.65a13.91,13.91,0,0,0-2.19.41c0.32,0.23,0,.5.33,0.53-0.23.08-.73,0.12-0.95,0.19s-0.43.15-.34,0.31a0.73,0.73,0,0,0,.19.23s0,0.2.05,0.18a0.34,0.34,0,0,1,.28,0h0a1.49,1.49,0,0,1,.16-0.13,0.29,0.29,0,0,1,.09,0,0.43,0.43,0,0,1,.18.28,0.35,0.35,0,0,1-.24.44,0.62,0.62,0,0,0-.13,0c-0.11,0-.22.18-0.31,0.21s-0.12.18-.17,0.18h0c-0.14,0-.21,0-0.21.11s0,0,0,0a0.05,0.05,0,0,0,0,0,0.31,0.31,0,0,1,.06.13h0c0,0.14.1,0.34,0.1,0.51a1.57,1.57,0,0,0,0,.31,1.26,1.26,0,0,0,0,.28,0.5,0.5,0,0,0,0,.13l0.05,0.12a1.13,1.13,0,0,0,.13.27,0,0,0,0,0,0,0,1.53,1.53,0,0,0,.19.24l0,0a1.77,1.77,0,0,0,.53.36h0a3.87,3.87,0,0,0,.28.29,4.38,4.38,0,0,0,.86.16h0.12s0.08-.25.12-0.26a0.58,0.58,0,0,1,.31-0.15,0.08,0.08,0,0,0,0,0s0,0,0,0a0,0,0,0,1,0,0,0.13,0.13,0,0,1,0,.06,0.56,0.56,0,0,1,.05.29h0a0.14,0.14,0,0,0,0,.09,1.48,1.48,0,0,0,.54.39,1.24,1.24,0,0,0,.27.12,0.24,0.24,0,0,0,.14,0,0,0,0,0,0,0,0,1.09,1.09,0,0,1,.29-0.61,7.21,7.21,0,0,0,1.14-1,0.88,0.88,0,0,0,.1-0.22,0,0,0,0,0,0,0,0.77,0.77,0,0,0,0-.27,1.27,1.27,0,0,0,0-.19,0.33,0.33,0,0,1,.19-0.25,3.22,3.22,0,0,0,2.14-1.8c0.78-1.16,2.2-.93,3.08-1.76a0.47,0.47,0,0,1,.3.12,0.9,0.9,0,0,0,1,.07,7,7,0,0,0,3.33-2.14,0.2,0.2,0,0,1,.3,0c0.59,0.56,1.22.15,1.82,0.08a10.69,10.69,0,0,0,4.81-1.54,2.52,2.52,0,0,0-1.72-.17,1.73,1.73,0,0,1-1.85-.33c0.53-.68,1.43-0.4,2.16-0.7a4.77,4.77,0,0,0-1.1-.22,0.25,0.25,0,0,1-.21-0.32c0-.13.1-0.27,0.22-0.21,0.72,0.38,1.71.22,2.24,0.83a1.37,1.37,0,0,0,1.7.38c-0.28-.57-0.45-1.25-1.19-1.35a5.67,5.67,0,0,0-1.56-.44,0.35,0.35,0,0,1-.39-0.28,0.25,0.25,0,0,1,.21-0.32,6.06,6.06,0,0,0,1.69-.41,3.3,3.3,0,0,1,1.94.21,0.73,0.73,0,0,0,.88-0.09c-0.21-.41-0.78.1-0.82-0.37,0-.62.69-0.35,1-0.64-0.07-.21-0.47,0-0.41-0.31a0.75,0.75,0,0,1,.72-0.79c-0.14-.29-0.54-0.22-0.56-0.61,0.84-.43,1.76-0.14,2.66-0.26a5.1,5.1,0,0,1-2-.57,2.77,2.77,0,0,1,1.27-1c0.43-.11.7-0.31,0.49-0.85-0.07-.19-0.1-0.57.44-0.53,0.74,0,1.5-.12,2.25-0.14a5.47,5.47,0,0,0,2.09-.53A25.51,25.51,0,0,0,183.66,91.66Zm-27.83,0s0,0,0,0,0,0,0,0a0.16,0.16,0,0,0,.09,0h-0.09Zm0.28-.43h0v0Zm0,0h0v0h0Zm-0.07.4h0v0h0Zm0.07-.4h0v0h0Zm0,0h0v0h0Zm0,0h0v0h0Zm-5.52,12.42h0a0.17,0.17,0,0,0,0,0h0.07S150.58,103.68,150.57,103.68Zm-0.43.32h0a0.23,0.23,0,0,1-.14,0l0,0h0a2,2,0,0,1-.36-0.22,0.35,0.35,0,0,0-.14-0.06,0.12,0.12,0,0,1-.1-0.11,1.86,1.86,0,0,0-.22-0.07c0-.09-0.12-0.23-0.12-0.3v0a0.05,0.05,0,0,1,0,0,0.2,0.2,0,0,0,0-.06,0.22,0.22,0,0,0,0-.2v0.22a0.06,0.06,0,0,1,0,0s0,0,0,0h0a0.66,0.66,0,0,1,0,.14,1.81,1.81,0,0,0-.05-0.32h0a4,4,0,0,1-1.31-.62c-0.69-.27-0.49-0.85-0.62-1.29a0.06,0.06,0,0,1,0-.06,0.16,0.16,0,0,0,0,.1c0-.17.06-0.13,0.2-0.13h0a1.33,1.33,0,0,1,.19-0.14,0.91,0.91,0,0,0,.44-0.09,0.56,0.56,0,0,1,.24-0.1v-0.44a7.17,7.17,0,0,0-1.51.38,0.36,0.36,0,0,1-.3.11s0,0,0,0a0.1,0.1,0,0,1-.08,0,0.35,0.35,0,0,1-.1-0.17,0.58,0.58,0,0,1-.07-0.32,0.28,0.28,0,0,1,0-.09A0.13,0.13,0,0,1,146,100a0.12,0.12,0,0,1,.07-0.07,0.5,0.5,0,0,1,.12-0.08,0.89,0.89,0,0,0,.7-0.35,1.85,1.85,0,0,0-1.08.27,1.17,1.17,0,0,1-1.37-.44c-0.44-.59.53-0.33,0.47-0.76-0.61-.07-1.26-0.55-1.72.33a0.42,0.42,0,0,1-.51.24,3.16,3.16,0,0,0-1.72-.14,0.44,0.44,0,0,1,.27-0.48c0.3-.16.71-0.27,0.52-0.74s-0.63-.23-1-0.26c-0.82-.06-1.25,1-2.16.74a0.31,0.31,0,0,0-.12.17c0.28,0.47,0,.47-0.35.47s-0.39.07-.28,0.42a0.54,0.54,0,0,1-.52.58,0.22,0.22,0,0,1-.25-0.27A1.69,1.69,0,0,1,138,98a1,1,0,0,0,.63-0.44,5.45,5.45,0,0,0-3.72,1.33,0.65,0.65,0,0,0-.43.5c0.05,0.32.37,0.19,0.58,0.24s0.4,0.07.39,0.27-0.28.21-.48,0.23-0.55-.24-0.87.29c1.17-.06,2.11.56,3.19,0.42a7.41,7.41,0,0,1,2.93.09c0.18,0,.43.13,0.48-0.19,0.1-.71.45-0.3,0.72-0.16,0.54,0.3.89,0.84,1.38,1.17a1.89,1.89,0,0,1,.94.93,1.29,1.29,0,0,1-.45,1.37,3.25,3.25,0,0,0,.58,0c0.16,0,.32-0.15.48-0.18a1,1,0,0,1,.79.3,0.22,0.22,0,0,1,.05.31,1.76,1.76,0,0,1-1.55.1c-0.42-.45-1.8-0.49-1.95.05-0.27.91-1,.8-1.63,1.09a6.58,6.58,0,0,1,1.37,1.06c0.37,0.31.22,0.81,0.6,1a8.4,8.4,0,0,0,2.3.95c0.19,0,.42.18,0.54-0.08a0.49,0.49,0,0,0-.23-0.52c-0.27-.27-0.88-0.53-0.61-0.9s0.76,0.12,1.15.26l0.16,0.07c0.44,0.16.89,0.5,1.29-.11a1,1,0,0,0-.23-1.44c-0.63-.59-0.61-0.9,0-1.28a0.35,0.35,0,0,0,.09-0.15c0.39-.78.89-0.1,1.34-0.09s0.52,0.19.49,0.61,0.38,0.7.6,0.4a4.21,4.21,0,0,1,.18-0.43,5.67,5.67,0,0,0,1.27-.9l0.09-.14a0.35,0.35,0,0,0,.11-0.05A3.26,3.26,0,0,0,150.14,104Zm-1.09-1.32h0a1.36,1.36,0,0,1,0,.16,0,0,0,0,1,0,0h0a0.08,0.08,0,0,0,0,0A0.57,0.57,0,0,0,149.05,102.68Zm-1.05-2h0Zm96.24,91.73a0.41,0.41,0,0,0-.36-0.32,0.39,0.39,0,0,0-.3.38,1.09,1.09,0,0,1-.44.9,1.38,1.38,0,0,0-.8,1.11,2,2,0,0,1-1,1.09,8.63,8.63,0,0,1-1.79.85,1,1,0,0,0-.63.43,3.3,3.3,0,0,0-.4,2.57,2,2,0,0,1,0,1.7c-0.71,1.2-1.48,2.37-.81,3.86a0.36,0.36,0,0,1,0,.17,1.77,1.77,0,0,0,1.33,2,2.43,2.43,0,0,0,2.25-1.23c0.41-1.09.82-2.17,1.15-3.28,0.49-1.66,1.18-3.26,1.61-5,0.13-.52-0.45-1.67.82-1.74a0.36,0.36,0,0,0,.07-0.24C244.75,194.58,244.89,193.41,244.24,192.4ZM124.47,100.71c-1.12-.66-1.11-0.65-0.5-1.79,0.13-.25.6-0.5,0.22-0.8a1,1,0,0,0-1.22,0,3.82,3.82,0,0,0-.77.93,0.5,0.5,0,0,1-.52.25c-0.31-.08-0.15-0.32-0.1-0.5,0.12-.38.1-0.55-0.39-0.4s-1.08.53-1.55-.17a0.7,0.7,0,0,0-.66.07,0.82,0.82,0,0,1-1,0l0.63-.22a7.3,7.3,0,0,0-4.36,1.08,5.66,5.66,0,0,0,1.82.27c-0.79.48-1.66,0.12-2.4,0.69,1.26,0.34,2.5-.3,3.66.32a0.93,0.93,0,0,1-1,.27,8.23,8.23,0,0,0-2.67.08c-0.2,0-.44,0-0.45.31a0.34,0.34,0,0,0,.34.32c0.47,0.12,1.21-.24,1.21.71a2.38,2.38,0,0,0,.32,0,14,14,0,0,0,4.37-.59,1.53,1.53,0,0,1,1.15,0,1.56,1.56,0,0,0,1.58.11,3.28,3.28,0,0,1,2.51-.72A2.12,2.12,0,0,0,124.47,100.71Zm15.74-7c0.13,0,0,.25-0.3.25h-0.05s-0.08-.28-0.13-0.29,0-.09,0-0.1a0.41,0.41,0,0,1,0-.08c-0.77-.1-2.08-0.35-2.53-0.36H137a0,0,0,0,1,0,0V96h3.16a8.27,8.27,0,0,1,.77-0.9,1,1,0,0,0,.64-0.74c0-.06,0-0.16,0-0.23,0-.35.4-0.22,0.64-0.1s0.24,0.15.36,0.21a0.47,0.47,0,0,0,.24.09,1.08,1.08,0,0,0,1.07-.14,0,0,0,0,0,0,0,1,1,0,0,0,.08-0.23,0.76,0.76,0,0,0,0-.16,0.44,0.44,0,0,1,.07-0.2A26.3,26.3,0,0,1,140.21,93.75Zm5.31-.54h0l-0.1,0,0,0-0.12,0a0.75,0.75,0,0,0-1.12.3h0c0.51,0,1-.11,1.49-0.18h0Zm0.14,0a1.18,1.18,0,0,0,.63-0.12Zm1.13-.32h0Zm0.92-.25a1.11,1.11,0,0,0,0-.13,1.94,1.94,0,0,1-.3-0.13,0.13,0.13,0,0,1,0,0l-0.55-.24,0,0L146.58,92a2,2,0,0,0-1.22,0h0a0.06,0.06,0,0,0-.05.05s0,0,0,0a0.1,0.1,0,0,0,0,.08s0,0,0,0a0.25,0.25,0,0,0,0,.09,0.15,0.15,0,0,1,0,.07s0.21,0,.22.07c0.15,0.5.62,0.49,1.23,0.53,0,0-.61,0,0.06,0l0,0a1.29,1.29,0,0,1,.25,0V92.76a1.36,1.36,0,0,1,.4.24h0a1.2,1.2,0,0,0,.05-0.14,1.16,1.16,0,0,0-.08-0.2A0.92,0.92,0,0,1,147.71,92.66Zm0,0a0,0,0,0,0,0,0h0.11Zm8.34-1h0Zm-5.74-1.21c0.09,0.13.37,0,.35,0.31a11.59,11.59,0,0,1-2.14-.25c-0.76-.23-1.37.35-2.11,0.22a1.53,1.53,0,0,0-1.65.45c0.75,0.16,1.48-.28,2.24-0.08a7.28,7.28,0,0,0,4.26-.09,1.36,1.36,0,0,1,.35,0,2.23,2.23,0,0,1-1.88.73c-0.43,0-.86,0-1.3,0-0.21,0-.51-0.06-0.57.25s0.4,0.13.45,0.39a70.06,70.06,0,0,0,7.34-1,1.46,1.46,0,0,1,0,.21s0,0.36-.06.36h0a0,0,0,0,0,0,0s0,0,0,0h0.12s0-.18,0-0.17a0.3,0.3,0,0,0,0-.1,0.07,0.07,0,0,1,0,0,1.29,1.29,0,0,0,.09.17s0,0.15,0,.15H156V91.57l0-.09a0,0,0,0,0,0,0V91.23a0.26,0.26,0,0,1,0-.09v0h0c0-.41.49-0.09,0.65-0.09h0a0.56,0.56,0,0,1,0,.12,4.6,4.6,0,0,1,1-.12h0s0-.12,0-0.11,0.28-.09.41-0.09a0.42,0.42,0,0,1,0,.12c0.53,0,1.07.08,1.59,0.08h0.61a0.93,0.93,0,0,0,.05-0.18s0-.09,0-0.09a3.92,3.92,0,0,0,.47-0.1,5.43,5.43,0,0,0,.67-0.16C159.47,89.92,151.33,90,150.31,90.46Zm6,0.83h0l-0.09,0-0.08,0H156l-0.32.07,0.16,0.17h0l0,0h0l0,0a0.06,0.06,0,0,0,.05,0h0.08s0,0,0,0a0.05,0.05,0,0,0,0,0l0,0h0a0.22,0.22,0,0,1,.2-0.15,0.29,0.29,0,0,0,.08-0.13l0,0Zm-35,63.38c-0.48-.26-1-0.49-1.44-0.77-0.93-.55-1.81-1.13-2.8-1.62a4.16,4.16,0,0,0-5.21,1,1.1,1.1,0,0,0,.81-0.16c0.76-.23,1.32-1,2.38-0.22,0.91,0.67,2.34.5,3.14,1.62,0.21,0.3.94,0.24,0.39,0.89-0.11.13,0.13,0.21,0.27,0.2,0.78,0,1.56-.06,2.33-0.12A0.44,0.44,0,1,0,121.28,154.67Zm27.77-32.4a3.45,3.45,0,0,0-.95.17,0.44,0.44,0,0,1-.74-0.25c-0.12-.48-0.44-0.43-0.88-0.34,0.39-.43.7-0.73,1-1.07,0.13-.15.5-0.28,0.25-0.53s-0.4.06-.58,0.2c-1.29,1-2,2.47-3.48,3.59,1,0,1.69,0,1.44,1.12-0.09.41,0.45,0.55,0.85,0.45a0.64,0.64,0,0,0,.56-0.82c-0.58-1,0-.82.59-0.72a1.57,1.57,0,0,0,.68,0c0.33-.12.93-0.22,0.78-0.63S148.83,122.72,149.05,122.27Zm37.4-16.89a1.48,1.48,0,0,0-1.71-.73,2.44,2.44,0,0,1-1.23.23,2.6,2.6,0,0,0-1.95.46,2.51,2.51,0,0,0-1.07,1.24c0,0.05-.05.09-0.12,0.24a1.72,1.72,0,0,1,1.17.18,1.34,1.34,0,0,0,1,.19c1.13-.31,2.26-0.65,3.37-1A0.67,0.67,0,0,0,186.45,105.38ZM117.35,97a1.88,1.88,0,0,1-1.26.07,2,2,0,0,0-1.21-.28c-0.75,0-1.41-.11-1.76.33a3.9,3.9,0,0,1-1.47.84l-1.22.65c-0.24.13-.44,0.28-0.27,0.61s0.29,0.57.64,0.43c0.57-.22,1.22-0.14,1.76-0.41a19.08,19.08,0,0,1,4.94-1.51c0.22,0,.62,0,0.56-0.38A0.57,0.57,0,0,0,117.35,97Zm92.8-4.45c-0.48-.16-1.08-1-1.54,0a0.16,0.16,0,0,1-.15,0c-0.64-.61-1.46.2-2.13-0.29a0.61,0.61,0,0,0-.78.18,1.57,1.57,0,0,0,2.26.75,2.34,2.34,0,0,1,1.08,0,4,4,0,0,1-1,.34c-0.2,0-.54-0.07-0.54.27a0.54,0.54,0,0,0,.43.5c0.78,0.19,1.6.67,2.23-.31a2.91,2.91,0,0,1,.55-0.56,0.86,0.86,0,0,1,1.41.13,1.43,1.43,0,0,0,1.95.31A13.92,13.92,0,0,0,210.15,92.56ZM126.8,156.37c-1-1.06-2.44-.76-3.72-0.91-0.3,0-.48.17-0.18,0.5a0.91,0.91,0,0,1,.25,1,1,1,0,0,1-1,0,0.7,0.7,0,0,0-.66,0,0.21,0.21,0,0,0,0,.31,0.73,0.73,0,0,0,.62.18c0.69,0,1.46-.3,2,0.42a0.33,0.33,0,0,0,.3,0c0.51-.77,1.36-0.4,1.81-0.59s0.92,0.19,1.08-.2S127,156.6,126.8,156.37ZM144,95.73a0.26,0.26,0,0,0-.15-0.07,0.44,0.44,0,0,0-.16,0h-0.16a13.66,13.66,0,0,0-2.57.26,8,8,0,0,1-2.73-.1,0.88,0.88,0,0,1-.35-0.11,0.66,0.66,0,0,1-.32-0.46,0.45,0.45,0,0,0-.11-0.24l0,0a0,0,0,0,0,0,0,0.2,0.2,0,0,0-.26,0S137,95,137,95h0a0.27,0.27,0,0,0-.17.21,9.18,9.18,0,0,1-.72,1.13,0.08,0.08,0,0,1,0,0,5.92,5.92,0,0,0,1,.23c1.75,0,3.5,0,5.26.07a2.12,2.12,0,0,0,1.72-.65A0.48,0.48,0,0,0,144,95.73ZM144,92.67c-0.48-.33-0.88-0.84-1.4-1.13a1.6,1.6,0,0,0-.3-0.13,0.23,0.23,0,0,0-.11,0l-0.08,0a1.53,1.53,0,0,0-.57,0c-0.93.12-1.66,0.78-2.59,0.83,0.66,0.35,1.45.1,2.18,0.51a3.92,3.92,0,0,1-1.11.14c-0.18,0-.57-0.21-0.51.31a0.3,0.3,0,0,0,0,.1,0.32,0.32,0,0,0,.06.13,0.18,0.18,0,0,0,.09.07,0.62,0.62,0,0,1,0,.1s0,0.18,0,.18,0.09,0.29.13,0.29h0.05c0.07,0,.14-0.28.21-0.27,1.37,0.07,2.56-.93,3.95-0.93C144.05,92.79,144,92.69,144,92.67Zm-17.33,3a0.44,0.44,0,0,1-.52-0.2c-0.23-.54-0.35-0.57-0.66-0.17a1.27,1.27,0,0,1-2,.3c-0.41-.32-1-0.69-1.32-0.45a5.77,5.77,0,0,1-2.36.95c1.14,0.08,2.28-.36,3.51.11l-2.34.37c1,0.27,6.05-.59,6.52-1.08A5.54,5.54,0,0,1,126.68,95.65Zm7.53,10.91c0.14-.54-0.29-0.64-0.59-0.81a2.58,2.58,0,0,1-.84-0.35c-0.31-.76-0.56-0.17-0.79,0a18,18,0,0,1-1.56,1.49c0.66,0.87,1.35.39,2,0a0.93,0.93,0,0,1,1.31.05,0.69,0.69,0,0,0,1,0C134.63,106.73,134.12,107,134.21,106.56Zm-3.87-8.85c-0.56-.18-1.2-0.69-1.57,0a1.12,1.12,0,0,1-1.49.58c-0.2-.06-0.49-0.16-0.51.1,0,0.45.56,0.53,0.71,0.91a0.37,0.37,0,0,0,.57.2,2,2,0,0,1,1.13-.3c0.74-.11.92-0.56,0.47-1.17Zm3.24-.54a2.59,2.59,0,0,0-2,1c-0.12.15-.29,0.35-0.09,0.53a0.44,0.44,0,0,0,.56-0.07,0.88,0.88,0,0,1,.74-0.47c1.05,0.27,1.78-.43,2.58-0.93A15.51,15.51,0,0,0,133.58,97.17Zm76.89-5.11c1.56,0.46,3.12,1.16,4.71,0A18.11,18.11,0,0,0,210.47,92.06Z"/><path id="_Compound_Path_2" data-name="&lt;Compound Path&gt;" class="cls-3" d="M253.46,152.6a3.72,3.72,0,0,0-2-1.51,1.72,1.72,0,0,1-1.38-1.6l-0.16-.94a4.38,4.38,0,0,0-1.36,1.47,1.28,1.28,0,0,1-1.21.67c-0.4,0-.81.1-1.21,0.11s-1,0-.56-0.76a0.94,0.94,0,0,0-.19-1.19,1.79,1.79,0,0,1-.47-0.61,0.94,0.94,0,0,0-1.33-.82,0.56,0.56,0,0,1-.54-0.21,3.12,3.12,0,0,1-1.13-2.7c0-.52.15-0.89,0.92-0.64a1.59,1.59,0,0,1,1.11.84c0.57,1.43,1.88,2,3,2.81a2,2,0,0,0,2.27.1c0.89-.5,1-0.44,1.41.56a1,1,0,0,0,.67.74c0.73,0.18,1.46.35,2.2,0.47a86.67,86.67,0,0,0-23.37-46.13,1,1,0,0,0,.35.47,0.56,0.56,0,0,1,.05.8,0.54,0.54,0,0,1-.78,0c-0.78-.4-1.35.18-1.88,0.55s0.33,0.62.25,1.1a5.65,5.65,0,0,1-2.79-.59,0.91,0.91,0,0,0,.76.75c0.17,0.07.34,0.18,0.25,0.38a0.43,0.43,0,0,1-.35.2c-0.81-.15-1.82-0.16-2.2-1a3.22,3.22,0,0,0-1.84-1.8,2.85,2.85,0,0,1-.69-0.51,0.58,0.58,0,0,1,.63,0,17.78,17.78,0,0,0,3.88.9,2.56,2.56,0,0,0,1.45-.13,0.9,0.9,0,0,0,.76-0.63,0.83,0.83,0,0,0-.73-0.75c-1-.35-2-0.69-2.94-1a10.53,10.53,0,0,0-2.29-.27c-0.9-.12-1.82-0.37-2.74-0.5a1,1,0,0,1-.32-0.23c0.09-.32.55-0.13,0.54-0.53a1.34,1.34,0,0,0-1.44,0,0.25,0.25,0,0,1-.41-0.16c-0.06-.56-0.27-0.18-0.41-0.07s-0.29.34-.42,0.23c-0.48-.43-0.7,0-1,0.26-0.23-.14.11-1-0.5-0.48a8.25,8.25,0,0,1-2.26.87c-0.91.41-2,.21-2.79,1a1.07,1.07,0,0,1-.46.6c-0.75.25-1.25,0.94-2,1.27a1.71,1.71,0,0,0-.86,1.11,1.6,1.6,0,0,1-1.28,1.2,1.47,1.47,0,0,0-.45.23,6.45,6.45,0,0,1-3.15,2.09,3.69,3.69,0,0,0-.58.42c-0.28.19-.28,0.54,0.17,0.67a0.24,0.24,0,0,1,0,.11c-0.79.27-.06,0.7-0.14,1-0.11.45,0.8,0.9,0,1.32-0.15.08,0,.27,0.13,0.34a1.73,1.73,0,0,0,2,.12c0.6-.48,1.45-0.7,1.71-1.54,0.7,0.92.95,2,1.54,2.9a1.35,1.35,0,0,1,.22,1.14c0.45,0.52.89,1,1.46,0.11a0.7,0.7,0,0,1,.36-0.23c1.27-.51,1.45-0.69,1.37-2a0.77,0.77,0,0,1,.56-0.88l0.4-.17a1.22,1.22,0,0,0,.61-0.87,0.73,0.73,0,0,0-.57-0.58,1.53,1.53,0,0,1,0-2.61c0.41-.26.86-0.46,1.29-0.69a1.22,1.22,0,0,0,1-1.23,1,1,0,0,1,1-.89,2,2,0,0,1,1.88.34,0.33,0.33,0,0,1-.07.53l-2.18,1.7a0.68,0.68,0,0,0-.44.49,3.93,3.93,0,0,0,.44,2,2.21,2.21,0,0,0,2,.79c1-.2,2-0.46,3-0.72,0.21-.05.43-0.17,0.54,0,0.26,0.52.93,0.3,1.29,0.8-1.07.12-2,.66-3.11,0.39a3.86,3.86,0,0,0-1.45.15,0.58,0.58,0,0,0-.22,1.13c0.45,0.12.36,0.48,0.37,0.77,0,0.59-.31.74-0.78,0.48s-0.78-.83-1.34-0.32a1.78,1.78,0,0,0-.42,1.77c0.05,0.31.61,0.67,0.16,0.88-0.62.3-1.25,1.12-2.05,0.43a1.31,1.31,0,0,0-1.6-.06c-0.42.19-.86,0.34-1.28,0.51a1,1,0,0,1-1.33-.27c-0.39-.49-0.83.15-1.26,0.13s-0.75.62-1-.14c-0.3-.09-0.86.14-0.73-0.52,0-.2.58,0.12,0.52-0.36s-0.48-.27-0.62-0.53c0.1-.38,1.13-0.59.22-1.15a0.38,0.38,0,0,1,.06-0.24c0.07-.18.22-0.39,0-0.55s-0.41,0-.6.14a2.08,2.08,0,0,1-.55.25,0.94,0.94,0,0,0-.75,1.16,6.17,6.17,0,0,0,.48,1.47c0.2,0.78,0,1-.81,1.1-1.2.19-2.48,0.26-3.12,1.63a2.17,2.17,0,0,1-1.49,1.11,0.9,0.9,0,0,0-.81.57,2,2,0,0,1-1.83,1.3,1.89,1.89,0,0,1-2.24-1.24l0.34,0a11.8,11.8,0,0,0,2.91-.23c0.25-.06.77-0.16,0.54-0.56s0-.51.22-0.7a0.7,0.7,0,0,0,.28-0.69,0.62,0.62,0,0,0-.68-0.43c-0.36,0-.44-0.08-0.51-0.41a6,6,0,0,0-1.75-2.56c-0.49-.57-0.49-0.7-0.06-1.14a0.77,0.77,0,0,0,.34-0.76c-0.16-.37-0.56-0.18-0.86-0.23a1,1,0,0,1-.68-0.1c0.1-.29.69-0.32,0.51-0.69s-0.58-.08-0.88-0.12c-1-.12-1,1.28-1.89,1.23a0.45,0.45,0,0,0,0,.22c0.32,0.2.17,0.42,0.14,0.71a1.78,1.78,0,0,0,.41,1.31c0.1,0.13.42,0.09,0.24,0.38s-0.35.16-.58,0a1.53,1.53,0,0,0-2.28.5,0.51,0.51,0,0,1-.58.27c-0.87-.12-0.66.88-0.62,0.92,0.73,0.56,0,.79-0.23,1.1s-0.57.41-.11,0.73c0.66,0.47,3.15-.39,3.36-1.18a2.82,2.82,0,0,0,0-.51,2.93,2.93,0,0,1,0-.52c0.06-.22.27-0.43,0.42-0.16a8.67,8.67,0,0,1,1,1.17c0.12,0.32.14,0.46-.11,0.64s-0.6.13-.55,0.46,0.5,0.13.72,0.29a1.72,1.72,0,0,1,.18.19c-0.52.46-1,.92-1.52,1.38a0.68,0.68,0,0,0,.79,0c0.22-.07.5,0,0.38,0.25-0.23.48,0.7,1.28-.41,1.5-0.11,0-.07.19-0.07,0.31,0,0.54.4,0.55,0.77,0.64,1,0.25,2.19,1.57,2.1,2.31-0.08.57-.21,1.14-0.31,1.71a0.86,0.86,0,0,1-1.1.79c-1.49-.15-3-0.24-4.49-0.34a1.35,1.35,0,0,0-1.47,1.12,5,5,0,0,1-.18,3c-0.32.7-.87,1.35-0.09,2.09a0.61,0.61,0,0,1,0,.34c0,1,.09,1.08,1.15.89a0.88,0.88,0,0,1,.87.19,0.47,0.47,0,0,1,.09.12,1.33,1.33,0,0,1,.15.54,5.7,5.7,0,0,1,0,1.15,2.14,2.14,0,0,1-.16.65,3,3,0,0,1-1.63,1.45,3.33,3.33,0,0,0-1.87,2.42,2.27,2.27,0,0,0,0,.52c0,0.13,0,.25,0,0.37a3,3,0,0,1-2.12,2.69c-1.51.55-2.07,2-2.69,3-0.75,1.3-1.61,2.81-2.25,4.19a3,3,0,0,0-.23.75s0,0.08,0,.12a0.6,0.6,0,0,0,.05.31l0.08,0.16,0,0.08,0,0.05c0.06,0.14.13,0.3,0.21,0.45a0.41,0.41,0,0,1,.05.09,1.47,1.47,0,0,1,0,.21c0,0.1,0,.2,0,0.3s0,0.2,0,.3a0.49,0.49,0,0,0,0,.12,5.77,5.77,0,0,1,0,1.17v0.09c0,0.26,0,.51,0,0.75a6.83,6.83,0,0,1-.63,2,2.76,2.76,0,0,0-.33,1.22v0a1.08,1.08,0,0,0,0,.19,1,1,0,0,0,.18.58s-0.15,0-.15,0h0a0.45,0.45,0,0,1,.06.12c0,0.1-.06.21-0.06,0.31v0a5.67,5.67,0,0,0,.05.91,0.63,0.63,0,0,0,.27.41s0,0.24.06,0.25,0,0.3,0,.36a1.58,1.58,0,0,1,0,.2h0a4.68,4.68,0,0,1,1.13,0,1.37,1.37,0,0,1,.11-0.1,2.4,2.4,0,0,0,.35-0.21h0c0,1.18.82,1.68,1.42,2.46a1.25,1.25,0,0,1,.24.56l0,0.21a1.9,1.9,0,0,1,0,.25,2.35,2.35,0,0,0,.08.55,2,2,0,0,0,.07.26,2.92,2.92,0,0,0,.25.46l0.18,0.2a1.87,1.87,0,0,0,.21.19,2.27,2.27,0,0,0,.26.16,10.68,10.68,0,0,1,2.68,2c0.05,0.06,0,.11-0.05.17s0,0.08.11,0.12a2.14,2.14,0,0,0,.49.09h0a0.94,0.94,0,0,0-.11.25c0.09,0.1,0,.37,0,0.37h0a0.78,0.78,0,0,1,.34,0,1.39,1.39,0,0,0,.35,0,2.81,2.81,0,0,0,1.84-.32,4.06,4.06,0,0,1,3.73-.15,1.24,1.24,0,0,0,1.06,0c1.49-.5,2.77-1.5,4.45-1.57s2,0,2.54,1.59a0.76,0.76,0,0,0,1.18.55,6.24,6.24,0,0,1,2-.2c0.56,0,1.33,1.29,1.28,1.92a3.1,3.1,0,0,1-.23,1.53,0.33,0.33,0,0,0,.1.52,1,1,0,0,0,1.46-.62,0.67,0.67,0,0,1,.78-0.69c1.06,0,1-.06,1.39,1.19a0.31,0.31,0,0,1-.19-0.26,0.85,0.85,0,0,0-1.1-.78,0.74,0.74,0,0,0-.73.87,0.45,0.45,0,0,1-.41.49,1.12,1.12,0,0,0-1.33,1c-0.31,1.28-.49,1.92.45,2.91,1.78,1.85,2.45,4.24,3.29,6.55a0.5,0.5,0,0,1,0,.34c-0.47.78,0,1.45,0.23,2.14a1.9,1.9,0,0,1-.08,2.07c-1.18,1.19-1.2,2.78-1.7,4.2a0.91,0.91,0,0,0,.81,1.41c-1.11.14-.89,0.8-0.6,1.16,0.79,1,1,2.28,1.67,3.33a6,6,0,0,1,.87,3.11,20.22,20.22,0,0,0,.6,3.49,2.23,2.23,0,0,0,.66,1.29,3.06,3.06,0,0,1,.84,1.49,11.25,11.25,0,0,0,.95,2.23,1.3,1.3,0,0,1,.18,1.39c-0.43.71,0.13,1.24,0.45,1.68a1.37,1.37,0,0,0,1.57.56,10.29,10.29,0,0,1,3.44-.65,5.07,5.07,0,0,0,3.57-1,12.39,12.39,0,0,0,3.58-4,1.55,1.55,0,0,1,.55-0.66c1.33-.73.91-2.1,1.12-3.2a1.45,1.45,0,0,1,.41-0.93,5.58,5.58,0,0,1,1.47-.72,1.38,1.38,0,0,0,.88-1.14,7.52,7.52,0,0,0-.41-3.65,0.73,0.73,0,0,1,.06-0.82c1.31-1.06,2.23-2.58,3.91-3.21a3.44,3.44,0,0,0,2.09-2.86c-0.05-1.35-.07-2.71-0.1-4.07a0.88,0.88,0,0,0-.18-0.65,4.26,4.26,0,0,1-.83-3.34,0.76,0.76,0,0,0,0-.66c-0.88-.92-0.25-1.75.12-2.62a15.75,15.75,0,0,1,2.26-3.52A16.33,16.33,0,0,1,240,176a10.86,10.86,0,0,0,2.35-2.29c1.5-1.92,2.14-4.28,3.22-6.41a5.51,5.51,0,0,0,.29-2c0-.47-0.13-0.76-0.67-0.43a3.91,3.91,0,0,1-2,.59,18.06,18.06,0,0,0-2.91.67c-0.52.09-1.09,0.44-1.43,0s-1.39-.71-0.74-1.67a0.51,0.51,0,0,0-.24-0.6c-1-.9-1.69-2.15-3-2.77a2.23,2.23,0,0,1-1.12-1.66,3,3,0,0,0-1.11-2,2.32,2.32,0,0,1-1-2.15,3.08,3.08,0,0,0-1.32-2.86,1,1,0,0,1-.39-0.92,1.06,1.06,0,0,0-.13-0.75c-1.26-1.6-1.65-3.69-2.91-5.3a1.21,1.21,0,0,1-.29-0.92,3.37,3.37,0,0,1,.71,1.12,1.13,1.13,0,0,0,.89.85c0.53,0,.34-0.64.51-1a1,1,0,0,1,.11-0.19,2,2,0,0,0,.21.85c0.95,0.81,1.37,2,2.13,2.94,0.39,0.48.31,1.2,0.89,1.56a2.93,2.93,0,0,1,1.38,2.46,2.4,2.4,0,0,0,1.16,2.11,2.28,2.28,0,0,1,1,1.2,5.62,5.62,0,0,0,1,1.62,2.46,2.46,0,0,1,.83,1.59,13,13,0,0,0,.57,3.23c0.16,0.87.56,1.17,1.34,0.8,1-.46,2-0.78,3-1.16,1.17-.43,2.12-1.29,3.36-1.53a1.12,1.12,0,0,0,1-.64c0.28-1.13,1.22-1.19,2.07-1.42a1,1,0,0,0,.77-0.31c0.42-.81,1.36-1,1.91-1.76a1.59,1.59,0,0,0,.57-1.12,1,1,0,0,1,.54-1,3.32,3.32,0,0,0,1.08-1.54A0.48,0.48,0,0,0,253.46,152.6Zm-74.8,1.7a1.32,1.32,0,0,1,.21.43C178.68,154.47,178.53,154.11,178.66,154.3Zm48,25.57c0.06-.31,0-0.64.1-1a1.54,1.54,0,0,1,1.71-1,0.82,0.82,0,0,1,.42.28,1.06,1.06,0,0,1-.17,1.41c-0.44.43,0,1.68-1.27,1.32C226.37,181.25,226.53,180.57,226.67,179.87Zm-2.59,2.42a38.53,38.53,0,0,0,1.71,5.57A6.7,6.7,0,0,1,224.08,182.29Zm5.15-43.85c-1.13.78-.41,2-0.76,3-0.43,1.21-1.4,1.79-2.53,1.16a2.06,2.06,0,0,0-2.11.12,1.18,1.18,0,0,1-.72.26c-1.33-.32-2.67-0.64-4-1a11.41,11.41,0,0,1-2.51-1,1.51,1.51,0,0,0-2.07,1.62,0.94,0.94,0,0,1-.46,1,0.86,0.86,0,0,1-1.12,0,3.43,3.43,0,0,0-2-.84,1.1,1.1,0,0,1-.93-0.55,2.17,2.17,0,0,0-2.2-1.22,1.92,1.92,0,0,1-2.17-2.47,0.65,0.65,0,0,0,.05-0.74c-0.52-.51-0.34-1,0.11-1.53a1.05,1.05,0,0,1-1-.27,0.54,0.54,0,0,0-.64-0.1c-1.51.55-3.08,0.33-4.63,0.45a8,8,0,0,0-4.07,1,5.86,5.86,0,0,1-4.16.84c-0.2,0-.51-0.09-0.37-0.32,0.25-.42-0.12-1.14.62-1.3a3.93,3.93,0,0,1,.69,0,4.66,4.66,0,0,0,3.22-2.2,0.37,0.37,0,0,0,0-.25,1.05,1.05,0,0,1,.07-1.22,3.63,3.63,0,0,1,1.62-1.4c0.83-.25,1.55-0.6,1.4-1.74-0.08-.62.48-0.75,1-0.78,0.79,0,1.45.51,2.27,0.47a1.06,1.06,0,0,0,1.15-.69,0.83,0.83,0,0,1,.86-0.71,1.15,1.15,0,0,1,1.1.72c0.2,0.6.81,1,1,1.47a1.88,1.88,0,0,0,2.08,1.42c0.78,0,1.57.91,2.09,1.66s0.2,1.27-.69,1.49a5.25,5.25,0,0,1-1.72.09,0.52,0.52,0,0,0-.63.36c0,0.29.24,0.35,0.44,0.45,0.49,0.26,1,.53,1.46.77s0.75,0.06.7-.46a0.63,0.63,0,0,1,.57-0.85c0.47-.08.5-0.69,0.82-1,0.54-.43.27-0.71-0.07-1a0.39,0.39,0,0,1,.05-0.55,0.62,0.62,0,0,1,.8,0c0.21,0.07.38,0.54,0.62,0.22s-0.11-.62-0.38-0.73c-1.05-.4-1.72-1.39-2.85-1.69-0.76-.2-0.9-1-1.2-1.61a1.83,1.83,0,0,0-.9-1.21,0.55,0.55,0,0,1-.2-0.69,0.7,0.7,0,0,1,.64-0.36c0.34-.09.36,0.16,0.4,0.4a0.51,0.51,0,0,0,.21.35c1.31,0.08,1.49,1.72,2.56,1.94s1.43,0.93,2.18,1.31a0.6,0.6,0,0,1,.46.56,3.12,3.12,0,0,0,1.12,2.76,4.34,4.34,0,0,1,1.09,2.09,1,1,0,0,0,1.12.66c0.17,0,.36-0.13.25-0.23-0.46-.45.53-0.6,0.17-1-0.1-.13.2-0.19,0.3-0.12a0.46,0.46,0,0,0,.71-0.25,0.57,0.57,0,0,0-.42-0.67c-0.86-.28-0.84-1.12-1.4-1.88,0.66,0.12,1.19.67,1.38-.3a1.79,1.79,0,0,1,1.59-.18,0.59,0.59,0,0,1,.4.87,0.57,0.57,0,0,0,.28.66c0.33,0.24.61,0.58,0.17,1-0.1.1-.15,0.26-0.06,0.3,0.73,0.32.67,1.41,1.59,1.59a2,2,0,0,1,1.19.64,0.69,0.69,0,0,0,1.08-.08c0.51-.81,1.05-0.38,1.44,0a1.43,1.43,0,0,0,2.15-.06c0.49-.45,1.06.08,1.59-0.33a4.42,4.42,0,0,0,0,1.75A0.4,0.4,0,0,1,229.23,138.44Zm4.48-7.67a1.43,1.43,0,0,1-1.34.78,7.37,7.37,0,0,1-4.18-.8,3.15,3.15,0,0,0-3.13.17,3.65,3.65,0,0,1-2.59.39,1.44,1.44,0,0,1-1-2.39,1.44,1.44,0,0,0,.24-0.81,0.74,0.74,0,0,1,.45-0.76c0.59-.29.36-1.09,0.94-1.52,0.77-.56.84-0.71,1.53-0.06,0.33,0.31.81-.06,1.17,0.29a2.3,2.3,0,0,0-.63.57c0.28,0.29.87,0.3,0.85,0.93,0,0.31.34,0.25,0.55,0.14a3.65,3.65,0,0,1,1.69-.59,0.28,0.28,0,0,0,.3-0.26c0-.25-0.19-0.26-0.37-0.25a3,3,0,0,1-.51,0,0.8,0.8,0,0,1-.69-0.58,0.62,0.62,0,0,1,.51-0.5c0.78-.44,1.74-0.43,2.48-1a1.32,1.32,0,0,1,.72.1c0,0.43-.31.43-0.5,0.57s-0.35.11-.21,0.28c0.53,0.64-.21.9-0.44,1.18s-0.3.5,0.1,0.63c1.35,0.46,2.24,1.61,3.48,2.23A1,1,0,0,1,233.71,130.77Zm7.34,3.43c0.18-.66.1-1.45,0.77-1.92-0.86-.79-1.7-1.52-2.5-2.3s-0.68-1.61-1.3-2.31a1.32,1.32,0,0,1,.42-1.37,12.25,12.25,0,0,1,2.66-1.51,1.61,1.61,0,0,1,2.22,1.53c0,0.48,0,.52-0.48.47-0.86-.1-1,0.06-0.74.84-0.21.23-.49-0.14-0.76,0.13,0.85,0.45,1.26,1.33,2.08,1.88a1.89,1.89,0,0,0,1.57.4,0.67,0.67,0,0,1,.62.26c-0.12.26-.41-0.11-0.49,0.12a0.5,0.5,0,0,0,.25.51c0.19,0.19.58,0.29,0.43,0.66a0.76,0.76,0,0,1-.75.33c-0.26,0-.57,0-0.64.31s0.29,0.3.43,0.45a3.89,3.89,0,0,1,.9,1.91c0.36,1.77.36,1.77-1.45,1.94a1.87,1.87,0,0,1-1.09-.24,9.79,9.79,0,0,0-1.66-.89A1,1,0,0,1,241.05,134.2Z"/><g id="_Group_2" data-name="&lt;Group&gt;"><polygon id="_Path_" data-name="&lt;Path&gt;" class="cls-2" points="136.86 237.41 136.85 237.41 136.85 237.41 136.86 237.41"/><path id="_Compound_Path_3" data-name="&lt;Compound Path&gt;" class="cls-2" d="M109.53,155.46c0.17-.09.15-0.14,0,0h0Zm17.32,10.26c0.39-.27-0.34-0.49-0.78-0.58a0.64,0.64,0,0,1,.52.38,0.83,0.83,0,0,0,1.06.66C127.06,166,126.64,165.87,126.85,165.72ZM104,104.63v0h0l0.2,0h0v0A0.49,0.49,0,0,0,104,104.63Zm0,0v0h0s0,0,0,0l0.2,0h0v0A0.49,0.49,0,0,0,104,104.63Zm0,0v0h0s0,0,0,0a0,0,0,0,0,0,0H104l0.2,0h0v0A0.49,0.49,0,0,0,104,104.63Zm-0.06,0h0a0,0,0,0,0,0,0h0Zm0,0h0Zm0,0h0Zm55.64,80.05a0.73,0.73,0,0,0-.65-0.62,3.57,3.57,0,0,1-2.5-1.39c-0.81-.79-1.68-1.51-3-1.21a1.67,1.67,0,0,1-1.18-.22,1.28,1.28,0,0,0-1.67,0c-0.35.29-.48,0.11-0.5-0.31a0.9,0.9,0,0,0-.34-0.92c-0.75-.37-1.51-0.74-2.28-1.05a0.75,0.75,0,0,0-1,.3,1.56,1.56,0,0,1-2.31.91A1.68,1.68,0,0,0,144,180c-1-1-.64-1.85.25-2.7a0.84,0.84,0,0,0,0-1.45,2.56,2.56,0,0,1-.55-1.43,1.43,1.43,0,0,0-.23-0.73c-1-.68-1.54-1.86-2.86-2.13-0.71-.15-1.38.09-2.06,0a0.74,0.74,0,0,0-.93.57c-0.05.18-.1,0.4-0.4,0.35,0.17-.5.57-1,0.07-1.5a0.72,0.72,0,0,0-1.12-.16,2.22,2.22,0,0,0-2.44-2.43c0.33-.59.05-1.32,0.65-1.85a0.71,0.71,0,0,0-.13-1c-0.61-.59-0.42-0.91.32-1.12s0.94-.77.56-1.18a5.77,5.77,0,0,1-.81-1.93l0,0a1,1,0,0,0-1.31.55,0.76,0.76,0,0,0,.36,1c0.81,0.46.31,0.69-.15,0.89-0.91.38-1.07,0.8-.48,1.55,0.46,0.57.14,0.73-.36,0.73a3,3,0,0,0-1.62.43,1.43,1.43,0,0,1-1.7-.06,1.31,1.31,0,0,0-1-.18l-0.31,0c1,0.27,2.35.54,2.35,0.8v0.26c0,0.21-3.16.43-3.39,0.49a4.9,4.9,0,0,1-2-.34c0-.83-0.63-1.66-0.54-2.49,0,0-.25-0.1-0.18-0.15s0.29-.25.05-0.52a0.53,0.53,0,0,0-.77.11,4.69,4.69,0,0,1-1.94,1c-0.95.21-1.89,0.56-2,1.78a1.33,1.33,0,0,1-.6.73,1.74,1.74,0,0,0-.69,1.08c-0.29-.3-0.5-0.51-0.69-0.72a1.72,1.72,0,0,0-2.54-.52c-0.62.31-1.31,0.75-1.92,0.13-0.91-.92-1.82-1.91-1.41-3.41,0.18-.67.31-1.35,0.53-2,0.46-1.41-.13-2.31-1.63-2.34a25.31,25.31,0,0,1-2.75.12,0.66,0.66,0,0,1-.63-0.17c-0.14-.22.11-0.35,0.22-0.5a4,4,0,0,0,.55-2c0-.19-0.12-0.44.22-0.41,0.54,0,.52-0.38.6-0.68,0.13-.51.26,0,0.57-0.44a1.22,1.22,0,0,1,.43-0.36,1.69,1.69,0,0,1-1,.38h-0.09c-1.36,0-2.16-.77-2.63.46-0.2.52-.56,0.36-0.91,0.79-0.22.27-.42,0.17-0.8,0a1.83,1.83,0,0,0-1.18,0c-1.66.42-2.48-.08-3.08-1.71-0.09-.24-0.2-0.51-0.31-0.75a5.08,5.08,0,0,1-.31-2.79c0.16-1.63,1.28-3,1.24-4.64a2.18,2.18,0,0,1,.89-1.33c0.63-.6,1.6-0.47,2.18-1.18a1.72,1.72,0,0,1,1.85-.53c0.69,0.23,1.58-.24,2.08.61a0.51,0.51,0,0,0,.41,0,0.9,0.9,0,0,1,1.21.24c-0.22-.57-0.36-1-0.49-1.32a13.07,13.07,0,0,1,1.8-.27c0.89,0,1.89-.35,2.57.6a0.41,0.41,0,0,0,.55.09c0.47-.22.91-0.46,1.21,0.23a1.84,1.84,0,0,1,.45,1.33,4,4,0,0,0,.71,3.22c0.4,0.61.72,0.58,1-.08a3.55,3.55,0,0,0,.3-2.11c-0.15-.91-0.25-1.83-0.32-2.75a2.66,2.66,0,0,1,.78-2.14,13.44,13.44,0,0,1,3.07-2.19c1.06-.59,1.89-1.45,2.95-2,0.53-.3-0.28-0.34-0.36-0.57,0.58-.25.77-0.43,0.7-0.74a4.74,4.74,0,0,1,.59-2.76,0.28,0.28,0,0,1,.08.25c-0.11.4-.27,1,0.21,1s0.63-.46.68-0.9c0-.16-0.07-0.43.2-0.39a1.27,1.27,0,0,0,1.23-.9,2.64,2.64,0,0,1,1.12-1.1c0.39-.19.84-0.25,1.2-0.45,0.65-.37,1.78.13,1.86-1.36,0.07-1.29,1.54-1.88,2.54-2,1.37-.19,2.26-1.27,3.63-1.42a1.25,1.25,0,0,1,1.48.39c-0.78.36-1.76,0.2-2.39,0.9-0.17.19-.5,0.35-0.32,0.63a0.48,0.48,0,0,0,.76,0,4.25,4.25,0,0,1,2.56-1.11,6.5,6.5,0,0,0,1.18-.45,0.61,0.61,0,0,0-.72-0.3,4,4,0,0,1-.84-0.21,1.25,1.25,0,0,1-.8-1.81c0.12-.32-0.07-0.23-0.22-0.29s-0.55-.24-0.87-0.39c0.51-.39,1,0,1.49-0.26,0.29-.16.76-0.19,0.65-0.66s-0.51-.34-0.8-0.3a8,8,0,0,0-4.14,1.64,2.88,2.88,0,0,1-1.7.89,3.41,3.41,0,0,1,.78-0.7,19.84,19.84,0,0,1,3.62-2.34,5.4,5.4,0,0,1,1.92-.87,21.64,21.64,0,0,1,3.12.06,3.5,3.5,0,0,0,2.78-.62,3.71,3.71,0,0,1,1.49-.66,2.44,2.44,0,0,0,2-1.26c0.69-1.17-.63-0.8-0.6-1.33,0-.26-0.34-0.13-0.51-0.07-0.6.2-1.19,0.44-1.78,0.67a0.29,0.29,0,0,1-.46-0.2c-0.12-.38.15-0.26,0.32-0.31l2.32-.79a2.17,2.17,0,0,0-.22-0.18,0.52,0.52,0,0,0-.16-0.06c-0.76-.13-1.64,0-1.73-1.2,0-.42-0.9-0.78.07-1.18,0.16-.06,0-0.29,0-0.37,0.2-.5-0.56-0.73-0.39-1a1.82,1.82,0,0,0-.08-1.27c0-.43-0.31-0.47-0.59-0.16-1.2,1.33-2.83,1.65-4.57,2,0.32-.46,1.14-0.36,1-0.92s-0.59.09-.91,0a1.28,1.28,0,0,1-.15-0.16c0.28-.39,1.25-0.64.33-1.35a2.4,2.4,0,0,0,.67-0.2c0.3-.18.43-0.53,0-0.63a2.07,2.07,0,0,1-1.2-1,0.64,0.64,0,0,0-.72-0.37,3.39,3.39,0,0,1-2-.12,1,1,0,0,0-1.29.66c-0.53,1-.76,2.24-2,2.77-0.38.16-.53,0.46-0.17,0.81a1.18,1.18,0,0,1,0,1.59,4.83,4.83,0,0,1-3,2,1,1,0,0,0-1,1.12,4.49,4.49,0,0,1-.5,1.63c-0.28.78-1.14,1-1.68,1.61,0,0-.13-0.09-0.2-0.13a2.33,2.33,0,0,1-.84-2.37,5.49,5.49,0,0,1,.56-1.26c0.54-.76.11-0.88-0.52-0.89a3.65,3.65,0,0,1-3-1.44,1.59,1.59,0,0,0-.59-0.34,3.73,3.73,0,0,0-2.69,0c0.55-.86.8-1.61,0.62-1.79-0.33-.32-0.55.21-1,0.12,1.35-2.86,3.89-4,6.64-5-0.42-.48-1.14-0.23-1.54-0.9a6.62,6.62,0,0,0,5.7-1,6.94,6.94,0,0,1-2.09-.84,2.61,2.61,0,0,1,1.72.2,1.23,1.23,0,0,0,1.76-.38,1,1,0,0,1,1.41-.39c0.22,0.09.77,0.47,0.59-.34-0.05-.21.25-0.18,0.31-0.11,0.77,0.78,1.44,0,2.13-.14a0.53,0.53,0,0,0,.47-0.63,0.68,0.68,0,0,1,.58-0.88c0.37-.13.51-0.41,0-0.69-0.93-.5-1.23-0.45-1.85.42a0.54,0.54,0,0,1-.19.18c-0.86.3-1.5,1-2.32,1.33-0.24.1-.58,0.48-0.83,0.09a0.65,0.65,0,0,1,.31-1c0.27-.13.51-0.28,0.28-0.58s-0.48-.08-0.69.07a1.91,1.91,0,0,1-1.22.62c0.56-.74,0-1.09-0.41-1.49a3.34,3.34,0,0,1,.35-0.23,1,1,0,0,0,.53-1.3c-0.24-.47-0.8-0.28-1.23,0a0.87,0.87,0,0,1-.41.14,1.52,1.52,0,0,0-1.24,1.12c-0.16.39,0.67,0.31,1,.54a0.3,0.3,0,0,1,.09.13,3,3,0,0,1-1.63,1.2,2.12,2.12,0,0,0-1.48.93,0.73,0.73,0,0,1-.93.39c-0.31-.26.2-0.51,0.31-0.78,0,0,.07-0.1.09-0.15,0.12-.28.11-0.55-0.23-0.61s-0.34.14-.25,0.43-0.18.31-.39,0.31a8.49,8.49,0,0,1-.86-0.06c-1.23-.15-2.5.09-3.7-0.35a2.56,2.56,0,0,0-3.15.89,1.09,1.09,0,0,1-.67.48c-0.3,0-.27-0.38-0.33-0.62a0.59,0.59,0,0,0-.76-0.51c-0.43.06-.86,0.16-1.29,0.18a3,3,0,0,1-2-.32c0.32-.46.91-0.19,1.17-0.61a0.82,0.82,0,0,0-.86-0.25,4,4,0,0,1-1.37-.18c-1.15-.45-2.29-1.06-3.55-0.31-0.16.09-.51,0.16-0.35-0.29a0.59,0.59,0,0,1,0-.07c-1.08,1-2.15,2.12-3.18,3.22-0.34.08-.68,0.14-1,0.2l0.17,0.06a0.5,0.5,0,0,1,.21,0,0.28,0.28,0,0,0,.13,0s0.07,0.16.11,0.16,0.06,0.17.09,0.17h0a1.26,1.26,0,0,1,0-.19v-0.09l0,0,0,0h0l0,0,0.06,0h0c0.26,0,.58-0.19.82-0.25s0.4-.13.6-0.18,0.42-.05.62-0.09a1.42,1.42,0,0,1,.36,0h0c0.11,0,.21-0.09.32-0.1s0.24-.07.37-0.08,0.48-.06.73-0.07a0.28,0.28,0,0,1,.31.09,0.15,0.15,0,0,1,0,.08,0.07,0.07,0,0,1,0,.06l-0.16.13-0.09.07a0.78,0.78,0,0,0,.58,0,0.86,0.86,0,0,1,.68.06,2.92,2.92,0,0,1-2,.85,4.17,4.17,0,0,0-1.67.64,2.78,2.78,0,0,1-2.06-.06c0.31-.46.82-0.43,1-0.83l-0.06-.06a0.65,0.65,0,0,0-.06.12,0.38,0.38,0,0,0-.26.08H104a79,79,0,0,0-12.6,17.31c-0.07.12-.14,0.15-0.2,0.27a95.75,95.75,0,0,0-7.43,18.57,0.85,0.85,0,0,1,0,.23c0,0.17.24,0.32,0.24,0.49h0c0,1.2-.25,2.46.75,3.46a0.7,0.7,0,0,1-.36,1.14c-0.69.18-.42,0.42-0.23,0.69a1.61,1.61,0,0,0,.72.56,1.19,1.19,0,0,1,.84,1.41,1.45,1.45,0,0,0,.6,1.51,2.57,2.57,0,0,1,.83,1.09,0.28,0.28,0,0,0,.39.23,0.39,0.39,0,0,0,.31-0.46,1.07,1.07,0,0,0-.46-0.8A0.74,0.74,0,0,1,87,150a16.76,16.76,0,0,0-1.77-5.55,3,3,0,0,1,0-2c0.05-.26.26-0.32,0.54-0.22a1,1,0,0,1,.88,1.17,3.56,3.56,0,0,0,.12,2c0.65,1.14,1.95,1.91,1.88,3.46a0.6,0.6,0,0,0,.21.26,11.65,11.65,0,0,1,2.24,3.16,2.34,2.34,0,0,1,.08,2.54,0.86,0.86,0,0,0,.15,1.18,9.06,9.06,0,0,0,1.85,1.55c1.49,0.86,3.05,1.59,4.59,2.36a2.23,2.23,0,0,0,2.39.15,1.34,1.34,0,0,1,2.12.48c0.94,1.5,2.44,2,4,2.5a1.41,1.41,0,0,0,1.25.06c0.28-.16.47,0.06,0.38,0.24-0.24.47,0.18,0.59,0.33,0.87,0.37,0.64,1.29,1,1,2-0.18.68,0.18,0.83,0.73,1a1.4,1.4,0,0,1,1.24,1,0.59,0.59,0,0,0,.63.57,3,3,0,0,1,1.92.86c0.21,0.15.33,0.42,0.66,0.25s0.21-.39.18-0.66a1.37,1.37,0,0,1,1.16-1.15c0.4,0.19,1.14.25,0.8,1.07a0.77,0.77,0,0,0,.22.72c1.05,1.33.61,2.9,0.5,4.32-0.07,1-1.21,1.83-1.92,2.58a8,8,0,0,0-1.28,2,3,3,0,0,0-.32,1.76c0,0.32.2,0.63,0.53,0.55,1-.25.43,0.41,0.33,0.6a4.85,4.85,0,0,1-.74.84,1.18,1.18,0,0,0-.37,1.26c0.28,0.77.29,1.67,1.2,2.1a2.13,2.13,0,0,1,.57.75c1.09,1.64,1.7,3.54,2.79,5.19a4.93,4.93,0,0,1,1,1.9,2.57,2.57,0,0,0,.85,1.46,10.37,10.37,0,0,0,3,1.92,4.73,4.73,0,0,1,2.55,2.21,8.34,8.34,0,0,1,.59,5.09,1.19,1.19,0,0,0,0,.42,21.59,21.59,0,0,1,.3,4.47,6.91,6.91,0,0,0,.13,2.82c0.17,0.45-.14,1.1.13,1.65,0.73,1.54.54,3.14,0.44,4.77-0.07,1.07-.7,2.18.05,3.26a3,3,0,0,1,.51,2c-0.05,1,.58,2,0.59,3.09a0.26,0.26,0,0,0,.33.3c0.2-.07.13-0.28,0.11-0.45s-0.12-.63-0.14-0.94a0.38,0.38,0,0,1,.29-0.39,0.27,0.27,0,0,1,.34.19,1.6,1.6,0,0,1,.38.67c-0.05,1.4.67,2.66,0.76,4,0,0.17.14,0.36-.05,0.46a0.4,0.4,0,0,1-.38-0.11c-0.5-.67-0.69-0.16-1,0.18,0.41,0.38,1.24.27,1.29,0.68,0.09,0.77.65,0.78,1.19,1-0.55.27-.46,0.87-0.83,1.22a0.37,0.37,0,0,0,.21.6c0.58,0.2.17-.31,0.34-0.4a0.33,0.33,0,0,1,.38-0.11c0,1,.73,1.62,1.28,2.38,0.1,0.14.19,0.4,0.46,0.26,0.45-.23.66,0.09,0.83,0.38a1.28,1.28,0,0,0,.89.66c-0.32.27-.73,0.43-0.44,0.86a1.26,1.26,0,0,0,1.17.43c0.42,0,.43-0.28.39-0.6a0.56,0.56,0,0,1,.4-0.66l0.26-.07,0.17,0c0.16-.31.55-0.56-0.1-0.9a1,1,0,0,1-.08-1.66,0.55,0.55,0,0,0,.29-0.57,1.28,1.28,0,0,1,.48-1.38,0.78,0.78,0,0,0-.4-1.41,2.58,2.58,0,0,1-.8-0.34c-1-.63-1-1.29,0-1.91a0.82,0.82,0,0,0,.52-0.64c-0.12-.93.26-1.94-0.52-2.75a2.93,2.93,0,0,1-.42-0.85c-0.18-.41,0-0.55.39-0.45a2.76,2.76,0,0,0,1.26.25c0.32-.07.79-0.11,0.59-0.63s0-1.26-.55-1.91a7.13,7.13,0,0,0,3-.19c1-.14,1.25-0.91,1.6-1.65s-0.2-.87-0.54-1.21a0.46,0.46,0,0,1-.15-0.3,1.54,1.54,0,0,0-1-1.29,0.74,0.74,0,0,1-.49-0.88,4.75,4.75,0,0,0,1.94.84c0.76,0.19,1.71.48,2.26-.27a4.31,4.31,0,0,0,1.2-2.81c0-.71.61-1.17,0.68-1.85,0-.14.28-0.18,0.37-0.11,0.58,0.48.49-.11,0.59-0.36a3.22,3.22,0,0,1,.34-0.8,3,3,0,0,0,.51-3.09,1.69,1.69,0,0,1,.57-1.84,19.77,19.77,0,0,1,2.47-1.66,3.18,3.18,0,0,1,2.23-.62,1.05,1.05,0,0,0,.87-0.38,6.37,6.37,0,0,0,1.05-2c0.82-1.37.75-2.92,1.15-4.36a9.54,9.54,0,0,0-.1-3.53,1,1,0,0,1,.39-1.21,1.3,1.3,0,0,0,.91-1,4.42,4.42,0,0,1,1.08-1.65A4.78,4.78,0,0,0,159.56,184.69ZM117.32,129a2.2,2.2,0,0,1-1.08,1.59,0.48,0.48,0,0,1-.56.11,0.46,0.46,0,0,1-.12-0.62,4.9,4.9,0,0,1,.68-1.49,7.62,7.62,0,0,0,.8-1.23c0.05-.1.09-0.19,0.14-0.27a0.86,0.86,0,0,1,.1-0.16,1.4,1.4,0,0,1,.12-0.18l0.12-.14,0.1-.1,0.11-.08a0.41,0.41,0,0,1,.11-0.07l0.12-.06a3.55,3.55,0,0,1,.92-0.25l0.44-.07h0.17a0.28,0.28,0,0,1,.29.15,0.39,0.39,0,0,1-.22.43,4.68,4.68,0,0,1-1,.69A2.08,2.08,0,0,0,117.32,129Zm7.83,0h-0.09a5.09,5.09,0,0,0-.17.48,0.22,0.22,0,0,1,.11.12h0v0.1a1.33,1.33,0,0,1,0,.21,0.22,0.22,0,0,1,0,.11h-0.15s0-.2,0-0.26c-0.19,0-.46-0.07-0.6-0.06a4.31,4.31,0,0,0-.34.59l0,0.73h0a22,22,0,0,0-3.77.81,0.78,0.78,0,0,1-.59-0.6,0.23,0.23,0,0,1,.06-0.22,3.44,3.44,0,0,1,.92-0.46,8,8,0,0,1,3.17-.88l0.5,0a1.64,1.64,0,0,1,.69-0.58l-0.06-.08a0.82,0.82,0,0,1-.21-0.33c0-.07.07-0.12,0.24-0.16,0.91-.23,1.26-0.49,2.21-0.69A1.42,1.42,0,0,1,125.15,129Zm-9.36-4.78a8.47,8.47,0,0,0,1.76-.93,2.22,2.22,0,0,1,3.39.56,1.57,1.57,0,0,1,0,.92,0.69,0.69,0,0,0,.78.88,5,5,0,0,1,1.68.36,0.89,0.89,0,0,1,.6,1.18,0.63,0.63,0,0,1-.95.42c-0.56-.18-0.73.34-1,0.64s-0.38.58-.62,0.82-0.58.25-.53-0.18c0.12-1.09-.48-0.49-0.88-0.39l-0.16-.18a4.61,4.61,0,0,0,.78-0.66,0.7,0.7,0,0,0,.08-1c-0.27-.25-0.71-0.42-0.05-0.76,0.19-.1,0-0.4-0.24-0.42-1.23-.15-2.46-0.41-3.69-0.48-0.71,0-1.47.41-2.3,0A4.31,4.31,0,0,1,115.79,124.2Zm-3.26-6.76a0.71,0.71,0,0,1,.74,0,0.68,0.68,0,0,1,.27.71c-0.44.71-.1,1.75-0.7,2.53-0.16.2-.35,0.52-0.61,0.35s0.07-.38.15-0.57a0.73,0.73,0,0,0-.19-1.07A1.5,1.5,0,0,1,112.53,117.44Zm-5.89-9.4a1.57,1.57,0,0,1,.4.14c1,0.84,2,.37,3.05-0.09a1.73,1.73,0,0,1,1.88,0c-1.6.16-2.89,1.17-4.43,1.48a12.16,12.16,0,0,1-1.9.54,4.44,4.44,0,0,1-1.77-.32C106.49,108.89,106.49,108.89,106.64,108ZM104,104.66h0l0.2,0h0v0a0.49,0.49,0,0,0-.2,0v0h0s0,0,0,0a0,0,0,0,0,0,0h0Zm-0.05,0h0v0a0,0,0,0,0,0,0h0Zm0,0h0Zm0.1,0v0h0s0,0,0,0l0.2,0h0v0A0.49,0.49,0,0,0,104,104.63Z"/></g><path id="_Path_2" data-name="&lt;Path&gt;" class="cls-3" d="M152.84,95.18c0-.22.9-0.08,0.17-0.56,0.71-.29,1.65.27,2.42-0.68a7.51,7.51,0,0,1-3.54-.87c2.3-.69,4.7-2.07,6.86-2.07h-1.36a28.45,28.45,0,0,1,3.57-.13,0.81,0.81,0,0,0,.49.11,1.57,1.57,0,0,1,2-.09c0.43,0.23.34-.28,0.53-0.31a3.23,3.23,0,0,1,2.11.08,0.82,0.82,0,0,0,.77.12,2.83,2.83,0,0,1,.94,0c0.36,0,.91.54,1-0.34,0-.17.42-0.08,0.64,0,0.6,0.11,1.19.26,1.78,0.38a2.09,2.09,0,0,0,1.73-.5,0.36,0.36,0,0,1,.22-0.08c2.57,0.24,5-.84,7.61-0.53a5.15,5.15,0,0,1,.67.06c-1.14.23-2.33-.1-3.45,0.37a43.5,43.5,0,0,1,7.37.12c-2.18.45-4.29,0.11-6.35,0.5,1.21,0.21,2.42-.18,3.76.07l-0.88.19c1.19,0.3,2.12-.37,3.21-0.2-0.38.49-1,.38-1.48,0.89a25.27,25.27,0,0,1,7-.78,5.42,5.42,0,0,1-2.09.52c-0.75,0-1.5.19-2.24,0.14-0.54,0-.51.35-0.44,0.53,0.21,0.55-.06.74-0.49,0.86a2.74,2.74,0,0,0-1.27,1,5,5,0,0,0,2,.57c-0.9.12-1.82-.17-2.67,0.26a1.67,1.67,0,0,0,.57.61,0.75,0.75,0,0,0-.73.79c-0.06.34,0.34,0.09,0.41,0.3-0.27.29-1,0-1,.65,0,0.46.61,0,.82,0.36a0.73,0.73,0,0,1-.88.1,3.28,3.28,0,0,0-1.94-.21,5.85,5.85,0,0,1-1.69.4,0.26,0.26,0,0,0-.21.33,0.35,0.35,0,0,0,.39.28,5.47,5.47,0,0,1,1.55.44c0.74,0.1.91,0.78,1.2,1.34a1.37,1.37,0,0,1-1.71-.38c-0.53-.61-1.52-0.45-2.24-0.83-0.11-.06-0.21.08-0.21,0.21a0.24,0.24,0,0,0,.21.32,5.14,5.14,0,0,1,1.1.23c-0.74.3-1.63,0-2.17,0.7a1.73,1.73,0,0,0,1.85.33,2.51,2.51,0,0,1,1.73.17,10.55,10.55,0,0,1-4.82,1.54c-0.59.08-1.23,0.49-1.82-.08a0.2,0.2,0,0,0-.3.05,7,7,0,0,1-3.33,2.14,0.92,0.92,0,0,1-1-.07,0.44,0.44,0,0,0-.3-0.12c-0.87.83-2.3,0.59-3.08,1.76a3.22,3.22,0,0,1-2.13,1.8,0.32,0.32,0,0,0-.2.25c0.18,1.25-1.44,1.31-1.56,2.37a1.34,1.34,0,0,1-1-.61c0.06-.73-0.4-0.39-0.66-0.33a1.69,1.69,0,0,1-2.18-1.82,0.94,0.94,0,0,0-.07-0.5c-0.21-.37-0.1-0.47.28-0.59s0.77-.14.66-0.61a0.44,0.44,0,0,0-.76-0.28,0.55,0.55,0,0,1-.31-0.24c-0.08-.16.06-0.27,0.21-0.32s0.44-.11.67-0.19a1.93,1.93,0,0,1-.89-0.52c0.32-.19-5.08-0.34-4.7-0.41s-5.2-.1-5.2-0.65v-0.08s6.13-1.59,7.2-1.7c0.15,0,3.22-.41,3.12-0.68s1.06-.21.84-0.22c-0.47,0-.17-0.2-0.64-0.42a4,4,0,0,1,1.9.14c0.62,0.14,1-.12.81-0.71a1,1,0,0,0-1.59-.6,0.74,0.74,0,0,1-1.06.14,1.71,1.71,0,0,0,1.24-.88,3.53,3.53,0,0,0-.1-1.54,2.48,2.48,0,0,0-1.84-1.64,14.5,14.5,0,0,0-4.05,0A1.76,1.76,0,0,1,152.84,95.18Z"/><path id="_Path_3" data-name="&lt;Path&gt;" class="cls-3" d="M140,105.66c0.64-.28,1.36-0.18,1.63-1.09,0.16-.54,1.54-0.49,2,0a1.74,1.74,0,0,0,1.55-.1,0.22,0.22,0,0,0,0-.31,1,1,0,0,0-.79-0.3c-0.17,0-.32.14-0.48,0.18a3.28,3.28,0,0,1-.57,0,1.3,1.3,0,0,0,.45-1.37,2,2,0,0,0-.95-0.93c-0.49-.33-0.84-0.87-1.38-1.16-0.27-.15-0.62-0.55-0.72.16,0,0.32-.3.23-0.48,0.18a7.59,7.59,0,0,0-2.93-.09c-1.09.15-2-.48-3.19-0.41a0.69,0.69,0,0,1,.88-0.3c0.2,0,.46,0,0.48-0.23s-0.22-.22-0.39-0.26-0.53.08-.57-0.24a0.65,0.65,0,0,1,.43-0.51,5.44,5.44,0,0,1,3.72-1.33,1,1,0,0,1-.64.43,1.7,1.7,0,0,0-.91,1.69,0.22,0.22,0,0,0,.25.27,0.54,0.54,0,0,0,.52-0.58c-0.11-.35,0-0.42.28-0.42s0.64,0,.36-0.47a0.31,0.31,0,0,1,.12-0.17c0.91,0.3,1.33-.8,2.15-0.74,0.35,0,.79-0.24,1,0.26s-0.23.58-.52,0.74A0.43,0.43,0,0,0,141,99a3.17,3.17,0,0,1,1.72.14,0.43,0.43,0,0,0,.51-0.24c0.46-.88,1.11-0.4,1.72-0.34,0.06,0.44-.91.17-0.47,0.77a1.19,1.19,0,0,0,1.38.44,1.74,1.74,0,0,1,1.08-.27,0.92,0.92,0,0,1-.7.35c-0.33.17-.28,0.37-0.17,0.64s0.32,0.28.54,0.13a3.65,3.65,0,0,1,1.59-.38,0.37,0.37,0,0,1-.39.32c-0.34.12-1,.15-0.84,0.55s-0.07,1.07.62,1.34,1,0.79,1.71.72-0.19.43,0.18,0.5a4.5,4.5,0,0,0,1.17.44c-0.5.61-1.28,0.67-1.72,1.28-0.22.3-.62-0.06-0.6-0.4s-0.08-.61-0.49-0.61-1-.69-1.35.1a0.37,0.37,0,0,1-.08.15c-0.59.38-.61,0.69,0,1.28a1,1,0,0,1,.23,1.44c-0.4.61-.85,0.27-1.29,0.11l-0.16-.07c-0.39-.13-0.86-0.64-1.15-0.25s0.34,0.62.61,0.9a0.48,0.48,0,0,1,.22.52c-0.12.26-.35,0.1-0.54,0.08a8.27,8.27,0,0,1-2.3-1c-0.39-.16-0.23-0.66-0.61-1A6.79,6.79,0,0,0,140,105.66Z"/><path id="_Path_4" data-name="&lt;Path&gt;" class="cls-3" d="M237.72,205.14a0.37,0.37,0,0,0,0-.17c-0.67-1.49.1-2.66,0.81-3.86a2,2,0,0,0,0-1.69,3.28,3.28,0,0,1,.41-2.57,1,1,0,0,1,.62-0.43,9.15,9.15,0,0,0,1.79-.85,2,2,0,0,0,1-1.09,1.37,1.37,0,0,1,.8-1.11,1.09,1.09,0,0,0,.44-0.9,0.39,0.39,0,0,1,.3-0.38,0.42,0.42,0,0,1,.36.32c0.65,1,.51,2.18.7,3.28a0.32,0.32,0,0,1-.07.24c-1.27.07-.69,1.23-0.82,1.74-0.43,1.69-1.11,3.29-1.61,4.95-0.33,1.11-.74,2.19-1.15,3.28a2.45,2.45,0,0,1-2.26,1.24A1.77,1.77,0,0,1,237.72,205.14Z"/><path id="_Path_5" data-name="&lt;Path&gt;" class="cls-3" d="M207,115.08c0.45,0.52.89,1,1.45,0.11a0.76,0.76,0,0,1,.36-0.23c1.28-.51,1.46-0.69,1.38-2a0.77,0.77,0,0,1,.56-0.88l0.39-.17a1.2,1.2,0,0,0,.61-0.87,0.72,0.72,0,0,0-.57-0.57,1.53,1.53,0,0,1,0-2.61c0.41-.26.86-0.47,1.3-0.7a1.21,1.21,0,0,0,1-1.22,1,1,0,0,1,1-.89,2,2,0,0,1,1.88.34,0.33,0.33,0,0,1-.07.52c-0.73.57-1.44,1.15-2.18,1.7a0.69,0.69,0,0,0-.44.49,4,4,0,0,0,.44,2,2.21,2.21,0,0,0,2,.79c1-.2,2-0.46,3-0.72,0.2-.05.43-0.17,0.54,0,0.26,0.52.93,0.3,1.29,0.8-1.07.12-2,.66-3.11,0.39a3.8,3.8,0,0,0-1.45.15,0.58,0.58,0,0,0-.59.43,0.57,0.57,0,0,0,.36.71c0.45,0.12.36,0.47,0.37,0.77,0,0.59-.31.74-0.78,0.47s-0.78-.82-1.34-0.31a1.78,1.78,0,0,0-.42,1.77c0.05,0.3.61,0.67,0.16,0.88-0.63.3-1.26,1.11-2.05,0.43a1.32,1.32,0,0,0-1.6-.06c-0.42.19-.86,0.34-1.28,0.51a1,1,0,0,1-1.34-.27c-0.39-.48-0.83.16-1.25,0.13s-0.75.62-1-.14C206.49,116.48,206.31,115.42,207,115.08Z"/><path id="_Path_6" data-name="&lt;Path&gt;" class="cls-3" d="M118.64,98.1l-0.63.23a0.83,0.83,0,0,0,1,0,0.68,0.68,0,0,1,.66-0.06c0.48,0.7,1,.32,1.55.16s0.51,0,.39.41c-0.06.18-.21,0.41,0.1,0.5a0.51,0.51,0,0,0,.52-0.25,3.87,3.87,0,0,1,.76-0.93,1,1,0,0,1,1.22,0c0.38,0.29-.09.55-0.22,0.79-0.61,1.14-.62,1.14.5,1.79a1.73,1.73,0,0,1,.25.29,3.26,3.26,0,0,0-2.51.71,1.56,1.56,0,0,1-1.58-.11,1.56,1.56,0,0,0-1.16,0,13.87,13.87,0,0,1-4.36.59,1.39,1.39,0,0,1-.32,0c0-.94-0.74-0.58-1.21-0.7a0.35,0.35,0,0,1-.34-0.33c0-.28.25-0.29,0.45-0.3a8.09,8.09,0,0,1,2.67-.08,1,1,0,0,0,1-.28c-1.16-.62-2.4,0-3.66-0.32,0.74-.57,1.61-0.21,2.4-0.69a5.63,5.63,0,0,1-1.82-.26A7.28,7.28,0,0,1,118.64,98.1Z"/><path id="_Path_7" data-name="&lt;Path&gt;" class="cls-3" d="M161.6,90.45c-1.91.48-3.81,0.14-5.71,0.72,0.44,0.3.8-.07,1.16,0.17a61.89,61.89,0,0,1-8.47,1.37c0.4,0.59.75,0.16,1.22,0.45-1.62.69-7.88,1.25-9.59,1.11A22,22,0,0,0,137,93.15V96h3.16a8.92,8.92,0,0,1,.77-0.9,0.75,0.75,0,0,0,.67-0.73c0-.35.4-0.34,0.64-0.22a1.55,1.55,0,0,0,.6.24c0.47,0,1.1.31,1.2-.62a0.75,0.75,0,0,1,1.19-.62,1.3,1.3,0,0,0,1.37-.2c-0.51-.12-1.1.06-1.29-0.57,0-.13-0.12-0.34.06-0.38a2.26,2.26,0,0,1,1.45.12,2.21,2.21,0,0,0,1.51.3c-0.05-.26-0.5-0.1-0.45-0.39s0.36-.24.57-0.25c0.43,0,.87,0,1.3,0a2.2,2.2,0,0,0,1.88-.74,1.22,1.22,0,0,0-.35,0,7.28,7.28,0,0,1-4.27.09c-0.75-.19-1.49.24-2.23,0.09a1.51,1.51,0,0,1,1.65-.46c0.74,0.13,1.35-.45,2.11-0.22a11.91,11.91,0,0,0,2.13.25c0-.29-0.26-0.18-0.34-0.31C151.33,90,159.47,89.9,161.6,90.45Z"/><path id="_Path_8" data-name="&lt;Path&gt;" class="cls-3" d="M134.22,161.27a1,1,0,0,0-.89-0.48,8.66,8.66,0,0,1-2.09-.85c-0.63-.25-0.29-1.22.54-1.4a0.88,0.88,0,0,0,.69-0.86A0.6,0.6,0,0,0,132,157a1,1,0,0,0-1.07.35,0.57,0.57,0,0,0,0,.63,0.84,0.84,0,0,1-.49,1.14,0.76,0.76,0,0,1-1-.52,0.86,0.86,0,0,0-.65-0.49,0.81,0.81,0,0,1-.59-1,0.86,0.86,0,0,1,.88-0.68c0.72-.07,1.27-0.66,2-0.71a0.4,0.4,0,0,0,.12-0.12c0.34-.32.89-0.44,1.07-0.08,0.39,0.76,2.09.36,1.57,1.82-0.13.38-.2,0.65,0.34,0.56a0.82,0.82,0,0,1,1.09.58,0.91,0.91,0,0,1-.78,1.15,0.9,0.9,0,0,1,1,1c-0.11.72-.68,0.67-1.21,0.64Z"/><path id="_Path_9" data-name="&lt;Path&gt;" class="cls-3" d="M111.83,153.3a4.14,4.14,0,0,1,5.21-1c1,0.49,1.87,1.07,2.8,1.62,0.46,0.27,1,.51,1.44.76a0.44,0.44,0,1,1-.13.84c-0.78.06-1.55,0.09-2.33,0.13-0.14,0-.38-0.08-0.28-0.21,0.55-.65-0.18-0.59-0.39-0.88-0.8-1.13-2.23-1-3.14-1.62s-1.62,0-2.37.22A1.12,1.12,0,0,1,111.83,153.3Z"/><path id="_Path_10" data-name="&lt;Path&gt;" class="cls-3" d="M143.64,124c1.49-1.12,2.19-2.62,3.48-3.59,0.18-.14.39-0.4,0.58-0.2s-0.13.38-.25,0.53c-0.27.33-.58,0.64-1,1.06,0.44-.09.77-0.14,0.88,0.34a0.45,0.45,0,0,0,.74.25,3.22,3.22,0,0,1,.95-0.17c-0.22.45-.7,0.62-0.5,1.18,0.14,0.41-.45.5-0.78,0.62a1.44,1.44,0,0,1-.68,0c-0.62-.1-1.17-0.24-0.6.72a0.64,0.64,0,0,1-.56.82c-0.4.1-.94,0-0.85-0.46C145.33,124,144.65,124,143.64,124Z"/><path id="_Path_11" data-name="&lt;Path&gt;" class="cls-3" d="M180.37,106.82c0.07-.14.1-0.19,0.12-0.24a2.53,2.53,0,0,1,1.07-1.24,2.63,2.63,0,0,1,2-.46,2.38,2.38,0,0,0,1.23-.23,1.49,1.49,0,0,1,1.71.73,0.68,0.68,0,0,1-.54.78c-1.11.38-2.24,0.72-3.37,1a1.31,1.31,0,0,1-1-.19A1.71,1.71,0,0,0,180.37,106.82Z"/><path id="_Path_12" data-name="&lt;Path&gt;" class="cls-3" d="M114.88,96.8a2.08,2.08,0,0,1,1.22.28,1.87,1.87,0,0,0,1.26-.07,0.56,0.56,0,0,1,.7.35c0.06,0.38-.34.35-0.55,0.39a18.88,18.88,0,0,0-4.95,1.51c-0.53.26-1.19,0.18-1.76,0.41-0.35.14-.5-0.16-0.64-0.43s0-.48.28-0.61l1.22-.66a3.88,3.88,0,0,0,1.47-.84C113.47,96.69,114.13,96.82,114.88,96.8Z"/><path id="_Path_13" data-name="&lt;Path&gt;" class="cls-3" d="M213.9,94a1.43,1.43,0,0,1-1.95-.31,0.87,0.87,0,0,0-1.42-.13,3,3,0,0,0-.54.56c-0.63,1-1.46.5-2.24,0.31a0.54,0.54,0,0,1-.43-0.5c0-.34.34-0.22,0.54-0.27a4,4,0,0,0,1-.34,2.48,2.48,0,0,0-1.08,0,1.56,1.56,0,0,1-2.26-.74,0.59,0.59,0,0,1,.78-0.18c0.67,0.49,1.5-.33,2.13.29a0.16,0.16,0,0,0,.15,0c0.47-1.08,1.07-.21,1.55-0.06A14.12,14.12,0,0,1,213.9,94Z"/><path id="_Path_14" data-name="&lt;Path&gt;" class="cls-3" d="M126.27,157.33c-0.45.19-1.31-.18-1.82,0.59a0.32,0.32,0,0,1-.3,0c-0.55-.72-1.32-0.4-2-0.42a0.74,0.74,0,0,1-.63-0.18,0.21,0.21,0,0,1,0-.31,0.68,0.68,0,0,1,.66-0.05,1,1,0,0,0,1,0,0.92,0.92,0,0,0-.26-1c-0.3-.33-0.12-0.53.19-0.49,1.28,0.14,2.67-.16,3.72.91,0.22,0.23.73,0.3,0.55,0.76S126.79,157.27,126.27,157.33Z"/><path id="_Path_15" data-name="&lt;Path&gt;" class="cls-3" d="M144.12,96a2.13,2.13,0,0,1-1.72.66c-1.75,0-3.51,0-5.26-.07a5.45,5.45,0,0,1-1-.23,9.1,9.1,0,0,0,.72-1.14c0.08-.3.56-0.55,0.69,0a0.7,0.7,0,0,0,.67.56,8,8,0,0,0,2.72.11,13.37,13.37,0,0,1,2.57-.26A0.55,0.55,0,0,1,144.12,96Z"/><path id="_Path_16" data-name="&lt;Path&gt;" class="cls-3" d="M144.07,92.68c-1.39,0-2.58.86-3.95,0.78-0.27,0-.54.12-0.6-0.33s0.32-.27.5-0.31a3.89,3.89,0,0,0,1.11-.14c-0.72-.41-1.52-0.16-2.18-0.51,0.93-.05,1.66-0.7,2.59-0.82C142.72,91.2,143.27,92.12,144.07,92.68Z"/><path id="_Path_17" data-name="&lt;Path&gt;" class="cls-3" d="M136.85,237.41a3.54,3.54,0,0,1,1.52.9,7.45,7.45,0,0,0,3.19,1.6,2.91,2.91,0,0,1-1.74.38c-1.06-.4-2.2-0.23-3.24-0.63a2.7,2.7,0,0,0,1.2-.25c-0.17-.26-0.89-0.28-0.45-0.85a0.28,0.28,0,0,0-.12-0.17c-1.16,0-.45-0.58-0.35-1h0Z"/><path id="_Path_18" data-name="&lt;Path&gt;" class="cls-3" d="M127.48,95.48C127,96,122,96.83,121,96.56l2.34-.37c-1.23-.46-2.36,0-3.51-0.11a5.75,5.75,0,0,0,2.36-.95,1.4,1.4,0,0,1,1.32.45,1.26,1.26,0,0,0,2-.3c0.31-.39.43-0.36,0.66,0.17a0.44,0.44,0,0,0,.52.21A4.71,4.71,0,0,0,127.48,95.48Z"/><path id="_Path_19" data-name="&lt;Path&gt;" class="cls-3" d="M130.43,106.9a17.94,17.94,0,0,0,1.56-1.49c0.22-.18.47-0.77,0.79,0a2.53,2.53,0,0,0,.84.34c0.3,0.17.73,0.27,0.59,0.81s0.41,0.17.53,0.41a0.7,0.7,0,0,1-1,0,0.93,0.93,0,0,0-1.31-.06C131.78,107.29,131.09,107.77,130.43,106.9Z"/><path id="_Path_20" data-name="&lt;Path&gt;" class="cls-3" d="M130.34,97.71l-0.69.28c0.45,0.61.27,1.06-.47,1.17a2,2,0,0,0-1.13.29,0.36,0.36,0,0,1-.57-0.19c-0.15-.39-0.73-0.47-0.7-0.92,0-.25.3-0.16,0.5-0.1a1.12,1.12,0,0,0,1.49-.58C129.14,97,129.78,97.54,130.34,97.71Z"/><path id="_Path_21" data-name="&lt;Path&gt;" class="cls-3" d="M144.15,180.23L144,180c0-.2,0-0.4,0-0.6a1.16,1.16,0,0,1,1.82-1.07,0.4,0.4,0,0,1,.29.47,1.29,1.29,0,0,1-.79,1.15C145,180.1,144.55,180.15,144.15,180.23Z"/><path id="_Path_22" data-name="&lt;Path&gt;" class="cls-3" d="M135.38,97.27c-0.8.5-1.53,1.2-2.58,0.93a0.9,0.9,0,0,0-.75.47,0.44,0.44,0,0,1-.55.07c-0.2-.18,0-0.38.09-0.53a2.59,2.59,0,0,1,2-1A14.65,14.65,0,0,1,135.38,97.27Z"/><path id="_Path_23" data-name="&lt;Path&gt;" class="cls-3" d="M215.18,92.11c-1.59,1.11-3.15.42-4.71,0A18.39,18.39,0,0,1,215.18,92.11Z"/><path id="_Compound_Path_4" data-name="&lt;Compound Path&gt;" class="cls-3" d="M229.24,138.11a4.42,4.42,0,0,1,0-1.75c-0.53.41-1.1-.12-1.59,0.33a1.43,1.43,0,0,1-2.15.06c-0.39-.33-0.93-0.76-1.44,0a0.69,0.69,0,0,1-1.08.08,2,2,0,0,0-1.19-.64c-0.92-.18-0.86-1.27-1.59-1.59-0.09,0,0-.2.06-0.3,0.44-.4.16-0.74-0.17-1a0.57,0.57,0,0,1-.28-0.66,0.59,0.59,0,0,0-.4-0.87,1.79,1.79,0,0,0-1.59.18c-0.19,1-.72.42-1.38,0.3,0.56,0.76.54,1.6,1.4,1.88a0.57,0.57,0,0,1,.42.67,0.46,0.46,0,0,1-.71.25c-0.1-.07-0.4,0-0.3.12,0.36,0.43-.63.58-0.17,1,0.11,0.1-.08.26-0.25,0.23a1,1,0,0,1-1.12-.66,4.34,4.34,0,0,0-1.09-2.09,3.12,3.12,0,0,1-1.12-2.76,0.6,0.6,0,0,0-.46-0.56c-0.75-.38-1.23-1.12-2.18-1.31s-1.25-1.86-2.56-1.94a0.51,0.51,0,0,1-.21-0.35c0-.24-0.06-0.49-0.4-0.4a0.7,0.7,0,0,0-.64.36,0.55,0.55,0,0,0,.2.69,1.83,1.83,0,0,1,.9,1.21c0.3,0.6.44,1.41,1.2,1.61,1.13,0.3,1.8,1.29,2.85,1.69,0.27,0.11.63,0.4,0.38,0.73s-0.41-.15-0.62-0.22a0.62,0.62,0,0,0-.8,0,0.39,0.39,0,0,0-.05.55c0.34,0.34.61,0.62,0.07,1-0.32.26-.35,0.87-0.82,1a0.63,0.63,0,0,0-.57.85c0.05,0.52-.23.7-0.7,0.46s-1-.51-1.46-0.77c-0.2-.1-0.48-0.16-0.44-0.45a0.52,0.52,0,0,1,.63-0.36,5.25,5.25,0,0,0,1.72-.09c0.89-.22,1.21-0.76.69-1.49s-1.31-1.66-2.09-1.66a1.88,1.88,0,0,1-2.08-1.42c-0.2-.51-0.81-0.87-1-1.47a1.15,1.15,0,0,0-1.1-.72,0.83,0.83,0,0,0-.86.71,1.06,1.06,0,0,1-1.15.69c-0.82,0-1.48-.51-2.27-0.47-0.54,0-1.1.16-1,.78,0.15,1.14-.57,1.49-1.4,1.74a3.63,3.63,0,0,0-1.62,1.4,1.05,1.05,0,0,0-.07,1.22,0.37,0.37,0,0,1,0,.25,4.66,4.66,0,0,1-3.22,2.2,3.93,3.93,0,0,0-.69,0c-0.74.16-.37,0.88-0.62,1.3-0.14.23,0.17,0.3,0.37,0.32a5.86,5.86,0,0,0,4.16-.84,8,8,0,0,1,4.07-1c1.55-.12,3.12.1,4.63-0.45a0.54,0.54,0,0,1,.64.1,1.05,1.05,0,0,0,1,.27c-0.45.56-.63,1-0.11,1.53a0.65,0.65,0,0,1-.05.74,1.92,1.92,0,0,0,2.17,2.47,2.17,2.17,0,0,1,2.2,1.22,1.1,1.1,0,0,0,.93.55,3.43,3.43,0,0,1,2,.84,0.86,0.86,0,0,0,1.12,0,0.94,0.94,0,0,0,.46-1A1.51,1.51,0,0,1,216.6,141a11.41,11.41,0,0,0,2.51,1c1.33,0.34,2.67.66,4,1a1.18,1.18,0,0,0,.72-0.26,2.06,2.06,0,0,1,2.11-.12c1.13,0.63,2.1,0,2.53-1.16,0.35-1-.37-2.24.76-3A0.4,0.4,0,0,0,229.24,138.11Zm-24.72-4.75a0.92,0.92,0,0,1-.9.54c-0.41,0-.35-0.44-0.34-0.76a1.78,1.78,0,0,0,0-.69c-0.36-.79.3-1,0.74-1s0.63,0.44.6,0.91c0,0,0,.11,0,0.17A1.64,1.64,0,0,1,204.52,133.36Z"/><path id="_Path_24" data-name="&lt;Path&gt;" class="cls-3" d="M225.79,126.06a2.41,2.41,0,0,0-.62.57c0.27,0.29.86,0.3,0.84,0.93,0,0.3.34,0.25,0.55,0.14a3.61,3.61,0,0,1,1.69-.59,0.27,0.27,0,0,0,.29-0.26c0-.25-0.19-0.25-0.36-0.25a2.26,2.26,0,0,1-.52,0,0.8,0.8,0,0,1-.69-0.57,0.64,0.64,0,0,1,.51-0.51c0.78-.43,1.74-0.42,2.47-1a1.38,1.38,0,0,1,.72.11c0,0.43-.3.42-0.49,0.56s-0.35.12-.21,0.28c0.54,0.64-.21.9-0.44,1.18s-0.3.5,0.09,0.64c1.35,0.45,2.25,1.6,3.49,2.23a1,1,0,0,1,.59,1.23,1.45,1.45,0,0,1-1.35.78,7.39,7.39,0,0,1-4.18-.8,3.15,3.15,0,0,0-3.13.17,3.6,3.6,0,0,1-2.59.39,1.44,1.44,0,0,1-1-2.39,1.39,1.39,0,0,0,.24-0.81,0.76,0.76,0,0,1,.45-0.76c0.59-.29.36-1.09,0.95-1.52,0.77-.56.84-0.71,1.52-0.06C224.95,126.08,225.43,125.71,225.79,126.06Z"/><path id="_Path_25" data-name="&lt;Path&gt;" class="cls-3" d="M241.82,132.28c-0.86-.79-1.7-1.52-2.5-2.3s-0.69-1.61-1.31-2.31a1.33,1.33,0,0,1,.43-1.37,12.26,12.26,0,0,1,2.66-1.51,1.61,1.61,0,0,1,2.22,1.53c0,0.48,0,.52-0.48.47-0.86-.1-1,0.06-0.74.84-0.21.22-.5-0.14-0.76,0.13,0.85,0.45,1.25,1.32,2.08,1.88a1.87,1.87,0,0,0,1.57.4,0.67,0.67,0,0,1,.62.27c-0.12.26-.41-0.12-0.49,0.12a0.52,0.52,0,0,0,.25.51c0.19,0.19.58,0.29,0.43,0.66a0.74,0.74,0,0,1-.75.33,0.55,0.55,0,0,0-.64.32c-0.08.32,0.29,0.29,0.43,0.44a3.84,3.84,0,0,1,.9,1.91c0.36,1.77.36,1.77-1.45,1.94a1.87,1.87,0,0,1-1.09-.24,10.24,10.24,0,0,0-1.66-.9,1,1,0,0,1-.49-1.19C241.23,133.54,241.15,132.75,241.82,132.28Z"/><path id="_Path_26" data-name="&lt;Path&gt;" class="cls-3" d="M227.46,180.91c-1.09.34-.93-0.34-0.79-1,0.06-.31,0-0.64.1-0.94a1.54,1.54,0,0,1,1.72-1,0.89,0.89,0,0,1,.42.28,1.08,1.08,0,0,1-.17,1.41C228.29,180,228.72,181.26,227.46,180.91Z"/><path id="_Path_27" data-name="&lt;Path&gt;" class="cls-3" d="M224.08,182.29a38.75,38.75,0,0,0,1.7,5.57A6.71,6.71,0,0,1,224.08,182.29Z"/><path id="_Path_28" data-name="&lt;Path&gt;" class="cls-3" d="M119.88,128.3a4.3,4.3,0,0,0,.78-0.66,0.69,0.69,0,0,0,.08-1c-0.27-.25-0.71-0.42,0-0.76,0.19-.1,0-0.39-0.24-0.42-1.23-.15-2.46-0.41-3.69-0.47-0.72,0-1.47.4-2.31,0a4.34,4.34,0,0,1,1.34-.77,8.87,8.87,0,0,0,1.76-.93,2.21,2.21,0,0,1,3.39.55,1.55,1.55,0,0,1,0,.92,0.69,0.69,0,0,0,.77.88,5.13,5.13,0,0,1,1.69.36,0.89,0.89,0,0,1,.6,1.18,0.63,0.63,0,0,1-.95.42c-0.57-.18-0.74.34-1,0.63s-0.38.59-.62,0.82-0.57.25-.53-0.17c0.12-1.09-.48-0.49-0.88-0.39Z"/><path class="cls-3" d="M109.22,104.26a2.92,2.92,0,0,1-2,.85,4.17,4.17,0,0,0-1.67.64,2.78,2.78,0,0,1-2.06-.06c0.31-.46.82-0.43,1-0.83l-0.06-.06a0.44,0.44,0,0,0-.23-0.14,0.49,0.49,0,0,0-.2,0l-0.18,0h-0.24a0.5,0.5,0,0,1-.21,0l-0.17-.06c0.34-.06.68-0.12,1-0.2,0.75-.16,1.51-0.33,2.27-0.47l0.32-.06c0.12,0,.24,0,0.37-0.06s0.48,0,.73-0.06,0.33,0,.33.17a0.9,0.9,0,0,1-.3.27C108.37,104.41,108.76,104,109.22,104.26Z"/><path id="_Path_29" data-name="&lt;Path&gt;" class="cls-3" d="M119.32,126a0.4,0.4,0,0,1,.46.15,0.38,0.38,0,0,1-.21.43,4.83,4.83,0,0,1-1,.69,2.09,2.09,0,0,0-1.22,1.76,2.19,2.19,0,0,1-1.08,1.59,0.49,0.49,0,0,1-.56.11,0.47,0.47,0,0,1-.12-0.62,5.26,5.26,0,0,1,.68-1.49,7,7,0,0,0,.8-1.23C117.58,126.25,118,126.23,119.32,126Z"/><path id="_Path_30" data-name="&lt;Path&gt;" class="cls-3" d="M103.87,109.74c2.62-.85,2.62-0.85,2.77-1.7a1.31,1.31,0,0,1,.4.14c1,0.85,2,.37,3.05-0.09a1.74,1.74,0,0,1,1.88,0c-1.6.16-2.89,1.17-4.43,1.47a11.62,11.62,0,0,1-1.9.55A4.4,4.4,0,0,1,103.87,109.74Z"/><path id="_Path_31" data-name="&lt;Path&gt;" class="cls-3" d="M113.54,118.12c-0.44.72-.1,1.75-0.7,2.53-0.16.2-.35,0.52-0.61,0.35s0.07-.38.15-0.57a0.74,0.74,0,0,0-.19-1.08,1.49,1.49,0,0,1,.34-1.92,0.72,0.72,0,0,1,.74,0A0.68,0.68,0,0,1,113.54,118.12Z"/><path id="_Path_32" data-name="&lt;Path&gt;" class="cls-3" d="M123.81,129.47A7.77,7.77,0,0,1,120,131a0.44,0.44,0,0,1-.59-0.21c-0.1-.3.18-0.36,0.39-0.47a8.64,8.64,0,0,1,4-.89h0Z"/><path id="_Path_33" data-name="&lt;Path&gt;" class="cls-3" d="M123.82,129.47c-0.64-.6-0.3-0.94.34-1.11,0.92-.24,1.85-0.4,2.81-0.61a1.42,1.42,0,0,1-1.82,1.23,1.08,1.08,0,0,0-1.34.48h0Z"/><path id="_Path_34" data-name="&lt;Path&gt;" class="cls-3" d="M204.61,132.51a1.6,1.6,0,0,1-.08.85,0.92,0.92,0,0,1-.9.54c-0.42,0-.35-0.44-0.34-0.76a1.64,1.64,0,0,0,0-.68c-0.35-.79.3-1,0.74-1s0.64,0.44.61,0.9C204.62,132.4,204.61,132.45,204.61,132.51Z"/></g><path class="cls-4" d="M254.68,163.84a87,87,0,0,1-174,0,79.82,79.82,0,0,1,2.78-22h0c0.07-.26.15-0.51,0.23-0.76a96.11,96.11,0,0,1,7.43-18.61c0.06-.12.13-0.23,0.2-0.35A86.78,86.78,0,0,1,104,104.68a0,0,0,0,0,0,0l0,0,0.22-.24c1-1.1,2.1-2.18,3.18-3.22A86.95,86.95,0,0,1,254.68,163.84Z"/><path class="cls-5" d="M249.5,72.85c-23.11-21.13-51.82-34.17-85.16-34.17-69.64,0-125.6,56.45-125.6,126.09S94.46,290.85,164.1,290.85c33.34,0,62.29-13,85.4-34.17"/></svg>