<svg id="Layer_1" data-name="Layer 1" xmlns="http://www.w3.org/2000/svg" viewBox="0 0 127.22 111.63"><title>thunderstorm</title><path d="M116.47,33L96.67,52.16c3.45,0,6.38.11,9.3,0,3.42-.17,4.86,1.3,4.79,4.71-0.11,5.08,0,10.16,0,16.42,1.91-1.6,2.67-2.2,3.38-2.85,6.55-5.93,11.81-5.88,17.88.58,5.18,5.51,6.25,12.15,3.44,19-2.68,6.55-7.86,10.22-15.09,10.45-5,.16-10,0.19-15,0-3.33-.12-4.77,1.33-5.42,4.45-1.47,7-3.18,14-4.76,20.94-0.51,2.23-1,4.39-4.12,3.59s-2.07-3-1.65-4.83c2.71-12.19,5.5-24.37,8.27-36.54,0.18-.81.46-1.61,0.58-2.43,0.17-1.18.26-2.53-1.24-2.84s-2,1-2.28,2.11c-1,4-2,8.09-2.77,12.17-0.49,2.61-1.73,3.47-4.41,3.52-11.61.2-11.61,0.29-14.23,11.43-1.14,4.86-2.22,9.74-3.39,14.6-0.48,2-1.05,4.14-3.86,3.43s-2.63-2.82-2.06-5.15q3.87-15.77,7.56-31.58c0.5-2.1.82-4.25,1.19-6.38,0.25-1.42,1.07-3.28-1.19-3.6s-2,1.89-2.33,3.18c-0.89,3.55-1.67,7.14-2.29,10.75-0.41,2.43-1.56,3.18-4,3.25-12.19.35-12.16,0.43-14.81,12.59-1.06,4.87-2.24,9.72-3.41,14.57-0.46,1.89-1.14,3.57-3.69,3s-2.38-2.28-1.93-4.25c2.72-12,5.48-24,8-36.08,0.43-2,2.4-5.57-.06-6.19-3.3-.82-2.52,3.38-3.48,5.42A8.6,8.6,0,0,0,43,91.52c-2,9.73-5.73,11.66-15.07,7.75C10.58,92,6.06,73,18.29,58.66c2.91-3.42,6.72-5.34,10.87-6.79,3.29-1.15,4.28.09,3.89,3.27a37.1,37.1,0,0,0-.11,4.49c0,3.12.92,6,4.46,6.06,3.36,0,4-2.93,4.14-5.77a68.11,68.11,0,0,1,.74-7.44,39.19,39.19,0,0,1,61.95-24.84c3.51,2.59,5.5,2.62,8-.71A37,37,0,0,1,117.2,22c1.19-1.06,2.18-3.38,3.84-2.66,1.87,0.81,1,3.26,1,5,0.08,5.66.13,11.34-.1,17-0.17,4.29,1.49,6.19,5.84,5.88,2.48-.18,5,0,7.5,0,1.88,0,3.24.76,3.29,2.91s-1,3.17-3,3.19q-8,.08-16,0c-2.69,0-3.17-1.91-3.16-4.13C116.48,43.74,116.47,38.29,116.47,33Z" transform="translate(-11.39 -19.19)"/></svg>