<?xml version="1.0" encoding="UTF-8" standalone="no"?>
<svg width="134px" height="118px" viewBox="0 0 134 118" version="1.1" xmlns="http://www.w3.org/2000/svg" xmlns:xlink="http://www.w3.org/1999/xlink">
    <!-- Generator: Sketch 3.7.2 (28276) - http://www.bohemiancoding.com/sketch -->
    <title>thunderstorm</title>
    <desc>Created with Sketch.</desc>
    <defs>
        <path d="M106.08,13.81 L86.28,32.97 C89.73,32.97 92.66,33.08 95.58,32.97 C99,32.8 100.44,34.27 100.37,37.68 C100.26,42.76 100.37,47.84 100.37,54.1 C102.28,52.5 103.04,51.9 103.75,51.25 C110.3,45.32 115.56,45.37 121.63,51.83 C126.81,57.34 127.88,63.98 125.07,70.83 C122.39,77.38 117.21,81.05 109.98,81.28 C104.98,81.44 99.98,81.47 94.98,81.28 C91.65,81.16 90.21,82.61 89.56,85.73 C88.09,92.73 86.38,99.73 84.8,106.67 C84.29,108.9 83.8,111.06 80.68,110.26 C77.56,109.46 78.61,107.26 79.03,105.43 C81.74,93.24 84.53,81.06 87.3,68.89 C87.48,68.08 87.76,67.28 87.88,66.46 C88.05,65.28 88.14,63.93 86.64,63.62 C85.14,63.31 84.64,64.62 84.36,65.73 C83.36,69.73 82.36,73.82 81.59,77.9 C81.1,80.51 79.86,81.37 77.18,81.42 C65.57,81.62 65.57,81.71 62.95,92.85 C61.81,97.71 60.73,102.59 59.56,107.45 C59.08,109.45 58.51,111.59 55.7,110.88 C52.89,110.17 53.07,108.06 53.64,105.73 C56.22,95.2166667 58.74,84.69 61.2,74.15 C61.7,72.05 62.02,69.9 62.39,67.77 C62.64,66.35 63.46,64.49 61.2,64.17 C58.94,63.85 59.2,66.06 58.87,67.35 C57.98,70.9 57.2,74.49 56.58,78.1 C56.17,80.53 55.02,81.28 52.58,81.35 C40.39,81.7 40.42,81.78 37.77,93.94 C36.71,98.81 35.53,103.66 34.36,108.51 C33.9,110.4 33.22,112.08 30.67,111.51 C28.12,110.94 28.29,109.23 28.74,107.26 C31.46,95.26 34.22,83.26 36.74,71.18 C37.17,69.18 39.14,65.61 36.68,64.99 C33.38,64.17 34.16,68.37 33.2,70.41 C32.929013,71.0247575 32.7309961,71.6691515 32.61,72.33 C30.61,82.06 26.88,83.99 17.54,80.08 C0.19,72.81 -4.33,53.81 7.9,39.47 C10.81,36.05 14.62,34.13 18.77,32.68 C22.06,31.53 23.05,32.77 22.66,35.95 C22.5326902,37.4430718 22.4959562,38.9424853 22.55,40.44 C22.55,43.56 23.47,46.44 27.01,46.5 C30.37,46.5 31.01,43.57 31.15,40.73 C31.2602581,38.2383216 31.5072969,35.7545804 31.89,33.29 C34.1989181,19.881069 43.2975649,8.6292971 55.9264456,3.56551346 C68.5553263,-1.49827018 82.9069507,0.350681143 93.84,8.45 C97.35,11.04 99.34,11.07 101.84,7.74 C103.337135,5.94328664 105.001247,4.29256697 106.81,2.81 C108,1.75 108.99,-0.57 110.65,0.15 C112.52,0.96 111.65,3.41 111.65,5.15 C111.73,10.81 111.78,16.49 111.55,22.15 C111.38,26.44 113.04,28.34 117.39,28.03 C119.87,27.85 122.39,28.03 124.89,28.03 C126.77,28.03 128.13,28.79 128.18,30.94 C128.23,33.09 127.18,34.11 125.18,34.13 C119.846667,34.1833333 114.513333,34.1833333 109.18,34.13 C106.49,34.13 106.01,32.22 106.02,30 C106.09,24.55 106.08,19.1 106.08,13.81 L106.08,13.81 Z" id="path-1"></path>
        <mask id="mask-2" maskContentUnits="userSpaceOnUse" maskUnits="objectBoundingBox" x="-3" y="-3" width="133.183119" height="117.608971">
            <rect x="-2.00141267" y="-2.98612066" width="133.183119" height="117.608971" fill="white"></rect>
            <use xlink:href="#path-1" fill="black"></use>
        </mask>
    </defs>
    <g id="Page-1" stroke="none" stroke-width="1" fill="none" fill-rule="evenodd">
        <g id="Artboard-1" transform="translate(-343.000000, -133.000000)">
            <g id="thunderstorm" transform="translate(345.400000, 136.000000)">
                <g id="Layer_1">
                    <g id="Shape">
                        <use fill="#FF5722" fill-rule="evenodd" xlink:href="#path-1"></use>
                        <use stroke="#FFFFFF" mask="url(#mask-2)" stroke-width="6" xlink:href="#path-1"></use>
                    </g>
                </g>
            </g>
        </g>
    </g>
</svg>