<?xml version="1.0" encoding="UTF-8" standalone="no"?>
<svg width="135px" height="139px" viewBox="0 0 135 139" version="1.1" xmlns="http://www.w3.org/2000/svg" xmlns:xlink="http://www.w3.org/1999/xlink">
    <!-- Generator: Sketch 3.7.2 (28276) - http://www.bohemiancoding.com/sketch -->
    <title>tornado</title>
    <desc>Created with Sketch.</desc>
    <defs>
        <path d="M54.7805278,14.0081739 L101.280528,14.0081739 C102.950097,13.9812859 104.619773,14.0547517 106.280528,14.2281739 C108.180528,14.4581739 110.070528,15.0481739 109.930528,17.4681739 C109.820528,19.5681739 108.160528,20.0281739 106.360528,20.1781739 C105.360528,20.2581739 103.820528,20.1781739 103.520528,20.7481739 C100.830528,25.5881739 96.2805278,25.2881739 91.7905278,25.3381739 C90.7905278,25.3381739 89.6805278,25.7981739 89.6605278,27.0081739 C89.6605278,28.6481739 91.0605278,28.6481739 92.1905278,28.7181739 C94.0205278,28.8381739 95.8605278,28.7181739 97.6905278,28.8781739 C99.5205278,29.0381739 101.110528,29.5381739 101.230528,31.6381739 C101.326625,32.4958233 101.033046,33.3513652 100.430599,33.9693093 C99.8281521,34.5872534 98.9803409,34.9024623 98.1205278,34.8281739 C93.5705278,34.7581739 91.3205278,37.8281739 89.1205278,40.9781739 C88.5605278,41.7481739 87.8105278,42.8881739 88.0105278,43.6181739 C89.5705278,49.2781739 85.9505278,49.2781739 82.1505278,49.1981739 C81.3178012,49.153203 80.4832544,49.153203 79.6505278,49.1981739 C78.2305278,49.3181739 76.2005278,48.8481739 75.9605278,50.8281739 C75.6905278,53.0281739 77.8505278,52.6981739 79.2105278,52.9481739 C81.2105278,53.3281739 83.5005278,53.5881739 83.3205278,56.2981739 C83.1405278,59.0081739 80.8505278,59.0681739 78.8005278,59.0781739 C76.5505278,59.0781739 74.4705278,59.4281739 73.0905278,61.4881739 C71.9505278,63.1981739 70.5705278,64.8781739 73.4805278,66.3181739 C74.2021604,66.5783883 74.7878356,67.1194625 75.1042762,67.8182689 C75.4207169,68.5170754 75.4410064,69.3141733 75.1605278,70.0281739 C74.5705278,71.7381739 73.0805278,72.0281739 71.5205278,72.0881739 C70.3505278,72.1381739 69.1905278,72.0881739 68.0205278,72.1881739 C66.8505278,72.2881739 65.4705278,72.1881739 65.0205278,73.4281739 C64.4205278,74.9781739 65.7805278,75.4281739 66.8705278,75.7781739 C68.1559813,76.2766933 68.9888298,77.5299702 68.9505278,78.9081739 C69.1605278,81.2481739 70.1205278,82.6281739 72.6905278,82.5681739 C73.3701768,82.4987988 74.0489941,82.7072354 74.5725908,83.1460772 C75.0961875,83.584919 75.420053,84.2168605 75.4705278,84.8981739 C75.7627163,86.0969219 75.1023297,87.3227376 73.9405278,87.7381739 C72.1505278,88.3381739 70.0705278,88.6681739 71.2305278,91.2781739 C72.3905278,93.8881739 72.2305278,97.4381739 75.7405278,98.4981739 C77.5405278,99.0381739 80.0805278,98.3581739 80.3405278,101.238174 C80.5605278,103.698174 78.5505278,103.878174 76.8305278,104.638174 C74.6705278,105.638174 75.8305278,108.008174 76.3905278,109.028174 C80.9505278,116.868174 76.0305278,122.588174 72.3905278,128.628174 C71.9776483,129.351642 71.5166092,130.046542 71.0105278,130.708174 C70.4743124,131.601782 69.3785733,131.988019 68.4005278,131.628174 C67.4826834,131.152309 66.9448545,130.167607 67.0405278,129.138174 C67.0536203,125.794688 66.3725898,122.484879 65.0405278,119.418174 C63.4005278,116.028174 61.6105278,113.198174 57.2005278,112.668174 C53.3005278,112.198174 52.9005278,109.888174 55.8705278,106.978174 C56.5805278,106.288174 57.6505278,105.868174 57.3705278,104.658174 C57.0405278,103.198174 55.7605278,103.098174 54.5905278,103.108174 C47.4305278,103.108174 42.5905278,98.6581739 37.7805278,94.3281739 C36.2805278,92.9881739 35.1305278,91.4281739 38.1905278,90.3781739 C39.1905278,90.0481739 40.0505278,89.3181739 39.6405278,88.1481739 C39.2305278,86.9781739 38.0805278,86.9881739 37.0905278,86.9581739 C33.9305278,86.8481739 30.7405278,86.9581739 27.6005278,86.6681739 C24.4605278,86.3781739 23.0105278,83.7781739 25.1905278,81.9281739 C28.0405278,79.5081739 27.1405278,77.4481739 26.4605278,74.9281739 C25.3905278,70.9281739 24.3905278,67.0381739 30.8905278,67.5581739 C31.3931219,67.6679837 31.9185461,67.5497581 32.3256653,67.2352537 C32.7327845,66.9207493 32.9798612,66.4422089 33.0005278,65.9281739 C33.0005278,64.6581739 32.0005278,64.2781739 30.9405278,64.2281739 C28.1105278,64.1081739 25.2805278,64.1381739 22.4505278,64.0281739 C20.3805278,63.9481739 18.2005278,63.6481739 18.0805278,61.0281739 C17.9805278,58.6581739 19.8605278,58.0281739 21.8105278,57.8981739 C24.0305278,57.7581739 25.9105278,57.2381739 25.7505278,54.5281739 C25.6005278,52.0481739 26.7505278,48.9281739 23.0005278,47.9181739 C21.0705278,47.3981739 19.3905278,46.5281739 20.0005278,44.1681739 C20.5805278,41.9681739 22.5905278,41.8581739 24.4605278,41.7881739 C26.6205278,41.7081739 28.7905278,41.7281739 30.9505278,41.5781739 C31.9505278,41.5081739 33.0305278,41.1381739 32.9505278,39.8581739 C32.9347723,39.3414405 32.6833721,38.8603414 32.2681615,38.5523448 C31.852951,38.2443483 31.3196076,38.1433371 30.8205278,38.2781739 C24.3905278,39.6981739 19.3205278,34.2781739 13.0605278,34.8381739 C11.4205278,34.9681739 9.58052778,34.3481739 9.63052778,32.0881739 C9.63052778,30.0881739 11.0405278,29.0881739 12.8705278,28.9281739 C15.0205278,28.7381739 17.2005278,28.8481739 19.3605278,28.7181739 C20.7605278,28.6281739 22.8705278,29.0081739 22.7705278,26.8681739 C22.6705278,24.7281739 20.5905278,25.2681739 19.1805278,25.1681739 C17.6872422,25.0259006 16.1838133,25.0259006 14.6905278,25.1681739 C8.85052778,25.8981739 5.77052778,20.4581739 0.880527783,19.0581739 C-0.0194722171,18.7981739 -0.169472217,17.4281739 0.160527783,16.3881739 C0.650527783,14.8481739 1.92052778,14.4781739 3.31052778,14.3881739 C8.31052778,14.2381739 13.3105278,14.0381739 18.3105278,14.0181739 C30.4405278,13.9781739 42.6105278,14.0181739 54.7805278,14.0081739 L54.7805278,14.0081739 Z" id="path-1"></path>
        <mask id="mask-2" maskContentUnits="userSpaceOnUse" maskUnits="objectBoundingBox" x="-3" y="-3" width="115.937854" height="123.7619">
            <rect x="-3" y="11" width="115.937854" height="123.7619" fill="white"></rect>
            <use xlink:href="#path-1" fill="black"></use>
        </mask>
        <path d="M85.3580478,121.66227 C85.9180478,118.82227 83.6980478,114.60227 86.2780478,112.10227 C89.9180478,108.57227 94.5880478,106.10227 98.8980478,103.27227 C99.6358079,102.909243 100.500288,102.909243 101.238048,103.27227 C105.598048,105.985603 109.908048,108.78227 114.168048,111.66227 C115.23525,112.515214 115.793326,113.853841 115.648048,115.21227 C115.648048,119.86227 115.738048,124.51227 115.648048,129.21227 C115.548048,134.71227 111.278048,132.30227 108.648048,132.71227 C106.018048,133.12227 103.508048,132.85227 103.648048,129.12227 C103.722077,128.12364 103.722077,127.1209 103.648048,126.12227 C103.358048,123.36227 104.798048,119.12227 100.378048,119.07227 C95.5180478,119.01227 97.2180478,123.49227 96.8180478,126.35227 C96.7569596,126.847058 96.7569596,127.347482 96.8180478,127.84227 C97.2480478,131.84227 95.3680478,132.71227 91.5680478,132.92227 C86.5680478,133.20227 84.4080478,131.92227 85.3680478,126.71227 C85.5027287,125.031492 85.4993842,123.342501 85.3580478,121.66227 L85.3580478,121.66227 Z" id="path-3"></path>
        <mask id="mask-4" maskContentUnits="userSpaceOnUse" maskUnits="objectBoundingBox" x="-3" y="-3" width="36.6880478" height="35.9584038">
            <rect x="82" y="100" width="36.6880478" height="35.9584038" fill="white"></rect>
            <use xlink:href="#path-3" fill="black"></use>
        </mask>
        <path d="M72.2710802,8.56200679 L22.8110802,8.56200679 C21.315752,8.60213937 19.8201199,8.51532915 18.3310802,8.30197645 C17.1071214,8.17868018 16.1277494,6.70018193 16.0310802,4.82980653 C15.9228796,3.80259395 16.0999236,2.752924 16.5195079,1.93398578 C16.9390922,1.11504755 17.5631234,0.601190771 18.2410802,0.516361958 C19.7130411,0.121261948 21.2071323,-0.0478332663 22.7010802,0.0115971676 L121.12108,0.0115971676 C122.12108,0.0115971676 123.12108,0.0115971676 124.12108,0.133964389 C126.27108,0.348107028 127.63108,1.93888091 127.48108,5.41105083 C127.32108,9.1738429 125.36108,8.63848631 123.72108,8.63848631 L78.7210802,8.63848631 L72.2710802,8.63848631 L72.2710802,8.56200679 Z" id="path-5"></path>
        <mask id="mask-6" maskContentUnits="userSpaceOnUse" maskUnits="objectBoundingBox" x="-3" y="-3" width="117.492346" height="14.6647566">
            <rect x="13" y="-3" width="117.492346" height="14.6647566" fill="white"></rect>
            <use xlink:href="#path-5" fill="black"></use>
        </mask>
    </defs>
    <g id="Page-1" stroke="none" stroke-width="1" fill="none" fill-rule="evenodd">
        <g id="Artboard-1" transform="translate(-530.000000, -154.000000)">
            <g id="tornado" transform="translate(534.000000, 157.000000)">
                <g id="Layer_1">
                    <g id="Shape">
                        <use fill="#FF5722" fill-rule="evenodd" xlink:href="#path-1"></use>
                        <use stroke="#FFFFFF" mask="url(#mask-2)" stroke-width="6" xlink:href="#path-1"></use>
                    </g>
                    <g id="Shape">
                        <use fill="#FF5722" fill-rule="evenodd" xlink:href="#path-3"></use>
                        <use stroke="#FFFFFF" mask="url(#mask-4)" stroke-width="6" xlink:href="#path-3"></use>
                    </g>
                    <g id="Shape">
                        <use fill="#FF5722" fill-rule="evenodd" xlink:href="#path-5"></use>
                        <use stroke="#FFFFFF" mask="url(#mask-6)" stroke-width="6" xlink:href="#path-5"></use>
                    </g>
                </g>
            </g>
        </g>
    </g>
</svg>