<svg id="Layer_1" data-name="Layer 1" xmlns="http://www.w3.org/2000/svg" viewBox="0 0 127.13 127.78"><title>tornado</title><path d="M66.23,20.48q23.25,0,46.5,0a41.68,41.68,0,0,1,5,.22c1.9,0.23,3.79.82,3.65,3.24-0.11,2.1-1.77,2.56-3.57,2.71-1,.08-2.54,0-2.84.57-2.69,4.84-7.24,4.54-11.73,4.59-1,0-2.11.46-2.13,1.67,0,1.64,1.4,1.64,2.53,1.71,1.83,0.12,3.67,0,5.5.16s3.42,0.66,3.54,2.76a2.88,2.88,0,0,1-3.11,3.19c-4.55-.07-6.8,3-9,6.15-0.56.77-1.31,1.91-1.11,2.64,1.56,5.66-2.06,5.66-5.86,5.58a23.18,23.18,0,0,0-2.5,0c-1.42.12-3.45-.35-3.69,1.63-0.27,2.2,1.89,1.87,3.25,2.12,2,0.38,4.29.64,4.11,3.35s-2.47,2.77-4.52,2.78c-2.25,0-4.33.35-5.71,2.41-1.14,1.71-2.52,3.39.39,4.83a2.84,2.84,0,0,1,1.68,3.71c-0.59,1.71-2.08,2-3.64,2.06-1.17.05-2.33,0-3.5,0.1s-2.55,0-3,1.24c-0.6,1.55.76,2,1.85,2.35a3.26,3.26,0,0,1,2.08,3.13c0.21,2.34,1.17,3.72,3.74,3.66a2.53,2.53,0,0,1,2.78,2.33,2.41,2.41,0,0,1-1.53,2.84c-1.79.6-3.87,0.93-2.71,3.54s1,6.16,4.51,7.22c1.8,0.54,4.34-.14,4.6,2.74,0.22,2.46-1.79,2.64-3.51,3.4-2.16,1-1,3.37-.44,4.39,4.56,7.84-.36,13.56-4,19.6a18.59,18.59,0,0,1-1.38,2.08,2.17,2.17,0,0,1-2.61.92,2.54,2.54,0,0,1-1.36-2.49,24.16,24.16,0,0,0-2-9.72c-1.64-3.39-3.43-6.22-7.84-6.75-3.9-.47-4.3-2.78-1.33-5.69,0.71-.69,1.78-1.11,1.5-2.32-0.33-1.46-1.61-1.56-2.78-1.55-7.16,0-12-4.45-16.81-8.78-1.5-1.34-2.65-2.9.41-3.95,1-.33,1.86-1.06,1.45-2.23s-1.56-1.16-2.55-1.19c-3.16-.11-6.35,0-9.49-0.29s-4.59-2.89-2.41-4.74c2.85-2.42,1.95-4.48,1.27-7-1.07-4-2.07-7.89,4.43-7.37a1.74,1.74,0,0,0,2.11-1.63c0-1.27-1-1.65-2.06-1.7-2.83-.12-5.66-0.09-8.49-0.2-2.07-.08-4.25-0.38-4.37-3-0.1-2.37,1.78-3,3.73-3.13,2.22-.14,4.1-0.66,3.94-3.37-0.15-2.48,1-5.6-2.75-6.61-1.93-.52-3.61-1.39-3-3.75,0.58-2.2,2.59-2.31,4.46-2.38,2.16-.08,4.33-0.06,6.49-0.21,1-.07,2.08-0.44,2-1.72a1.69,1.69,0,0,0-2.13-1.58c-6.43,1.42-11.5-4-17.76-3.44-1.64.13-3.48-.49-3.43-2.75,0-2,1.41-3,3.24-3.16,2.15-.19,4.33-0.08,6.49-0.21,1.4-.09,3.51.29,3.41-1.85s-2.18-1.6-3.59-1.7a23.67,23.67,0,0,0-4.49,0c-5.84.73-8.92-4.71-13.81-6.11-0.9-.26-1.05-1.63-0.72-2.67,0.49-1.54,1.76-1.91,3.15-2,5-.15,10-0.35,15-0.37C41.89,20.45,54.06,20.49,66.23,20.48Z" transform="translate(-11.44 -11.11)"/><path d="M96,127.61c0.56-2.84-1.66-7.06.92-9.56,3.64-3.53,8.31-6,12.62-8.83a2.65,2.65,0,0,1,2.34,0q6.54,4.07,12.93,8.39a4,4,0,0,1,1.48,3.55c0,4.65.09,9.3,0,14-0.1,5.5-4.37,3.09-7,3.5s-5.14.14-5-3.59a20.29,20.29,0,0,0,0-3c-0.29-2.76,1.15-7-3.27-7.05-4.86-.06-3.16,4.42-3.56,7.28a6.08,6.08,0,0,0,0,1.49c0.43,4-1.45,4.87-5.25,5.08-5,.28-7.16-1-6.2-6.21A30.85,30.85,0,0,0,96,127.61Z" transform="translate(-11.44 -11.11)"/><path d="M83.34,16.73H33.88a40.43,40.43,0,0,1-4.48-.17,2.47,2.47,0,0,1-2.3-2.27,2.44,2.44,0,0,1,2.21-2.82,22.43,22.43,0,0,1,4.46-.33q49.21,0,98.42,0c1,0,2,0,3,.08,2.15,0.14,3.51,1.18,3.36,3.45-0.16,2.46-2.12,2.11-3.76,2.11l-45,0H83.34Z" transform="translate(-11.44 -11.11)"/></svg>