<?xml version="1.0" encoding="UTF-8" standalone="no"?>
<svg width="134px" height="123px" viewBox="0 0 134 123" version="1.1" xmlns="http://www.w3.org/2000/svg" xmlns:xlink="http://www.w3.org/1999/xlink">
    <!-- Generator: Sketch 3.7.2 (28276) - http://www.bohemiancoding.com/sketch -->
    <title>tsunami</title>
    <desc>Created with Sketch.</desc>
    <defs>
        <path d="M123.33,104.68 C123.208218,106.841619 123.208218,109.008381 123.33,111.17 C123.89,116.17 121.55,117.52 116.93,117.35 C110.22,117.1 110.12,117.08 109.93,110.29 C109.81,106.78 111.45,101.41 105.55,101.55 C100.33,101.68 101.48,106.71 101.39,110.19 C101.21,117.45 101.17,117.3 94,116.73 C74.12,115.15 56.68,107.81 41.06,95.53 C29.96,86.8 17.52,85.35 4.3,90.16 C2.07,90.97 -0.54,92.54 0.1,87.96 C2.63,69.86 6.83,52.18 16.14,36.31 C26.38,18.8 40.48,5.81 61.14,2.04 C82.01,-1.76 99.64,4.95 113.77,20.45 C117.42,24.45 122.42,27.02 124.88,32.35 C128.97,41.21 128.69,49.55 122.93,57.35 C117.46,64.72 109.71,67.26 100.84,65.35 C97.4921883,64.5050366 93.9541989,64.8588356 90.84,66.35 C84.7176418,69.3377568 77.5263764,69.1699979 71.55,65.9 C67.31,63.68 63.42,65.56 59.4,65.82 C57.64,65.93 57.46,67.87 57.4,69.41 C57,81.56 60.94,91.72 70.4,99.81 C74.3633088,103.341077 78.9662204,106.08042 83.96,107.88 C86.69,108.82 87.91,108.25 87.96,105.14 C88.05,90.86 88.89,92.2 98.96,85.14 C100.370742,84.2476017 101.70829,83.2444403 102.96,82.14 C105.1,80.26 107.06,80.4 109.14,82.26 C110.87,83.81 112.71,85.26 114.55,86.68 C125.14,94.97 123.08,91.18 123.33,104.68 L123.33,104.68 Z M80.74,61.91 C82.41,61.91 83.52,62.19 84.38,61.85 C86.48,61.02 90.45,61.99 88.44,57.02 C87.54,54.8 90.06,53.56 92.37,54.47 C93.85376,55.2147262 95.2491745,56.1237582 96.53,57.18 C101.727695,60.7915886 108.598448,60.8826182 113.89,57.41 C119.89,53.41 122.89,46.41 121.3,40.19 C119.53,33.11 114.22,28.12 107.64,27.35 C102.7,26.77 102.2,27.29 103.64,31.86 C104.13,33.4 104.5,34.86 102.86,35.86 C101.22,36.86 99.65,36.14 98.54,34.63 C97.85,33.69 97.29,32.63 96.59,31.73 C92.43,26.18 83.93,23.03 77.96,24.87 C76.22,25.41 73.96,25.76 76.13,28.41 C77.64,30.23 79.58,32.41 77.18,34.41 C74.18,36.93 73.01,33.34 71.18,31.96 C70.92,31.76 70.7,31.49 70.46,31.27 C65.1963056,26.5777749 57.5526327,25.6973518 51.36,29.07 C45.92,31.87 42.62,38.28 43.17,44.97 C43.7293447,51.6643036 48.4107429,57.2963612 54.89,59.07 C60.45,60.76 65.38,59.52 69.78,55.83 C71.07,54.75 72.45,53.68 74.28,54.36 C75.48,54.81 76.38,55.89 75.95,57.09 C73.7,63.37 78.74,61.33 80.74,61.91 L80.74,61.91 Z" id="path-1"></path>
        <mask id="mask-2" maskContentUnits="userSpaceOnUse" maskUnits="objectBoundingBox" x="-3" y="-3" width="133.644594" height="122.364749">
            <rect x="-2.99831004" y="-2.00084163" width="133.644594" height="122.364749" fill="white"></rect>
            <use xlink:href="#path-1" fill="black"></use>
        </mask>
    </defs>
    <g id="Page-1" stroke="none" stroke-width="1" fill="none" fill-rule="evenodd">
        <g id="Artboard-1" transform="translate(-659.000000, -30.000000)">
            <g id="tsunami" transform="translate(662.000000, 32.000000)">
                <g id="Layer_1">
                    <g id="Shape">
                        <use fill="#FF5722" fill-rule="evenodd" xlink:href="#path-1"></use>
                        <use stroke="#FFFFFF" mask="url(#mask-2)" stroke-width="6" xlink:href="#path-1"></use>
                    </g>
                </g>
            </g>
        </g>
    </g>
</svg>