<svg id="Layer_1" data-name="Layer 1" xmlns="http://www.w3.org/2000/svg" viewBox="0 0 127.65 116.36"><title>tsunami</title><path d="M134.5,120.5a57.69,57.69,0,0,0,0,6.49c0.56,5-1.78,6.35-6.4,6.18-6.71-.25-6.81-0.27-7-7.06-0.12-3.51,1.52-8.88-4.38-8.74-5.22.13-4.07,5.16-4.16,8.64-0.18,7.26-.22,7.11-7.39,6.54-19.88-1.58-37.32-8.92-52.94-21.2-11.1-8.73-23.54-10.18-36.76-5.37-2.23.81-4.84,2.38-4.2-2.2C13.8,85.68,18,68,27.31,52.13c10.24-17.51,24.34-30.5,45-34.27,20.87-3.8,38.5,2.91,52.63,18.41,3.65,4,8.65,6.57,11.11,11.9,4.09,8.86,3.81,17.2-1.95,25-5.47,7.37-13.22,9.91-22.09,8a14.78,14.78,0,0,0-10,1,21,21,0,0,1-19.29-.45c-4.24-2.22-8.13-.34-12.15-0.08-1.76.11-1.94,2.05-2,3.59-0.4,12.15,3.54,22.31,13,30.4a41.57,41.57,0,0,0,13.56,8.07c2.73,0.94,3.95.37,4-2.74,0.09-14.28.93-12.94,11-20a31.49,31.49,0,0,0,4-3c2.14-1.88,4.1-1.74,6.18.12,1.73,1.55,3.57,3,5.41,4.42C136.31,110.79,134.25,107,134.5,120.5ZM91.91,77.73c1.67,0,2.78.28,3.64-.06,2.1-.83,6.07.14,4.06-4.83-0.9-2.22,1.62-3.46,3.93-2.55A22.17,22.17,0,0,1,107.7,73a15.51,15.51,0,0,0,17.36.23c6-4,9-11,7.41-17.22-1.77-7.08-7.08-12.07-13.66-12.84-4.94-.58-5.44-0.06-4,4.51,0.49,1.54.86,3-.78,4s-3.21.28-4.32-1.23c-0.69-.94-1.25-2-1.95-2.9C103.6,42,95.1,38.85,89.13,40.69c-1.74.54-4,.89-1.83,3.54,1.51,1.82,3.45,4,1.05,6-3,2.52-4.17-1.07-6-2.45-0.26-.2-0.48-0.47-0.72-0.69a16.7,16.7,0,0,0-19.1-2.2c-5.44,2.8-8.74,9.21-8.19,15.9A16,16,0,0,0,66.06,74.89c5.56,1.69,10.49.45,14.89-3.24,1.29-1.08,2.67-2.15,4.5-1.47,1.2,0.45,2.1,1.53,1.67,2.73C84.87,79.19,89.91,77.15,91.91,77.73Z" transform="translate(-11.17 -16.82)"/></svg>