<?xml version="1.0" encoding="UTF-8" standalone="no"?>
<svg width="121px" height="134px" viewBox="0 0 121 134" version="1.1" xmlns="http://www.w3.org/2000/svg" xmlns:xlink="http://www.w3.org/1999/xlink">
    <!-- Generator: Sketch 3.7.2 (28276) - http://www.bohemiancoding.com/sketch -->
    <title>volcano</title>
    <desc>Created with Sketch.</desc>
    <defs>
        <path d="M57.8,127.88 L9.31,127.88 C6.16,127.88 2.72,128.3 0.78,125.03 C-1.16,121.76 1.07,118.96 2.72,116.32 C12.3866667,100.74 22.0866667,85.2 31.82,69.7 C35.08,64.5 46.72,61.01 51.95,63.54 C53.37,64.23 53.11,65.41 53.12,66.54 C53.12,70.21 53.06,73.87 53.2,77.54 C53.31,80.37 54.66,82.45 57.76,82.37 C60.86,82.29 61.56,80.11 61.7,77.54 C61.6396059,76.376091 61.6696963,75.2092492 61.79,74.05 C62.54,70.58 59.59,65.79 64.23,63.78 C70.34,61.14 79.48,63.9 82.63,68.86 C89.96,80.38 97.15,92 104.37,103.59 C107.28,108.26 110.23,112.9 112.99,117.65 C116.85,124.3 114.99,127.8 107.28,127.85 C90.79,127.95 74.3,127.87 57.8,127.88 L57.8,127.88 Z" id="path-1"></path>
        <mask id="mask-2" maskContentUnits="userSpaceOnUse" maskUnits="objectBoundingBox" x="-3" y="-3" width="120.911879" height="71.2036711">
            <rect x="-2.97322498" y="59.6972155" width="120.911879" height="71.2036711" fill="white"></rect>
            <use xlink:href="#path-1" fill="black"></use>
        </mask>
        <path d="M83.24,15.21 C82.54,17.36 83.35,19.96 80.62,20.42 C78.06,20.85 77.35,18.58 76.25,16.99 C69.6,7.44 59.97,3.62 50.93,7.14 C48.83,7.96 46.06,8.31 47.84,12.26 C49.19,15.26 46.73,16.8 42.96,15.2 C37.96,13.1 33.62,13.74 29.38,16.94 C26.5159186,19.0250489 24.6529122,22.2116219 24.2408572,25.7302299 C23.8288022,29.2488379 24.9051552,32.7796316 27.21,35.47 C32.21,41.4 40.21,42 45.89,37.07 C46.97,36.13 47.16,33.55 49.55,34.55 C51.94,35.55 52.55,37.55 52.64,39.84 C52.71,42.84 52.64,45.84 52.52,48.84 C52.47,50.51 51.64,51.78 49.87,51.95 C49.0144982,52.1329984 48.1236178,51.8852793 47.4853783,51.2869298 C46.8471388,50.6885803 46.5425183,49.8155173 46.67,48.95 C46.79,44.66 44.46,45.21 41.48,45.75 C30.13,47.75 20.6,41.54 18.55,31 C16.4,20 22.55,10.9 34.2,8.25 C36.9496762,7.63880095 39.5610792,6.51962822 41.9,4.95 C51.9,-1.75 63.9,-1.66 73.7,5.31 C75.9161192,6.75077208 78.4158115,7.69881363 81.03,8.09 C89.84,9.98 95.49,15.66 96.76,24.09 C98.01,32.29 95.12,38.82 88.2,43.46 C83.77,46.46 78.82,46.8 73.8,45.81 C70.99,45.26 68.85,44.81 68.8,48.81 C68.8,50.57 67.8,52.18 65.73,52.05 C63.44,51.91 62.82,50.05 62.73,48.12 C62.63,45.46 62.65,42.79 62.58,40.12 C62.58,38.43 62.37,36.68 64.16,35.72 C66.16,34.67 67.52,35.72 69.07,36.93 C77.96,43.93 89.43,39.61 90.94,28.66 C91.72,22.69 88.82,18.41 83.24,15.21 L83.24,15.21 Z" id="path-3"></path>
        <mask id="mask-4" maskContentUnits="userSpaceOnUse" maskUnits="objectBoundingBox" x="-3" y="-3" width="84.917429" height="58.0550084">
            <rect x="15.1260122" y="-2.99763881" width="84.917429" height="58.0550084" fill="white"></rect>
            <use xlink:href="#path-3" fill="black"></use>
        </mask>
        <path d="M85.67,50.49 C89.3910288,50.3538204 93.0820615,51.202413 96.37,52.95 C98.04,53.87 99.68,55.04 98.67,57.23 C97.84,59.03 96.08,59.12 94.36,58.48 C88.14,56.18 82.1,55.98 76.25,59.69 C75.6113319,60.1230966 74.8151453,60.2550789 74.0708915,60.0512264 C73.3266376,59.8473739 72.7088322,59.3280967 72.38,58.63 C71.38,57.06 72.11,55.74 73.38,54.69 C77.07,51.5 81.61,50.7 85.67,50.49 L85.67,50.49 Z" id="path-5"></path>
        <mask id="mask-6" maskContentUnits="userSpaceOnUse" maskUnits="objectBoundingBox" x="-3" y="-3" width="33.0676826" height="15.6691771">
            <rect x="68.9123425" y="47.4758478" width="33.0676826" height="15.6691771" fill="white"></rect>
            <use xlink:href="#path-5" fill="black"></use>
        </mask>
        <path d="M28.96,50.45 C33.27,50.71 37.46,51.58 41.15,54.05 C42.75,55.12 43.97,56.68 42.96,58.68 C41.86,60.83 39.91,60.46 38.24,59.44 C32.66,56.05 26.93,56.16 21.04,58.44 C19.4,59.06 17.6,59.44 16.74,57.44 C15.88,55.44 17.14,53.95 18.86,52.95 C21.9736758,51.3087898 25.4402631,50.4507237 28.96,50.45 L28.96,50.45 Z" id="path-7"></path>
        <mask id="mask-8" maskContentUnits="userSpaceOnUse" maskUnits="objectBoundingBox" x="-3" y="-3" width="32.8658052" height="15.8033042">
            <rect x="13.462524" y="47.45" width="32.8658052" height="15.8033042" fill="white"></rect>
            <use xlink:href="#path-7" fill="black"></use>
        </mask>
    </defs>
    <g id="Page-1" stroke="none" stroke-width="1" fill="none" fill-rule="evenodd">
        <g id="Artboard-1" transform="translate(-764.000000, -147.000000)">
            <g id="volcano" transform="translate(767.000000, 150.000000)">
                <g id="Layer_1">
                    <g id="Shape">
                        <use fill="#FF5722" fill-rule="evenodd" xlink:href="#path-1"></use>
                        <use stroke="#FFFFFF" mask="url(#mask-2)" stroke-width="6" xlink:href="#path-1"></use>
                    </g>
                    <g id="Shape">
                        <use fill="#FF5722" fill-rule="evenodd" xlink:href="#path-3"></use>
                        <use stroke="#FFFFFF" mask="url(#mask-4)" stroke-width="6" xlink:href="#path-3"></use>
                    </g>
                    <g id="Shape">
                        <use fill="#FF5722" fill-rule="evenodd" xlink:href="#path-5"></use>
                        <use stroke="#FFFFFF" mask="url(#mask-6)" stroke-width="6" xlink:href="#path-5"></use>
                    </g>
                    <g id="Shape">
                        <use fill="#FF5722" fill-rule="evenodd" xlink:href="#path-7"></use>
                        <use stroke="#FFFFFF" mask="url(#mask-8)" stroke-width="6" xlink:href="#path-7"></use>
                    </g>
                </g>
            </g>
        </g>
    </g>
</svg>