<svg id="Layer_1" data-name="Layer 1" xmlns="http://www.w3.org/2000/svg" viewBox="0 0 114.93 127.9"><title>volcano</title><path d="M75.33,138.93q-24.25,0-48.49,0c-3.15,0-6.59.42-8.53-2.85s0.29-6.07,1.94-8.71Q34.75,104,49.35,80.75c3.26-5.2,14.9-8.69,20.13-6.16,1.42,0.69,1.16,1.87,1.17,3,0,3.67-.06,7.33.08,11,0.11,2.83,1.46,4.91,4.56,4.83s3.8-2.26,3.94-4.83a22.51,22.51,0,0,1,.09-3.49c0.75-3.47-2.2-8.26,2.44-10.27,6.11-2.64,15.25.12,18.4,5.08,7.33,11.52,14.52,23.14,21.74,34.73,2.91,4.67,5.86,9.31,8.62,14.06,3.86,6.65,2,10.15-5.71,10.2C108.32,139,91.83,138.92,75.33,138.93Z" transform="translate(-17.53 -11.05)"/><path d="M100.77,26.26c-0.7,2.15.11,4.75-2.62,5.21-2.56.43-3.27-1.84-4.37-3.43-6.65-9.55-16.28-13.37-25.32-9.85-2.1.82-4.87,1.17-3.09,5.12,1.35,3-1.11,4.54-4.88,2.94-5-2.1-9.34-1.46-13.58,1.74a12.7,12.7,0,0,0-2.17,18.53c5,5.93,13,6.53,18.68,1.6,1.08-.94,1.27-3.52,3.66-2.52s3,3,3.09,5.29c0.07,3,0,6-.12,9C70,61.56,69.17,62.83,67.4,63a2.67,2.67,0,0,1-3.2-3c0.12-4.29-2.21-3.74-5.19-3.2-11.35,2-20.88-4.21-22.93-14.75-2.15-11,4-20.1,15.65-22.75A22.63,22.63,0,0,0,59.43,16c10-6.7,22-6.61,31.8.36a18.46,18.46,0,0,0,7.33,2.78c8.81,1.89,14.46,7.57,15.73,16,1.25,8.2-1.64,14.73-8.56,19.37-4.43,3-9.38,3.34-14.4,2.35-2.81-.55-4.95-1-5,3,0,1.76-1,3.37-3.07,3.24-2.29-.14-2.91-2-3-3.93-0.1-2.66-.08-5.33-0.15-8,0-1.69-.21-3.44,1.58-4.4,2-1.05,3.36,0,4.91,1.21,8.89,7,20.36,2.68,21.87-8.27C109.25,33.74,106.35,29.46,100.77,26.26Z" transform="translate(-17.53 -11.05)"/><path d="M103.2,61.54A21.15,21.15,0,0,1,113.9,64c1.67,0.92,3.31,2.09,2.3,4.28-0.83,1.8-2.59,1.89-4.31,1.25-6.22-2.3-12.26-2.5-18.11,1.21a2.64,2.64,0,0,1-3.87-1.06c-1-1.57-.27-2.89,1-3.94C94.6,62.55,99.14,61.75,103.2,61.54Z" transform="translate(-17.53 -11.05)"/><path d="M46.49,61.5c4.31,0.26,8.5,1.13,12.19,3.6,1.6,1.07,2.82,2.63,1.81,4.63-1.1,2.15-3.05,1.78-4.72.76-5.58-3.39-11.31-3.28-17.2-1-1.64.62-3.44,1-4.3-1S34.67,65,36.39,64A21.67,21.67,0,0,1,46.49,61.5Z" transform="translate(-17.53 -11.05)"/></svg>