<?xml version="1.0" encoding="UTF-8" standalone="no"?>
<svg width="121px" height="144px" viewBox="0 0 121 144" version="1.1" xmlns="http://www.w3.org/2000/svg" xmlns:xlink="http://www.w3.org/1999/xlink">
    <!-- Generator: Sketch 3.7.2 (28276) - http://www.bohemiancoding.com/sketch -->
    <title>wildfire</title>
    <desc>Created with Sketch.</desc>
    <defs>
        <path d="M96.4739803,64.9878182 C97.4739803,57.9878182 98.6239803,52.1478182 104.75398,47.6078182 C103.96398,56.3178182 105.95398,63.8578182 108.68398,71.2378182 C110.603505,76.0268521 112.226571,80.9294466 113.54398,85.9178182 C118.48398,106.867818 102.37398,125.107818 81.0939803,122.627818 C76.0239803,122.037818 73.4639803,119.747818 74.0939803,116.027818 C74.9139803,111.327818 78.3939803,111.207818 82.1539803,111.707818 C90.7639803,112.857818 98.3439803,108.877818 101.89398,101.417818 C105.17398,94.5078182 102.89398,86.1478182 96.6339803,80.2178182 C92.8439803,76.6578182 88.6339803,73.7978182 84.4339803,70.7478182 C76.1639803,64.6778182 72.4339803,56.8178182 74.7039803,46.4278182 C75.9639803,40.5778182 77.6439803,34.8178182 78.3339803,28.8178182 C79.1082878,23.524754 78.1950457,18.1222799 75.7239803,13.3778182 C75.2139803,12.3778182 73.9839803,11.3278182 75.2539803,10.3178182 C76.3039803,9.48781819 77.4539803,10.4878182 78.4539803,10.9978182 C86.5739803,15.1678182 90.8939803,21.9078182 91.3239803,30.9378182 C91.6697125,36.7578872 91.5024,42.5970945 90.8239803,48.3878182 C90.0739803,54.3278182 92.1339803,59.4578182 96.4739803,64.9878182 L96.4739803,64.9878182 Z" id="path-1"></path>
        <mask id="mask-2" maskContentUnits="userSpaceOnUse" maskUnits="objectBoundingBox" x="-3" y="-3" width="46.4409947" height="118.854463">
            <rect x="71" y="7" width="46.4409947" height="118.854463" fill="white"></rect>
            <use xlink:href="#path-1" fill="black"></use>
        </mask>
        <path d="M52.0636917,92.4318658 C52.0636917,84.8518658 51.9936917,78.2518658 52.0636917,71.6518658 C52.1336917,66.0818658 54.9536917,62.9118658 59.5036917,63.0018658 C64.7036917,63.1018658 67.3336917,65.9418658 67.5036917,71.7418658 C67.5836917,74.5718658 67.5736917,77.4018658 67.5036917,80.2318658 C67.5036917,82.6418658 68.5036917,83.2318658 70.5636917,82.0818658 C73.8244885,80.3813035 77.3966805,79.3606772 81.0636917,79.0818658 C84.7836917,78.6618658 87.8636917,79.7618658 88.3636917,83.9918658 C88.8436917,88.0718658 86.1436917,89.7618658 82.6036917,89.9918658 C79.0981906,90.2152256 75.7232256,91.4059825 72.8536917,93.4318658 C69.3436917,95.8018658 67.3136917,98.9018658 67.4336917,103.431866 C67.6436917,111.431866 67.5436917,119.431866 67.4936917,127.431866 C67.4936917,133.301866 64.3936917,137.111866 59.7936917,137.221866 C55.1936917,137.331866 52.1036917,133.621866 52.0036917,127.591866 L52.0036917,118.101866 C52.1303688,106.187315 43.080457,96.1753876 31.2136917,95.1018658 C30.2136917,94.9918658 29.2136917,95.0018658 28.2136917,94.8518658 C24.7936917,94.3218658 22.6636917,92.5718658 23.0436917,88.8518658 C23.4236917,85.1318658 25.8236917,83.6518658 29.2636917,83.8518658 C35.4446261,84.1273919 41.4607993,85.9312131 46.7736917,89.1018658 C48.3036917,90.0418658 49.7736917,91.0018658 52.0636917,92.4318658 L52.0636917,92.4318658 Z" id="path-3"></path>
        <mask id="mask-4" maskContentUnits="userSpaceOnUse" maskUnits="objectBoundingBox" x="-3" y="-3" width="71.4190817" height="80.2242459">
            <rect x="20" y="60" width="71.4190817" height="80.2242459" fill="white"></rect>
            <use xlink:href="#path-3" fill="black"></use>
        </mask>
        <path d="M31.9822143,122.763365 C17.1022143,122.763365 4.85221433,113.403365 1.09221433,99.193365 C-2.75781202,84.840307 3.81619192,69.7304671 16.9422143,62.763365 C19.2022143,61.543365 20.6122143,60.183365 20.6122143,57.443365 C20.6574142,53.0815333 21.8322745,48.8058685 24.0222143,45.033365 C28.7822143,36.613365 28.1022143,28.543365 23.6222143,20.353365 C22.9822143,19.183365 21.3222143,17.743365 22.7622143,16.353365 C23.8422143,15.353365 25.2222143,16.753365 26.4322143,17.143365 C30.9622143,18.623365 33.8822143,22.093365 36.4322143,25.843365 C37.8322143,27.953365 39.1922143,29.373365 41.9322143,29.273365 C44.0266674,29.1795269 45.9037241,30.557145 46.4422143,32.583365 C47.2982564,34.7034548 46.5152806,37.1323639 44.5822143,38.353365 C35.5822143,45.063365 30.7922143,53.883365 30.8322143,65.203365 C30.8322143,68.773365 28.1922143,69.753365 25.4422143,70.833365 C11.1122143,76.503365 6.58221433,90.623365 15.1322143,103.323365 C18.9122143,108.943365 28.1322143,113.693365 35.6522143,111.873365 C36.9422143,111.563365 38.2422143,111.223365 39.5522143,111.003365 C42.5522143,110.483365 44.9522143,111.363365 45.7222143,114.533365 C46.4922143,117.703365 45.4222143,120.083365 42.2922143,121.403365 C38.9722143,122.853365 35.4822143,122.803365 31.9822143,122.763365 L31.9822143,122.763365 Z" id="path-5"></path>
        <mask id="mask-6" maskContentUnits="userSpaceOnUse" maskUnits="objectBoundingBox" x="-3" y="-3" width="52.7868006" height="112.777214">
            <rect x="-3" y="13" width="52.7868006" height="112.777214" fill="white"></rect>
            <use xlink:href="#path-5" fill="black"></use>
        </mask>
        <path d="M47,52.5922785 C53.32,45.8422785 52.61,38.1522785 51.77,30.5422785 C51.35,26.7622785 50.18,23.0622785 49.54,19.2922785 C48.28,11.9522785 50.54,5.85227851 56.29,1.07227851 C57.03,0.452278505 57.91,-0.347721495 58.96,0.162278505 C60.01,0.672278505 59.64,1.58227851 59.39,2.36227851 C57.62,7.88227851 59.71,12.8222785 61.62,17.8022785 C63.05,21.5222785 64.62,25.2022785 65.78,29.0122785 C69.45,41.3822785 60.91,52.4922785 47,52.5922785 L47,52.5922785 Z" id="path-7"></path>
        <mask id="mask-8" maskContentUnits="userSpaceOnUse" maskUnits="objectBoundingBox" x="-3" y="-3" width="25.6321487" height="58.5922785">
            <rect x="44" y="-3" width="25.6321487" height="58.5922785" fill="white"></rect>
            <use xlink:href="#path-7" fill="black"></use>
        </mask>
        <path d="M17.0733385,44.5639753 C16.8799407,48.6069596 14.8787346,52.3486644 11.6233385,54.7539753 C10.3333385,55.6739753 8.25333847,56.3339753 8.74333847,53.7539753 C10.0933385,46.5639753 7.90333847,39.5739753 8.00333847,32.4839753 C7.9839956,29.4845792 8.89593485,26.5530963 10.6133385,24.0939753 C11.3733385,23.0139753 12.7033385,22.2539753 13.0133385,24.2039753 C14.0433385,30.7139753 17.0533385,36.8339753 17.0733385,44.5639753 L17.0733385,44.5639753 Z" id="path-9"></path>
        <mask id="mask-10" maskContentUnits="userSpaceOnUse" maskUnits="objectBoundingBox" x="-3" y="-3" width="15.0733385" height="38.5696158">
            <rect x="5" y="20" width="15.0733385" height="38.5696158" fill="white"></rect>
            <use xlink:href="#path-9" fill="black"></use>
        </mask>
    </defs>
    <g id="Page-1" stroke="none" stroke-width="1" fill="none" fill-rule="evenodd">
        <g id="Artboard-1" transform="translate(-452.000000, -9.000000)">
            <g id="wildfire" transform="translate(455.000000, 12.000000)">
                <g id="Layer_1">
                    <g id="Shape">
                        <use fill="#FF5722" fill-rule="evenodd" xlink:href="#path-1"></use>
                        <use stroke="#FFFFFF" mask="url(#mask-2)" stroke-width="6" xlink:href="#path-1"></use>
                    </g>
                    <g id="Shape">
                        <use fill="#FF5722" fill-rule="evenodd" xlink:href="#path-3"></use>
                        <use stroke="#FFFFFF" mask="url(#mask-4)" stroke-width="6" xlink:href="#path-3"></use>
                    </g>
                    <g id="Shape">
                        <use fill="#FF5722" fill-rule="evenodd" xlink:href="#path-5"></use>
                        <use stroke="#FFFFFF" mask="url(#mask-6)" stroke-width="6" xlink:href="#path-5"></use>
                    </g>
                    <g id="Shape">
                        <use fill="#FF5722" fill-rule="evenodd" xlink:href="#path-7"></use>
                        <use stroke="#FFFFFF" mask="url(#mask-8)" stroke-width="6" xlink:href="#path-7"></use>
                    </g>
                    <g id="Shape">
                        <use fill="#FF5722" fill-rule="evenodd" xlink:href="#path-9"></use>
                        <use stroke="#FFFFFF" mask="url(#mask-10)" stroke-width="6" xlink:href="#path-9"></use>
                    </g>
                </g>
            </g>
        </g>
    </g>
</svg>