<svg id="Layer_1" data-name="Layer 1" xmlns="http://www.w3.org/2000/svg" viewBox="0 0 114.95 137.81"><title>wildfilre</title><path d="M114.51,71.17c1-7,2.15-12.84,8.28-17.38-0.79,8.71,1.2,16.25,3.93,23.63a125.79,125.79,0,0,1,4.86,14.68c4.94,20.95-11.17,39.19-32.45,36.71-5.07-.59-7.63-2.88-7-6.6,0.82-4.7,4.3-4.82,8.06-4.32,8.61,1.15,16.19-2.83,19.74-10.29,3.28-6.91,1-15.27-5.26-21.2-3.79-3.56-8-6.42-12.2-9.47-8.27-6.07-12-13.93-9.73-24.32C94,46.76,95.68,41,96.37,35a25.45,25.45,0,0,0-2.61-15.44c-0.51-1-1.74-2.05-.47-3.06,1.05-.83,2.2.17,3.2,0.68,8.12,4.17,12.44,10.91,12.87,19.94a99.34,99.34,0,0,1-.5,17.45C108.11,60.51,110.17,65.64,114.51,71.17Z" transform="translate(-17.52 -6.09)"/><path d="M70,99.13c0-7.58-.07-14.18,0-20.78,0.07-5.57,2.89-8.74,7.44-8.65,5.2,0.1,7.83,2.94,8,8.74,0.08,2.83.07,5.66,0,8.49,0,2.41,1,3,3.06,1.85a27.16,27.16,0,0,1,10.5-3c3.72-.42,6.8.68,7.3,4.91,0.48,4.08-2.22,5.77-5.76,6a19,19,0,0,0-9.75,3.44c-3.51,2.37-5.54,5.47-5.42,10,0.21,8,.11,16,0.06,24,0,5.87-3.1,9.68-7.7,9.79s-7.69-3.6-7.79-9.63c0-3.16,0-6.33,0-9.49a22.85,22.85,0,0,0-20.79-23c-1-.11-2-0.1-3-0.25-3.42-.53-5.55-2.28-5.17-6s2.78-5.2,6.22-5a37.42,37.42,0,0,1,17.51,5.25C66.24,96.74,67.71,97.7,70,99.13Z" transform="translate(-17.52 -6.09)"/><path d="M49.5,128.91c-14.88,0-27.13-9.36-30.89-23.57A31.89,31.89,0,0,1,34.46,68.91c2.26-1.22,3.67-2.58,3.67-5.32a25.24,25.24,0,0,1,3.41-12.41c4.76-8.42,4.08-16.49-.4-24.68-0.64-1.17-2.3-2.61-.86-4,1.08-1,2.46.4,3.67,0.79,4.53,1.48,7.45,4.95,10,8.7,1.4,2.11,2.76,3.53,5.5,3.43a4.46,4.46,0,0,1,4.51,3.31A4.73,4.73,0,0,1,62.1,44.5c-9,6.71-13.79,15.53-13.75,26.85,0,3.57-2.64,4.55-5.39,5.63-14.33,5.67-18.86,19.79-10.31,32.49,3.78,5.62,13,10.37,20.52,8.55,1.29-.31,2.59-0.65,3.9-0.87,3-.52,5.4.36,6.17,3.53s-0.3,5.55-3.43,6.87C56.49,129,53,128.95,49.5,128.91Z" transform="translate(-17.52 -6.09)"/><path d="M64.81,58.68c6.32-6.75,5.61-14.44,4.77-22.05-0.42-3.78-1.59-7.48-2.23-11.25-1.26-7.34,1-13.44,6.75-18.22,0.74-.62,1.62-1.42,2.67-0.91s0.68,1.42.43,2.2c-1.77,5.52.32,10.46,2.23,15.44,1.43,3.72,3,7.4,4.16,11.21C87.26,47.47,78.72,58.58,64.81,58.68Z" transform="translate(-17.52 -6.09)"/><path d="M35.15,51.35A13.47,13.47,0,0,1,29.7,61.54c-1.29.92-3.37,1.58-2.88-1,1.35-7.19-.84-14.18-0.74-21.27a14.49,14.49,0,0,1,2.61-8.39c0.76-1.08,2.09-1.84,2.4.11C32.12,37.5,35.13,43.62,35.15,51.35Z" transform="translate(-17.52 -6.09)"/></svg>